<svg xmlns="http://www.w3.org/2000/svg" xmlns:xlink="http://www.w3.org/1999/xlink" viewBox="0 0 87.51 67.47"><defs><style>.cls-1{fill:url(#Degradado_sin_nombre_5);}.cls-2{fill:#e84e21;}.cls-3{fill:#f2e500;}</style><linearGradient id="Degradado_sin_nombre_5" x1="-2.05" y1="35.83" x2="85.4" y2="28.85" gradientUnits="userSpaceOnUse"><stop offset="0" stop-color="#f0e40b"/><stop offset="1" stop-color="#f49a20"/></linearGradient></defs><title>77</title><g id="Capa_2" data-name="Capa 2"><g id="MARCAS"><path class="cls-1" d="M33.86,3,.88,58.2a6.13,6.13,0,0,0,5.73,9.25l75.23-5.76A6.13,6.13,0,0,0,86,51.6L43.78,2.15A6.13,6.13,0,0,0,33.86,3Z"/><path d="M6.42,60l5.49-9.48a1.09,1.09,0,0,1,.93-.53h5a.28.28,0,0,1,.24.41L9.47,65.2a.48.48,0,0,1-.84,0L6.4,61.06A1.09,1.09,0,0,1,6.42,60Z"/><path d="M61.3,50H49.75a1.73,1.73,0,0,0-1.49.86l-1,1.73a.53.53,0,0,0,.45.79h4a1.74,1.74,0,0,0,1.5-.86l.48-.84a1.59,1.59,0,0,1,1.38-.8h.15a.34.34,0,0,1,.29.5L54.08,54a.73.73,0,0,1-.62.35H47.09a1.38,1.38,0,0,0-1.21.7l-2,3.46a.5.5,0,0,0,.43.75H55.78a1.6,1.6,0,0,0,1.37-.79l4.5-7.77A.41.41,0,0,0,61.3,50ZM53,55.85l-1,1.81a1.38,1.38,0,0,1-1.18.68h-.07a.45.45,0,0,1-.39-.68l1-1.73a1.52,1.52,0,0,1,1.3-.75h0A.45.45,0,0,1,53,55.85Z"/><path d="M63.94,58.83l4.18-7.22a1.37,1.37,0,0,1,1.19-.69h.14a.43.43,0,0,1,.37.65l-4,6.9a.5.5,0,0,0,.44.75h4.67a.5.5,0,0,0,.44-.25l4.74-8.17a.51.51,0,0,0-.44-.76H63.52a.52.52,0,0,0-.44.25l-4.73,8.18a.5.5,0,0,0,.43.75h4.48A.8.8,0,0,0,63.94,58.83Z"/><path d="M22.06,24.46h0a4.51,4.51,0,0,1-3.87,2.2H7.31a.85.85,0,0,1-.73-1.28L8,22.9a5.13,5.13,0,0,1,4.45-2.56h29a1,1,0,0,1,.87,1.51L30.93,41.48a4.6,4.6,0,0,1-4,2.3H16.64a.93.93,0,0,1-.81-1.38l10-17.78a1.16,1.16,0,0,0-1-1.73h0A3.22,3.22,0,0,0,22.06,24.46Z"/><path d="M57.88,24.42h0a4.59,4.59,0,0,1-3.94,2.24H43a.78.78,0,0,1-.67-1.17l1.53-2.63a5,5,0,0,1,4.37-2.52H77.36a.93.93,0,0,1,.81,1.4L66.45,42a3.65,3.65,0,0,1-3.16,1.82h-11a.85.85,0,0,1-.74-1.27l10.12-18a1.08,1.08,0,0,0-.94-1.61h-.17A3.11,3.11,0,0,0,57.88,24.42Z"/><path class="cls-2" d="M6.13,59.42l5.5-9.48a1.06,1.06,0,0,1,.92-.53h5a.27.27,0,0,1,.24.41L9.18,64.61a.48.48,0,0,1-.84,0L6.12,60.47A1.09,1.09,0,0,1,6.13,59.42Z"/><path d="M46.63,50H34.28a.37.37,0,0,0-.32.18l-6,10.4a.42.42,0,0,0,0,.38l2.54,4.32a.26.26,0,0,0,.46,0l3.43-5.92a.38.38,0,0,1,.32-.18h6.5a1.51,1.51,0,0,0,1.3-.75L47,50.66A.42.42,0,0,0,46.63,50ZM40.71,51.6l-3.42,5.9a1.68,1.68,0,0,1-1.44.83h-.1a.44.44,0,0,1-.38-.67l3.39-5.87a1.79,1.79,0,0,1,1.56-.88A.46.46,0,0,1,40.71,51.6Z"/><path d="M32.17,50H20.44a1.74,1.74,0,0,0-1.5.86l-1,1.73a.53.53,0,0,0,.45.79h3.85a2.08,2.08,0,0,0,1.79-1l.38-.67a1.6,1.6,0,0,1,1.39-.8h.14a.33.33,0,0,1,.29.5L24.76,54a.73.73,0,0,1-.61.35H17.78a1.38,1.38,0,0,0-1.21.7l-2.08,3.57a.43.43,0,0,0,.37.64H26.78a1,1,0,0,0,.89-.51l4.76-8.22A.3.3,0,0,0,32.17,50Zm-8.51,5.81-1.05,1.81a1.36,1.36,0,0,1-1.18.68h-.07a.45.45,0,0,1-.39-.68l1-1.73a1.52,1.52,0,0,1,1.31-.75h0A.45.45,0,0,1,23.66,55.85Z"/><path class="cls-2" d="M21.56,23.58l-.49.82a2.91,2.91,0,0,1-2.49,1.42H6.66A.78.78,0,0,1,6,24.65L7.51,22a5.05,5.05,0,0,1,4.38-2.52H40.46a1.26,1.26,0,0,1,1.1,1.9L30.12,41.14A3.6,3.6,0,0,1,27,42.93H16a.85.85,0,0,1-.74-1.26l10.11-18a1.08,1.08,0,0,0-.94-1.61h-.17A3.13,3.13,0,0,0,21.56,23.58Z"/><path class="cls-2" d="M57.3,23.58l-.49.82a2.92,2.92,0,0,1-2.5,1.42H42.4a.78.78,0,0,1-.68-1.17L43.25,22a5.05,5.05,0,0,1,4.38-2.52h28.6a1.24,1.24,0,0,1,1.08,1.87l-11.6,20A3.08,3.08,0,0,1,63,42.93H51.73A.85.85,0,0,1,51,41.67l10.12-18a1.08,1.08,0,0,0-.94-1.61H60A3.11,3.11,0,0,0,57.3,23.58Z"/><path d="M13.46,48.18l1.18-2.82H13.35l.2-.5h3.22l-.2.5h-1.3l-1.19,2.82Z"/><path d="M17.08,44.86h.56l-.34.8H18c.49,0,.82.18.72.64a1.41,1.41,0,0,1-.06.22L18,48.18h-.56l.63-1.51a.91.91,0,0,0,.08-.23c.05-.24-.06-.35-.36-.35h-.65l-.88,2.09h-.55Z"/><path d="M19.35,48.18c-.59,0-.74-.28-.65-.74a3.45,3.45,0,0,1,.19-.57c.42-1,.84-1.23,1.7-1.23.61,0,1,.17.92.75a2.33,2.33,0,0,1-.09.29.6.6,0,0,1-.58.43H19.38a1.25,1.25,0,0,0-.1.29c0,.21,0,.35.37.35h1.22l-.17.43Zm1.36-1.5a.18.18,0,0,0,.18-.15.56.56,0,0,0,0-.12c.05-.26-.18-.35-.48-.35a.85.85,0,0,0-.89.62Z"/><path d="M25,45.36c-.8,0-1.16.26-1.54,1.16a2.76,2.76,0,0,0-.18.53c-.1.48.13.63.75.63h.5c.19,0,.26,0,.34-.24l.37-.89h.63l-.47,1.13a.71.71,0,0,1-.7.5H23.6c-.87,0-1.07-.45-.94-1.09a3.68,3.68,0,0,1,.2-.62A2.07,2.07,0,0,1,25,44.86h1.58l-.21.5Z"/><path d="M28.92,46.51a2.8,2.8,0,0,1-.14.45A1.63,1.63,0,0,1,27,48.21c-.74,0-1.11-.23-1-.88a3,3,0,0,1,.15-.46,1.62,1.62,0,0,1,1.81-1.23C28.69,45.64,29.05,45.86,28.92,46.51Zm-2.35.77c-.08.35.08.5.52.5s.87-.25,1.13-.86a3,3,0,0,0,.12-.36c.07-.35-.09-.5-.53-.5s-.86.24-1.12.86A1.88,1.88,0,0,0,26.57,47.28Z"/><path d="M30,44.86h.55l-1.39,3.32h-.55Z"/><path d="M32.05,47.75a.57.57,0,0,1-.6.43h-.83c-.63,0-.79-.33-.69-.84a4.16,4.16,0,0,1,.15-.47c.33-.81.69-1.21,1.55-1.21h.75l.33-.8h.56Zm-.46-1.66c-.54,0-.74.35-.94.83a1.66,1.66,0,0,0-.14.41c-.06.26,0,.42.38.42h.47a.21.21,0,0,0,.2-.14l.64-1.52Z"/><path d="M34.47,45.66H35L34,48.18h-.55Zm.14-.33.21-.51h.56l-.22.51Z"/><path d="M35.28,46.09a.6.6,0,0,1,.61-.43h.83c.5,0,.83.19.73.64a.71.71,0,0,1-.06.22l-.7,1.66h-.55l.63-1.51a.74.74,0,0,0,.07-.21c0-.25-.05-.37-.35-.37H36a.21.21,0,0,0-.2.14l-.82,2h-.55Z"/><path d="M38.35,47.75h1.41a.32.32,0,0,0,.33-.18.54.54,0,0,0,0-.1c0-.15-.2-.23-.41-.3L39.33,47c-.38-.13-.52-.33-.46-.6a1.49,1.49,0,0,1,0-.18c.17-.46.45-.6,1-.6h1.42l-.18.43H39.82a.3.3,0,0,0-.34.21l0,.08c0,.16.15.22.27.26l.43.15c.35.12.63.25.56.62a1.09,1.09,0,0,1-.05.17.81.81,0,0,1-.88.6H38.17Z"/><path d="M43.24,47.75a.58.58,0,0,1-.61.43h-.87c-.49,0-.82-.18-.72-.64a.9.9,0,0,1,.06-.22l.69-1.66h.56l-.64,1.51a1,1,0,0,0-.06.22c0,.24.05.36.35.36h.54a.22.22,0,0,0,.21-.14l.81-2h.56Z"/><path d="M43.61,47.75H45a.31.31,0,0,0,.32-.18.22.22,0,0,0,0-.1c0-.15-.2-.23-.4-.3L44.6,47c-.38-.13-.53-.33-.47-.6a1.67,1.67,0,0,1,0-.18c.16-.46.44-.6,1-.6H46.6l-.18.43H45.09c-.19,0-.28,0-.35.21a.31.31,0,0,0,0,.08c0,.16.15.22.26.26l.43.15c.35.12.64.25.56.62a.55.55,0,0,1,0,.17.81.81,0,0,1-.88.6h-1.6Z"/><path d="M48.31,45.66c.62,0,.8.33.69.83a2.53,2.53,0,0,1-.15.47c-.33.81-.7,1.22-1.55,1.22h-.75l-.34.8h-.55l1.21-2.89a.6.6,0,0,1,.61-.43Zm-1.58,2.09h.62c.53,0,.74-.36.94-.83a4,4,0,0,0,.14-.41c0-.26,0-.42-.39-.42h-.47a.21.21,0,0,0-.2.12Z"/><path d="M49.65,48.18c-.59,0-.75-.28-.65-.74a2.71,2.71,0,0,1,.19-.57c.42-1,.84-1.23,1.69-1.23.62,0,1,.17.92.75a1.28,1.28,0,0,1-.08.29.61.61,0,0,1-.59.43H49.67a1.9,1.9,0,0,0-.09.29c0,.21,0,.35.36.35h1.23l-.18.43ZM51,46.68a.2.2,0,0,0,.19-.15.53.53,0,0,0,0-.12c.06-.26-.17-.35-.47-.35a.86.86,0,0,0-.9.62Z"/><path d="M52.29,46.09a.59.59,0,0,1,.61-.43h.83c.5,0,.83.19.73.64a1.16,1.16,0,0,1-.06.22l-.7,1.66h-.55l.63-1.51a.74.74,0,0,0,.07-.21c0-.25-.06-.37-.35-.37H53a.22.22,0,0,0-.21.14l-.81,2h-.55Z"/><path d="M54.25,47.75h1.42a.31.31,0,0,0,.32-.18.22.22,0,0,0,0-.1c0-.15-.2-.23-.4-.3L55.24,47c-.39-.13-.52-.33-.47-.6a1.67,1.67,0,0,1,0-.18c.16-.46.44-.6,1-.6h1.41l-.17.43H55.72a.3.3,0,0,0-.34.21.31.31,0,0,0,0,.08c0,.16.15.22.26.26l.43.15c.35.12.64.25.56.62a.55.55,0,0,1,0,.17.81.81,0,0,1-.88.6h-1.6Z"/><path d="M57.7,45.66h.55l-1,2.52h-.56Zm.13-.33.21-.51h.56l-.22.51Z"/><path d="M60.88,46.51a2.06,2.06,0,0,1-.14.45,1.63,1.63,0,0,1-1.82,1.25c-.74,0-1.11-.23-1-.88a3,3,0,0,1,.15-.46,1.63,1.63,0,0,1,1.81-1.23C60.65,45.64,61,45.86,60.88,46.51Zm-2.35.77c-.07.35.08.5.52.5s.87-.25,1.13-.86a3,3,0,0,0,.12-.36c.07-.35-.09-.5-.53-.5s-.86.24-1.12.86A1.88,1.88,0,0,0,58.53,47.28Z"/><path d="M61.47,46.09a.58.58,0,0,1,.6-.43h.84c.49,0,.82.19.73.64a1.14,1.14,0,0,1-.07.22l-.69,1.66h-.56L63,46.67a1.45,1.45,0,0,0,.08-.21c0-.25-.06-.37-.36-.37h-.51a.21.21,0,0,0-.2.14l-.81,2h-.56Z"/><path d="M66.72,45.66c.63,0,.8.33.7.83a3.6,3.6,0,0,1-.15.47c-.33.81-.7,1.22-1.55,1.22H65l-.34.8h-.55l1.21-2.89a.58.58,0,0,1,.6-.43Zm-1.57,2.09h.61c.54,0,.74-.36.94-.83a1.81,1.81,0,0,0,.14-.41c.06-.26,0-.42-.39-.42H66a.19.19,0,0,0-.2.12Z"/><path d="M69.71,45.66a.42.42,0,0,1,.46.56.64.64,0,0,1-.06.18l-.57,1.35a.58.58,0,0,1-.6.43H67.72c-.34,0-.48-.21-.41-.56a1.62,1.62,0,0,1,.08-.27c.2-.48.46-.74.94-.74h1.14l.07-.16a.76.76,0,0,0,0-.11c0-.16,0-.25-.24-.25H68.11l.18-.43ZM68.36,47c-.19,0-.3.09-.41.34a.58.58,0,0,0,0,.16c0,.14,0,.21.17.21h.78a.21.21,0,0,0,.2-.14l.24-.57Z"/><path d="M70.46,46.61a1.31,1.31,0,0,1,1.41-1h.38l-.18.43h-.23a.9.9,0,0,0-.89.67l-.59,1.42H69.8Z"/><path d="M72.7,48.18c-.49,0-.78-.19-.69-.61a.74.74,0,0,1,.07-.21l.53-1.27h-.35l.18-.43h.35l.33-.8h.56l-.34.8h.72l-.18.43h-.72l-.48,1.15a.94.94,0,0,0-.06.18c-.05.25.11.33.42.33h.14l-.18.43Z"/><path d="M73.43,47.75h1.41a.31.31,0,0,0,.32-.18.69.69,0,0,0,0-.1c0-.15-.21-.23-.41-.3L74.41,47c-.38-.13-.52-.33-.47-.6,0,0,0-.12,0-.18.17-.46.45-.6,1-.6h1.42l-.18.43H74.9a.3.3,0,0,0-.34.21.41.41,0,0,0,0,.08c0,.16.15.22.26.26l.43.15c.35.12.64.25.56.62a.55.55,0,0,1,0,.17.81.81,0,0,1-.87.6H73.25Z"/><path class="cls-3" d="M28.66,41.08a.49.49,0,0,1-.62.28l-.16-.08-2.37-1.36c-.39-.23-.42-.45-.23-.79L26,37.86a1.4,1.4,0,0,1,1.84-.71,3.43,3.43,0,0,1,.68.3c.88.49,1.56,1.1.94,2.22ZM26,39c-.11.19-.08.27.11.39L28,40.5l.12.06c.11,0,.18,0,.26-.16l.4-.71c.43-.78,0-1.2-.68-1.59a3.14,3.14,0,0,0-.56-.27.86.86,0,0,0-1.13.49Z"/><path class="cls-3" d="M30.16,34.34a2.57,2.57,0,0,1,.49.22c1.08.61,1,1.14.53,2.07-.43.76-.92,1.1-1.67.86a2.57,2.57,0,0,1-.49-.22c-1.07-.6-1-1.13-.52-2.06C28.93,34.44,29.43,34.1,30.16,34.34Zm-.37,2.55c.4.13.67,0,.92-.46s.19-.94-.44-1.3a2.52,2.52,0,0,0-.38-.18c-.4-.13-.67,0-.93.47s-.19.92.44,1.28A2.3,2.3,0,0,0,29.79,36.89Z"/><path class="cls-3" d="M33,32.26c.3.17.38.35.19.69l-.5.9c-.28.51-.69.82-1.21.65l-.25-.11-1.68-1,.31-.57,1.54.89a.89.89,0,0,0,.23.1.5.5,0,0,0,.66-.3l.31-.56a.14.14,0,0,0-.06-.23l-2-1.15.31-.57Z"/><path class="cls-3" d="M33.92,31.62a.46.46,0,0,1-.56.25.67.67,0,0,1-.12-.06l-3-1.7.32-.57.82.47.4-.72a1.12,1.12,0,0,1,1.45-.59,4.38,4.38,0,0,1,.5.23c.83.47,1.13.91.64,1.79Zm-.5-.47s0,0,0,0a.14.14,0,0,0,.17-.09l.27-.48c.31-.55,0-.82-.51-1.1A2.4,2.4,0,0,0,33,29.3a.56.56,0,0,0-.75.33l-.35.63Z"/><path class="cls-3" d="M31.85,27.32l.31-.58,3.39,2-.32.57Z"/><path class="cls-3" d="M36.33,27.28a1,1,0,0,1-1.3.55,3.57,3.57,0,0,1-.61-.28c-1-.59-1.07-1.06-.58-1.94.35-.63.82-1,1.47-.83a1.73,1.73,0,0,1,.32.14.42.42,0,0,1,.2.66L35,27.09a1.66,1.66,0,0,0,.31.14c.25.08.46,0,.66-.32l.7-1.26.43.25Zm-1.11-1.63c.07-.11,0-.18-.08-.21L35,25.38c-.29-.09-.54.13-.71.43-.27.49-.17.78.26,1Z"/><path class="cls-3" d="M62.56,41.49l1.1-1.89c.18-.31,0-.44-.12-.5a.61.61,0,0,0-.17-.07c-.12,0-.26,0-.47.18l-1.19,1.07a1.06,1.06,0,0,1-1.05.23,2.33,2.33,0,0,1-.32-.1c-.52-.24-.7-.58-.33-1.22l1.15-2,.53.28-1,1.79c-.12.21-.12.33.11.45l.19.08a.46.46,0,0,0,.42-.15l1.11-1a1.17,1.17,0,0,1,1.17-.35,1.9,1.9,0,0,1,.28.1c.54.24.75.61.41,1.19l-1.25,2.14Z"/><path class="cls-3" d="M65.57,37.52a1.07,1.07,0,0,1-1.36.57,3.84,3.84,0,0,1-.63-.26c-1-.55-1.1-1-.59-1.89.37-.64.86-1,1.53-.86a1.51,1.51,0,0,1,.33.13c.31.16.38.36.21.65l-.88,1.5a2,2,0,0,0,.33.13c.25.07.47,0,.68-.33l.74-1.26.45.24Zm-1.14-1.58c.06-.11,0-.17-.08-.21l-.14,0c-.31-.09-.56.14-.74.44-.28.49-.19.77.26,1Z"/><path class="cls-3" d="M66.56,34.3s.12,0,.14,0,0-.09-.06-.13L65.1,32.4l.36-.6L67.34,34c.18.22.07.39,0,.54a.43.43,0,0,1-.47.27l-3-.3.35-.58Z"/><path class="cls-3" d="M68.76,32.07a1.07,1.07,0,0,1-1.36.57,3.84,3.84,0,0,1-.63-.26c-1-.55-1.1-1-.59-1.89.37-.64.86-1,1.54-.86a2,2,0,0,1,.33.13c.3.15.38.36.2.65l-.87,1.5a1.66,1.66,0,0,0,.32.13.54.54,0,0,0,.68-.33l.74-1.26.45.24Zm-1.14-1.58a.14.14,0,0,0-.08-.21l-.13-.05c-.31-.09-.57.14-.75.44-.28.49-.18.77.27,1Z"/><path class="cls-3" d="M67.63,29.1c-.3-.16-.4-.34-.2-.68l.5-.85a1.12,1.12,0,0,1,1.28-.68,1.45,1.45,0,0,1,.25.1l1.74.92-.34.57-1.58-.84a1.12,1.12,0,0,0-.24-.1.56.56,0,0,0-.69.32l-.3.52a.14.14,0,0,0,.06.23l2,1.07-.34.57Z"/><path class="cls-2" d="M31.8,49.41H20.07a1.71,1.71,0,0,0-1.49.86l-1,1.73a.52.52,0,0,0,.45.78h3.85a2.06,2.06,0,0,0,1.79-1l.39-.67a1.59,1.59,0,0,1,1.38-.79h.14a.33.33,0,0,1,.29.5l-1.47,2.53a.71.71,0,0,1-.61.35H17.41a1.4,1.4,0,0,0-1.21.7L14.12,58a.43.43,0,0,0,.37.64H26.41a1,1,0,0,0,.89-.51l4.76-8.22A.3.3,0,0,0,31.8,49.41Zm-8.51,5.81L22.24,57a1.36,1.36,0,0,1-1.18.68H21A.45.45,0,0,1,20.6,57l1-1.73a1.5,1.5,0,0,1,1.31-.75h0A.44.44,0,0,1,23.29,55.22Z"/><path class="cls-2" d="M46.15,49.41H33.8a.37.37,0,0,0-.33.19L27.45,60a.37.37,0,0,0,0,.38L30,64.69a.26.26,0,0,0,.46,0l3.43-5.91a.36.36,0,0,1,.32-.19h6.49A1.52,1.52,0,0,0,42,57.84L46.51,50A.42.42,0,0,0,46.15,49.41ZM40.22,51l-3.42,5.9a1.67,1.67,0,0,1-1.44.83h-.09a.45.45,0,0,1-.39-.67l3.4-5.86a1.76,1.76,0,0,1,1.56-.89A.46.46,0,0,1,40.22,51Z"/><path class="cls-2" d="M60.65,49.41H49.1a1.73,1.73,0,0,0-1.49.86l-1,1.73a.52.52,0,0,0,.45.78h4a1.74,1.74,0,0,0,1.5-.86l.48-.84a1.6,1.6,0,0,1,1.38-.79h.15a.34.34,0,0,1,.29.5l-1.47,2.53a.71.71,0,0,1-.62.35H46.44a1.4,1.4,0,0,0-1.21.7l-2,3.46a.5.5,0,0,0,.43.76H55.13a1.6,1.6,0,0,0,1.37-.79L61,50A.41.41,0,0,0,60.65,49.41Zm-8.32,5.81-1,1.81a1.38,1.38,0,0,1-1.18.68H50a.45.45,0,0,1-.39-.68l1-1.73a1.5,1.5,0,0,1,1.3-.75h0A.45.45,0,0,1,52.33,55.22Z"/><path class="cls-2" d="M63.31,58.2,67.5,51a1.39,1.39,0,0,1,1.19-.68h.14a.43.43,0,0,1,.37.64l-4,6.9a.51.51,0,0,0,.44.76h4.67a.52.52,0,0,0,.44-.25l4.73-8.17a.5.5,0,0,0-.43-.76H62.9a.5.5,0,0,0-.44.25l-4.74,8.17a.51.51,0,0,0,.44.76h4.47A.79.79,0,0,0,63.31,58.2Z"/></g></g></svg>