<svg xmlns="http://www.w3.org/2000/svg" viewBox="0 0 412.94 113.27"><g id="Capa_2" data-name="Capa 2"><g id="Capa_1-2" data-name="Capa 1"><path d="M403.88,18.12a9.06,9.06,0,1,1,9.06-9.06A9.07,9.07,0,0,1,403.88,18.12Zm0-17.12a8.06,8.06,0,1,0,8.06,8.06A8.07,8.07,0,0,0,403.88,1Z"/><path d="M406.16,14.07l-2.05-2.94-.39,0h-2.26v2.92H399.6v-10h4.12a5.47,5.47,0,0,1,2.27.43,3.17,3.17,0,0,1,1.48,1.23,3.38,3.38,0,0,1,.52,1.9,3.44,3.44,0,0,1-.55,2,3.37,3.37,0,0,1-1.58,1.22l2.3,3.29Zm-.68-7.93a2.8,2.8,0,0,0-1.84-.52h-2.18v4h2.18a2.8,2.8,0,0,0,1.84-.53,1.8,1.8,0,0,0,.63-1.48A1.78,1.78,0,0,0,405.48,6.14Z"/><path d="M44.79,0C64.65,0,73.84,5.54,73.84,17.7c0,.27,0,2.56-.27,7.16L71.94,59.44c0,1.22-.13,5-.13,11.35H42.49C43.3,61.6,44,52.42,44.38,43.23c-9.45.68-14.59,3.92-14.59,8,0,3,1.9,4.73,5.41,4.73a26.93,26.93,0,0,0,4-.4l-4.59,15.8a63.16,63.16,0,0,1-10.81,1.08C9.12,72.41.75,64.71.75,52c0-11.89,7-19,21.48-22.83C36,25.53,42.49,26.34,42.49,21.75c0-2.16-1.75-3.51-4.73-3.51-3.78,0-13.24,1.48-26.88,6.48L13.72,4.46A112.94,112.94,0,0,1,44.79,0Z"/><path d="M84.38,2l31.74-.14.55,6C121,3.11,125.45.68,130.58.68a18.17,18.17,0,0,1,5.81.94L138,28.78a61.7,61.7,0,0,0-8.38-.81c-11.88,0-14.72,10.94-14.72,34,0,2.7,0,5.67.13,8.78H81.13A636.76,636.76,0,0,0,84.38,2Z"/><path d="M179.49,72.68c-26.21,0-39.59-11.48-39.59-33.37,0-24.85,14.59-39.17,42-39.17,22.43,0,33.5,9.32,33.5,28.64a101.68,101.68,0,0,1-1.21,12.29h-42v.54c0,5.81,3.92,9,11.49,9a83.3,83.3,0,0,0,26.07-4.73L206,69.44A113.63,113.63,0,0,1,179.49,72.68Zm10.27-44.44v-.95c0-6.76-2.84-10.27-8.52-10.27-5.26,0-9.59,4.19-10.4,11.22Z"/><path d="M261.76.14c25.54,0,39.86,12.69,39.86,34.58,0,23.91-16.08,38-42.56,38-25.8,0-40.12-12.7-40.12-34.85C218.94,14.73,234.75.14,261.76.14ZM250.55,37.29c0,8.1,3.11,12,9.46,12,6.89,0,10.13-4.59,10.13-13.78,0-8.11-3-11.89-9.46-11.89C253.93,23.64,250.55,28.1,250.55,37.29Z"/><path d="M309.73,2h32.69V9.19c7-6.89,13.92-9,24.05-9,17.43,0,24.45,7.43,24.45,23.1,0,9.05-1.62,24.85-2,47.55H356.07c.94-12.16,1.62-23.24,1.62-33.37,0-7.29-1.76-10.81-6.35-10.81-10,0-10.54,14.59-10.95,44.18H306.48A635.18,635.18,0,0,0,309.73,2Z"/><path d="M20.45,104.3a13.87,13.87,0,0,0,.37-3.21,19.17,19.17,0,0,0-.52-4.16,9,9,0,0,0-3.57-5.51,10.26,10.26,0,0,0-6.11-1.94A10.63,10.63,0,0,0,6,90.56a10.3,10.3,0,0,0-3.84,3.19,10.69,10.69,0,0,0-2,5c-.12,1.3-.17,2.08-.17,2.38a11.69,11.69,0,0,0,1.54,6.15,9.8,9.8,0,0,0,4,3.77,11.34,11.34,0,0,0,5.08,1.22,10,10,0,0,0,5-1.26L19,113.27l1.82-2-2.94-2.16a8.73,8.73,0,0,0,1.47-1.88A11.08,11.08,0,0,0,20.45,104.3Zm-9.69,3.15,2.34,1.6a6.92,6.92,0,0,1-6.47-.35,7.25,7.25,0,0,1-2.71-2.83,8.77,8.77,0,0,1-1-4.35,16.21,16.21,0,0,1,1-5,5.84,5.84,0,0,1,2.6-3.07,8,8,0,0,1,4.1-1.11,7.18,7.18,0,0,1,2.56.45A4.92,4.92,0,0,1,15.1,94a8.68,8.68,0,0,1,1.84,3.2,12.69,12.69,0,0,1,.64,3.94,10.69,10.69,0,0,1-.66,3.78,6.55,6.55,0,0,1-1.49,2.41l-2.84-2Z"/><path d="M46.75,103.74a5.88,5.88,0,0,1-.5,2.46A5.39,5.39,0,0,1,44.92,108a5.92,5.92,0,0,1-1.9,1.12,6.07,6.07,0,0,1-4.79-.26,4.94,4.94,0,0,1-2-1.9,5.76,5.76,0,0,1-.77-3V90.12h-3v14.35a8.07,8.07,0,0,0,1.09,4.21,7.45,7.45,0,0,0,2.95,2.81,8.63,8.63,0,0,0,4.08,1,12.08,12.08,0,0,0,4-.62,8.39,8.39,0,0,0,2.94-1.75,7.27,7.27,0,0,0,1.73-2.5,7.77,7.77,0,0,0,.56-2.94V90.12h-3Z"/><path d="M69.61,90.12,60.9,111.8h3.41l2.49-6.42h8.76l2.56,6.42h3.4L72.81,90.12Zm4.89,12.46H67.88l3.23-8.42Z"/><polygon points="96.52 90.34 93.44 90.34 93.44 111.8 107.87 111.8 107.87 108.84 96.52 108.84 96.52 90.34"/><rect x="119.81" y="90.34" width="3.28" height="21.46"/><polygon points="135.2 93.08 141.84 93.08 141.84 111.8 144.96 111.8 144.96 93.08 151.9 93.08 151.9 90.12 135.2 90.12 135.2 93.08"/><polygon points="172.82 99.48 166.86 90.12 163.16 90.12 171.42 102.53 171.42 111.8 174.5 111.8 174.5 102.53 182.52 90.12 178.78 90.12 172.82 99.48"/><path d="M219.14,91.48a7.36,7.36,0,0,0-2.29-1,10.6,10.6,0,0,0-2.69-.33h-8.57V111.8h3.28v-9.14h4.84c6.32,0,7.65-3.4,7.65-6.25V95.9a5.37,5.37,0,0,0-.6-2.6A5.07,5.07,0,0,0,219.14,91.48Zm-2.33,7.92a7.19,7.19,0,0,1-3.1.52h-4.84V92.86h3.7a9.28,9.28,0,0,1,4.36.82,2.73,2.73,0,0,1,1.38,2.66,5.42,5.42,0,0,1-.29,1.88A2.39,2.39,0,0,1,216.81,99.4Z"/><polygon points="236.02 102.02 246.89 102.02 246.89 99.25 236.02 99.25 236.02 93.08 248.07 93.08 248.07 90.12 232.97 90.12 232.97 111.8 248.26 111.8 248.26 108.84 236.02 108.84 236.02 102.02"/><path d="M276.39,98.32a5.83,5.83,0,0,0,.46-2.24,5.71,5.71,0,0,0-.46-2.23A5.43,5.43,0,0,0,275,91.92a7.16,7.16,0,0,0-2.42-1.32,11,11,0,0,0-3.36-.48h-9V111.8h3.09v-9.38h5.93a4,4,0,0,1,2.5.63,2.57,2.57,0,0,1,1,1.56,13.52,13.52,0,0,1,.22,2.7,22.91,22.91,0,0,0,.11,2.47,4,4,0,0,0,.64,1.8l.15.22h3.08v-1.12l-.17-.15c-.1-.09-.36-.43-.46-1.58-.08-1-.17-2-.25-3.24a9.79,9.79,0,0,0-.73-3.21,3.3,3.3,0,0,0-1.23-1.45,6,6,0,0,0,1.06-.81A6.1,6.1,0,0,0,276.39,98.32Zm-13.15-5.46H268a11.69,11.69,0,0,1,4.23.61,2.31,2.31,0,0,1,1.28,2.43,3.76,3.76,0,0,1-1,2.78,3.82,3.82,0,0,1-2.86,1h-6.4Z"/><polygon points="288.56 111.8 291.64 111.8 291.64 102.02 302.31 102.02 302.31 99.25 291.64 99.25 291.64 93.08 303.24 93.08 303.24 90.12 288.56 90.12 288.56 111.8"/><path d="M329.16,103.74a5.87,5.87,0,0,1-.49,2.46,5.45,5.45,0,0,1-1.34,1.82,5.71,5.71,0,0,1-1.9,1.12,6.07,6.07,0,0,1-4.79-.26,4.94,4.94,0,0,1-2-1.9,5.75,5.75,0,0,1-.76-3V90.12h-3v14.35a8.07,8.07,0,0,0,1.08,4.21,7.52,7.52,0,0,0,2.95,2.81,8.67,8.67,0,0,0,4.09,1,12,12,0,0,0,4-.62,8.3,8.3,0,0,0,2.94-1.75,7.44,7.44,0,0,0,1.74-2.5,7.76,7.76,0,0,0,.55-2.94V90.12h-3Z"/><polygon points="362.59 90.23 362.55 90.34 360.61 90.34 354.24 107.25 347.68 90.34 343.82 90.34 343.82 111.8 346.91 111.8 346.91 95.95 352.99 111.8 355.53 111.8 361.58 95.77 361.58 111.8 364.73 111.8 364.73 90.34 362.59 90.34 362.59 90.23"/><polygon points="379.42 108.84 379.42 102.02 390.3 102.02 390.3 99.25 379.42 99.25 379.42 93.08 391.47 93.08 391.47 90.12 376.37 90.12 376.37 111.8 391.67 111.8 391.67 108.84 379.42 108.84"/></g></g></svg>