<svg xmlns="http://www.w3.org/2000/svg" viewBox="0 0 67.09 71.97"><defs><style>.cls-1{fill:#1a428a;}</style></defs><title>Aser</title><g id="Capa_2" data-name="Capa 2"><g id="MARCAS"><path class="cls-1" d="M5,63.08H7.33L11,71.82H8.44l-.63-1.55H4.47l-.62,1.55H1.32ZM7.12,68.4l-1-2.47-1,2.47Z"/><path class="cls-1" d="M21,70.53l1.34-1.6a4.44,4.44,0,0,0,2.81,1c.64,0,1-.22,1-.59v0c0-.36-.29-.56-1.46-.83-1.85-.42-3.27-.94-3.27-2.72v0c0-1.61,1.27-2.77,3.35-2.77a5.43,5.43,0,0,1,3.57,1.15l-1.2,1.7A4.33,4.33,0,0,0,24.69,65c-.58,0-.87.25-.87.56v0c0,.4.3.57,1.5.85,2,.43,3.24,1.07,3.24,2.7v0c0,1.77-1.4,2.83-3.51,2.83A6.05,6.05,0,0,1,21,70.53Z"/><path class="cls-1" d="M39.63,63.15h7v2H42V66.5h4.16v1.9H42v1.37h4.65v2h-7Z"/><path class="cls-1" d="M57.8,63.15h4.1a3.76,3.76,0,0,1,2.82.94,2.67,2.67,0,0,1,.77,2v0a2.73,2.73,0,0,1-1.79,2.66l2.07,3H63l-1.75-2.63h-1v2.63H57.8Zm4,4.16c.82,0,1.29-.4,1.29-1v0c0-.68-.49-1-1.3-1H60.2v2.08Z"/><path class="cls-1" d="M67,56.79l-3.83-6.63h0A6.67,6.67,0,0,0,61.54,49a7.42,7.42,0,0,0-10.82,4.2l-34.3,0A7.77,7.77,0,0,0,13.17,49c-1.75-1.47-5.79-.69-5.79-.69a5.29,5.29,0,0,0-3.48,2h0L.14,56.79a1.07,1.07,0,0,0,.93,1.6H9.35a3,3,0,1,1,3-3,3,3,0,0,1-3,3H57.8a3,3,0,1,1,3-3,3,3,0,0,1-3,3H66A1.07,1.07,0,0,0,67,56.79ZM34.47.53a1.06,1.06,0,0,0-1.84,0L9.86,40a69.16,69.16,0,0,1,10.79-2.59A31.55,31.55,0,0,1,31.28,37a15.13,15.13,0,0,1,6.38,2.27H27.11a2.16,2.16,0,0,0-2.17,1.87,2.22,2.22,0,0,0,1.94,2.51H45a88.63,88.63,0,0,1,14.81.71Zm10.6,39.68L33.55,20.28,26,33.33A50.14,50.14,0,0,0,18,34.73l15.6-27L52.44,40.43S49.5,40.15,45.07,40.21Z"/></g></g></svg>