<svg xmlns="http://www.w3.org/2000/svg" viewBox="0 0 407.72 102.83"><defs><style>.cls-1{fill:#ff5100;}.cls-2{fill:#003a5d;}</style></defs><g id="Capa_2" data-name="Capa 2"><g id="Capa_2-2" data-name="Capa 2"><path class="cls-1" d="M71.8,89A4.83,4.83,0,0,1,74,90.78a5.36,5.36,0,0,1,0,5.47A4.77,4.77,0,0,1,71.8,98a8,8,0,0,1-3.28.62H65.66v3.92H62.37V88.36h6.15A7.87,7.87,0,0,1,71.8,89Zm-1.2,6.35a2.24,2.24,0,0,0,.77-1.82,2.27,2.27,0,0,0-.77-1.84A3.46,3.46,0,0,0,68.34,91H65.66V96h2.68A3.46,3.46,0,0,0,70.6,95.34Z"/><path class="cls-1" d="M116.23,102.58l-2.74-4h-3v4h-3.29V88.36h6.16a7.9,7.9,0,0,1,3.28.63,4.8,4.8,0,0,1,2.14,1.79,4.91,4.91,0,0,1,.75,2.74,4.78,4.78,0,0,1-.76,2.73A4.85,4.85,0,0,1,116.58,98l3.19,4.57Zm-.83-10.9a3.46,3.46,0,0,0-2.26-.64h-2.68v5h2.68a3.46,3.46,0,0,0,2.26-.65,2.57,2.57,0,0,0,0-3.67Z"/><path class="cls-1" d="M163.29,99.94v2.64h-11V88.36H163V91h-7.48v3.09h6.6v2.56h-6.6v3.29Z"/><path class="cls-1" d="M209.29,102.58l0-8.53-4.18,7H203.6l-4.16-6.85v8.35h-3.09V88.36h2.72l5.33,8.84,5.24-8.84h2.7l0,14.22Z"/><path class="cls-1" d="M246.26,88.36h3.29v14.22h-3.29Z"/><path class="cls-1" d="M284.3,101.14a6.51,6.51,0,0,1-1.69-4.82v-8h3.29V96.2q0,3.83,3.17,3.82a3,3,0,0,0,2.36-.92,4.33,4.33,0,0,0,.81-2.9V88.36h3.25v8a6.51,6.51,0,0,1-1.7,4.82,7.51,7.51,0,0,1-9.49,0Z"/><path class="cls-1" d="M342.26,102.58l0-8.53-4.18,7h-1.49l-4.16-6.85v8.35h-3.09V88.36H332l5.33,8.84,5.24-8.84h2.7l0,14.22Z"/><path class="cls-2" d="M226.68,0A103.63,103.63,0,0,1,219,8.29a114.55,114.55,0,0,1-9.63,8.29H159.74a4,4,0,0,0,0,7.93h29.63a16.14,16.14,0,0,1,8,1.88,17.52,17.52,0,0,1,5.49,4.76A21.08,21.08,0,0,1,206,37.31a20.67,20.67,0,0,1,1,6.09v.73a15.39,15.39,0,0,1-1.77,6.77,27.1,27.1,0,0,1-4.63,6.64,25.79,25.79,0,0,1-6.58,5.06,15.81,15.81,0,0,1-7.62,2H111.84a33.31,33.31,0,0,1,3-3.91q2.25-2.67,4.82-5.42c1.7-1.83,3.29-3.46,4.75-4.88s2.36-2.13,2.68-2.13h50.29a4,4,0,0,0,1.15-7.76,2,2,0,0,0-.84-.17H148.41a17.53,17.53,0,0,1-7.92-1.76,20.37,20.37,0,0,1-6-4.51,20.09,20.09,0,0,1-3.84-6,16.92,16.92,0,0,1-1.34-6.46,14.33,14.33,0,0,1,2-6.65,32.9,32.9,0,0,1,5.24-7.07,30.55,30.55,0,0,1,7.32-5.6A16.78,16.78,0,0,1,152.07,0Z"/><path class="cls-2" d="M407.11,12.56a17.23,17.23,0,0,0-2.38-6.1,13.88,13.88,0,0,0-4.94-4.63A16.16,16.16,0,0,0,391.63,0H326.4L298.24,64.62h28l9.63-22.19h0l.7-1.62.86.66h0l30.24,23.17h31.21L370.29,40.11q6-.36,12.56-1.4A50.42,50.42,0,0,0,395,35.29a25.37,25.37,0,0,0,9.14-6.4,14.77,14.77,0,0,0,3.6-10.24A33.21,33.21,0,0,0,407.11,12.56ZM379.43,20a5.84,5.84,0,0,1-1,2.87,3.4,3.4,0,0,1-3.17,1.65H351.88L339,35.36l8.41-19h29.38c1.14,0,1.87.22,2.2.67a2.72,2.72,0,0,1,.48,1.64Z"/><path class="cls-2" d="M263,0H235L206.8,64.62h73.52a14.91,14.91,0,0,0,1.83-1.22c1.14-.82,2.44-1.81,3.9-3S289,58,290.5,56.69a46.92,46.92,0,0,0,3.6-3.41c.08-.08.32-.37.73-.86s.81-1,1.22-1.58.79-1.12,1.15-1.65.59-.87.68-1H242l3.19-7.32h29l20.85-16.46H261.3L247.56,35.47l8.29-19h45q1.21,0,3.78-2a57.05,57.05,0,0,0,5.3-4.63q2.75-2.69,5.12-5.43A30.36,30.36,0,0,0,318.36,0Z"/><path class="cls-2" d="M96.11,12.31c-.25-1-.59-2.17-1-3.59a35,35,0,0,0-1.58-4.09,14.5,14.5,0,0,0-2.08-3.29A3.53,3.53,0,0,0,88.67,0H64a5.24,5.24,0,0,0-2.5.91c-1,.61-2,1.31-3.11,2.08a29,29,0,0,0-2.86,2.37A14.37,14.37,0,0,0,53.8,7.31L1.17,63.36h0l0,0h0L0,64.62H62.82A13.2,13.2,0,0,0,66,62.3q2.2-1.95,4.51-4.27t4.15-4.39a11.52,11.52,0,0,0,2.07-2.8l3,13.78h26ZM47,48.28V47.06L71.6,19.63l5.12,28.65Z"/></g></g></svg>