<svg xmlns="http://www.w3.org/2000/svg" viewBox="0 0 144.21 32.49"><defs><style>.cls-1{fill:#e1251b;}.cls-2,.cls-3{fill:#0071ce;}.cls-3{fill-rule:evenodd;}</style></defs><title>autopart</title><g id="Capa_2" data-name="Capa 2"><g id="MARCAS"><polygon class="cls-1" points="69.79 24.75 65.71 24.75 63.83 32.38 67.91 32.39 69.79 24.75"/><polygon class="cls-1" points="35.26 24.74 33.06 24.74 31.18 32.37 33.38 32.37 35.26 24.74"/><polygon class="cls-1" points="50.06 24.75 47.05 24.75 45.18 32.38 48.18 32.38 50.06 24.75"/><polygon class="cls-1" points="39.87 24.63 37.83 24.62 35.9 32.48 37.93 32.49 39.87 24.63"/><polygon class="cls-1" points="30.33 24.74 28.39 24.74 26.52 32.37 28.45 32.37 30.33 24.74"/><polygon class="cls-1" points="25.4 24.74 23.73 24.74 21.86 32.37 23.52 32.37 25.4 24.74"/><polygon class="cls-1" points="17.19 32.36 18.59 32.37 20.47 24.73 19.07 24.73 17.19 32.36"/><polygon class="cls-1" points="45.12 24.74 42.39 24.75 40.51 32.38 43.25 32.38 45.12 24.74"/><polygon class="cls-1" points="15.53 24.73 4.72 24.73 0 32.36 13.65 32.37 15.53 24.73"/><polygon class="cls-1" points="54.99 24.75 51.72 24.74 49.84 32.38 53.11 32.38 54.99 24.75"/><polygon class="cls-1" points="70.38 24.76 68.5 32.39 139.55 32.42 144.21 24.79 70.38 24.76"/><polygon class="cls-1" points="64.86 24.75 61.05 24.75 59.17 32.38 62.98 32.39 64.86 24.75"/><polygon class="cls-1" points="59.92 24.75 56.38 24.75 54.51 32.38 58.05 32.38 59.92 24.75"/><path class="cls-2" d="M17.23,12.94l4.35-7.48.74,7.47ZM25.94,0H19.7L6.91,21h5.63l2.53-4.35h7.6L23.1,21h5.47Z"/><path class="cls-2" d="M50.69,5.16,46.86,20.94H41.78l.42-1.73c-.51.33-1,.63-1.5.91a11.23,11.23,0,0,1-1.38.7,7.66,7.66,0,0,1-2.84.55,5,5,0,0,1-3.29-1A3.58,3.58,0,0,1,32,17.44a7.69,7.69,0,0,1,.07-1c0-.3.11-.64.19-1L34.77,5.18h5.15L38,13c-.14.6-.26,1.12-.34,1.56a6.9,6.9,0,0,0-.11,1.09A1.71,1.71,0,0,0,38,17a2.63,2.63,0,0,0,1.72.42,4.73,4.73,0,0,0,1.44-.27,11.39,11.39,0,0,0,1.78-.78l2.7-11.19Z"/><path class="cls-2" d="M57.65,21.25a6.15,6.15,0,0,1-3.73-.86,3,3,0,0,1-1.09-2.56,6.4,6.4,0,0,1,.08-.88c.05-.28.12-.61.2-1l1.81-7.48H52.83l.81-3.34h2.09L56.82.65h5.09l-1.1,4.5h4.71l-.81,3.34H60l-1.39,5.71c-.1.39-.19.79-.29,1.19a4.82,4.82,0,0,0-.14,1,1.31,1.31,0,0,0,.46,1.17,2.47,2.47,0,0,0,1.44.33,4.79,4.79,0,0,0,1-.15,5.19,5.19,0,0,0,1-.33h.42l-.82,3.37a16,16,0,0,1-1.8.32,16.4,16.4,0,0,1-2.26.13"/><path class="cls-2" d="M74.93,17.49a3.35,3.35,0,0,1-1.76.51,2.71,2.71,0,0,1-2-.7A3.13,3.13,0,0,1,70.5,15a10.67,10.67,0,0,1,.37-2.71,7.32,7.32,0,0,1,.93-2.2,4.84,4.84,0,0,1,1.46-1.49A3.4,3.4,0,0,1,75.15,8a2.43,2.43,0,0,1,2,.78,3.45,3.45,0,0,1,.61,2.25,11.08,11.08,0,0,1-.36,2.86,7.93,7.93,0,0,1-1,2.16,4.53,4.53,0,0,1-1.46,1.4M81.21,6.26a7.85,7.85,0,0,0-5.4-1.67,11.32,11.32,0,0,0-4.38.84,9.5,9.5,0,0,0-3.31,2.26A9.76,9.76,0,0,0,66,11.05a11.75,11.75,0,0,0-.75,4,5.87,5.87,0,0,0,1.83,4.69,7.8,7.8,0,0,0,5.4,1.68,11.2,11.2,0,0,0,4.34-.79,10.28,10.28,0,0,0,3.29-2.24,10.1,10.1,0,0,0,2.13-3.35,11.39,11.39,0,0,0,.8-4.18,5.79,5.79,0,0,0-1.82-4.62"/><path class="cls-2" d="M94.88,17.15a4.44,4.44,0,0,1-2.23.55,7,7,0,0,1-1.22-.09,4,4,0,0,1-1-.31l1.92-8a13.8,13.8,0,0,1,1.5-.69,4,4,0,0,1,1.44-.27,2.39,2.39,0,0,1,2,.68,3.08,3.08,0,0,1,.53,2,10.21,10.21,0,0,1-.35,2.6,7.46,7.46,0,0,1-.94,2.1,4.59,4.59,0,0,1-1.58,1.45m7-11.07a4.5,4.5,0,0,0-3.62-1.46,6.27,6.27,0,0,0-2.69.57A19,19,0,0,0,93,6.75l.4-1.65H88.28L83,26.72H88.1l1.61-6.6a7.24,7.24,0,0,0,1.9.8,8.72,8.72,0,0,0,2.3.29,7.49,7.49,0,0,0,3.6-.88,10,10,0,0,0,2.89-2.44,11.49,11.49,0,0,0,2-3.53,12.76,12.76,0,0,0,.75-4.25,5.81,5.81,0,0,0-1.21-4"/><path class="cls-2" d="M115.11,16.73a8.43,8.43,0,0,1-1.62.87,4.31,4.31,0,0,1-1.61.34,3.74,3.74,0,0,1-1.75-.32,1.18,1.18,0,0,1-.58-1.14A2.32,2.32,0,0,1,110,15a3,3,0,0,1,1.33-.87,11,11,0,0,1,2-.44c.8-.11,1.64-.19,2.55-.26Zm-1,4.12h5l2.61-10.76a4.78,4.78,0,0,0,.14-.78,5.72,5.72,0,0,0,.06-.74,3.18,3.18,0,0,0-1.69-3,11.66,11.66,0,0,0-5.43-1,25.73,25.73,0,0,0-3.7.29c-1.23.2-2.15.37-2.74.52l-.79,3.76H108c.5-.18,1.26-.41,2.27-.69A10.06,10.06,0,0,1,113.07,8a7.24,7.24,0,0,1,2.76.4,1.37,1.37,0,0,1,.91,1.38,1.85,1.85,0,0,1-.06.42c0,.13-.05.22-.06.28-1.75.1-3.38.26-4.88.48a14.25,14.25,0,0,0-3.89,1.07,6.19,6.19,0,0,0-2.65,2.07,5.52,5.52,0,0,0-.92,3.17,3.62,3.62,0,0,0,1.21,2.88,4.64,4.64,0,0,0,3.2,1.09,8.69,8.69,0,0,0,1.92-.17,12.76,12.76,0,0,0,1.48-.49,9.58,9.58,0,0,0,1.26-.69l1.16-.75Z"/><path class="cls-2" d="M137.88,9.86h-.44a5.25,5.25,0,0,0-1-.16c-.41,0-.82,0-1.22,0a12.09,12.09,0,0,0-1.93.14,15,15,0,0,0-1.92.48l-2.56,10.56h-5.09L127.6,5.06h5.08l-.56,2.32A17.5,17.5,0,0,1,135,5.65,6.86,6.86,0,0,1,137.88,5h.6l.58,0Z"/><path class="cls-3" d="M140.63,3.88a1.67,1.67,0,1,0,3.33,0,1.67,1.67,0,1,0-3.33,0m.31,0a1.35,1.35,0,1,1,2.7,0,1.35,1.35,0,1,1-2.7,0m.71,1H142V4h.27l.54.9h.34l-.55-.9a.5.5,0,0,0,.5-.55c0-.38-.22-.57-.67-.57h-.74ZM142,3.13h.37c.2,0,.4.07.4.29s-.15.32-.4.32H142Z"/></g></g></svg>