<svg xmlns="http://www.w3.org/2000/svg" viewBox="0 0 135.22 63.09"><defs><style>.cls-1{fill:#e20613;}</style></defs><title>baw</title><g id="Capa_2" data-name="Capa 2"><g id="MARCAS"><g id="Capa_24" data-name="Capa 24"><rect class="cls-1" y="2.05" width="9.95" height="46.43"/><path class="cls-1" d="M35.05,16.14h0A14.09,14.09,0,0,0,21,2.1H14.91V12H20.8A4.2,4.2,0,0,1,25,16.19h0a4.19,4.19,0,0,1-4.2,4.19H14.91v9.93H21A14.09,14.09,0,0,0,35.05,16.22Z"/><path class="cls-1" d="M33.62,28.22a16.45,16.45,0,0,1-8.71,5.44,4.39,4.39,0,0,1,.07.72,4.2,4.2,0,0,1-4.2,4.19H14.91V48.5H21A14.08,14.08,0,0,0,33.62,28.22Z"/><polygon class="cls-1" points="53.25 11.02 63.37 30.66 59.54 30.66 54.7 40.64 68.51 40.64 72.55 48.48 84.44 48.48 59.23 0 53.25 11.02"/><polygon class="cls-1" points="68.47 2.05 92.85 49.25 97.62 36.7 79.77 2.05 68.47 2.05"/><polygon class="cls-1" points="124.53 2.05 117.59 18.76 123.35 31.05 135.22 2.05 124.53 2.05"/><polygon class="cls-1" points="50.51 16.33 33.73 48.48 45.62 48.48 56.32 27.64 50.51 16.33"/><polygon class="cls-1" points="94.28 19.63 99.7 31.76 102.51 23.48 116.75 49.25 121.46 36.86 102.51 1.37 94.28 19.63"/><path class="cls-1" d="M0,60.49l.32-.37a3.31,3.31,0,0,0,2.44,1c1,0,1.7-.57,1.7-1.35h0c0-.72-.37-1.13-1.91-1.44S.27,57.43.27,56.42h0a2,2,0,0,1,2.1-1.79h.07a3.34,3.34,0,0,1,2.32.82l-.32.39a2.88,2.88,0,0,0-2-.75c-1,0-1.64.56-1.64,1.26h0c0,.72.36,1.16,2,1.48S5,58.69,5,59.74H5a2,2,0,0,1-2.13,1.85l-.12,0A3.8,3.8,0,0,1,0,60.49Z"/><path class="cls-1" d="M7.67,59.56v-3h.47v2.92a1.5,1.5,0,0,0,1.31,1.67h.26a1.69,1.69,0,0,0,1.7-1.67V56.6h.47v4.92h-.47V60.6a1.93,1.93,0,0,1-1.77,1,1.88,1.88,0,0,1-2-1.77C7.66,59.77,7.66,59.67,7.67,59.56Z"/><path class="cls-1" d="M14.52,60.86l.28-.38a2.85,2.85,0,0,0,1.76.65c.67,0,1.19-.36,1.19-.94h0c0-.58-.61-.79-1.31-1s-1.68-.47-1.68-1.35h0a1.46,1.46,0,0,1,1.54-1.37h.08a3.41,3.41,0,0,1,1.75.55l-.25.39a3,3,0,0,0-1.52-.49c-.67,0-1.12.37-1.12.86h0c0,.55.67.76,1.37,1s1.63.52,1.63,1.39h0a1.53,1.53,0,0,1-1.62,1.44h-.08A3.35,3.35,0,0,1,14.52,60.86Z"/><path class="cls-1" d="M21,56.6h.48v1a2.36,2.36,0,0,1,2-1.21,2.45,2.45,0,0,1,2.4,2.5v0h0a2.48,2.48,0,0,1-2.37,2.58h0a2.38,2.38,0,0,1-2-1.18V63H21Zm4.39,2.48h0A2,2,0,0,0,23.49,57h-.08a2.1,2.1,0,0,0-2,2.1h0a2.11,2.11,0,0,0,2,2.1,1.94,1.94,0,0,0,2-1.86,1.32,1.32,0,0,0,0-.28Z"/><path class="cls-1" d="M28.3,59h0a2.42,2.42,0,0,1,2.27-2.57h.06a2.34,2.34,0,0,1,2.28,2.4c0,.06,0,.12,0,.18v.19H28.81a2,2,0,0,0,1.93,1.93,2.22,2.22,0,0,0,1.7-.76l.32.28a2.58,2.58,0,0,1-2,.94,2.46,2.46,0,0,1-2.44-2.47S28.3,59.07,28.3,59Zm4.09-.24a1.84,1.84,0,0,0-1.75-1.92h0a1.92,1.92,0,0,0-1.81,1.92Z"/><path class="cls-1" d="M35.52,56.6H36v.91a1.93,1.93,0,0,1,1.78-1,1.88,1.88,0,0,1,2,1.77,2,2,0,0,1,0,.25v3h-.47V58.57A1.5,1.5,0,0,0,38,56.88a1.13,1.13,0,0,0-.26,0A1.69,1.69,0,0,0,36,58.52v3h-.47Z"/><path class="cls-1" d="M42.27,60.86l.28-.38a2.88,2.88,0,0,0,1.77.65c.66,0,1.19-.36,1.19-.94h0c0-.58-.62-.79-1.3-1s-1.7-.47-1.7-1.35h0a1.46,1.46,0,0,1,1.54-1.37h.08a3.29,3.29,0,0,1,1.75.55l-.25.39a2.8,2.8,0,0,0-1.51-.49c-.68,0-1.12.37-1.12.86h0c0,.55.66.76,1.36,1S46,59.27,46,60.14h0a1.53,1.53,0,0,1-1.61,1.44h-.09A3.37,3.37,0,0,1,42.27,60.86Z"/><path class="cls-1" d="M48.77,54.61h.58v.65h-.58Zm0,1.94h.49v4.93h-.47Z"/><path class="cls-1" d="M52.08,59h0a2.54,2.54,0,1,1,5.06-.33,1.82,1.82,0,0,1,0,.33h0a2.56,2.56,0,0,1-2.54,2.58h0a2.51,2.51,0,0,1-2.51-2.52Zm4.55,0h0a2.1,2.1,0,0,0-2-2.1,2,2,0,0,0-2,2.06v0h0a2.09,2.09,0,0,0,2,2.09,2,2,0,0,0,2-2.08h0ZM55.25,54.5l.59.28-1.05,1h-.41Z"/><path class="cls-1" d="M59.85,56.6h.48v.91a1.93,1.93,0,0,1,1.77-1,1.87,1.87,0,0,1,2,1.77,2.08,2.08,0,0,1,0,.25v3H63.6V58.57a1.5,1.5,0,0,0-1.31-1.67,1.13,1.13,0,0,0-.26,0,1.69,1.69,0,0,0-1.71,1.66.31.31,0,0,0,0,.1V61.5h-.48Z"/><path class="cls-1" d="M70.81,62.88l.15-.42a1.65,1.65,0,0,0,.84.19c.52,0,.86-.3,1.23-1.16L70.66,56.6h.55L73.3,61,75,56.6h.52l-2.09,5.09c-.43,1.05-.93,1.4-1.64,1.4A2.06,2.06,0,0,1,70.81,62.88Z"/><path class="cls-1" d="M82.38,54.72h2.24a3.37,3.37,0,0,1,3.59,3.12c0,.08,0,.16,0,.23h0a3.38,3.38,0,0,1-3.38,3.39H82.38ZM84.62,61a2.86,2.86,0,0,0,3.06-2.65,2,2,0,0,0,0-.25h0a2.87,2.87,0,0,0-2.84-2.91,1.77,1.77,0,0,0-.23,0H82.87V61Z"/><path class="cls-1" d="M91.09,54.61h.58v.65h-.58Zm.09,2h.47v4.92h-.47Z"/><path class="cls-1" d="M94.73,56.6h.48V58a2.32,2.32,0,0,1,2.19-1.48V57h-.06a2.19,2.19,0,0,0-2.11,2.28c0,.06,0,.12,0,.18v2h-.47Z"/><path class="cls-1" d="M99.27,59h0a2.43,2.43,0,0,1,2.25-2.59h.14a2.34,2.34,0,0,1,2.28,2.4c0,.06,0,.12,0,.18v.18H99.78a1.94,1.94,0,0,0,1.88,1.94,2.22,2.22,0,0,0,1.7-.76l.32.28a2.53,2.53,0,0,1-2,.93,2.44,2.44,0,0,1-2.38-2.52Zm4.09-.24a1.84,1.84,0,0,0-1.75-1.92h0a1.91,1.91,0,0,0-1.81,1.92Z"/><path class="cls-1" d="M106.17,59h0a2.55,2.55,0,0,1,2.51-2.58,2.6,2.6,0,0,1,2,.9l-.33.35a2.25,2.25,0,0,0-1.65-.81,2,2,0,0,0-2,2.07v0h0a2.09,2.09,0,0,0,2,2.09,2.19,2.19,0,0,0,1.64-.82l.34.3a2.59,2.59,0,0,1-2,1A2.53,2.53,0,0,1,106.17,59Z"/><path class="cls-1" d="M112.79,59h0a2.55,2.55,0,0,1,2.52-2.58,2.63,2.63,0,0,1,2,.9l-.34.35a2.25,2.25,0,0,0-1.64-.81,2,2,0,0,0-2,2.07v0h0a2.09,2.09,0,0,0,2,2.09,2.19,2.19,0,0,0,1.64-.82l.34.3A2.54,2.54,0,0,1,112.79,59Z"/><path class="cls-1" d="M119.92,54.61h.61v.65h-.59Zm0,1.94h.47v4.93h-.47Z"/><path class="cls-1" d="M123.23,59h0a2.54,2.54,0,1,1,5.06-.33,1.82,1.82,0,0,1,0,.33h0a2.54,2.54,0,0,1-2.52,2.55,2.51,2.51,0,0,1-2.54-2.49Zm4.55,0h0a2.1,2.1,0,0,0-2-2.1,2,2,0,0,0-2,2.05v0h0a2.09,2.09,0,0,0,2,2.09,2,2,0,0,0,2-2.05Zm-1.37-4.54.58.28-1,1h-.4Z"/><path class="cls-1" d="M131,56.6h.48v.91a1.89,1.89,0,0,1,1.77-1,1.86,1.86,0,0,1,1.94,1.81v3.21h-.47V58.54a1.49,1.49,0,0,0-1.31-1.66,1,1,0,0,0-.25,0,1.68,1.68,0,0,0-1.71,1.66v2.95H131Z"/></g></g></g></svg>