<svg xmlns="http://www.w3.org/2000/svg" viewBox="0 0 56.69 56.69"><defs><style>.cls-1{fill:#123b54;}.cls-2{fill:#25a9e1;}.cls-3{fill:#ef8026;}.cls-4{fill:#fff;}</style></defs><title>beru</title><g id="Capa_2" data-name="Capa 2"><g id="MARCAS"><rect class="cls-1" width="56.69" height="56.69"/><rect class="cls-2" x="3.96" y="43.98" width="48.86" height="3.59"/><rect class="cls-3" x="3.74" y="49.17" width="49.23" height="3.94"/><polygon class="cls-4" points="26.73 41.3 16.42 41.3 16.42 20.68 26.73 20.68 26.73 24.58 20.28 24.58 20.28 28.84 25.67 28.84 25.67 32.41 20.28 32.41 20.28 37.33 26.73 37.33 26.73 41.3"/><path class="cls-4" d="M48.79,41.3H44.9A3.94,3.94,0,0,1,41,37.37V20.68H44.9V36.06a1.29,1.29,0,0,0,1.29,1.29h1.33A1.31,1.31,0,0,0,48.83,36l0-15.36h4V37.27A4,4,0,0,1,48.79,41.3Z"/><path class="cls-4" d="M28.06,41.3V20.68h8.08a3.3,3.3,0,0,1,3.35,3.25v4.42a2.32,2.32,0,0,1-2.1,2.31h.08a2.25,2.25,0,0,1,2,2.26V41.3H35.61V33.72a1.28,1.28,0,0,0-1.28-1.28H32l0,8.86Zm7.56-13V25.16a.58.58,0,0,0-.59-.58H32v4.26h3A.58.58,0,0,0,35.62,28.25Z"/><path class="cls-4" d="M11.73,41.3H4V20.68h7.85a3.26,3.26,0,0,1,3.25,3.25v4.42a2.29,2.29,0,0,1-2,2.31h.08a2.24,2.24,0,0,1,2,2.26V38A3.33,3.33,0,0,1,11.73,41.3Zm-.61-13V25.16a.58.58,0,0,0-.59-.58H7.86v4.26h2.67A.58.58,0,0,0,11.12,28.25Zm0,8.41V33.09a.69.69,0,0,0-.68-.68H7.86v4.92h2.59A.67.67,0,0,0,11.12,36.66Z"/></g></g></svg>