<svg xmlns="http://www.w3.org/2000/svg" xmlns:xlink="http://www.w3.org/1999/xlink" viewBox="0 0 144.21 51.06"><defs><style>.cls-1,.cls-2{fill:#fff;}.cls-1,.cls-3{fill-rule:evenodd;}.cls-3{fill:#e30613;}.cls-4{fill:url(#Degradado_sin_nombre_43);}</style><linearGradient id="Degradado_sin_nombre_43" x1="15.99" y1="32.37" x2="15.89" y2="0.49" gradientUnits="userSpaceOnUse"><stop offset="0" stop-color="#b1b1b1"/><stop offset="0.51" stop-color="#b1b1b1"/><stop offset="1" stop-color="#ececec"/></linearGradient></defs><title>bosch</title><g id="Capa_2" data-name="Capa 2"><g id="MARCAS"><path class="cls-1" d="M52.81,22v-4.1A.14.14,0,0,1,53,17.8h3.73c1.84,0,2.89.79,2.89,2.18s-1,2.2-2.8,2.2H53a.14.14,0,0,1-.14-.14Zm0-8.29V9.87A.15.15,0,0,1,53,9.72h3.82a2,2,0,0,1,2.13,2.12,2.09,2.09,0,0,1-2.22,2.05H53a.14.14,0,0,1-.14-.14ZM48,5.66V26.25H58.48c3.07,0,6.37-2.18,6.37-5.69a5,5,0,0,0-3.62-4.87c-.08,0-.17,0-.17-.15a.15.15,0,0,1,.1-.14,4.34,4.34,0,0,0,2.78-4.15c0-3.5-2.37-5.59-6.34-5.59H48"/><path class="cls-1" d="M71.93,15.94c0-3.68,1.79-6.06,4.57-6.06s4.6,2.38,4.6,6.06S79.3,22,76.5,22s-4.57-2.4-4.57-6.09Zm-4.89,0c0,6.46,3.8,10.8,9.46,10.8S86,22.4,86,15.94,82.16,5.13,76.5,5.13,67,9.47,67,15.94"/><path class="cls-1" d="M88.39,11.56c0,4.06,3.2,5.59,5.88,6.15l.73.16c2.61.54,3.84,1,3.84,2.44s-1.18,2.21-3,2.21A6.68,6.68,0,0,1,90.6,19.9L87.47,23c1.67,2,3.87,3.77,8.48,3.77,3.94,0,7.93-2.29,7.93-6.67s-3.06-5.5-6.46-6.22l-.73-.15c-1.67-.35-3.29-.81-3.29-2.23s1.34-2.08,2.67-2.08a6,6,0,0,1,4.28,1.89l3.05-3A9.63,9.63,0,0,0,96,5.13c-4.54,0-7.59,2.59-7.59,6.43"/><path class="cls-1" d="M106.1,15.81c0,6.44,3.91,10.93,9.52,10.93,4.17,0,6.07-1.53,8-4.35l-4-2.71a4.07,4.07,0,0,1-3.8,2.35c-2.33,0-4.84-2-4.84-6.22,0-3.89,2.36-5.93,4.69-5.93a4.15,4.15,0,0,1,3.83,2.29l4-2.65c-2-3-4.46-4.35-7.84-4.35-6.62,0-9.58,5.34-9.58,10.64"/><path class="cls-1" d="M138.09,5.66V13.2a.14.14,0,0,1-.15.13h-6.32a.13.13,0,0,1-.14-.13V5.66h-5.19V26.25h5.19v-8.1a.13.13,0,0,1,.14-.13h6.32a.14.14,0,0,1,.15.13v8.1h5.22V5.66h-5.22"/><path class="cls-2" d="M22.6,8.65a.06.06,0,0,1,0,0,.19.19,0,0,1,.09-.15.16.16,0,0,1,.21.06l.07.14a10.52,10.52,0,0,1,0,14.55l-.07.14a.16.16,0,0,1-.21.06.16.16,0,0,1-.09-.14.09.09,0,0,1,0-.05l.07-.16a16.09,16.09,0,0,0,.17-2.39V11.21a15.37,15.37,0,0,0-.18-2.42l-.06-.14ZM10.68,18.27V13.61a.58.58,0,0,1,.58-.59h9.37a.58.58,0,0,1,.58.59v4.66a.58.58,0,0,1-.58.58H11.26a.58.58,0,0,1-.58-.58ZM9,8.52a.16.16,0,0,1,.2-.06.18.18,0,0,1,.1.15.06.06,0,0,1,0,0l-.07.17A16,16,0,0,0,9,11.21v9.46a15.62,15.62,0,0,0,.19,2.42l.06.13a.07.07,0,0,1,0,.05.15.15,0,0,1-.1.14.16.16,0,0,1-.2-.06l-.07-.14a10.52,10.52,0,0,1,0-14.55L9,8.52ZM21.21,5.69V11c0,.22-.15.32-.45.32H11.12c-.31,0-.45-.1-.45-.32V5.69a.16.16,0,0,0-.16-.16l-.08,0-.32.19a11.93,11.93,0,0,0,0,20.4l.32.19h.08a.15.15,0,0,0,.16-.15V20.87c0-.23.14-.33.45-.33h9.64c.31,0,.45.1.45.33v5.32a.15.15,0,0,0,.16.15h.08l.32-.19a11.93,11.93,0,0,0,0-20.4l-.32-.19-.08,0a.16.16,0,0,0-.16.16ZM1.6,15.94A14.34,14.34,0,1,1,15.94,30.27,14.35,14.35,0,0,1,1.6,15.94Zm-1.46,0A15.8,15.8,0,1,0,15.94.14,15.82,15.82,0,0,0,.14,15.94"/><path class="cls-3" d="M65,20.56c0,3.52-3.24,5.82-6.51,5.82H47.82V5.52H57.6c3.76,0,6.48,1.88,6.48,5.73a4.54,4.54,0,0,1-2.88,4.29,5.14,5.14,0,0,1,3.79,5Zm-6.23-8.72a1.87,1.87,0,0,0-2-2H53v3.88h3.73a2,2,0,0,0,2.08-1.91ZM59.43,20c0-1.21-.89-2-2.75-2H53V22h3.82c1.56,0,2.66-.56,2.66-2.06"/><path class="cls-3" d="M86.1,15.94c0,6.13-3.52,10.94-9.6,10.94s-9.6-4.81-9.6-10.94S70.45,5,76.5,5s9.6,4.84,9.6,11Zm-5.14,0C81,12.67,79.46,10,76.5,10s-4.43,2.65-4.43,5.92,1.47,6,4.43,6,4.46-2.65,4.46-6"/><path class="cls-3" d="M104,20.07c0,4.59-4.16,6.81-8.07,6.81A10.21,10.21,0,0,1,87.27,23L90.6,19.7a6.59,6.59,0,0,0,5.29,2.68c1.68,0,2.81-.83,2.81-2.07S97.7,18.58,95,18l-.73-.15c-3.29-.69-6-2.56-6-6.29C88.25,7.46,91.58,5,96,5a9.75,9.75,0,0,1,7.61,3.27l-3.24,3.21a5.93,5.93,0,0,0-4.28-1.94c-1.19,0-2.53.55-2.53,1.94s1.4,1.72,3.18,2.09l.73.16c3,.62,6.57,1.54,6.57,6.35"/><path class="cls-3" d="M123.87,22.35c-2.14,3.08-4.12,4.53-8.25,4.53-5.87,0-9.66-4.87-9.66-11.07C106,9.93,109.38,5,115.68,5c3.45,0,5.93,1.36,8,4.54l-4.22,2.8A4.07,4.07,0,0,0,115.71,10c-2.32,0-4.55,2.08-4.55,5.79,0,4.17,2.41,6.08,4.7,6.08,2,0,2.91-1,3.76-2.41l4.25,2.87"/><polyline class="cls-3" points="143.45 26.39 137.94 26.39 137.94 18.16 131.62 18.16 131.62 26.39 126.15 26.39 126.15 5.52 131.62 5.52 131.62 13.2 137.94 13.2 137.94 5.52 143.45 5.52 143.45 26.39"/><path class="cls-4" d="M22.8,23.11A15.72,15.72,0,0,0,23,20.67V11.21a15.94,15.94,0,0,0-.18-2.45l-.07-.17h0l.08.16a10.38,10.38,0,0,1,0,14.39l-.08.16h0l.07-.17ZM9,23.13A10.38,10.38,0,0,1,9,8.74l.08-.16h0l-.07.17a15.91,15.91,0,0,0-.19,2.45v9.46a15.78,15.78,0,0,0,.19,2.44l.07.17h0L9,23.13Zm12-17.44V11c0,.07,0,.19-.31.19H11.12c-.31,0-.31-.12-.31-.19V5.69a.3.3,0,0,0-.3-.3.24.24,0,0,0-.15,0L10,5.62a12.07,12.07,0,0,0,0,20.64l.32.19a.33.33,0,0,0,.15,0,.31.31,0,0,0,.3-.3V20.87c0-.08,0-.19.31-.19h9.64c.31,0,.31.11.31.19v5.32a.3.3,0,0,0,.3.3.37.37,0,0,0,.15,0l.32-.19a12.07,12.07,0,0,0,0-20.64l-.32-.19a.26.26,0,0,0-.15,0,.29.29,0,0,0-.3.3ZM1.74,15.94a14.2,14.2,0,1,0,14.2-14.2,14.22,14.22,0,0,0-14.2,14.2ZM0,15.94A15.94,15.94,0,1,1,15.94,31.88,15.94,15.94,0,0,1,0,15.94Zm10.82,2.33V13.61a.45.45,0,0,1,.44-.45h9.37a.45.45,0,0,1,.44.45v4.66a.45.45,0,0,1-.44.45H11.26a.45.45,0,0,1-.44-.45"/><polyline points="4.58 39.11 5.69 39.11 5.69 48.64 4.58 48.64 4.58 39.11"/><path d="M8,41.67H9.11v1.07a2.22,2.22,0,0,1,2.12-1.19c1.49,0,2.31,1,2.31,2.78v4.31H12.43v-4.4c0-1.2-.45-1.73-1.48-1.73a1.74,1.74,0,0,0-1.84,1.87v4.26H8v-7"/><path d="M15.73,41.67h1.11v1.07A2.22,2.22,0,0,1,19,41.55c1.49,0,2.3,1,2.3,2.78v4.31h-1.1v-4.4c0-1.2-.45-1.73-1.48-1.73a1.74,1.74,0,0,0-1.84,1.87v4.26H15.73v-7"/><path d="M24.1,45.18c0,1.64.83,2.66,2.13,2.66s2.16-1,2.16-2.68-.84-2.69-2.11-2.69-2.18,1-2.18,2.71Zm5.44,0a3.3,3.3,0,1,1-6.58,0,3.3,3.3,0,1,1,6.58,0"/><polyline points="30.42 41.67 31.62 41.67 33.48 47.52 35.31 41.67 36.46 41.67 34.11 48.64 32.8 48.64 30.42 41.67"/><path d="M41.67,45.27c-2.24.08-3.18.52-3.18,1.52,0,.69.46,1.08,1.28,1.08,1.11,0,1.9-.64,1.9-1.54V45.27Zm1.89,3.41a2.82,2.82,0,0,1-.39,0,1.38,1.38,0,0,1-1.44-1,2.63,2.63,0,0,1-2.14,1.06,2,2,0,0,1-2.2-1.92c0-1,.68-1.76,1.92-2.09a9.57,9.57,0,0,1,2.36-.27V44c0-1.08-.43-1.57-1.38-1.57a2.83,2.83,0,0,0-2,.87l-.65-.72a3.62,3.62,0,0,1,2.65-1.07A2.24,2.24,0,0,1,42.77,44v3.11c0,.49.19.65.79.66v.87"/><path d="M50.77,47.15a3.08,3.08,0,0,1-2.83,1.61,3.29,3.29,0,0,1-3.25-3.6c0-2.15,1.29-3.61,3.21-3.61a3,3,0,0,1,2.71,1.52l-.88.59c-.57-.89-1-1.19-1.81-1.19-1.31,0-2.08,1-2.08,2.72s.76,2.65,2.1,2.65a2.08,2.08,0,0,0,2-1.23l.85.54"/><path d="M52.52,41.67h1.11v7H52.52v-7Zm1.27-2a.73.73,0,1,1-1.46,0,.73.73,0,0,1,1.46,0"/><path d="M59.1,38.61h1.45l-1.47,2.16h-.76l.78-2.16Zm-2.6,6.57c0,1.64.82,2.66,2.13,2.66s2.16-1,2.16-2.68-.84-2.69-2.12-2.69-2.17,1-2.17,2.71Zm5.43,0a3.3,3.3,0,1,1-6.58,0,3.3,3.3,0,1,1,6.58,0"/><path d="M63.8,41.67h1.11v1.07A2.21,2.21,0,0,1,67,41.55c1.5,0,2.31,1,2.31,2.78v4.31H68.22v-4.4c0-1.2-.45-1.73-1.48-1.73a1.73,1.73,0,0,0-1.83,1.87v4.26H63.8v-7"/><path d="M75.59,45.16c0,1.71.79,2.68,2.16,2.68s2-.88,2-2.65-.75-2.72-2-2.72-2.17,1-2.17,2.69Zm-1.06-3.49h1.1v1.15A2.65,2.65,0,0,1,78,41.55c1.79,0,3,1.41,3,3.57s-1.17,3.64-3,3.64a2.6,2.6,0,0,1-2.31-1.24v3.54h-1.1V41.67"/><path d="M86.17,45.27c-2.24.08-3.17.52-3.17,1.52,0,.69.45,1.08,1.28,1.08,1.11,0,1.89-.64,1.89-1.54V45.27Zm1.89,3.41a2.62,2.62,0,0,1-.38,0,1.36,1.36,0,0,1-1.44-1,2.63,2.63,0,0,1-2.15,1.06,2,2,0,0,1-2.2-1.92c0-1,.69-1.76,1.92-2.09a9.64,9.64,0,0,1,2.36-.27V44c0-1.08-.42-1.57-1.37-1.57a2.82,2.82,0,0,0-2,.87l-.65-.72a3.62,3.62,0,0,1,2.65-1.07A2.24,2.24,0,0,1,87.28,44v3.11c0,.49.19.65.78.66v.87"/><path d="M89.79,41.67h1.1v1.12a2,2,0,0,1,1.87-1.24,2.23,2.23,0,0,1,1.13.28l-.45.94a1.47,1.47,0,0,0-.82-.22c-1.08,0-1.73.87-1.73,2.27v3.82h-1.1v-7"/><path d="M98.63,45.27c-2.24.08-3.17.52-3.17,1.52,0,.69.45,1.08,1.28,1.08,1.11,0,1.89-.64,1.89-1.54V45.27Zm1.9,3.41a2.82,2.82,0,0,1-.39,0,1.36,1.36,0,0,1-1.44-1,2.63,2.63,0,0,1-2.15,1.06,2,2,0,0,1-2.19-1.92c0-1,.67-1.76,1.91-2.09a9.64,9.64,0,0,1,2.36-.27V44c0-1.08-.42-1.57-1.37-1.57a2.82,2.82,0,0,0-2,.87l-.65-.72a3.62,3.62,0,0,1,2.65-1.07A2.24,2.24,0,0,1,99.74,44v3.11c0,.49.18.65.79.66v.87"/><path d="M104.36,41.67h1.07V39.86l1.11-.27v2.08h1.75v.92h-1.75v4.25c0,.68.25,1,.79,1a1.45,1.45,0,0,0,1-.33l.43.76a2.14,2.14,0,0,1-1.44.49,1.65,1.65,0,0,1-1.84-1.71V42.59h-1.07v-.92"/><path d="M114.46,47.57a2.21,2.21,0,0,1-2.11,1.19c-1.47,0-2.26-1-2.26-2.77V41.67h1.11v4.4c0,1.2.44,1.73,1.42,1.73a1.73,1.73,0,0,0,1.84-1.86V41.67h1.11v7h-1.11V47.57"/><polyline points="119.95 41.67 121.15 41.67 123.02 47.52 124.84 41.67 125.99 41.67 123.64 48.64 122.34 48.64 119.95 41.67"/><path d="M127.54,41.67h1.1v7h-1.1v-7Zm1.26-2a.73.73,0,1,1-1.46,0,.73.73,0,1,1,1.46,0"/><path d="M131.33,45.19c0,1.76.67,2.65,2,2.65s2.19-1,2.19-2.68-.81-2.69-2.15-2.69-2,1-2,2.72Zm4.15,2.33a2.61,2.61,0,0,1-2.31,1.24c-1.81,0-3-1.43-3-3.64s1.18-3.57,3-3.57a2.64,2.64,0,0,1,2.32,1.27V38.61h1.1v10h-1.1V47.52"/><path d="M142.31,45.27c-2.24.08-3.17.52-3.17,1.52,0,.69.46,1.08,1.28,1.08,1.11,0,1.89-.64,1.89-1.54V45.27Zm1.9,3.41a2.82,2.82,0,0,1-.39,0,1.36,1.36,0,0,1-1.44-1,2.63,2.63,0,0,1-2.14,1.06,2,2,0,0,1-2.2-1.92c0-1,.68-1.76,1.92-2.09a9.48,9.48,0,0,1,2.35-.27V44c0-1.08-.42-1.57-1.37-1.57a2.82,2.82,0,0,0-2,.87l-.65-.72a3.62,3.62,0,0,1,2.65-1.07A2.24,2.24,0,0,1,143.42,44v3.11c0,.49.19.65.79.66v.87"/></g></g></svg>