<svg xmlns="http://www.w3.org/2000/svg" viewBox="0 0 144.21 54.81"><defs><style>.cls-1{fill:#fff;}.cls-2{fill:#004b87;}</style></defs><title>clevite</title><g id="Capa_2" data-name="Capa 2"><g id="MARCAS"><path class="cls-1" d="M135.63,17.26c-3.5-3.2-8.53-6.09-15-8.57-13.3-5.15-31-8-49.83-8S34.3,3.54,21,8.69c-6.42,2.48-11.45,5.37-14.95,8.57S.71,23.91.71,27.4s1.8,6.91,5.34,10.15,8.53,6.08,15,8.57c13.3,5.14,31,8,49.84,8s36.53-2.84,49.83-8c6.43-2.49,11.46-5.37,15-8.57S141,30.9,141,27.4,139.17,20.5,135.63,17.26Z"/><path class="cls-2" d="M70.84,0C31.72,0,0,12.27,0,27.4S31.72,54.81,70.84,54.81s70.84-12.27,70.84-27.41S110,0,70.84,0Zm64.79,37.55c-3.5,3.2-8.53,6.08-15,8.57-13.3,5.14-31,8-49.83,8S34.3,51.26,21,46.12c-6.42-2.49-11.45-5.37-14.95-8.57S.71,30.9.71,27.4s1.8-6.9,5.34-10.14,8.53-6.09,15-8.57c13.3-5.15,31-8,49.84-8s36.53,2.83,49.83,8c6.43,2.48,11.46,5.37,15,8.57S141,23.91,141,27.4,139.17,34.31,135.63,37.55Z"/><ellipse class="cls-2" cx="70.88" cy="27.38" rx="68.71" ry="25.41"/><polygon class="cls-1" points="35.54 13.43 42.65 13.43 36.8 37.35 43.51 37.35 42.33 43.36 28.35 43.36 35.54 13.43"/><polygon class="cls-1" points="64.64 19.7 65.82 13.43 57.89 13.43 53.9 13.43 51.38 13.43 44.2 43.36 59.03 43.36 60.22 37.35 52.04 37.35 53.48 31.45 61.16 31.45 62.35 25.17 55.02 25.17 56.35 19.7 64.64 19.7"/><polygon class="cls-1" points="67.6 13.43 73.64 13.43 73.88 33.48 82.68 13.43 89.71 13.43 74.63 43.36 67.92 43.36 67.6 13.43"/><polygon class="cls-1" points="92.44 43.36 85.45 43.36 92.44 13.43 99.43 13.43 92.44 43.36"/><polygon class="cls-1" points="118.97 13.43 113.68 13.43 107.2 13.43 101.88 13.43 100.26 19.63 105.65 19.63 99.74 43.36 106.22 43.36 112.13 19.63 117.35 19.63 118.97 13.43"/><polygon class="cls-1" points="128.84 42.72 130 37.83 121.78 37.83 123.51 30.9 130.93 30.9 132.16 25.67 124.66 25.67 126.4 19.07 134.42 19.07 135.64 13.9 122.05 13.9 115.26 42.72 128.84 42.72"/><path class="cls-2" d="M135.64,13.19H121.49l-.13.55-6.79,28.82-.21.87h15l.13-.54,1.16-4.9.2-.87h-8.2l1.38-5.51h7.42l.13-.55,1.23-5.23.21-.87h-7.48l1.36-5.18h8l.13-.55,1.22-5.17.2-.87Zm-11,12.48h7.5l-1.23,5.23h-7.42l-1.73,6.93H130l-1.15,4.89H115.26l6.79-28.82h13.59l-1.22,5.17h-8Z"/><path class="cls-1" d="M4.58,29c0,9.93,3.87,14.83,12.68,14.83a16.23,16.23,0,0,0,6.27-1.6l3-9.81v0a9.22,9.22,0,0,1-5.87,2.55,5.59,5.59,0,0,1-2.25-.46c-4.13-1.8-5.27-8.33-2.55-14.6C18.1,14.7,22.29,11.33,26,11.33a5.66,5.66,0,0,1,2.25.46,5.74,5.74,0,0,1,2.13,1.63l2.16-9.1a34.57,34.57,0,0,0-6.25-.46C13.07,3.86,4.58,18.81,4.58,29Z"/><path class="cls-2" d="M32.69,3.62a34.78,34.78,0,0,0-6.39-.47C12.61,3.15,3.87,18.46,3.87,29c0,5.24,1,9,3.2,11.6s5.56,3.94,10.19,3.94a16.9,16.9,0,0,0,6.55-1.66l.31-.13.09-.32,3-9.8,0-.09v-.13l.06-1.63-1.23,1.07a8.59,8.59,0,0,1-5.41,2.38,5,5,0,0,1-2-.4c-3.76-1.64-4.74-7.77-2.18-13.66C18.58,15.38,22.49,12,26,12a5,5,0,0,1,2,.4,5,5,0,0,1,1.87,1.43L30.75,15l.33-1.39,2.17-9.11.17-.73ZM18.4,34.48a5.59,5.59,0,0,0,2.25.46,9.22,9.22,0,0,0,5.87-2.55v0l-3,9.81a16.23,16.23,0,0,1-6.27,1.6C8.45,43.83,4.58,38.93,4.58,29c0-10.19,8.49-25.14,21.72-25.14a34.57,34.57,0,0,1,6.25.46l-2.16,9.1a5.74,5.74,0,0,0-2.13-1.63A5.66,5.66,0,0,0,26,11.33c-3.72,0-7.91,3.37-10.16,8.55C13.13,26.15,14.27,32.68,18.4,34.48Z"/><path class="cls-2" d="M141,10.07a3.2,3.2,0,1,0,3.2,3.2A3.2,3.2,0,0,0,141,10.07Zm0,5.87a2.67,2.67,0,1,1,2.67-2.67A2.68,2.68,0,0,1,141,15.94Z"/><path class="cls-2" d="M139.84,11.54a4.73,4.73,0,0,1,.89-.07,1.5,1.5,0,0,1,1,.29.89.89,0,0,1,.28.68.93.93,0,0,1-.68.91v0a.9.9,0,0,1,.53.72,5.54,5.54,0,0,0,.28,1h-.48a4.63,4.63,0,0,1-.24-.86c-.11-.49-.3-.68-.72-.7h-.44v1.56h-.46Zm.46,1.63h.48c.49,0,.81-.27.81-.68s-.34-.66-.83-.67a1.52,1.52,0,0,0-.46,0Z"/></g></g></svg>