<svg xmlns="http://www.w3.org/2000/svg" xmlns:xlink="http://www.w3.org/1999/xlink" viewBox="0 0 144.21 36.24"><defs><style>.cls-1,.cls-4{fill:#293272;}.cls-2{fill:#273271;}.cls-3{fill:#e42528;}.cls-4{fill-rule:evenodd;}.cls-5{fill:url(#Degradado_sin_nombre_6);}.cls-6{fill:url(#Degradado_sin_nombre_6-2);}.cls-7{fill:url(#Degradado_sin_nombre_6-3);}</style><linearGradient id="Degradado_sin_nombre_6" x1="347.61" y1="-52.25" x2="360.78" y2="-52.25" gradientTransform="matrix(1, 0, -0.66, 1.18, -298.88, 84.21)" gradientUnits="userSpaceOnUse"><stop offset="0" stop-color="#293273"/><stop offset="1" stop-color="#fff"/></linearGradient><linearGradient id="Degradado_sin_nombre_6-2" x1="362.72" y1="-52.25" x2="376.38" y2="-52.25" xlink:href="#Degradado_sin_nombre_6"/><linearGradient id="Degradado_sin_nombre_6-3" x1="178.32" y1="-35.29" x2="201.46" y2="-35.29" gradientTransform="matrix(1, 0, -0.15, 1.14, -70.14, 62.43)" xlink:href="#Degradado_sin_nombre_6"/></defs><title>dc</title><g id="Capa_2" data-name="Capa 2"><g id="MARCAS"><path class="cls-1" d="M81.12,8.53c1,0,1.31.72.76,1.62l-4.09,6.73H76.13l1.71-2.8H72.18l-1.71,2.8H68.83l4.1-6.73a3.55,3.55,0,0,1,2.71-1.62Zm-2.35,4,1.46-2.39c0-.05,0-.09,0-.09H74.71a.18.18,0,0,0-.14.09l-1.46,2.39Z"/><path class="cls-2" d="M77.88,17h-2l1.7-2.8H72.27L70.56,17h-2l4.24-7a3.73,3.73,0,0,1,2.85-1.69h5.48a1.15,1.15,0,0,1,1.06.51A1.31,1.31,0,0,1,82,10.23Zm-1.46-.32H77.7l4-6.66a1,1,0,0,0,.15-1,.84.84,0,0,0-.78-.35H75.64a3.41,3.41,0,0,0-2.58,1.54l-4,6.49h1.27l1.71-2.8h6Zm2.44-4h-6l1.6-2.64a.36.36,0,0,1,.28-.16h5.48a.21.21,0,0,1,.19.11.22.22,0,0,1,0,.22Zm-5.47-.31h5.29L80,10.22H74.71Z"/><path class="cls-1" d="M90.33,10.16l-3.12,5.12a3.54,3.54,0,0,1-2.69,1.6H80.63c-1,0-1.28-.72-.74-1.6L83,10.16h1.62l-3.11,5.12c0,.05,0,.08,0,.08h3.89a.14.14,0,0,0,.13-.08l3.12-5.12Z"/><path class="cls-2" d="M84.52,17H80.63a1.12,1.12,0,0,1-1-.5,1.34,1.34,0,0,1,.16-1.34L82.92,10h2l-3.17,5.2h3.7L88.61,10h2l-3.27,5.36A3.72,3.72,0,0,1,84.52,17ZM83.1,10.32l-3.08,5a1.06,1.06,0,0,0-.16,1,.84.84,0,0,0,.77.34h3.89a3.38,3.38,0,0,0,2.56-1.52l3-4.88H88.79l-3.07,5a.33.33,0,0,1-.27.16H81.56a.23.23,0,0,1-.19-.1.22.22,0,0,1,0-.22l3-4.88Z"/><path class="cls-1" d="M91.82,11.68l-2.19,3.6c0,.05,0,.08,0,.08h2.73l-.93,1.52H88.74c-1,0-1.28-.72-.74-1.6L92.45,8h1.63l-1.34,2.21h2.81l-.92,1.52Z"/><path class="cls-2" d="M91.55,17H88.74a1.15,1.15,0,0,1-1-.5,1.37,1.37,0,0,1,.17-1.34l4.5-7.41h2L93,10h2.81l-1.12,1.84H91.91l-2,3.36h2.81Zm1-8.93-4.41,7.25a1.06,1.06,0,0,0-.16,1,.83.83,0,0,0,.77.34h2.63l.73-1.2H89.66a.2.2,0,0,1-.17-.32l2.24-3.68h2.81l.73-1.2H92.46L93.8,8.11Z"/><path class="cls-1" d="M101.88,10.16c1,0,1.28.72.75,1.6l-2.15,3.52a3.54,3.54,0,0,1-2.69,1.6H93.9c-.94,0-1.28-.72-.74-1.6l2.14-3.52A3.58,3.58,0,0,1,98,10.16Zm-4.81,1.52a.17.17,0,0,0-.14.08l-2.14,3.52c0,.05,0,.08,0,.08h3.9a.14.14,0,0,0,.13-.08L101,11.76s0-.08,0-.08Z"/><path class="cls-2" d="M97.79,17H93.9a1.12,1.12,0,0,1-1-.5A1.34,1.34,0,0,1,93,15.2l2.15-3.53A3.73,3.73,0,0,1,98,10h3.89a1.15,1.15,0,0,1,1.05.5,1.32,1.32,0,0,1-.17,1.34l-2.14,3.52A3.72,3.72,0,0,1,97.79,17Zm.2-6.72a3.36,3.36,0,0,0-2.55,1.52l-2.15,3.52a1,1,0,0,0-.15,1,.81.81,0,0,0,.76.34h3.89a3.38,3.38,0,0,0,2.56-1.52l2.14-3.53a1,1,0,0,0,.16-1,.84.84,0,0,0-.77-.34Zm.73,5.2H94.83a.2.2,0,0,1-.19-.1.22.22,0,0,1,0-.22l2.15-3.53a.32.32,0,0,1,.27-.15H101a.21.21,0,0,1,.19.1.22.22,0,0,1,0,.22L99,15.36A.33.33,0,0,1,98.72,15.52Zm-3.8-.16Zm.1-.16h3.7l2-3.36H97.08Z"/><path class="cls-1" d="M116.47,8.55c1,0,1.3.73.76,1.61l-1.37,2.25A3.59,3.59,0,0,1,113.14,14h-5.57l-1.74,2.86h-1.65l5.08-8.33Zm-.89,1.61c0-.05,0-.08,0-.08h-5.49a.14.14,0,0,0-.13.08l-1.37,2.25a0,0,0,0,0,0,.08h5.48a.2.2,0,0,0,.14-.08Z"/><path class="cls-2" d="M105.92,17h-2l5.27-8.65h7.3a1.13,1.13,0,0,1,1,.51,1.31,1.31,0,0,1-.15,1.34L116,12.49a3.78,3.78,0,0,1-2.86,1.69h-5.49Zm-1.45-.32h1.27l1.76-2.9.12,0h5.52a3.49,3.49,0,0,0,2.59-1.54l1.36-2.25a1.05,1.05,0,0,0,.16-1,.86.86,0,0,0-.78-.34h-7.12Zm9.6-4.07h-5.48a.21.21,0,0,1-.19-.11.22.22,0,0,1,0-.22l1.37-2.25a.34.34,0,0,1,.27-.15h5.49a.18.18,0,0,1,.18.1.2.2,0,0,1,0,.22h0l-1.37,2.25A.32.32,0,0,1,114.07,12.65Zm-5.38-.16h0Zm.09-.16h5.29l1.27-2.1h-5.29Z"/><path class="cls-1" d="M124.17,11.76l-3.12,5.12h-5.61c-1,0-1.28-.72-.74-1.6l1.53-2.53h5.7l.61-1s0-.08,0-.08h-5.61l.92-1.52h5.61C124.37,10.16,124.7,10.88,124.17,11.76ZM121,14.28h-4.07l-.61,1c0,.05,0,.08,0,.08h4Z"/><path class="cls-2" d="M121.14,17h-5.7a1.12,1.12,0,0,1-1-.5,1.34,1.34,0,0,1,.16-1.34l1.58-2.61h5.7l.46-.75h-5.7L117.72,10h5.7a1.12,1.12,0,0,1,1,.5,1.34,1.34,0,0,1-.16,1.34Zm-4.82-4.13-1.49,2.45a1,1,0,0,0-.15,1,.81.81,0,0,0,.76.34H121l3.07-5a1,1,0,0,0,.16-1,.84.84,0,0,0-.77-.34H117.9l-.73,1.2h5.33a.21.21,0,0,1,.19.1.22.22,0,0,1,0,.22L122,12.91Zm6.08-1.24Zm-2,3.85h-4.07a.2.2,0,0,1-.17-.32l.65-1.08h4.44Zm-4-.16Zm.1-.16h3.69l.46-.76H117Z"/><path class="cls-1" d="M131.71,10.16l-.93,1.52h-4a.17.17,0,0,0-.14.08l-3.12,5.12h-1.63L125,11.76a3.56,3.56,0,0,1,2.69-1.6Z"/><path class="cls-2" d="M123.61,17h-2l3.26-5.37A3.75,3.75,0,0,1,127.7,10H132l-1.12,1.84h-4.09Zm-1.43-.32h1.25l3.07-5a.35.35,0,0,1,.28-.15h3.91l.73-1.2H127.7a3.36,3.36,0,0,0-2.55,1.52Z"/><path class="cls-1" d="M133,11.68l-2.19,3.6c0,.05,0,.08,0,.08h2.73l-.93,1.52h-2.72c-1,0-1.28-.72-.74-1.6L133.65,8h1.63l-1.34,2.21h2.81l-.92,1.52Z"/><path class="cls-2" d="M132.75,17h-2.81a1.15,1.15,0,0,1-1.05-.5,1.37,1.37,0,0,1,.17-1.34l4.5-7.41h2L134.23,10H137l-1.12,1.84h-2.81l-2.05,3.36h2.81Zm1-8.93-4.41,7.25a1.06,1.06,0,0,0-.16,1,.84.84,0,0,0,.77.34h2.63l.73-1.2h-2.44a.2.2,0,0,1-.17-.32l2.24-3.68h2.81l.73-1.2h-2.81L135,8.11Z"/><path class="cls-1" d="M143.61,12.05H142l.18-.29s0-.08,0-.08h-3.89a.17.17,0,0,0-.14.08l-.56.92c0,.05,0,.07,0,.07h3.9c.95,0,1.28.72.74,1.6l-.56.93a3.56,3.56,0,0,1-2.69,1.6h-3.9c-.94,0-1.28-.72-.74-1.6l.18-.29h1.63l-.18.29c0,.05,0,.08,0,.08h3.89a.17.17,0,0,0,.14-.08l.56-.93s0-.07,0-.07h-3.9c-.94,0-1.28-.72-.74-1.6l.56-.92a3.58,3.58,0,0,1,2.69-1.6h3.9c.95,0,1.28.72.74,1.6Z"/><path class="cls-2" d="M139,17h-3.9a1.12,1.12,0,0,1-1-.5,1.34,1.34,0,0,1,.16-1.34l.23-.37h2l-.22.37h3.69l.46-.76h-3.7a1.1,1.1,0,0,1-1-.5,1.34,1.34,0,0,1,.16-1.34l.57-.93A3.73,3.73,0,0,1,139.15,10h3.9a1.1,1.1,0,0,1,1,.5,1.34,1.34,0,0,1-.16,1.34l-.23.37h-2l.23-.37h-3.7l-.46.75h3.7a1.12,1.12,0,0,1,1,.5,1.36,1.36,0,0,1-.16,1.35l-.57.92A3.67,3.67,0,0,1,139,17Zm-4.37-1.89-.13.21a1.06,1.06,0,0,0-.16,1,.81.81,0,0,0,.76.34H139a3.38,3.38,0,0,0,2.55-1.52l.56-.93a1,1,0,0,0,.16-1,.81.81,0,0,0-.76-.34h-3.9a.21.21,0,0,1-.19-.1.2.2,0,0,1,0-.21l.57-.93a.32.32,0,0,1,.27-.15h3.89a.21.21,0,0,1,.19.1.22.22,0,0,1,0,.22l0,.05h1.25l.13-.22a1,1,0,0,0,.16-1,.83.83,0,0,0-.76-.33h-3.9a3.38,3.38,0,0,0-2.55,1.52l-.56.93a1.05,1.05,0,0,0-.16,1,.83.83,0,0,0,.76.33h3.9a.21.21,0,0,1,.19.11.2.2,0,0,1,0,.21l-.57.92a.33.33,0,0,1-.27.16H136a.23.23,0,0,1-.19-.1.22.22,0,0,1,0-.22l0,0Zm1.5.21Zm4.35-1.09Zm-2.77-1.5Z"/><path class="cls-1" d="M76.66,21.35c1.33,0,2.06.55,1.62,1.25l-2.53,4a4.24,4.24,0,0,1-3.22,1.24h-10l4.13-6.45ZM76,22.6s0-.07-.08-.07H68.29a.19.19,0,0,0-.16.07l-2.53,4s0,.06.08.06h7.61a.22.22,0,0,0,.16-.06Z"/><path class="cls-2" d="M72.53,28H62.19l4.36-6.83H76.66a2.05,2.05,0,0,1,1.84.7.77.77,0,0,1-.07.83l-2.53,4A4.35,4.35,0,0,1,72.53,28Zm-9.67-.37h9.67a4.1,4.1,0,0,0,3.06-1.16l2.53-4a.46.46,0,0,0,.06-.47,1.84,1.84,0,0,0-1.52-.5H66.75Zm10.43-.82H65.68a.28.28,0,0,1-.25-.12l-.05-.1.06-.12,2.53-4a.39.39,0,0,1,.32-.15H75.9a.28.28,0,0,1,.25.12l0,.1-.06.12h0l-2.53,4A.4.4,0,0,1,73.29,26.8Zm-7.39-.37h7.39l2.39-3.71H68.29Z"/><polygon class="cls-1" points="111.46 23.07 113.47 23.07 110.35 28.05 108.34 28.05 111.46 23.07"/><path class="cls-2" d="M110.42,28.18h-2.3l3.27-5.24h2.3Zm-1.85-.25h1.72l3-4.74h-1.72Z"/><polygon class="cls-1" points="95.83 23.07 97.84 23.07 94.73 28.05 92.72 28.05 95.83 23.07"/><path class="cls-2" d="M94.79,28.18H92.5l3.27-5.24h2.29Zm-1.85-.25h1.72l3-4.74H95.9Z"/><polygon class="cls-1" points="80.39 23.07 82.39 23.07 79.28 28.05 77.27 28.05 80.39 23.07"/><path class="cls-2" d="M79.34,28.18H77.05l3.27-5.24h2.3Zm-1.85-.25h1.72l3-4.74H80.45Z"/><path class="cls-1" d="M94.05,23.07,87.5,27.82H84.69l-.39-4.75H87L87,26.51l5-3.44Z"/><path class="cls-2" d="M87.54,27.94h-3l-.41-5h2.9l.07,3.34L92,22.94h2.47Zm-2.74-.25h2.66l6.21-4.5H92L86.9,26.74l-.07-3.55H84.44Z"/><path class="cls-1" d="M108.44,24.47h-2l.14-.22s0-.06-.07-.06h-4.7a.21.21,0,0,0-.15.06l-.46.69s0,0,.07,0H106c1.16,0,1.72.54,1.28,1.19l-.46.69A3.77,3.77,0,0,1,104,28.05H99.27c-1.14,0-1.72-.53-1.28-1.18l.14-.22h2l-.14.22s0,.06.06.06h4.71a.18.18,0,0,0,.14-.06l.46-.69s0-.05-.07-.05h-4.7c-1.15,0-1.72-.54-1.29-1.19l.46-.69a3.83,3.83,0,0,1,2.87-1.18h4.7c1.16,0,1.72.53,1.29,1.18Z"/><path class="cls-2" d="M104,28.18H99.27a1.61,1.61,0,0,1-1.47-.58.74.74,0,0,1,.09-.8l.18-.27h2.26l-.18.27h4.63l.36-.54h-4.58a1.62,1.62,0,0,1-1.48-.58.79.79,0,0,1,.09-.8l.46-.69a4,4,0,0,1,3-1.24h4.7c.75,0,1.28.21,1.48.58a.74.74,0,0,1-.09.8l-.18.27h-2.26l.18-.27H101.8l-.36.54H106a1.62,1.62,0,0,1,1.48.58.77.77,0,0,1-.1.8l-.46.69A3.86,3.86,0,0,1,104,28.18ZM98.2,26.77l-.11.17a.54.54,0,0,0-.08.54c.15.28.63.45,1.26.45H104a3.69,3.69,0,0,0,2.76-1.13l.46-.69a.56.56,0,0,0,.08-.55c-.15-.28-.62-.44-1.26-.44h-4.71a.18.18,0,0,1-.18-.09l0-.07,0-.09.46-.69a.33.33,0,0,1,.25-.11h4.7a.19.19,0,0,1,.18.09.15.15,0,0,1,0,.16v0h1.67l.11-.16a.52.52,0,0,0,.07-.54c-.15-.28-.62-.45-1.26-.45h-4.7a3.71,3.71,0,0,0-2.76,1.13l-.46.69a.5.5,0,0,0-.08.54c.15.28.63.45,1.26.45h4.7a.2.2,0,0,1,.19.09l0,.07,0,.09-.45.69a.34.34,0,0,1-.25.11H100a.2.2,0,0,1-.18-.09.18.18,0,0,1,0-.16l0,0Z"/><path class="cls-1" d="M123.62,23.07c1.24,0,1.85.53,1.38,1.18l-1.9,2.62A4.32,4.32,0,0,1,120,28.05h-5.07c-1.24,0-1.86-.53-1.38-1.18l1.9-2.62a4.32,4.32,0,0,1,3.1-1.18Zm-5.89,1.12a.22.22,0,0,0-.16.06l-1.9,2.62s0,.06.07.06h5.07a.22.22,0,0,0,.16-.06l1.9-2.62s0-.06-.07-.06Z"/><path class="cls-2" d="M120,28.18h-5.07c-.81,0-1.4-.23-1.6-.61a.71.71,0,0,1,.12-.77l1.9-2.62a4.45,4.45,0,0,1,3.2-1.24h5.08c.81,0,1.4.23,1.59.61a.7.7,0,0,1-.11.78l-1.9,2.61A4.46,4.46,0,0,1,120,28.18Zm-1.45-5a4.21,4.21,0,0,0-3,1.14l-1.9,2.61a.5.5,0,0,0-.1.52c.15.29.68.47,1.38.47H120a4.21,4.21,0,0,0,3-1.13l1.9-2.62a.5.5,0,0,0,.1-.52c-.15-.29-.68-.47-1.38-.47Zm2.27,3.86h-5.08a.19.19,0,0,1-.18-.09.15.15,0,0,1,0-.17l1.9-2.61a.34.34,0,0,1,.26-.11h5.07a.21.21,0,0,1,.19.09.16.16,0,0,1,0,.16l-1.9,2.62A.33.33,0,0,1,120.81,27.05Zm-5-.11Zm.09-.14h5l1.8-2.47h-5Z"/><path class="cls-1" d="M135.7,24.27l-2.32,3.87h-1.94l2.32-3.87s0-.06-.06-.06h-4.64a.18.18,0,0,0-.14.06l-2.32,3.87h-1.94l3-5.07h6.68C135.51,23.07,136.1,23.61,135.7,24.27Z"/><path class="cls-2" d="M133.45,28.26h-2.23l2.36-3.92h-4.52a.05.05,0,0,0,0,0l-2.35,3.91h-2.23l3.2-5.32h6.75a1.63,1.63,0,0,1,1.47.59.77.77,0,0,1-.05.81ZM131.66,28h1.65l2.29-3.81a.55.55,0,0,0,.05-.56,1.47,1.47,0,0,0-1.26-.46h-6.61L124.87,28h1.66l2.29-3.81a.3.3,0,0,1,.24-.12h4.64a.2.2,0,0,1,.18.09.18.18,0,0,1,0,.16Zm2-3.81Z"/><polygon class="cls-1" points="75.5 0.85 21.11 0.85 21.61 0 76 0 75.5 0.85"/><polygon class="cls-1" points="74.12 3.15 19.73 3.15 20.63 1.65 75.02 1.65 74.12 3.15"/><polygon class="cls-1" points="71.83 6.99 17.44 6.99 19.25 3.95 73.64 3.95 71.83 6.99"/><polygon class="cls-3" points="0.51 35.39 54.9 35.39 54.39 36.24 0 36.24 0.51 35.39"/><polygon class="cls-3" points="1.88 33.08 56.27 33.08 55.37 34.59 0.98 34.59 1.88 33.08"/><polygon class="cls-3" points="4.17 29.25 58.56 29.25 56.75 32.28 2.36 32.28 4.17 29.25"/><path class="cls-1" d="M59,28.51H4.7L17.15,7.7H71.41ZM5.56,28H58.68L70.55,8.19H17.43Z"/><path class="cls-4" d="M135.61,26.85A1.41,1.41,0,1,0,137,25.44,1.41,1.41,0,0,0,135.61,26.85Zm.27,0a1.14,1.14,0,1,1,1.14,1.2A1.15,1.15,0,0,1,135.88,26.85Zm.6.82h.27v-.73H137l.46.73h.29l-.47-.73a.42.42,0,0,0,.42-.46c0-.31-.18-.46-.56-.46h-.64Zm.27-1.44h.32c.17,0,.34.06.34.24s-.13.26-.34.26h-.32Z"/><path d="M32.17,11.43H19.64L11.26,25.28H24.33s6,0,8.34-2.31c0,0,3.46-2.77,4-6.76C36.72,16.21,37.76,11.83,32.17,11.43Zm-1.09,6.33a7.08,7.08,0,0,1-4.58,4H18.74l4.08-6.9h6.52C32,15.13,31.08,17.76,31.08,17.76Z"/><path d="M56,17.15a6,6,0,0,0,1.12-1.76s.08-.51-.66-.52H48.75A2.09,2.09,0,0,0,47.05,16l-2.87,4.79a.82.82,0,0,0,.74,1.14H52.8a4.06,4.06,0,0,0,2-1.92h5.1l-2,3.21a4.35,4.35,0,0,1-2,1.76l-.22.07a5.51,5.51,0,0,1-1.71.27H41.42l-.16,0c-.63-.12-4.43-1-2.22-4.64,2.41-4,4.84-7.87,4.84-7.87s.75-1.29,4.38-1.32H59.57s4.29-.07,3.35,3l-1.23,2.7Z"/><path class="cls-3" d="M32.06,11.23H19.66l-8.3,13.85h13s6,0,8.25-2.31a12,12,0,0,0,4-6.75S37.61,11.63,32.06,11.23ZM31,17.57a7.06,7.06,0,0,1-4.54,4H18.61l4-6.9h6.62C31.87,14.93,31,17.57,31,17.57Z"/><path class="cls-1" d="M56.16,17a5.36,5.36,0,0,0,1-1.57s.18-.66-.71-.78H48.7a2.13,2.13,0,0,0-1.81,1.06c-.65,1.1-2.86,4.78-2.86,4.78s-.42,1,.82,1.24h7.88s.83-.11,1.8-1.73h5.1l-1.9,3a4.57,4.57,0,0,1-2.08,1.76l0,0a4.25,4.25,0,0,1-1.62.32H42a4.76,4.76,0,0,1-2-.43c-1.17-.55-2.45-1.75-.94-4.23,2.41-4,4.84-7.86,4.84-7.86s.75-1.3,4.38-1.33H59.51s4.15-.08,3.22,3L61.5,16.94Z"/><polygon class="cls-5" points="95.98 22.6 82.83 22.6 83.19 22 96.34 22 95.98 22.6"/><polygon class="cls-3" points="82.84 22.6 80.49 22.6 80.92 22 83.28 22 82.84 22.6"/><polygon class="cls-6" points="111.57 22.6 97.94 22.6 98.32 22 111.94 22 111.57 22.6"/><polygon class="cls-3" points="98.24 22.6 95.94 22.6 96.37 22 98.67 22 98.24 22.6"/><polygon class="cls-7" points="136.41 22.6 113.56 22.6 113.93 22 136.78 22 136.41 22.6"/><polygon class="cls-3" points="113.88 22.6 111.56 22.6 111.99 22 114.31 22 113.88 22.6"/></g></g></svg>