<svg xmlns="http://www.w3.org/2000/svg" viewBox="0 0 159.11 54.47"><defs><style>.cls-1{fill:blue;}</style></defs><title>delphi</title><g id="Capa_2" data-name="Capa 2"><g id="MARCAS"><path id="Logo" class="cls-1" d="M17,29.88l-.53,2.6H10V49.57H7.05V32.48H.14l.52-2.6Zm.68,13.61a11.73,11.73,0,0,0,.13,1.88,2.15,2.15,0,0,0,.5,1.13,1.89,1.89,0,0,0,1,.57,8.44,8.44,0,0,0,1.77.15h2c.82,0,1.88,0,3.19,0l-.5,2.4-1.46,0H21.15A9.17,9.17,0,0,1,18,49.17,4.41,4.41,0,0,1,16,47.87a4.48,4.48,0,0,1-.95-2,13,13,0,0,1-.25-2.67V41.61a14.39,14.39,0,0,1,.26-2.84,5,5,0,0,1,1-2.13,4.42,4.42,0,0,1,2-1.34,9.66,9.66,0,0,1,3.28-.47,8.85,8.85,0,0,1,3,.43,4.59,4.59,0,0,1,1.85,1.16,3.76,3.76,0,0,1,.93,1.69,7.57,7.57,0,0,1,.25,2v.41a9.23,9.23,0,0,1-.11,1.58,2,2,0,0,1-.36.9,1.12,1.12,0,0,1-.62.41,3.39,3.39,0,0,1-.9.1Zm3.43-6.36a7.74,7.74,0,0,0-1.77.16,1.89,1.89,0,0,0-1,.62,2.59,2.59,0,0,0-.5,1.26,14.44,14.44,0,0,0-.13,2.08h6.89v-.94a6.74,6.74,0,0,0-.15-1.54,1.93,1.93,0,0,0-.55-1,2.38,2.38,0,0,0-1.07-.51A7.82,7.82,0,0,0,21.15,37.13ZM36,37.62a11.5,11.5,0,0,0-1.85.13A2,2,0,0,0,33,38.3a2.35,2.35,0,0,0-.57,1.23,12.37,12.37,0,0,0-.15,2.16v1.47a11.14,11.14,0,0,0,.16,2.15,2.37,2.37,0,0,0,.6,1.24,2.08,2.08,0,0,0,1.14.55,11.24,11.24,0,0,0,1.8.12h2.4l1.53,0-.5,2.4-1.71,0H36a12.64,12.64,0,0,1-3.12-.33,4.41,4.41,0,0,1-2.06-1.11,4.34,4.34,0,0,1-1.14-2,11.4,11.4,0,0,1-.34-3V41.69a11.4,11.4,0,0,1,.34-3,4.34,4.34,0,0,1,1.14-2,4.41,4.41,0,0,1,2.06-1.11A12.64,12.64,0,0,1,36,35.22h1.84c.69,0,1.37,0,2,.07l-.5,2.41c-.76,0-1.39-.06-1.91-.07Zm6.41,12V29h2.9V36.1a3.94,3.94,0,0,1,1.37-.87,7.36,7.36,0,0,1,2.75-.4,9.68,9.68,0,0,1,2.31.25,4.89,4.89,0,0,1,1.79.8,3.63,3.63,0,0,1,1.15,1.44,5.34,5.34,0,0,1,.4,2.16V49.57H52.16V40.06a7.41,7.41,0,0,0-.08-1.22,1.6,1.6,0,0,0-.41-.88,2.11,2.11,0,0,0-1-.54A6.75,6.75,0,0,0,49,37.24a7.08,7.08,0,0,0-1.83.19,2.21,2.21,0,0,0-1.11.64,2.35,2.35,0,0,0-.55,1.13,7.56,7.56,0,0,0-.16,1.72v8.65Zm15.43,0V39.48a4,4,0,0,1,1.54-3.57,8.43,8.43,0,0,1,4.8-1.08A8.48,8.48,0,0,1,69,35.91a4.06,4.06,0,0,1,1.53,3.57V49.57H67.6V40.06a7.33,7.33,0,0,0-.09-1.22A1.6,1.6,0,0,0,67.1,38a2.05,2.05,0,0,0-1-.54,8,8,0,0,0-1.91-.18,7.89,7.89,0,0,0-1.91.18,2.14,2.14,0,0,0-1,.54,1.6,1.6,0,0,0-.41.88,7.41,7.41,0,0,0-.08,1.22v9.51Zm22-14.74a12.77,12.77,0,0,1,3.06.32,4.45,4.45,0,0,1,2.06,1.1,4.75,4.75,0,0,1,1.17,2.11,12.21,12.21,0,0,1,.38,3.3v1.52a12.29,12.29,0,0,1-.38,3.31,4.65,4.65,0,0,1-1.17,2.1,4.38,4.38,0,0,1-2.06,1.11,14.79,14.79,0,0,1-6.12,0,4.38,4.38,0,0,1-2.06-1.11,4.65,4.65,0,0,1-1.17-2.1,12.29,12.29,0,0,1-.38-3.31V41.66a12.21,12.21,0,0,1,.38-3.3,4.75,4.75,0,0,1,1.17-2.11,4.45,4.45,0,0,1,2.06-1.1A12.77,12.77,0,0,1,79.79,34.83Zm3.71,6.83a14.36,14.36,0,0,0-.15-2.33A2.86,2.86,0,0,0,82.79,38a2,2,0,0,0-1.12-.62,11.86,11.86,0,0,0-3.76,0,2,2,0,0,0-1.12.62,2.76,2.76,0,0,0-.55,1.35,13.15,13.15,0,0,0-.16,2.33v1.52a13.2,13.2,0,0,0,.16,2.34,2.72,2.72,0,0,0,.55,1.34,2,2,0,0,0,1.12.63,11.86,11.86,0,0,0,3.76,0,2,2,0,0,0,1.12-.63,2.81,2.81,0,0,0,.56-1.34,14.41,14.41,0,0,0,.15-2.34ZM89.25,29h2.9V49.57h-2.9Zm12.36,5.81a12.77,12.77,0,0,1,3.06.32,4.41,4.41,0,0,1,2.06,1.1,4.66,4.66,0,0,1,1.18,2.11,12.26,12.26,0,0,1,.37,3.3v1.52a12.34,12.34,0,0,1-.37,3.31,4.57,4.57,0,0,1-1.18,2.1,4.33,4.33,0,0,1-2.06,1.11,14.74,14.74,0,0,1-6.11,0,4.33,4.33,0,0,1-2.06-1.11,4.57,4.57,0,0,1-1.18-2.1A12.34,12.34,0,0,1,95,43.18V41.66a12.26,12.26,0,0,1,.37-3.3,4.66,4.66,0,0,1,1.18-2.11,4.41,4.41,0,0,1,2.06-1.1A12.74,12.74,0,0,1,101.61,34.83Zm3.71,6.83a14.36,14.36,0,0,0-.15-2.33,2.85,2.85,0,0,0-.55-1.35,2,2,0,0,0-1.12-.62,11.92,11.92,0,0,0-3.77,0,2,2,0,0,0-1.12.62,2.85,2.85,0,0,0-.55,1.35,14.36,14.36,0,0,0-.15,2.33v1.52a14.41,14.41,0,0,0,.15,2.34,2.81,2.81,0,0,0,.55,1.34,2,2,0,0,0,1.12.63,11.92,11.92,0,0,0,3.77,0,2,2,0,0,0,1.12-.63,2.81,2.81,0,0,0,.55-1.34,14.41,14.41,0,0,0,.15-2.34Zm15.4,6.28a4.17,4.17,0,0,1-1.43.82,7.61,7.61,0,0,1-2.47.32,9.3,9.3,0,0,1-3.16-.46,4.37,4.37,0,0,1-1.94-1.33,5,5,0,0,1-1-2.13,13.17,13.17,0,0,1-.28-2.89v-.63a14.36,14.36,0,0,1,.25-2.84,4.84,4.84,0,0,1,1-2.14,4.51,4.51,0,0,1,2-1.36,12.28,12.28,0,0,1,6.73,0,4.26,4.26,0,0,1,2.94,3.33,12.31,12.31,0,0,1,.25,2.59v7a9.81,9.81,0,0,1-.37,2.91A4.35,4.35,0,0,1,122.05,53a4.9,4.9,0,0,1-2.06,1.1,11.47,11.47,0,0,1-3,.34h-3.57l-1.49,0,.55-2.41c.92,0,1.72.05,2.39.05H117a7.21,7.21,0,0,0,1.74-.18,2.64,2.64,0,0,0,1.18-.6,2.46,2.46,0,0,0,.65-1.18,7.76,7.76,0,0,0,.19-1.91Zm-3.65-1.24a8.45,8.45,0,0,0,1.87-.17,2.19,2.19,0,0,0,1.11-.58,2.29,2.29,0,0,0,.54-1.09,9.17,9.17,0,0,0,.13-1.73V41.8q0-1.41-.09-2.31a3,3,0,0,0-.46-1.4,1.88,1.88,0,0,0-1.09-.69,8.21,8.21,0,0,0-2-.19,8.12,8.12,0,0,0-2,.19,1.91,1.91,0,0,0-1.1.69,2.89,2.89,0,0,0-.45,1.4,20.82,20.82,0,0,0-.1,2.31v.31a20.82,20.82,0,0,0,.1,2.31,2.75,2.75,0,0,0,.47,1.39,1.9,1.9,0,0,0,1.09.69A7.91,7.91,0,0,0,117.07,46.7ZM129.93,31a1.56,1.56,0,0,1-1.82,1.83,2,2,0,0,1-1.4-.43,1.91,1.91,0,0,1-.43-1.4,1.91,1.91,0,0,1,.43-1.4,2,2,0,0,1,1.4-.43A1.56,1.56,0,0,1,129.93,31Zm-3.26,4.23h2.9v14.3h-2.9Zm8.87,8.22a10.67,10.67,0,0,0,.13,1.88,2.15,2.15,0,0,0,.5,1.13,1.86,1.86,0,0,0,1,.57,8.44,8.44,0,0,0,1.77.15h2c.82,0,1.88,0,3.19,0l-.5,2.4-1.46,0H139a9.17,9.17,0,0,1-3.19-.46,4.41,4.41,0,0,1-1.94-1.3,4.48,4.48,0,0,1-1-2,13,13,0,0,1-.25-2.67V41.61a14.39,14.39,0,0,1,.26-2.84,5,5,0,0,1,1-2.13,4.42,4.42,0,0,1,2-1.34,9.66,9.66,0,0,1,3.28-.47,8.85,8.85,0,0,1,3,.43A4.66,4.66,0,0,1,144,36.42a3.76,3.76,0,0,1,.93,1.69,7.57,7.57,0,0,1,.25,2v.41a9.23,9.23,0,0,1-.11,1.58,2,2,0,0,1-.36.9,1.12,1.12,0,0,1-.62.41,3.39,3.39,0,0,1-.9.1ZM139,37.13a7.74,7.74,0,0,0-1.77.16,1.86,1.86,0,0,0-1,.62,2.59,2.59,0,0,0-.5,1.26,13.13,13.13,0,0,0-.13,2.08h6.89v-.94a6.74,6.74,0,0,0-.15-1.54,1.93,1.93,0,0,0-.55-1,2.38,2.38,0,0,0-1.07-.51A7.82,7.82,0,0,0,139,37.13Zm16.21,4a5.32,5.32,0,0,1,2,.51A3.24,3.24,0,0,1,159,43.83a5.69,5.69,0,0,1,.15,1.26v.39a3.65,3.65,0,0,1-1.41,3.06,7.06,7.06,0,0,1-4.34,1.09h-2.89l-3.31,0,.5-2.4,3,0h2.8a4.61,4.61,0,0,0,2.19-.36,1.51,1.51,0,0,0,.6-1.41,2.45,2.45,0,0,0-.07-.62,1.17,1.17,0,0,0-.28-.51,1.46,1.46,0,0,0-.59-.37,3.34,3.34,0,0,0-1-.21L151,43.43a4.58,4.58,0,0,1-1.74-.43,3.61,3.61,0,0,1-1.17-.85,3.45,3.45,0,0,1-.65-1.15,4.41,4.41,0,0,1-.2-1.3v-.47a3.59,3.59,0,0,1,1.3-2.95,6.72,6.72,0,0,1,4.26-1.06h2.76c1,0,2,0,3.24.05l-.5,2.41-2.05,0-1.56,0h-2.2a4,4,0,0,0-2,.35A1.33,1.33,0,0,0,150,39.2a3.06,3.06,0,0,0,.07.64,1,1,0,0,0,.28.47,1.65,1.65,0,0,0,.61.33,4.31,4.31,0,0,0,1.06.19ZM24.23,15a1.91,1.91,0,0,0,.57,1.56,3.4,3.4,0,0,0,1.95.41h2.77c1,0,1.9,0,2.71-.06l-.69,3.79L29,20.79H26.22a12.7,12.7,0,0,1-3.29-.37,4.91,4.91,0,0,1-2.15-1.18A4.68,4.68,0,0,1,19.6,17.2a10.88,10.88,0,0,1-.36-3V12.68a10.93,10.93,0,0,1,.39-3.12,5,5,0,0,1,1.25-2.17,5.12,5.12,0,0,1,2.2-1.26,11.62,11.62,0,0,1,3.23-.4c2.32,0,4,.46,5.08,1.37A5.3,5.3,0,0,1,33,11.33v.61a8.48,8.48,0,0,1-.11,1.45,1.93,1.93,0,0,1-.42,1,1.7,1.7,0,0,1-.81.52,4.41,4.41,0,0,1-1.32.17Zm2.29-5.68a6.06,6.06,0,0,0-1.2.11,1.42,1.42,0,0,0-.65.39,1.74,1.74,0,0,0-.41.75,6,6,0,0,0-.16,1.22h4.53a3.12,3.12,0,0,0-.53-2A2,2,0,0,0,26.52,9.36ZM34.81.17H40V20.74H34.81Zm22,14a11.5,11.5,0,0,1-.42,3.37,5.07,5.07,0,0,1-1.23,2.16,4.58,4.58,0,0,1-2,1.16,9.8,9.8,0,0,1-2.74.35A8.07,8.07,0,0,1,48.6,21a5.88,5.88,0,0,1-1.29-.49v5H42.13V12.52a10.61,10.61,0,0,1,.41-3.13,4.71,4.71,0,0,1,1.32-2.11,5.6,5.6,0,0,1,2.31-1.17,13.43,13.43,0,0,1,3.41-.38,13,13,0,0,1,3.27.36,5.18,5.18,0,0,1,2.23,1.18,4.85,4.85,0,0,1,1.28,2.16,11.25,11.25,0,0,1,.42,3.31Zm-7.34,3a4.27,4.27,0,0,0,1-.11,1.21,1.21,0,0,0,.65-.42,2.09,2.09,0,0,0,.33-.86,9,9,0,0,0,.1-1.44v-1.8a9.24,9.24,0,0,0-.1-1.46,1.85,1.85,0,0,0-.35-.86,1.08,1.08,0,0,0-.65-.4,4.09,4.09,0,0,0-1-.1,4.18,4.18,0,0,0-1,.1,1.13,1.13,0,0,0-.67.4,1.81,1.81,0,0,0-.35.84,9.09,9.09,0,0,0-.09,1.43v2a6.18,6.18,0,0,0,.11,1.33,1.78,1.78,0,0,0,.36.82,1.36,1.36,0,0,0,.65.4A4,4,0,0,0,49.44,17.2Zm9.28,3.54V.17H63.9V6.56A4.59,4.59,0,0,1,65.29,6a8.66,8.66,0,0,1,2.1-.22,6.23,6.23,0,0,1,4.09,1.19,4.73,4.73,0,0,1,1.42,3.83v10H67.73V11.8a2.4,2.4,0,0,0-.35-1.48,1.93,1.93,0,0,0-1.51-.43,2.09,2.09,0,0,0-1.57.45,2.74,2.74,0,0,0-.4,1.71v8.69ZM80.88,2.3a3.78,3.78,0,0,1-.12,1,1.55,1.55,0,0,1-.45.71,2.08,2.08,0,0,1-.87.41A6.08,6.08,0,0,1,78,4.57,3.42,3.42,0,0,1,75.76,4a2.26,2.26,0,0,1-.58-1.73A2.3,2.3,0,0,1,75.76.57,3.29,3.29,0,0,1,78,0,3.32,3.32,0,0,1,80.3.57,2.3,2.3,0,0,1,80.88,2.3ZM75.45,6.18h5.18V20.74H75.45Zm-58.4-.36a5.76,5.76,0,0,0-1.41-2.68,6.09,6.09,0,0,0-2.71-1.59A14.81,14.81,0,0,0,8.63,1H0v19.7H8.77A13.17,13.17,0,0,0,13,20.15a6.1,6.1,0,0,0,2.67-1.66A6.27,6.27,0,0,0,17,15.78a14.75,14.75,0,0,0,.42-3.69V9.63A15.82,15.82,0,0,0,17.05,5.82Zm-5.16-.11L10.43,16A1.41,1.41,0,0,1,9,17.22H5L7,4.3h3.72A1.23,1.23,0,0,1,11.89,5.71Z"/></g></g></svg>