<svg xmlns="http://www.w3.org/2000/svg" viewBox="0 0 144.21 35.95"><defs><style>.cls-1{fill:#087d35;}</style></defs><title>depo</title><g id="Capa_2" data-name="Capa 2"><g id="MARCAS"><path class="cls-1" d="M16.46,21.1c.55.11,1.05.23,1.56.32,1.34.24,2.68.5,4,.68a24.39,24.39,0,0,0,3,.2,14.46,14.46,0,0,0,5.88-1.13,6.19,6.19,0,0,0,2-1.3A2.49,2.49,0,0,0,32.75,16a7.57,7.57,0,0,0-2.6-1.48,15.9,15.9,0,0,0-5.89-.82,29.75,29.75,0,0,0-5,.62l-2.82.57a2.81,2.81,0,0,1,0-.3c.07-1.23.12-2.46.22-3.68s.25-2.48.42-3.72.38-2.44.61-3.65c.17-.85.41-1.68.63-2.51a.41.41,0,0,1,.22-.23A18.68,18.68,0,0,1,22,.1a17,17,0,0,1,3.27,0,18,18,0,0,1,3.45,35.21,17.41,17.41,0,0,1-4.6.68,19,19,0,0,1-5.15-.64.9.9,0,0,1-.72-.69,33.36,33.36,0,0,1-1.09-5.42c-.2-1.69-.35-3.38-.5-5.07C16.55,23.14,16.52,22.15,16.46,21.1Z"/><path d="M76.18,27.27V9.4H96.45v4.1H82.76v3H94.22v3.66H82.76c0,.11,0,.19,0,.27,0,.81,0,1.62,0,2.43,0,.27.09.33.34.33H96.46v4.09Z"/><path d="M53.15,27.29V9.43l.18,0c3.75,0,7.5,0,11.25,0A10,10,0,0,1,70,11a8.21,8.21,0,0,1,3.47,5,9.72,9.72,0,0,1-.68,6.81,7.5,7.5,0,0,1-5,3.95,14.39,14.39,0,0,1-3.86.49c-3.47,0-6.93,0-10.4,0Zm6.57-4.15s.06,0,.09,0c1.33,0,2.68,0,4-.11a4.08,4.08,0,0,0,3.59-3,6.08,6.08,0,0,0,.22-2.4,4.18,4.18,0,0,0-1.88-3.29A5.19,5.19,0,0,0,63,13.52c-1,0-2,0-3,0l-.23,0Z"/><path d="M132.38,9a11.56,11.56,0,0,1,6.32,1.89,7.91,7.91,0,0,1,3.45,5.39,11.81,11.81,0,0,1-.34,5.72,7.46,7.46,0,0,1-4.51,4.82,13.16,13.16,0,0,1-4.55.9,14.7,14.7,0,0,1-5.23-.66,8,8,0,0,1-4.72-3.82,8.92,8.92,0,0,1-1-3.22,12.19,12.19,0,0,1,.26-4.66,7.82,7.82,0,0,1,5.2-5.6A14.29,14.29,0,0,1,132.38,9Zm3.82,9.33c0-.26,0-.6-.06-.95a6.89,6.89,0,0,0-.86-3A3.77,3.77,0,0,0,130,13.21a4.55,4.55,0,0,0-1.75,2.47,9.12,9.12,0,0,0,0,5.59A3.76,3.76,0,0,0,132,24.14a3.59,3.59,0,0,0,3.41-2.09A8.4,8.4,0,0,0,136.2,18.3Z"/><path d="M106.09,21.69v5.58H99.54V9.4h13a8.94,8.94,0,0,1,4.34,1,5.52,5.52,0,0,1,3,5.34,5.54,5.54,0,0,1-3.16,4.89,9.27,9.27,0,0,1-4.51,1h-6.13Zm0-3.68.14,0c1.29,0,2.59,0,3.88,0a4.75,4.75,0,0,0,2.19-.5,2.17,2.17,0,0,0,1.16-2.11,2,2,0,0,0-1.3-1.9,6,6,0,0,0-2.27-.41c-1.17,0-2.35,0-3.52,0l-.28,0Z"/><path class="cls-1" d="M10,16.49c0-.29,0-.55,0-.8.07-1.22.11-2.44.22-3.65s.27-2.26.43-3.39a13.11,13.11,0,0,1,.81-3.19A3.71,3.71,0,0,1,12,4.64a.57.57,0,0,1,1,0,4.19,4.19,0,0,1,.46.83,15,15,0,0,1,.86,3.54c.15,1,.27,2,.37,3.06s.12,2,.18,2.92c0,.19-.06.26-.25.3l-4.35,1.12Z"/><path class="cls-1" d="M10,19.49l1.42.38,3.12.77c.2.05.29.12.27.34-.08,1-.12,2.08-.22,3.11-.14,1.27-.28,2.55-.51,3.8a25.62,25.62,0,0,1-.75,2.73,2.48,2.48,0,0,1-.32.6c-.36.53-.88.54-1.18,0a9.57,9.57,0,0,1-.72-1.79,23.07,23.07,0,0,1-.78-4.59c-.13-1.66-.22-3.32-.33-5Z"/><path class="cls-1" d="M4.83,18l3.64,1c0,.36,0,.74-.06,1.1a16.22,16.22,0,0,1-.6,3.6,6.83,6.83,0,0,1-.65,1.4c-.29.49-.68.48-1.07.06a3.63,3.63,0,0,1-.69-1.49,14.94,14.94,0,0,1-.58-3.69c-.05-1.19-.09-2.38-.05-3.57a15.79,15.79,0,0,1,.76-4.67,5,5,0,0,1,.6-1.12.55.55,0,0,1,1,0A4.25,4.25,0,0,1,7.74,12c.24.94.41,1.9.56,2.86.1.59.11,1.19.17,1.79,0,.22-.06.32-.28.38-1.09.3-2.18.62-3.27.93l-.09,0Z"/><path class="cls-1" d="M3.24,18A3.23,3.23,0,0,1,2.67,20a1.2,1.2,0,0,1-2.1,0A3.19,3.19,0,0,1,0,17.66,4.58,4.58,0,0,1,.35,16.4a1.37,1.37,0,0,1,1.47-1,1.51,1.51,0,0,1,1.12,1.06A14.93,14.93,0,0,1,3.31,18Z"/><path d="M57.15,34.61H55.09l-.28,1H53l2.2-5.86h2l2.2,5.86h-1.9Zm-.38-1.26-.64-2.11-.64,2.11Z"/><path d="M63.25,29.72h1.81v3.49a2.84,2.84,0,0,1-.17,1,2,2,0,0,1-.5.81,2.18,2.18,0,0,1-.73.49,3.65,3.65,0,0,1-1.27.19,8,8,0,0,1-.93-.06,2.69,2.69,0,0,1-.85-.23,2.25,2.25,0,0,1-.62-.51,1.81,1.81,0,0,1-.39-.68,3.5,3.5,0,0,1-.16-1V29.72h1.8V33.3a1,1,0,0,0,.27.75,1.17,1.17,0,0,0,1.47,0,1,1,0,0,0,.27-.75Z"/><path d="M65.64,29.72h5.51v1.45H69.3v4.41H67.49V31.17H65.64Z"/><path d="M71.25,32.65a3.19,3.19,0,0,1,5.29-2.24,2.93,2.93,0,0,1,.79,2.2A3.61,3.61,0,0,1,77,34.29a2.61,2.61,0,0,1-1,1,3.37,3.37,0,0,1-1.64.36,3.78,3.78,0,0,1-1.64-.31,2.52,2.52,0,0,1-1-1A3.34,3.34,0,0,1,71.25,32.65Zm1.82,0a2,2,0,0,0,.33,1.28,1.11,1.11,0,0,0,.89.39A1.13,1.13,0,0,0,75.2,34a2.22,2.22,0,0,0,.32-1.37,1.84,1.84,0,0,0-.33-1.21,1.18,1.18,0,0,0-.91-.38,1.09,1.09,0,0,0-.88.39A2,2,0,0,0,73.07,32.66Z"/><path d="M80.63,29.72h1.81v4.42h2.83v1.44H80.63Z"/><path d="M89.49,34.61h-2l-.29,1H85.3l2.2-5.86h2l2.2,5.86H89.79Zm-.37-1.26-.65-2.11-.64,2.11Z"/><path d="M92,29.72h2.38l.92,3.57.91-3.57h2.38v5.86H97.15V31.11L96,35.58H94.66l-1.14-4.47v4.47H92Z"/><path d="M99.58,29.72h3a2,2,0,0,1,1.47.47,1.73,1.73,0,0,1,.49,1.33,1.85,1.85,0,0,1-.53,1.39,2.34,2.34,0,0,1-1.63.5h-1v2.17H99.58Zm1.82,2.5h.44a1.18,1.18,0,0,0,.74-.18.59.59,0,0,0,.21-.47.64.64,0,0,0-.19-.47.93.93,0,0,0-.69-.19h-.51Z"/><path d="M107.8,29.72h2.38l.92,3.57.92-3.57h2.38v5.86h-1.49V31.11l-1.14,4.47h-1.34l-1.14-4.47v4.47H107.8Z"/><path d="M115.35,29.72h4.85V31h-3v.93H120v1.2h-2.82v1.15h3.13v1.33h-4.94Z"/><path d="M120.66,29.72h2l1,1.8,1-1.8h2l-1.83,2.84,2,3h-2l-1.16-1.88-1.16,1.88h-2l2-3Z"/><path d="M127.3,29.72h1.82v5.86H127.3Z"/><path d="M134.12,33.18l1.58.48a2.81,2.81,0,0,1-.5,1.12,2.21,2.21,0,0,1-.85.67,3.12,3.12,0,0,1-1.3.23,3.92,3.92,0,0,1-1.57-.27,2.55,2.55,0,0,1-1-1,3.37,3.37,0,0,1-.44-1.79,3.07,3.07,0,0,1,.77-2.24,3,3,0,0,1,2.19-.78,3,3,0,0,1,1.75.45,2.65,2.65,0,0,1,.94,1.37l-1.6.36a1.44,1.44,0,0,0-.18-.39,1,1,0,0,0-.37-.32A1,1,0,0,0,133,31a1.08,1.08,0,0,0-.95.5,2.17,2.17,0,0,0-.24,1.15,2.19,2.19,0,0,0,.29,1.34,1,1,0,0,0,.83.36,1,1,0,0,0,.79-.29A1.77,1.77,0,0,0,134.12,33.18Z"/><path d="M136.15,32.65a3.18,3.18,0,0,1,5.28-2.24,2.94,2.94,0,0,1,.8,2.2,3.61,3.61,0,0,1-.35,1.68,2.48,2.48,0,0,1-1,1,3.36,3.36,0,0,1-1.63.36,3.75,3.75,0,0,1-1.64-.31,2.48,2.48,0,0,1-1.06-1A3.34,3.34,0,0,1,136.15,32.65Zm1.81,0a2,2,0,0,0,.33,1.28,1.24,1.24,0,0,0,1.8,0,2.15,2.15,0,0,0,.32-1.37,1.84,1.84,0,0,0-.33-1.21,1.15,1.15,0,0,0-.91-.38,1.12,1.12,0,0,0-.88.39A2,2,0,0,0,138,32.66Z"/><path d="M142.52,12.34a1.69,1.69,0,1,1,1.69-1.69A1.69,1.69,0,0,1,142.52,12.34Zm0-3.14A1.45,1.45,0,1,0,144,10.65,1.45,1.45,0,0,0,142.52,9.2Z"/><path d="M143.37,11.61h-.27l-.31-.54L142.7,11l-.08-.09-.1,0h-.29v.81H142V9.7h.57a.8.8,0,0,1,.23,0,.5.5,0,0,1,.19.1.44.44,0,0,1,.12.15.56.56,0,0,1,0,.23.57.57,0,0,1,0,.18.42.42,0,0,1-.22.26l-.17.07h0l.08,0a.23.23,0,0,1,.07.07l.06.08L143,11ZM142.23,9.9v.69h.3l.15,0,.13-.07a.5.5,0,0,0,.08-.12.4.4,0,0,0,0-.15.27.27,0,0,0-.1-.24.42.42,0,0,0-.29-.09Z"/></g></g></svg>