<svg xmlns="http://www.w3.org/2000/svg" viewBox="0 0 127.91 60.63"><defs><style>.cls-1{fill:#e31715;}.cls-2{fill:#fff;}</style></defs><title>ecom</title><g id="Capa_2" data-name="Capa 2"><g id="MARCAS"><path class="cls-1" d="M20,4.21,115.47,0s14.9,18.75,12.09,60.63L0,46.43A101.1,101.1,0,0,0,20,4.21Z"/><path class="cls-2" d="M39.37,26.61l-1.89,6.73H20.67V9.29H36.93L38.68,16H28.37v2.06h9.11l-2,6.43H28.37v2.1Z"/><path class="cls-2" d="M57.41,26.73l-1.93,6.65H54.35a14,14,0,0,1-9.06-2.92Q41.68,27.55,41,24.23a29.43,29.43,0,0,1-.63-4.78A10.51,10.51,0,0,1,43,12.11a8.87,8.87,0,0,1,6.88-2.82h5.53L57.06,16H52.15A3.71,3.71,0,0,0,49,17.19a4.09,4.09,0,0,0-.91,2.58,5.17,5.17,0,0,0,.21,1.52c.13.46.24.8.32,1a2.37,2.37,0,0,0,.36.63,6.72,6.72,0,0,0,3,2.84,11.17,11.17,0,0,0,4.9.95Z"/><path class="cls-2" d="M82.84,21.07a17.21,17.21,0,0,1-4,9,10.23,10.23,0,0,1-8.06,3.64,10,10,0,0,1-8-3.64,14.06,14.06,0,0,1-3.57-7,41.45,41.45,0,0,1-.46-4.45,9.4,9.4,0,0,1,2.9-7.3c1.94-1.77,5-2.66,9.3-2.66,3.82,0,6.77,1,8.84,3A9.93,9.93,0,0,1,83,19.15v1.17C82.91,20.66,82.86,20.91,82.84,21.07ZM75.48,21a5,5,0,0,0,.11-1,4.46,4.46,0,0,0-1.29-3.24,4.9,4.9,0,0,0-3.7-1.33,3.87,3.87,0,0,0-3.09,1.41,4.93,4.93,0,0,0-1.2,3.3,8.47,8.47,0,0,0,.55,2.46,11.57,11.57,0,0,0,1.53,3A3.22,3.22,0,0,0,71.22,27a3.08,3.08,0,0,0,2.87-1.69A13.47,13.47,0,0,0,75.48,21Z"/><path class="cls-2" d="M108.92,33.34h-7.73V24l1.13-3.54-.62-.31L96.82,26.5,92,20.11l-.62.31,1.13,3.47v9.45H84.76V9.29h7.32l3.3,4.36,1.44,3.2,1.48-3.2,3.3-4.36h7.32Z"/><path class="cls-2" d="M33.28,44.21l-.44,2.33H31.66l-.86.12-.32.05a1.94,1.94,0,0,1-.4,0,2,2,0,0,1-1.66-.86,5,5,0,0,1-.91-2.23,12.75,12.75,0,0,1-.25-2.23,4.21,4.21,0,0,1,.64-2.49,2.07,2.07,0,0,1,1.78-.89h.85q2.41,0,2.41,3.69c0,.27,0,.59,0,1l-.06.54-.23,1Zm-2.07-1.89a2.16,2.16,0,0,0,0-.35,2,2,0,0,0-.31-1.13,1,1,0,0,0-.88-.46.83.83,0,0,0-.74.49A2.26,2.26,0,0,0,29,42a4,4,0,0,0,.13.85,5.1,5.1,0,0,0,.37,1.06.72.72,0,0,0,.67.49c.31,0,.54-.2.69-.59A6.22,6.22,0,0,0,31.21,42.32Z"/><path class="cls-2" d="M37.61,46.58H35.25a1.62,1.62,0,0,1-1.41-.69,3.68,3.68,0,0,1-.5-2.13,13.74,13.74,0,0,1,.37-2.91l.09-.46h1.84l-.27,1-.18.94a9.56,9.56,0,0,0-.11,1.13c0,.11,0,.3.05.58a.44.44,0,0,0,.49.43h.28V40.39h1.71Z"/><path class="cls-2" d="M40,39.89H38.32L39,38h1.75Zm0,6.69H38.32V40.4H40Z"/><path class="cls-2" d="M46.82,46.58H45.09V43.29a2.51,2.51,0,0,0,0-.37.64.64,0,0,0-.08-.2l-.06-.07a.34.34,0,0,0-.21-.1h-.16v4H42.85v-4h-.52v4H40.61V40.39h4.33a1.66,1.66,0,0,1,1.44.6,3.24,3.24,0,0,1,.44,1.9Z"/><path class="cls-2" d="M49.25,39.89H47.52V38.18h1.73Zm0,6.69H47.52V40.4h1.73Z"/><path class="cls-2" d="M53.09,42.46h-1a1.17,1.17,0,0,0-.42.11c-.19.07-.29.32-.29.75a2,2,0,0,0,.09.53,1,1,0,0,0,.36.53,1.14,1.14,0,0,0,.75.22l.17,0,.16,0H53l-.38,2.05h-.18A2.31,2.31,0,0,1,50.73,46a3,3,0,0,1-.84-1.59,7.91,7.91,0,0,1-.21-1.66,3.71,3.71,0,0,1,.23-1.41,1.46,1.46,0,0,1,.56-.73,1.13,1.13,0,0,1,.56-.19h1.7Z"/><path class="cls-2" d="M57.62,43.81A4.49,4.49,0,0,1,56.89,46a1.68,1.68,0,0,1-1.39.74,1.78,1.78,0,0,1-1.56-1A5.43,5.43,0,0,1,53.33,43a3.73,3.73,0,0,1,.45-2.16,2.11,2.11,0,0,1,1.73-.57,2.25,2.25,0,0,1,1.68.52,2.61,2.61,0,0,1,.5,1.82A11.06,11.06,0,0,1,57.62,43.81Zm-1.69-.42a.87.87,0,0,0,0-.18,1.64,1.64,0,0,0-.11-.62.36.36,0,0,0-.33-.26.35.35,0,0,0-.33.27,1.88,1.88,0,0,0-.11.67v.15a2.91,2.91,0,0,1,0,.33,3.5,3.5,0,0,0,.14.59c.07.24.17.35.28.35s.25-.13.29-.4S55.9,43.72,55.93,43.39Z"/><path class="cls-2" d="M61.28,42.46h-.56c-.26,0-.38.17-.34.52a.91.91,0,0,0,.1.29l.52.87a1.73,1.73,0,0,1,.23.91,3.67,3.67,0,0,1-.18.92.86.86,0,0,1-.94.61h-1.9l-.35-2.06h.73c.18,0,.29-.12.32-.35a.67.67,0,0,0,0-.25.77.77,0,0,0-.1-.23l-.48-.83a1.83,1.83,0,0,1-.21-.91v-.17a4.18,4.18,0,0,1,.06-.43,1.47,1.47,0,0,1,.33-.66.89.89,0,0,1,.72-.3h1.7Z"/><path class="cls-2" d="M69.51,40.69H67.86a1.74,1.74,0,0,0-1.55.94l-.11.21h.94v-.78h2v5.62h-2V44.37H65.88a7.44,7.44,0,0,0,.57,2.34l-1.61,1.53q-.06-.12-.12-.27c0-.1-.12-.34-.26-.71a10.63,10.63,0,0,1-.36-1.37,8.66,8.66,0,0,1-.16-1.59,9.21,9.21,0,0,1,.92-4.5,2.77,2.77,0,0,1,2.47-1.62h1.73Z"/><path class="cls-2" d="M73.62,46.58H71.25a1.63,1.63,0,0,1-1.41-.69,3.76,3.76,0,0,1-.49-2.13,14.33,14.33,0,0,1,.36-2.91l.1-.46h1.84l-.27,1-.18.94a9.56,9.56,0,0,0-.11,1.13c0,.11,0,.3,0,.58a.43.43,0,0,0,.48.43h.28V40.39h1.72Z"/><path class="cls-2" d="M77,44.52l-.4,2.06h-.77a1.18,1.18,0,0,1-1-.47,2.6,2.6,0,0,1-.46-1.35l0-.41V42.46H74V40.39h.33v-1.1l1.74-.75v1.85h.7v2.07h-.7v1.3a1.85,1.85,0,0,0,0,.39.61.61,0,0,0,.11.23.41.41,0,0,0,.19.14H77Z"/><path class="cls-2" d="M81.37,43.81A4.6,4.6,0,0,1,80.65,46a1.7,1.7,0,0,1-1.4.74,1.78,1.78,0,0,1-1.55-1A5.33,5.33,0,0,1,77.09,43a3.73,3.73,0,0,1,.45-2.16,2.09,2.09,0,0,1,1.72-.57,2.28,2.28,0,0,1,1.69.52,2.61,2.61,0,0,1,.5,1.82A11.28,11.28,0,0,1,81.37,43.81Zm-1.68-.42a.87.87,0,0,0,0-.18,1.46,1.46,0,0,0-.12-.62.34.34,0,0,0-.33-.26c-.14,0-.25.09-.32.27a1.88,1.88,0,0,0-.11.67v.15a2.91,2.91,0,0,1,0,.33,2.74,2.74,0,0,0,.14.59c.07.24.16.35.28.35s.24-.13.29-.4S79.66,43.72,79.69,43.39Z"/><path class="cls-2" d="M88.15,46.58H86.42V43.29a2.51,2.51,0,0,0,0-.37.64.64,0,0,0-.08-.2l-.06-.07a.34.34,0,0,0-.21-.1h-.16v4H84.18v-4h-.52v4H82V40.39h4.32a1.65,1.65,0,0,1,1.44.6,3.17,3.17,0,0,1,.44,1.9Z"/><path class="cls-2" d="M93,43.81A4.6,4.6,0,0,1,92.23,46a1.7,1.7,0,0,1-1.4.74,1.8,1.8,0,0,1-1.56-1,5.43,5.43,0,0,1-.6-2.81,3.82,3.82,0,0,1,.44-2.16,2.12,2.12,0,0,1,1.73-.57,2.24,2.24,0,0,1,1.68.52A2.56,2.56,0,0,1,93,42.6,11.06,11.06,0,0,1,93,43.81Zm-1.68-.42s0-.1,0-.18a1.46,1.46,0,0,0-.12-.62.34.34,0,0,0-.33-.26c-.14,0-.25.09-.32.27a1.68,1.68,0,0,0-.11.67v.15c0,.06,0,.17,0,.33a3.37,3.37,0,0,0,.13.59c.08.24.17.35.29.35s.24-.13.29-.4S91.24,43.72,91.27,43.39Z"/><path class="cls-2" d="M96.22,44.52l-.39,2.06h-.77a1.17,1.17,0,0,1-1-.47,2.6,2.6,0,0,1-.46-1.35l0-.41V42.46h-.34V40.39h.34v-1.1l1.73-.75v1.85H96v2.07h-.71v1.3a1.67,1.67,0,0,0,0,.39.49.49,0,0,0,.11.23.37.37,0,0,0,.19.14h.57Z"/><path class="cls-2" d="M99.09,42.7h0a.79.79,0,0,0-.64.34,2.85,2.85,0,0,0-.2.42v3.12H96.48V40.39H98.2V41l.22-.29a1.29,1.29,0,0,1,.24-.21.74.74,0,0,1,.43-.1Z"/><path class="cls-2" d="M101.22,39.89H99.5V38.18h1.72Zm0,6.69H99.5V40.4h1.72Z"/><path class="cls-2" d="M105.06,42.46h-1a1.17,1.17,0,0,0-.42.11c-.19.07-.29.32-.29.75a2.54,2.54,0,0,0,.09.53,1.09,1.09,0,0,0,.37.53,1.13,1.13,0,0,0,.74.22l.18,0,.15,0h.1l-.39,2.05h-.18A2.34,2.34,0,0,1,102.7,46a3.14,3.14,0,0,1-.84-1.59,7.82,7.82,0,0,1-.2-1.66,3.52,3.52,0,0,1,.23-1.41,1.51,1.51,0,0,1,.55-.73,1.16,1.16,0,0,1,.56-.19h1.7Z"/><path class="cls-2" d="M109.48,42.29a2.4,2.4,0,0,1-.34,1.32,5.62,5.62,0,0,1-.45.65l-.21.24.76,0-.39,2h-.62a2.77,2.77,0,0,1-2-.66,2.69,2.69,0,0,1-.8-1.65,12.11,12.11,0,0,1-.13-1.47,3.14,3.14,0,0,1,.47-1.87,1.56,1.56,0,0,1,1.34-.65,3.37,3.37,0,0,1,1.87.38,1.55,1.55,0,0,1,.52,1.35c0,.07,0,.13,0,.17Zm-1.78,1.05a1.1,1.1,0,0,0,.13-.5.56.56,0,0,0-.1-.35.51.51,0,0,0-.26-.19.3.3,0,0,0-.28.13.85.85,0,0,0-.21.34,1,1,0,0,0-.06.32,1.84,1.84,0,0,0,0,.41l.1.37c.06,0,.17,0,.31-.12A1.07,1.07,0,0,0,107.7,43.34Z"/><path class="cls-2" d="M113.14,42.46h-.56c-.26,0-.38.17-.34.52a.91.91,0,0,0,.1.29l.52.87a1.73,1.73,0,0,1,.23.91,3.67,3.67,0,0,1-.18.92.86.86,0,0,1-.94.61h-1.9l-.35-2.06h.73c.18,0,.29-.12.32-.35a.67.67,0,0,0,0-.25.77.77,0,0,0-.1-.23l-.48-.83A1.83,1.83,0,0,1,110,42v-.17a4.18,4.18,0,0,1,.06-.43,1.47,1.47,0,0,1,.33-.66.89.89,0,0,1,.72-.3h1.69Z"/><path class="cls-2" d="M115,12.9h-1.16V11.49L114,11l-.09,0-.73,1-.73-1-.09,0,.17.52V12.9h-1.16V9.29h1.1L113,10l.22.48.22-.48.49-.66H115Z"/><path class="cls-2" d="M118.85,12.94l-.95.62a3.77,3.77,0,0,1-1.08-2.23l0,0,.1-.07a1.42,1.42,0,0,0,.22-.18l.19-.22a.53.53,0,0,0,.1-.26q0-.2-.24-.27h-2l.26-1h1.85c.7,0,1.07.17,1.13.51s.1.52.1.56v.13a1.22,1.22,0,0,1-.55,1l-.14.08c.07.12.14.25.22.36l.22.34.24.32C118.68,12.74,118.77,12.84,118.85,12.94Zm-2.18,0h-1.16V10.53h1.16Z"/></g></g></svg>