<svg xmlns="http://www.w3.org/2000/svg" xmlns:xlink="http://www.w3.org/1999/xlink" viewBox="0 0 144.21 28.56"><defs><style>.cls-1{fill:#da2624;}.cls-2{fill:#1d1d1b;}</style><symbol id="Elvac" data-name="Elvac" viewBox="0 0 348.06 68.94"><polygon class="cls-1" points="101.25 39.8 131.06 39.8 131.06 29.45 101.25 29.45 101.25 15.83 133.29 15.83 133.29 5.44 89.25 5.44 89.25 66.87 134.43 66.87 134.43 56.52 101.25 56.52 101.25 39.8"/><polygon class="cls-1" points="156.91 5.95 144.92 5.95 144.92 66.87 186.74 66.87 186.74 56.52 156.91 56.52 156.91 5.95"/><polygon class="cls-1" points="225.63 5.44 211.09 50.91 196.05 5.44 183.05 5.44 204.28 66.87 217.08 66.87 238.35 5.44 225.63 5.44"/><path class="cls-1" d="M255.41,5.44,232.28,66.87H245l4.9-14h23.74l5.19,14h13L268.09,5.44Zm-1.82,37.13,8-22.8,8.18,22.8Z"/><path class="cls-1" d="M331.3,54.17a12.74,12.74,0,0,1-8.23,3.15,13,13,0,0,1-10.53-5q-4.05-4.93-4.05-16.59,0-11,4.11-15.88A13.31,13.31,0,0,1,323.32,15a12.35,12.35,0,0,1,8.12,2.76,12.72,12.72,0,0,1,4.39,7.54,9.9,9.9,0,0,1,0,3.65h12a20.29,20.29,0,0,0-.16-6.58c-.27-2-3.38-8.69-6.08-11.31Q334.82,4.4,323.92,4.4q-12.48,0-20.13,8.48T296.13,36.7q0,14.5,7.62,22.86a25.13,25.13,0,0,0,19.44,8.36q9.57,0,15.78-4.88t8.9-14.94H336.24C335.74,50.21,334.14,51.88,331.3,54.17Z"/><path class="cls-2" d="M57.08,10.77c-.1.08-4.07,3.07-7.61,2.74a22.59,22.59,0,0,1-6.57-2,34.28,34.28,0,0,0-9-2.67,38.43,38.43,0,0,0-11.51.2L20,20.87,24,20a27.71,27.71,0,0,1,8.48-.17,24.38,24.38,0,0,1,6.2,1.93,32.24,32.24,0,0,0,9.74,2.74c.63.06,1.25.09,1.85.09A9.27,9.27,0,0,0,55,23.21L57.25,11Z"/><path class="cls-2" d="M43.49,41.27c-4,0-5.07-1.44-7.77-2.55a24.38,24.38,0,0,0-6.2-1.93A27,27,0,0,0,21,37l-4,.9,2.4-11.79a38.89,38.89,0,0,1,11.51-.19,34.28,34.28,0,0,1,9,2.67c2.27.93,2.27,1.55,4.6,1.77l2.77-1.23S47.27,41.27,43.49,41.27Z"/><path class="cls-2" d="M43.47,48a22.65,22.65,0,0,1-6.58-2,34.19,34.19,0,0,0-9-2.67,37,37,0,0,0-12.38.37l-.19,0-2.41,11.8L18,54.41a26.86,26.86,0,0,1,8.47-.17,24.14,24.14,0,0,1,6.2,1.93,32.41,32.41,0,0,0,9.74,2.74c.64.06,1.26.08,1.86.08,1.83,0,4.72-.5,5.08-1.79l2.27-12.41C51.2,45.13,46.69,48.26,43.47,48Z"/><path class="cls-2" d="M32.33,68.94c-8.58,0-23.57-.6-27.56-4.59C.07,59.66-.06,39.85,0,33.89.15,22.33,1.48,7.67,4.77,4.38,8.94.21,30.78,0,35.11,0,41,0,60.67.32,64.74,4.38S69,28.59,68.93,34.67c0,4.28-.38,25.88-4.19,29.68C61.38,67.72,43.51,68.94,32.33,68.94ZM35.11,3C19.06,3,8.59,4.8,6.89,6.5S3.19,19,3,33.92C2.84,48.14,4.44,59.78,6.89,62.23c2.25,2.26,12.24,3.71,25.44,3.71C48,65.94,60.87,64,62.62,62.23c1.54-1.54,3.19-12.28,3.31-27.59C66,18.46,64.35,8.23,62.62,6.5S50.87,3,35.11,3Z"/></symbol></defs><title>elvac</title><g id="Capa_2" data-name="Capa 2"><g id="MARCAS"><use width="348.06" height="68.94" transform="scale(0.41)" xlink:href="#Elvac"/></g></g></svg>