<svg xmlns="http://www.w3.org/2000/svg" viewBox="0 0 144.21 27.84"><defs><style>.cls-1{fill:#87878a;}.cls-2{fill:#cc1417;}.cls-3{fill:#eb671b;}</style></defs><title>euroespaña</title><g id="Capa_2" data-name="Capa 2"><g id="MARCAS"><polygon class="cls-1" points="30.11 27.84 27.88 27.84 39.46 5.6 41.69 5.6 30.11 27.84"/><path class="cls-1" d="M48.45,10.38h8.83l-1.05,1.79H50.41l-.67,1.15H55L54,15H48.76l-.7,1.21H54L52.91,18H44Z"/><path class="cls-1" d="M55.42,16l2.25-3.84h3l-1.86,3.18c-.38.64-.1,1,.63,1a2.11,2.11,0,0,0,1.81-1l1.87-3.18h3L62.64,18h-3l.47-.8a6.12,6.12,0,0,1-3.09.93C55.23,18.11,54.63,17.29,55.42,16Z"/><path class="cls-1" d="M67.68,12.11h3L70,13.29A4.92,4.92,0,0,1,73.4,12l-1.27,2.17h-.25a3.88,3.88,0,0,0-3.59,2L67.22,18h-3Z"/><path class="cls-1" d="M72.16,15.07v0c1-1.67,3.77-3.07,6.51-3.07s3.86,1.38,2.89,3l0,0c-1,1.67-3.77,3.07-6.5,3.07S71.18,16.74,72.16,15.07Zm6.48,0v0c.42-.72,0-1.32-1-1.32A3.07,3.07,0,0,0,75.08,15v0c-.42.72,0,1.32,1,1.32A3.07,3.07,0,0,0,78.64,15.07Z"/><path class="cls-1" d="M90.06,10.38h8.83l-1,1.79H92l-.67,1.15h5.27l-1,1.66H90.38l-.71,1.21h5.9l-1,1.79H85.61Z"/><path class="cls-1" d="M95.69,17.24,97.54,16a4.83,4.83,0,0,0,2.52.68c.52,0,.82-.11.94-.32v0c.14-.23-.28-.33-1.07-.5-1.5-.3-2.61-.69-1.91-1.88v0c.73-1.25,2.58-1.94,4.54-1.94a6.36,6.36,0,0,1,3.1.68L103.9,14a5.25,5.25,0,0,0-2.19-.55c-.46,0-.76.12-.86.29v0c-.14.22.29.33,1.07.52,1.49.32,2.59.72,1.92,1.86v0c-.75,1.29-2.55,2-4.62,2A6.21,6.21,0,0,1,95.69,17.24Z"/><path class="cls-1" d="M107.41,12.11h3l-.46.78A6.1,6.1,0,0,1,113,12c2,0,3.09,1.16,2,3l0,0a6.75,6.75,0,0,1-5.54,3.07c-1.29,0-1.81-.4-2.1-.85l-1.43,2.46h-3Zm4.66,2.94,0,0c.45-.77,0-1.33-1-1.33a3.08,3.08,0,0,0-2.5,1.33v0c-.46.78,0,1.33.94,1.33A3.06,3.06,0,0,0,112.07,15.05Z"/><path class="cls-1" d="M115.14,16.3v0c.71-1.22,2.42-1.85,4.41-1.85a7.5,7.5,0,0,1,1.91.23l0-.1c.36-.61,0-1-1.13-1a10.76,10.76,0,0,0-2.53.32l.24-1.45a14.89,14.89,0,0,1,3.7-.46c1.52,0,2.41.25,2.82.72s.3,1-.19,1.87l-2,3.37h-2.95l.35-.61a6.11,6.11,0,0,1-2.93.74C115.32,18.11,114.45,17.47,115.14,16.3Zm5.66-.45.16-.27a3.39,3.39,0,0,0-1.07-.15,2.05,2.05,0,0,0-1.8.73v0c-.23.4.07.64.68.64A2.38,2.38,0,0,0,120.8,15.85Z"/><path class="cls-1" d="M127.42,12.11h3l-.49.82A6.31,6.31,0,0,1,133,12c1.8,0,2.4.82,1.62,2.16L132.39,18h-3l1.86-3.18c.37-.64.09-1-.61-1a2.13,2.13,0,0,0-1.84,1L127,18h-3Zm1.37-.74a3.88,3.88,0,0,1,2.89-1.62,19.45,19.45,0,0,1,2.2.43,1.57,1.57,0,0,0,1.09-.5l1.27.27a3.8,3.8,0,0,1-2.88,1.61,20.41,20.41,0,0,1-2.2-.43,1.54,1.54,0,0,0-1.1.51Z"/><path class="cls-1" d="M134.49,16.3v0c.71-1.22,2.41-1.85,4.41-1.85a7.35,7.35,0,0,1,1.9.23l.06-.1c.36-.61,0-1-1.13-1a10.76,10.76,0,0,0-2.53.32l.24-1.45a14.89,14.89,0,0,1,3.7-.46c1.52,0,2.41.25,2.81.72s.3,1-.18,1.87l-2,3.37h-3l.36-.61a6.11,6.11,0,0,1-2.93.74C134.67,18.11,133.8,17.47,134.49,16.3Zm5.66-.45.16-.27a3.41,3.41,0,0,0-1.08-.15,2,2,0,0,0-1.79.73v0c-.24.4.06.64.68.64A2.39,2.39,0,0,0,140.15,15.85Z"/><path class="cls-2" d="M21.19,5.57a29,29,0,0,0,15-.09l-1.55,3s-8.89,2.18-14.92-.11Z"/><path class="cls-2" d="M19,9.73a27.26,27.26,0,0,0,15,0l-1.67,3.21a43.23,43.23,0,0,1-11.56.24l-.83,1.59s7.59.63,11.85-.79l-1.62,3.1s-5.79,1.7-14.88-.18Z"/><path class="cls-3" d="M21,1A32.77,32.77,0,0,0,5.85.72l-1.54,3a33.37,33.37,0,0,1,15.18.12Z"/><path class="cls-3" d="M18.74,5.26,17.3,8s-2.58-1.38-11.06-.9L5.42,8.7s6.64-.72,11.22.58L15,12.36s-3.65-2-15-.4L3.63,5S11.92,3.29,18.74,5.26Z"/></g></g></svg>