<svg xmlns="http://www.w3.org/2000/svg" viewBox="0 0 104.86 61.05"><title>gates</title><g id="Capa_2" data-name="Capa 2"><g id="MARCAS"><path d="M.53,26.84C3.46,15.61,14,9.59,20.67,6.57,38.16-1.35,58.55-2.36,79.13,4.9c17.7,6.25,22.84,17.22,23.6,23.61a16.51,16.51,0,0,1-2.43,11.18l-9.09.06s.27-2.49.55-3.88,1.11-5.42,1.11-5.42l-4-.14S82.33,40.35,77,42.39c-5.09,2-5-2.08-5-2.08a4.72,4.72,0,0,0,4.69.28c3.38-2,4.84-4.42,4.93-7.48.07-2.24-2-4.56-4.51-4.05-3.55.73-6.59,4.84-7.77,7.64a18.65,18.65,0,0,1-1.53,3s-1.25,2.5-3.06,1.53,1.11-5.55,2.22-7.5,2.53-4.3,2.53-4.3l4.39,0,1.56-3.2-4,0,2-3.48H69.68l-2.52,3.55-3.22,0-2.1,3.17,3.4,0s-4,6.39-6,8.75c-1.79,2.09-4.1,4.65-5.35,4.37s1.67-4.37,2.92-6.18,3.54-6.11,3.54-6.11H56.63l-1,1.39s.21-.83-.9-1.11-9.17-.21-9.17-.21l5.16-7.68H46.12a20.23,20.23,0,0,1-6.64,2.54c-8.28,1.91-11-.07-11-.07a87.61,87.61,0,0,0,15.35-4.32c6.66-2.78,18.56-7.72,14.37-13.31C54.62,2.82,42.61,6.6,38,8.13c-6.28,2.09-13.53,6-15.55,9A13.51,13.51,0,0,0,20.39,22a13.57,13.57,0,0,1-3.54.14c-2-.12-3.47-.3-3.47-.3L11.66,25a9.58,9.58,0,0,0,4.42,1,34.21,34.21,0,0,0,5.28-.14,11.26,11.26,0,0,0,7.08,3.54c8.47.9,13.82-1.32,13.82-1.32l-2.08,2.36s-9.61.49-18.52,1.83a133.27,133.27,0,0,0-20,4.7S-1.13,33.23.53,26.84Z"/><path d="M96.34,43.78s-4.72,6.68-16.1,11.53a77.48,77.48,0,0,1-36.8,5.41,59.05,59.05,0,0,1-21.59-6.11A109.63,109.63,0,0,0,33.09,44.27a119.23,119.23,0,0,0,8.75-10.21l3.2.07s-4.1,4.31-4.45,7.36.63,5.35,3.27,5.35,4.79-3,4.79-3,1.66,4,4.16,3.61c3.23-.54,6-5,6-5s1,3.77,3.82,4c3,.28,5.9-3.82,5.9-3.82s1.32,3.47,3.75,4.24c2.94.92,7.56-2.85,9.65-4.93s6.18-6.74,6.18-6.74,0,3.75-1,4.93-4.51,2-4.51,4.1c0,1.59,1.94,2.77,4,1.39s2.78-1.95,2.78-1.95Z"/><path d="M11.22,39.27c9.72-3.47,25-4.58,25-4.58s-9.44,11.8-19,16.1C11.34,53.47,5.2,53.21,3.52,49.34,1.71,45.17,5.28,41.39,11.22,39.27Z"/><path d="M44.9,42.18c-.7-.23.48-3.12,2.71-5.13s4.25-3.22,4.72-3.2,1.59.28-1.39,3.61S46.36,42.67,44.9,42.18Z"/><path d="M74.54,34.41c1-1,2.62-2.06,3.06-1.67s.23,1.74-.9,3.06c-1.57,1.82-2.87,2.66-3.55,1.87S73.57,35.45,74.54,34.41Z"/><path d="M25.15,21.29c.41,1,7.4-.88,15.44-4,8.51-3.33,13.62-5.85,13.06-7.08s-9.17.14-15.42,2.78S24.16,18.83,25.15,21.29Z"/><path d="M101.59,42.6a1.64,1.64,0,1,1,1.64,1.61A1.61,1.61,0,0,1,101.59,42.6Zm1.64,1.34a1.34,1.34,0,1,0-1.31-1.34A1.3,1.3,0,0,0,103.23,43.94Zm-.34-.41h-.28V41.67h.71c.44,0,.65.16.65.53a.48.48,0,0,1-.48.51l.53.82h-.31l-.5-.81h-.32Zm.34-1.05c.24,0,.45,0,.45-.3s-.21-.27-.41-.27h-.38v.57Z"/></g></g></svg>