<svg xmlns="http://www.w3.org/2000/svg" viewBox="0 0 125.83 62.36"><defs><style>.cls-1{fill:#9a9a9f;}.cls-2{fill:#cf122d;}.cls-3{fill:#929599;}</style></defs><title>gonher</title><g id="Capa_2" data-name="Capa 2"><g id="MARCAS"><path class="cls-1" d="M35.56,18h3.66S65,4.17,86.9,3.89,115,9.66,114,18h2.81S124.59-3.56,84.37.51C84.37.51,62.13,2.39,35.56,18Z"/><path class="cls-1" d="M92.24,44.41H88.58S62.84,58.19,40.9,58.47,12.77,52.71,13.76,44.41H10.94S3.21,65.93,43.43,61.85C43.43,61.85,65.67,60,92.24,44.41Z"/><path class="cls-2" d="M22.43,23.4,18.1,27.31s-1.68-1.8-5.65-1A7.34,7.34,0,0,0,7.26,30.8s-1.18,3.35.83,5c0,0,1,1,4.68.58a.87.87,0,0,0,.6-.76c.13-.67.44-2.31.44-2.31s.19-2.11-1.08-2.59h7.88s-1,4.83-1.66,7.73A4.82,4.82,0,0,1,14.67,42a43.39,43.39,0,0,1-7.19.13A8.35,8.35,0,0,1,.83,38S-2.07,32.16,3,25.57c0,0,4.45-5.69,11.81-5.16C14.78,20.41,20.41,20.66,22.43,23.4Z"/><path class="cls-2" d="M44.63,20.82a3.18,3.18,0,0,1,.84,3.29c-.5,2.3-4.3,17.63-4.3,17.63h4.41A2.53,2.53,0,0,0,48,40.08l2.1-8.77,4,9.14a2.46,2.46,0,0,0,2.43,1.29h3.8l5.14-20.92H59.05l-2.44,10-4.35-10Z"/><path class="cls-2" d="M66.14,20.82a3.38,3.38,0,0,1,.92,3.12l-4.32,17.8h4.38a2.52,2.52,0,0,0,2.49-2c.49-2.08,1.33-5.5,1.33-5.5l5.82,0-1.82,7.48h4.54A2.57,2.57,0,0,0,81.77,40c.41-1.69,4.68-19.12,4.68-19.12H78.38a3.21,3.21,0,0,1,.94,2.93s-.24,1.43-1.08,4.5l-5.87,0,1.87-7.41Z"/><path class="cls-2" d="M87.26,20.82a3.71,3.71,0,0,1,.89,3.05L83.78,41.74H98.35a2.51,2.51,0,0,0,2.29-1.83c.42-1.75,1-3.91,1-3.91H91.4L92,33.75h9.33l1.22-5.08H93.26l.51-2.11h10l1.45-5.74Z"/><path class="cls-2" d="M21.89,32.72c0-6.52,4.81-12.34,11.19-12.34a9.18,9.18,0,0,1,9.45,9.52c0,6.51-4.8,12.34-11.19,12.34A9.19,9.19,0,0,1,21.89,32.72Zm14.26-2.19c0-2.22-1.22-4-3.5-4-2.66,0-4.37,2.89-4.37,5.53,0,2.22,1.22,4,3.5,4C34.44,36.05,36.15,33.17,36.15,30.53Z"/><path class="cls-2" d="M122.26,23.67s-1.41-2.53-6-2.76l-10.65-.09a3.41,3.41,0,0,1,.87,3.15l-4.33,17.77h4.4A2.47,2.47,0,0,0,109,39.87c.47-1.94,1-4.09,1-4.09h1.58l2.16,6h6.87l-2.66-7a7.18,7.18,0,0,0,5.25-6.05A7.87,7.87,0,0,0,122.26,23.67Zm-5.51,5.06s-.09,1.74-2.63,2.05h-2.94l1-4.1h2.57S117.06,26.63,116.75,28.73Z"/><path class="cls-2" d="M122.57,38.53h1.06a1,1,0,0,1,.68.24.71.71,0,0,1,.19.51h0a.71.71,0,0,1-.56.72l.64.89h-.49l-.58-.82H123v.82h-.42Zm1,1.17c.29,0,.48-.15.48-.39h0c0-.25-.18-.39-.49-.39H123v.79Z"/><path class="cls-2" d="M123.58,42a2.25,2.25,0,1,1,2.25-2.25A2.25,2.25,0,0,1,123.58,42Zm0-4.13a1.88,1.88,0,1,0,1.87,1.88A1.88,1.88,0,0,0,123.58,37.83Z"/><path class="cls-3" d="M20.66,44.55h.66l.67,4h-.71l-.15-1H19.27l-.66,1h-.75Zm.39,2.4-.26-1.59L19.69,47Z"/><path class="cls-3" d="M22.16,48.66h-1L21,47.71H19.34l-.66.95H17.59l3-4.25h.85Zm-.76-.29h.43l-.63-3.68h-.47l-2.6,3.68h.41l.66-.95h2.05Zm-.19-1.28H19.42L20.88,45ZM20,46.81h.92l-.17-1.08Z"/><path class="cls-3" d="M23.93,47.28a2.34,2.34,0,0,1,.09-.63l.55-2.07h.7l-.58,2.17a1.44,1.44,0,0,0-.06.43.73.73,0,0,0,.83.76,1,1,0,0,0,.73-.3,1.72,1.72,0,0,0,.44-.82l.6-2.24h.69l-.63,2.34a2.55,2.55,0,0,1-.61,1.17,1.73,1.73,0,0,1-1.29.49A1.28,1.28,0,0,1,23.93,47.28Z"/><path class="cls-3" d="M25.39,48.72a1.41,1.41,0,0,1-1.6-1.44,2.22,2.22,0,0,1,.1-.67l.58-2.17h1l-.63,2.34a1.9,1.9,0,0,0-.05.4c0,.4.25.62.69.62a.9.9,0,0,0,.64-.26,1.65,1.65,0,0,0,.39-.76l.63-2.34h1L27.43,47a2.72,2.72,0,0,1-.65,1.23A1.89,1.89,0,0,1,25.39,48.72Zm-.71-4-.52,2a2,2,0,0,0-.09.59c0,.73.48,1.16,1.32,1.16A1.6,1.6,0,0,0,26.58,48a2.39,2.39,0,0,0,.58-1.1l.58-2.17h-.4l-.58,2.13a1.77,1.77,0,0,1-.47.89,1.16,1.16,0,0,1-.83.34.87.87,0,0,1-1-.9,1.89,1.89,0,0,1,.06-.47l.53-2Z"/><path class="cls-3" d="M30.9,45.22H29.64l.18-.64H33l-.17.64H31.59l-.89,3.3H30Z"/><path class="cls-3" d="M30.81,48.66h-1l.89-3.3H29.46l.25-.92H33.2l-.25.92H31.7Zm-.62-.29h.4l.89-3.29h1.25l.1-.36H29.92l-.09.36h1.25Z"/><path class="cls-3" d="M34.13,46.86a2.35,2.35,0,0,1,2.33-2.35,1.69,1.69,0,0,1,1.77,1.73,2.35,2.35,0,0,1-2.34,2.34A1.68,1.68,0,0,1,34.13,46.86Zm3.38-.58a1.07,1.07,0,0,0-1.12-1.14,1.65,1.65,0,0,0-1.54,1.68A1.06,1.06,0,0,0,36,48,1.65,1.65,0,0,0,37.51,46.28Z"/><path class="cls-3" d="M35.89,48.72A1.82,1.82,0,0,1,34,46.86a2.51,2.51,0,0,1,2.47-2.49,1.82,1.82,0,0,1,1.91,1.87A2.48,2.48,0,0,1,35.89,48.72Zm.57-4.07a2.23,2.23,0,0,0-2.19,2.21,1.53,1.53,0,0,0,1.62,1.58,2.23,2.23,0,0,0,2.2-2.2A1.54,1.54,0,0,0,36.46,44.65ZM36,48.09a1.19,1.19,0,0,1-1.26-1.27A1.78,1.78,0,0,1,36.39,45a1.2,1.2,0,0,1,1.26,1.28A1.78,1.78,0,0,1,36,48.09Zm.42-2.8A1.5,1.5,0,0,0,35,46.82a.92.92,0,0,0,1,1,1.51,1.51,0,0,0,1.4-1.53A.92.92,0,0,0,36.39,45.29Z"/><path class="cls-3" d="M40.86,44.58H42.1a1.61,1.61,0,0,1,1.2.38,1.07,1.07,0,0,1,.29.78c0,.95-.81,1.5-1.92,1.5h-.83l-.34,1.28h-.7Zm.84,2c.72,0,1.17-.3,1.17-.82a.53.53,0,0,0-.15-.39.86.86,0,0,0-.64-.2h-.7L41,46.62Z"/><path class="cls-3" d="M40.61,48.66h-1l1.13-4.22H42.1a1.69,1.69,0,0,1,1.3.43,1.18,1.18,0,0,1,.33.87c0,1-.81,1.64-2.06,1.64H41ZM40,48.37h.4l.35-1.27h.93c1.08,0,1.78-.53,1.78-1.36a1,1,0,0,0-.25-.68,1.48,1.48,0,0,0-1.1-.34H41Zm1.71-1.6h-.88l.46-1.7h.8a1,1,0,0,1,.74.24.7.7,0,0,1,.19.49C43,46.39,42.51,46.77,41.7,46.77Zm-.51-.29h.51c.64,0,1-.25,1-.68a.4.4,0,0,0-.11-.29.74.74,0,0,0-.54-.16h-.59Z"/><path class="cls-3" d="M47,44.55h.66l.67,4h-.71l-.15-1H45.61l-.66,1H44.2Zm.39,2.4-.26-1.59L46,47Z"/><path class="cls-3" d="M48.5,48.66h-1l-.15-.95H45.68l-.66.95H43.93l3-4.25h.85Zm-.76-.29h.43l-.63-3.68h-.47l-2.6,3.68h.41l.66-.95h2.05Zm-.19-1.28H45.76L47.22,45Zm-1.25-.28h.92l-.17-1.08Z"/><path class="cls-3" d="M51.23,44.58h1.43a1.6,1.6,0,0,1,1.2.38,1,1,0,0,1,.28.74,1.21,1.21,0,0,1-.36.9,1.71,1.71,0,0,1-1,.47l.73,1.45h-.79l-.68-1.38h-.82l-.37,1.38h-.69Zm1.07,2a1.31,1.31,0,0,0,.93-.3.65.65,0,0,0,.19-.47.49.49,0,0,0-.14-.36.9.9,0,0,0-.66-.19h-.86l-.36,1.32Z"/><path class="cls-3" d="M53.76,48.66H52.65L52,47.28h-.62L51,48.66H50l1.14-4.22h1.53a1.73,1.73,0,0,1,1.3.42,1.17,1.17,0,0,1,.32.84,1.32,1.32,0,0,1-.4,1,1.74,1.74,0,0,1-.87.47Zm-.94-.29h.48L52.59,47l.18,0a1.63,1.63,0,0,0,.91-.44,1.08,1.08,0,0,0,.32-.8.88.88,0,0,0-.24-.64,1.48,1.48,0,0,0-1.1-.34H51.34l-1,3.65h.41L51.13,47h1Zm-.52-1.7H51.22l.44-1.6h1a1,1,0,0,1,.76.23.65.65,0,0,1,.18.46.81.81,0,0,1-.23.57A1.43,1.43,0,0,1,52.3,46.67Zm-.71-.28h.71a1.15,1.15,0,0,0,.83-.26.51.51,0,0,0,.15-.37.38.38,0,0,0-.1-.27.86.86,0,0,0-.56-.14h-.75Z"/><path class="cls-3" d="M57.14,45.22H55.89l.17-.64h3.2l-.18.64H57.83L57,48.52h-.7Z"/><path class="cls-3" d="M57.05,48.66h-1l.89-3.3H55.7l.25-.92h3.49l-.25.92H57.94Zm-.61-.29h.4l.89-3.29H59l.09-.36h-2.9l-.1.36h1.26Z"/><path class="cls-3" d="M61.21,44.58H64.1l-.17.62h-2.2l-.27,1h1.95l-.17.61h-2L61,47.9h2.23l-.17.62H60.15Z"/><path class="cls-3" d="M63.18,48.66H60l1.13-4.22h3.19l-.25.9h-2.2l-.2.74h2l-.24.9h-2l-.21.78h2.23Zm-2.85-.29H63l.1-.33H60.82l.36-1.34h2l.09-.33H61.27l.35-1.32h2.21l.09-.33h-2.6Z"/><path class="cls-3" d="M65.05,47.83l.52-.43a1.46,1.46,0,0,0,1.19.56c.44,0,.76-.22.76-.55s-.17-.37-.73-.59-1-.52-1-1.06a1.36,1.36,0,0,1,1.51-1.24,1.89,1.89,0,0,1,1.45.59l-.49.47a1.37,1.37,0,0,0-1-.45c-.46,0-.73.26-.73.52s.2.38.76.6,1,.52,1,1.06a1.37,1.37,0,0,1-1.53,1.26A2,2,0,0,1,65.05,47.83Z"/><path class="cls-3" d="M66.72,48.71a2.13,2.13,0,0,1-1.79-.79l-.08-.11.73-.6.09.1a1.34,1.34,0,0,0,1.09.51c.36,0,.62-.17.62-.41s0-.23-.64-.46-1.1-.54-1.1-1.19a1.48,1.48,0,0,1,1.65-1.38,2,2,0,0,1,1.55.64l.09.1-.68.66-.1-.1a1.24,1.24,0,0,0-.91-.41c-.38,0-.59.2-.59.38s.1.25.68.47,1.06.51,1.06,1.19A1.5,1.5,0,0,1,66.72,48.71Zm-1.48-.86a1.91,1.91,0,0,0,1.48.58c.69,0,1.39-.38,1.39-1.12,0-.42-.24-.67-.89-.93s-.85-.36-.85-.73.3-.66.87-.66a1.47,1.47,0,0,1,1,.4l.29-.28a1.76,1.76,0,0,0-1.25-.45c-.79,0-1.37.46-1.37,1.1,0,.4.25.65.92.93s.82.38.82.72-.37.69-.9.69a1.57,1.57,0,0,1-1.2-.51Z"/></g></g></svg>