<svg xmlns="http://www.w3.org/2000/svg" xmlns:xlink="http://www.w3.org/1999/xlink" viewBox="0 0 78.79 56.69"><defs><style>.cls-1{fill:url(#New_Gradient_Swatch_1);}.cls-2{fill:#003c6c;}</style><radialGradient id="New_Gradient_Swatch_1" cx="26.08" cy="22.71" r="49.65" gradientTransform="translate(4.25 -3.87) scale(0.89)" gradientUnits="userSpaceOnUse"><stop offset="0.21" stop-color="#ffe6a1"/><stop offset="0.52" stop-color="#ffd517"/><stop offset="0.74" stop-color="#fcc200"/><stop offset="1" stop-color="#dfad00"/></radialGradient></defs><title>hella</title><g id="Capa_2" data-name="Capa 2"><g id="MARCAS"><ellipse class="cls-1" cx="39.39" cy="28.35" rx="39.39" ry="28.35"/><path class="cls-2" d="M71.09,39.77a.48.48,0,0,0-.48-.48l-2.42,0a.74.74,0,0,0-.54.2h0c-5.72,6.57-16.31,11-28.44,11C21,50.44,6.28,40.52,6.28,28.29S21,6.13,39.21,6.13c11.95,0,22.4,4.28,28.18,10.68h0a.35.35,0,0,0,.26.11l2.65,0a.48.48,0,0,0,.48-.48.44.44,0,0,0-.11-.29h0C64.53,8.47,52.77,3.28,39.26,3.28c-19.85,0-35.94,11.2-35.94,25s16.09,25,35.94,25C53,53.31,65,47.93,71,40A.52.52,0,0,0,71.09,39.77Z"/><path class="cls-2" d="M61.66,39.14s.44,0,.56.31-.07.53-.27.68a32.79,32.79,0,0,1-8.62,4.4,41.38,41.38,0,0,1-13.75,2.28,43.23,43.23,0,0,1-13.94-2.08c-8.48-3.15-10.86-6.11-11.25-6.54a.5.5,0,0,1-.15-.58c.18-.32.37-.26.82-.23,0,0,16.14,1.18,20.43,1.32S42,39,44.87,39,61.66,39.14,61.66,39.14Z"/><path class="cls-2" d="M15.22,17.6a.62.62,0,0,0-.11.5c.07.31.4.31.68.31s17.55-.85,19.44-.9,23.89-.45,24.48-.45,1.58,0,1.58,0a.46.46,0,0,0,.38-.38.47.47,0,0,0-.25-.52A31.31,31.31,0,0,0,55,12.64,40.63,40.63,0,0,0,43.24,10a49,49,0,0,0-12.44.62,40.59,40.59,0,0,0-9.37,3A24.94,24.94,0,0,0,15.22,17.6Z"/><path class="cls-2" d="M11.53,21.8a.22.22,0,0,0-.24.19,38.6,38.6,0,0,0-.55,5.83A36.89,36.89,0,0,0,11.27,34s.06.29.25.29l2.39.07s.19,0,.15-.37-.33-2.24-.37-2.88S13.62,29,13.62,29l4.26,0s.06,1.8.16,2.94.26,2.29.26,2.29a.27.27,0,0,0,.24.28c.25,0,2.53.08,2.53.08s.23,0,.18-.37a45.16,45.16,0,0,1-.33-6.78c.07-3.11.33-5.74.33-5.74s.11-.27-.26-.27-2.44.07-2.44.07-.21,0-.25.24A24.68,24.68,0,0,0,18,24.35c-.08,1.47-.08,1.57-.1,2.26h-4.3s.05-1.1.16-2.28.29-2.34.29-2.34.12-.27-.22-.27S11.53,21.8,11.53,21.8Z"/><path class="cls-2" d="M33.29,21.25s.05-.2-.2-.2l-9.79.31a.28.28,0,0,0-.18.24c0,.19-.31,3.4-.31,6.18,0,3.51.33,6.66.33,6.66a.24.24,0,0,0,.26.26l9.92.31s.18,0,.18-.34-.09-2.46-.09-2.46a.2.2,0,0,0-.2-.2l-7.15-.1L26,29.11l6.34.05a.24.24,0,0,0,.26-.25V26.64s0-.16-.23-.16l-6.36,0,.09-2.58,6.88-.1s.25,0,.29-.28S33.29,21.25,33.29,21.25Z"/><path class="cls-2" d="M35.41,28.26c0,2.39.07,6.52.07,6.52a.29.29,0,0,0,.31.31l8.79.25a.24.24,0,0,0,.25-.25l.06-2.7s0-.18-.22-.18L39,32.1v-11a.23.23,0,0,0-.25-.25L35.66,21s-.19,0-.19.34Z"/><path class="cls-2" d="M47,20.64a.19.19,0,0,0-.16.21c0,.3.18,6.86.18,7.57s-.19,6.78-.19,6.78,0,.17.26.21,9.74.21,9.74.21.16,0,.19-.19c0,0,0-.1.27-2.83a.21.21,0,0,0-.24-.24l-6.23-.07s.16-2.85.08-5.76c0,0-.09-2.85-.13-3.59s-.13-2.18-.13-2.18a.19.19,0,0,0-.19-.17Z"/><path class="cls-2" d="M74.2,27.54a37.94,37.94,0,0,0-.92-7.17s0-.26-.22-.26l-14.27.26a.25.25,0,0,0-.26.32c.07.32.53,4.88.53,6.85a66.11,66.11,0,0,1-.53,7.75s-.06.4.26.4l3.64.07s.25.07.32-.33S63,33,63.1,32.36s.11-1.55.11-1.55h6.26s-.29,2.86-.43,3.6a9,9,0,0,1-.24,1.09s-.13.41.28.41l4,.05s.18,0,.25-.3A34.65,34.65,0,0,0,74.2,27.54Zm-10.89.34s0-1.32-.08-2.26-.18-2.26-.18-2.26l6.21-.05a40.36,40.36,0,0,1,.3,4.57Z"/></g></g></svg>