<svg id="Capa_1" data-name="Capa 1" xmlns="http://www.w3.org/2000/svg" xmlns:xlink="http://www.w3.org/1999/xlink" viewBox="0 0 70 60.62"><defs><style>.cls-1{fill:url(#Degradado_sin_nombre_4);}.cls-2{fill:#fdfbfe;}</style><radialGradient id="Degradado_sin_nombre_4" cx="37.31" cy="38.66" r="27.22" gradientUnits="userSpaceOnUse"><stop offset="0" stop-color="blue"/><stop offset="1"/></radialGradient></defs><title>herta</title><polygon class="cls-1" points="35 60.44 0.32 60.44 17.66 30.4 35 0.37 52.34 30.4 69.68 60.44 35 60.44"/><path d="M70,61H0L35,.38ZM.64,60.63H69.36L35,1.12Z" transform="translate(0 -0.38)"/><polygon class="cls-2" points="16.91 40.37 19.7 39.44 18.59 43.9 19.33 43.72 20.63 39.07 23.42 37.95 19.7 51.33 16.73 52.26 18.21 47.24 17.47 47.43 15.98 52.63 13.01 53.75 16.91 40.37"/><polygon class="cls-2" points="24.72 37.58 29.55 35.91 28.8 38.51 26.84 39.21 26.2 41.86 28.06 41.3 27.5 43.53 25.5 44.13 24.72 46.87 26.95 46.13 26.2 48.92 20.82 50.96 24.72 37.58"/><polygon class="cls-2" points="38.28 32.57 44.78 30.15 44.04 32.94 42.08 33.64 41.44 35.91 39.21 44.09 36.05 45.2 39.21 34.42 37.72 34.98 38.28 32.57"/><path class="cls-2" d="M34.94,34.25l-4.09,1.48-3.72,13,2.88-1s.93-4.09,1.3-5.21.75-.74.75-.74c.27.28-.1,1.95-.1,1.95L31,47.44l2.79-.93s.74-3,1.12-4.27a3.15,3.15,0,0,0-.38-2.42c1.49-.56,1.86-2.6,2.23-4.46S34.94,34.25,34.94,34.25Zm-1.4,3.62c-.37,1.86-1.3,1.67-1.3,1.67L33,36.75C33.91,36.38,33.54,37.87,33.54,37.87Z" transform="translate(0 -0.38)"/><path class="cls-2" d="M45.9,30.16,40.69,43.91l2.88-1.21s.38-1.12.56-1.86c.14-.54.77-.69,1.1-.73a.16.16,0,0,1,.17.18l-.34,2,2.88-.84,1.67-12.63Zm-.1,7.52-.74.19,1.49-4.65Z" transform="translate(0 -0.38)"/></svg>