<svg xmlns="http://www.w3.org/2000/svg" viewBox="0 0 149.77 68.89"><defs><style>.cls-1{fill:#223b7f;}</style></defs><title>interfil</title><g id="Capa_2" data-name="Capa 2"><g id="MARCAS"><path class="cls-1" d="M146.9,6.21a2.85,2.85,0,1,1,2.87-2.86,2.85,2.85,0,0,1-2.87,2.86Zm0-5.22a2.31,2.31,0,0,0-2.33,2.37,2.32,2.32,0,1,0,4.63,0A2.3,2.3,0,0,0,146.9,1Zm.83,4-.87-1.43h-.57V5h-.5V1.72h1.26c.66,0,1.16.21,1.16.93a.86.86,0,0,1-.86.91L148.29,5Zm0-2.38c0-.24-.1-.49-.73-.49h-.67v1h.64c.62,0,.76-.2.76-.53ZM30.41,19.39V6.16h5V19.39Zm0-18.78h5V4.5h-5V.61Zm21.5,18.78v-7.6c0-1.3-1-1.95-3.22-1.95H47.55c-2.13,0-3.4,1-3.4,2.88v6.67h-5V6.16h5V8.29h.05C45.09,6.45,46.82,6,49.5,6c3.08,0,7.39.13,7.39,5.84v7.6ZM75,13.55v1.61c0,2.52-1.65,4.44-5.62,4.44h-2c-3.06,0-5.7-1-5.7-4.62V9.74h-2.5V6.16h2.5V3.05h5V6.16H74.4V9.74H66.67v5.09c0,1,.72,1.19,1.92,1.19,1.61,0,2-.36,2-1.58v-.89Zm10.37,2.94h1.53c2.7,0,2.83-.73,2.83-1.51h4.67v.57c0,3.32-3,4.05-6.56,4.05H84.09c-3.29,0-6.77-.62-6.77-6.28V12.05c0-5,2.49-6.1,6.12-6.1h3.48c5.29,0,7.47,1.12,7.47,5.71v2.23H82.3v.81c0,1.4,1,1.79,3.06,1.79Zm4.21-5.56c0-1.58-.73-1.86-3.64-1.86-3.24,0-3.63.28-3.63,1.86Zm22.36,1.4h-4.3c0-1.68-.39-2.49-2.39-2.49-1.71,0-2.91.65-2.91,2.24v7.31h-5V6.16H102V8.68h0c.57-2.1,2.6-2.73,4.86-2.73,3.63,0,5.06,1.56,5.06,5.22,0,.33,0,.7-.06,1.16Zm13.56-6.17V9.58h-4.72v9.81h-5V9.58h-2.28V6.16h2.28v-1c0-3.63,1.89-4.75,6.1-4.75,1.34,0,2.36.1,3.37.13V3.9c-.7,0-1.43-.08-2-.08-2,0-2.46.37-2.46,1.72v.62ZM128,19.39V6.16h5V19.39ZM128,.61h5V4.5h-5V.61Zm9.05,18.78V.61h5V19.39Z"/><path class="cls-1" d="M20.33,0H5A5,5,0,0,0,0,5V13.8a5,5,0,0,0,5,4.95H20.33a5,5,0,0,0,5-4.95V5A5,5,0,0,0,20.33,0ZM15.21,10.43a3,3,0,0,1-3,3H6.63a3,3,0,0,1-3-3V8.23a3,3,0,0,1,3-3h5.61a3,3,0,0,1,3,3Z"/><path class="cls-1" d="M21.33,22.5H4.15a4,4,0,0,0-4,3.95V64.93a4,4,0,0,0,4,4H21.33a4,4,0,0,0,4-4V26.45A4,4,0,0,0,21.33,22.5ZM14.68,44.42a2,2,0,0,1-2,2h-7a2,2,0,0,1-2-2V28.91a2,2,0,0,1,2-2h7a2,2,0,0,1,2,2Z"/></g></g></svg>