<svg xmlns="http://www.w3.org/2000/svg" viewBox="0 0 144.21 43.95"><defs><style>.cls-1{fill:#f1bf00;}</style></defs><title>kem</title><g id="Capa_2" data-name="Capa 2"><g id="MARCAS"><text/><path class="cls-1" d="M3.05,24.5c0-.27,1.68-.75,2.92-2.59s1.83-3.34,2.37-3.23.32,2.91.92,4.42,2.48,1.46,3.24,1.46-.76.38-.92,1.4,1.62,4.32,2.27,5.18.21.87-2,.87-5-.65-5.94-2.38-1.09-2.8-1.67-3.88A3.49,3.49,0,0,0,3.05,24.5Z"/><path class="cls-1" d="M.62,22.51c.2.7,1.46.91,2.76,0a11,11,0,0,0,3.23-4c.65-1.35,1.62-1.73,2.38-.87s1,4.38,1.24,4.92,1,.86,4.26.7,3.3-.76,3.3-1.41-.11-1.08.16-1.51S17.89,20,16.54,20s-1.29-.32-1.18-.59,2-.16,2.48-.16.22-.49-.59-.76.27-.37,1.08-.37A3.29,3.29,0,0,0,19.4,18s-.81-2.75-1.4-2.86a7.26,7.26,0,0,0-1.55,0c-.62,0-.73-.08-.73-.45s.19-.54.66-.54l2.4,0c.3,0,.95-.65.26-.65H12.75v-1h6.87a11.36,11.36,0,0,1,.15-1.77,8.52,8.52,0,0,1,1.05-2c.07-.23-1-.13-1.74-.09a4.72,4.72,0,0,0-2.55.74c-.86.59-1.47.93-1.54.45s.68-1.29,1.74-1.65,1.49-.11,1.68-.24-.89-1.73-3.84-2-5-.35-7.09,1.17a6.34,6.34,0,0,0-2.62,3.59c-.34.8-.34,1.46-.93,1.43S3.4,11.11,4.24,9a7.23,7.23,0,0,1,6.23-4.67,9.21,9.21,0,0,1,6,1.09c.62.27.94.66,1.13.52S20,3.07,20.09,2.81s0-.55-2.08-1.47S10.8-1,6.34,1.12,1.84,7.6,1.69,9.8s.73,4.5,1,5.76a5.21,5.21,0,0,1-.41,4.3C1.31,21.45.39,21.68.62,22.51Z"/><polygon class="cls-1" points="24.73 26.39 22.64 31.74 127.07 31.74 129.23 26.34 24.73 26.39"/><polygon class="cls-1" points="130.09 24.31 116.92 24.31 120.48 15.17 111.85 24.31 103.27 24.31 102.35 14.41 98.25 24.31 85.3 24.31 92.26 7.5 110.34 7.5 110.34 14.25 118.38 7.5 136.78 7.5 130.09 24.31"/><polygon class="cls-1" points="66.36 7.48 52.27 7.47 43.85 13.17 46.23 7.56 32.14 7.45 25.55 24.31 39.16 24.31 41.8 17.33 45.58 24.31 59.56 24.31 56.48 15.92 66.36 7.48"/><polygon class="cls-1" points="59.72 24.31 82.55 24.31 84.05 20.67 75.26 20.67 76.45 17.87 85.19 17.92 86.71 14.09 78.28 14.08 79.69 10.85 88.12 10.86 89.51 7.5 66.73 7.48 59.72 24.31"/><path class="cls-1" d="M1.44,26.29a4.63,4.63,0,0,1,.72-.06,1.25,1.25,0,0,1,.81.21A.67.67,0,0,1,3.2,27a.7.7,0,0,1-.48.66h0a.67.67,0,0,1,.37.5,6.57,6.57,0,0,0,.2.74H2.8a3.69,3.69,0,0,1-.17-.62c-.08-.35-.2-.45-.48-.46H1.91v1.08H1.44Zm.47,1.16H2.2c.32,0,.52-.17.52-.43s-.2-.42-.51-.42l-.3,0Z"/><path class="cls-1" d="M2.3,29.93a2.3,2.3,0,1,1,2.29-2.3A2.3,2.3,0,0,1,2.3,29.93Zm0-4.1a1.81,1.81,0,1,0,1.8,1.8A1.81,1.81,0,0,0,2.3,25.83Z"/><path class="cls-1" d="M139.52,8.8a6.75,6.75,0,0,1,1.11-.08,1.83,1.83,0,0,1,1.23.32,1,1,0,0,1,.34.8,1.07,1.07,0,0,1-.72,1v0a1,1,0,0,1,.56.77,7.56,7.56,0,0,0,.31,1.11h-.75a4.89,4.89,0,0,1-.27-.94c-.11-.52-.3-.69-.72-.7h-.36v1.64h-.73Zm.73,1.77h.43c.49,0,.8-.26.8-.66s-.31-.64-.78-.64a3.06,3.06,0,0,0-.45,0Z"/><path class="cls-1" d="M140.83,14.23a3.38,3.38,0,1,1,3.38-3.38A3.39,3.39,0,0,1,140.83,14.23Zm0-6.26a2.88,2.88,0,1,0,2.88,2.88A2.88,2.88,0,0,0,140.83,8Z"/><path class="cls-1" d="M49.37,42.2a3.35,3.35,0,0,0,1.67.45c.58,0,1.11-.27,1.11-.83,0-.39-.3-.66-.95-1s-1.46-.95-1.46-1.87c0-1.43,1.24-2.29,2.78-2.29a3.4,3.4,0,0,1,1.66.35l-.47,1.26A2.73,2.73,0,0,0,52.4,38c-.71,0-1.07.36-1.07.75s.43.66,1,1a2.14,2.14,0,0,1,1.41,1.86c0,1.57-1.3,2.38-2.87,2.38a3.56,3.56,0,0,1-2-.51Z"/><path class="cls-1" d="M57.22,36.78l-1.34,7H54.37l1.34-7Z"/><path class="cls-1" d="M57.27,43.83l1.34-7h1.76l.94,2.69a24.09,24.09,0,0,1,.63,2.41h0a18.27,18.27,0,0,1,.33-2.54l.48-2.56h1.4l-1.33,7H61.29l-1-2.81a23.16,23.16,0,0,1-.69-2.46h0c-.08.68-.25,1.68-.46,2.79l-.46,2.47Z"/><path class="cls-1" d="M69.52,43.63a4.7,4.7,0,0,1-1.86.31,2.85,2.85,0,0,1-3.11-3,4.12,4.12,0,0,1,1.77-3.52,4.44,4.44,0,0,1,2.6-.75,3.33,3.33,0,0,1,1.54.3l-.41,1.22A3.21,3.21,0,0,0,68.77,38a2.51,2.51,0,0,0-1.61.55,2.86,2.86,0,0,0-1,2.27,1.71,1.71,0,0,0,1.87,1.87,3.65,3.65,0,0,0,1.34-.23Z"/><path class="cls-1" d="M74.91,40.84H72.4l-.32,1.7h2.81l-.24,1.29H70.33l1.34-7h4.17l-.25,1.29H72.93l-.29,1.5h2.51Z"/><path class="cls-1" d="M80.39,38.44h0L79,39l0-1.18L80.88,37h1.23l-1.28,6.8H79.38Z"/><path class="cls-1" d="M83.81,42.68a4.47,4.47,0,0,0,.64,0,3,3,0,0,0,1.34-.42A2.82,2.82,0,0,0,86.89,41h0a1.83,1.83,0,0,1-1.28.49,1.74,1.74,0,0,1-1.82-1.84,2.76,2.76,0,0,1,2.77-2.73,2.11,2.11,0,0,1,2.2,2.37A4.88,4.88,0,0,1,87,43a4.5,4.5,0,0,1-2.59.92,4,4,0,0,1-.79,0Zm1.5-3.22a.8.8,0,0,0,.78.91,1.14,1.14,0,0,0,.91-.45,1.19,1.19,0,0,0,.16-.32,2.34,2.34,0,0,0,0-.55c0-.54-.25-1-.82-1S85.31,38.78,85.31,39.46Z"/><path class="cls-1" d="M88.75,43.83l.17-1,1.47-1.13c1.36-1.11,2.24-1.9,2.24-2.72a.84.84,0,0,0-.95-.83,2.69,2.69,0,0,0-1.43.4L90,37.5a4.23,4.23,0,0,1,2.1-.58,1.86,1.86,0,0,1,2.12,1.85c0,1.39-1.1,2.35-2.31,3.27l-.67.48v0h2.44l-.24,1.29Z"/><path class="cls-1" d="M100,39.25c0,2.12-1,4.7-3.17,4.7-1.41,0-2-1.09-2-2.45,0-2.15,1.09-4.58,3.18-4.58C99.5,36.92,100,38,100,39.25Zm-3.66,2.3c0,.5.08,1.2.68,1.2,1,0,1.49-2.59,1.49-3.49,0-.45-.06-1.15-.63-1.15C96.85,38.11,96.33,40.56,96.33,41.55Z"/></g></g></svg>