<svg xmlns="http://www.w3.org/2000/svg" xmlns:xlink="http://www.w3.org/1999/xlink" viewBox="0 0 144.21 27.48"><defs><style>.cls-1{fill:#e3151b;}.cls-2{fill:none;}</style><symbol id="Loctite" data-name="Loctite" viewBox="0 0 1299.67 247.67"><polygon class="cls-1" points="943.54 68.19 965.46 8.1 1148.58 8.1 1126.65 68.19 1071.62 68.19 1010.3 236.24 938.25 236.24 999.57 68.19 943.54 68.19"/><polygon class="cls-1" points="791.36 8.1 720.31 8.1 664.27 8.1 642.35 68.19 698.38 68.19 637.06 236.24 708.11 236.24 709.11 236.24 770.43 68.19 825.46 68.19 847.39 8.1 791.36 8.1"/><polygon class="cls-1" points="943.45 8.1 860.2 236.24 786.16 236.24 869.4 8.1 943.45 8.1"/><polygon class="cls-1" points="1199.75 106.37 1213.71 68.19 1277.75 68.19 1299.67 8.1 1168.59 8.1 1085.34 236.24 1216.43 236.24 1238.06 176.97 1174.04 176.97 1187.83 139.13 1251.87 139.13 1263.82 106.37 1199.75 106.37"/><path class="cls-1" d="M124.72,162.34,181,8.1H83.25L0,236.24H166.77l27-73.9Zm21.35,43.52H52L109.56,47.45h16L73.39,190.86h78.82Z"/><path class="cls-2" d="M329.21,84.09c-17,0-32,39.74-32,52.16s1.41,28,16.37,28S345,130.52,345,112.06C345,100,343.68,84.09,329.21,84.09Z"/><path class="cls-1" d="M333.73,49.51c-16.43,0-35.13,9.45-50,25.27-15.78,16.76-24.83,38-24.83,58.28,0,30,13.13,65.1,50.14,65.1,37.56,0,74.29-48.34,74.29-84.42,0-19-4.41-35-12.76-46.42C361.85,55.5,349.47,49.51,333.73,49.51ZM313.57,164.26c-15,0-16.37-15.6-16.37-28s15-52.16,32-52.16c14.47,0,15.74,15.87,15.74,28C345,130.52,328.53,164.26,313.57,164.26Z"/><path class="cls-1" d="M341.77,0c-62.4,0-134.66,65.58-134.66,137.79,0,50.35,25.15,109.88,94.23,109.88S435,169,435,108.55,404.16,0,341.77,0Zm29.71,179.52c-18,21.38-40.8,33.64-62.48,33.64-45,0-65.14-40.23-65.14-80.1,0-24.07,10.54-49,28.91-68.56,17.69-18.78,40.48-30,61-30,39.22,0,64.56,31.1,64.56,79.23C398.29,135,388.27,159.61,371.48,179.52Z"/><path class="cls-2" d="M575.28,89.69c-15.08,0-31,35.14-31,46.12"/><path class="cls-1" d="M640.16,24.83C624.86,9.29,603.53,0,576.11,0,513.72,0,441.45,65.58,441.45,137.79c0,50.35,25.15,109.88,94.23,109.88a97.78,97.78,0,0,0,24.69-3.27L589,167.94s-12.25,4-24.25.25a32.3,32.3,0,0,1-16-11.25c-6.5-8.75-4.41-21.13-4.41-21.13,0-20.87,16.26-42.77,31-46.12,0,0,15.55-4.11,25.94,1.75,6.5,3.66,9.06,5.68,10.07,6.67l.66.83,11.36-29.86.41.82Zm-54,37.75a41.7,41.7,0,0,0-19.59-4.47c-14.53,0-31.07,8.36-44.25,22.35-13.95,14.82-22,33.6-22,51.53,0,25.89,11.05,56,41.93,57.49l-9.91,22.83c-37.35-6-54.22-42.77-54.22-79.25,0-24.07,10.54-49,28.92-68.56,17.68-18.78,40.47-30,61-30a62.61,62.61,0,0,1,26.59,5.61Z"/></symbol></defs><title>loctite</title><g id="Capa_2" data-name="Capa 2"><g id="MARCAS"><use width="1299.67" height="247.67" transform="scale(0.11)" xlink:href="#Loctite"/></g></g></svg>