<svg xmlns="http://www.w3.org/2000/svg" viewBox="0 0 170.08 36.45"><defs><style>.cls-1{fill:#e3000f;}</style></defs><title>logoWurth</title><g id="Capa_2" data-name="Capa 2"><g id="Capa_1-2" data-name="Capa 1"><path d="M118.49,30.43h7.27l-5.23-9a6.9,6.9,0,0,0,4.54-6.64c0-4.6-3-7.62-9-7.62H104.58V30.43h6.31V22.38h3.19Zm.26-15.62c0,1.64-1.12,2.83-3.45,2.83h-4.4V12h4.4c2.34,0,3.45,1.18,3.45,2.83M93.28,13.73v7.43c0,3.35-1.65,4.54-3.78,4.54s-3.81-1.18-3.81-4.5V13.73H79.24v7.76c0,6.11,3.39,9.47,10.26,9.47s10.23-3.35,10.23-9.44V13.73ZM85.68,7.19H79.24v4.37h6.44Zm7.59,4.37h6.44V7.19H93.28Zm-40.6,11L49.42,7.19H43l5.92,23.24h6.8l4-15.15,4,15.15h6.8L76.41,7.19H70L66.75,22.58l-4-15.38h-6ZM163.6,15.51h-7.83V7.19h-6.44V30.43h6.44V20.77h7.83v9.66h6.48V7.19H163.6Zm-30.18-3.26V30.43h6.44V12.25h6V7.19H127.44v5.06Z"/><path class="cls-1" d="M33.3,14.27H0V0H13.86V5.61h5.58V0H33.3ZM19.44,30.85v5.59A16.86,16.86,0,0,0,33.3,20.21v-.29H0v.29A16.86,16.86,0,0,0,13.86,36.45V30.85Z"/></g></g></svg>