<svg xmlns="http://www.w3.org/2000/svg" viewBox="0 0 79.06 59.3"><defs><style>.cls-1{fill:#0a0c06;}.cls-1,.cls-2{fill-rule:evenodd;}.cls-2{fill:#fbe300;}</style></defs><title>luk</title><g id="Capa_2" data-name="Capa 2"><g id="MARCAS"><polygon class="cls-1" points="0 0 79.06 0 79.06 59.3 0 59.3 0 0 0 0"/><polygon class="cls-2" points="1.7 1.7 77.19 1.7 77.19 57.59 1.7 57.59 1.7 1.7 1.7 1.7"/><polygon class="cls-1" points="6.82 7.67 14.99 7.67 14.99 43.45 42.09 43.45 42.09 50.61 6.82 50.61 6.82 7.67 6.82 7.67"/><polygon class="cls-1" points="64.07 8.18 73.44 8.18 63.56 29.14 73.78 51.29 64.58 51.29 55.89 33.4 55.89 50.95 47.37 50.95 47.37 8.18 55.89 8.18 55.89 24.88 64.07 8.18 64.07 8.18"/><path class="cls-1" d="M19.94,8h8.52V27.09c0,2.22,1,3.41,2.89,3.41,2.22,0,2.9-1.19,2.9-3.41V8h8.52V28.63A11.63,11.63,0,0,1,31.35,39.19,11.62,11.62,0,0,1,19.94,28.63V8Z"/></g></g></svg>