<svg xmlns="http://www.w3.org/2000/svg" viewBox="0 0 144.21 32.15"><defs><style>.cls-1{fill:#252f60;fill-rule:evenodd;}</style></defs><title>mahle</title><g id="Capa_2" data-name="Capa 2"><g id="MARCAS"><polygon class="cls-1" points="0 0 0 0.17 0 32.15 8.85 32.15 8.85 8.85 14.4 8.85 14.4 32.15 23.27 32.15 23.27 8.85 28.82 8.85 28.82 32.15 37.69 32.15 37.69 0 0 0 0 0"/><path class="cls-1" d="M42.11,0V32.15H51V23.29h6.67v8.86h8.88V0ZM57.68,15.52H51V8.86h6.65Z"/><polygon class="cls-1" points="87.62 0 87.62 12.2 79.86 12.2 79.86 0 70.99 0 70.99 32.15 79.86 32.15 79.86 19.94 87.62 19.94 87.62 32.15 96.5 32.15 96.5 0 87.62 0"/><polygon class="cls-1" points="109.82 24.4 109.82 0 100.92 0 100.92 32.15 119.78 32.15 119.78 24.4 109.82 24.4"/><polygon class="cls-1" points="133.11 24.4 133.11 19.92 144.21 19.92 144.21 12.2 133.11 12.2 133.11 7.76 144.21 7.76 144.21 0 124.22 0 124.22 32.15 144.21 32.15 144.21 24.4 133.11 24.4"/></g></g></svg>