<svg xmlns="http://www.w3.org/2000/svg" viewBox="0 0 167.11 36.51"><defs><style>.cls-1{fill:#1e3d8e;}.cls-2{fill:#fcd900;}</style></defs><title>moog</title><g id="Capa_2" data-name="Capa 2"><g id="MARCAS"><rect class="cls-1" width="167.11" height="36.51"/><path class="cls-2" d="M28.45,5.28H14.33l-8,26.4h4.9L17.61,11l1.44,19.27a1.54,1.54,0,0,0,1.53,1.42h6.5l13.6-20.49L34.57,31.68H46.1l8.44-26.4H41.09A3.81,3.81,0,0,0,37.91,7L29.4,19.8Z"/><path class="cls-2" d="M83.51,5.28H63.42A7.76,7.76,0,0,0,56,10.71L51.79,24.16a5.78,5.78,0,0,0,5.52,7.52H76.8a7.64,7.64,0,0,0,7.3-5.38l4.41-14.23A5.23,5.23,0,0,0,83.51,5.28Zm-6.57,6.58L72.35,25.93a1.86,1.86,0,0,1-1.76,1.28H64.37a1.16,1.16,0,0,1-1.11-1.5l4.4-14.45A2.45,2.45,0,0,1,70,9.51h5.22A1.8,1.8,0,0,1,76.94,11.86Z"/><path class="cls-2" d="M119.55,5.28H99.47a7.77,7.77,0,0,0-7.41,5.43L87.83,24.16a5.79,5.79,0,0,0,5.53,7.52h19.49a7.64,7.64,0,0,0,7.3-5.38l4.41-14.23A5.24,5.24,0,0,0,119.55,5.28ZM113,11.86,108.4,25.93a1.86,1.86,0,0,1-1.77,1.28h-6.22a1.16,1.16,0,0,1-1.1-1.5l4.39-14.45a2.47,2.47,0,0,1,2.36-1.75h5.22A1.79,1.79,0,0,1,113,11.86Z"/><path class="cls-2" d="M140.67,20.49h4.5l-1.72,5.41a1.94,1.94,0,0,1-1.86,1.36h-5.25a1.28,1.28,0,0,1-1.22-1.67l4.63-14.42a1.79,1.79,0,0,1,1.7-1.24h17.91l1.22-4.65H135.71a8.16,8.16,0,0,0-7.81,5.81l-4.27,14.17a5,5,0,0,0,4.77,6.42h21.51a4.84,4.84,0,0,0,4.68-3.6l3.15-12H141.87Z"/><path class="cls-2" d="M158.26,31.4A1.78,1.78,0,1,1,160,29.62,1.78,1.78,0,0,1,158.26,31.4Zm0-3.22a1.44,1.44,0,1,0,0,2.87,1.44,1.44,0,0,0,0-2.87Z"/><path class="cls-2" d="M159,30.68h-.33l-.32-.68c0-.05-.05-.09-.07-.13a.6.6,0,0,0-.08-.08l-.1,0-.11,0h-.14v.95h-.29V28.55h.57a1.47,1.47,0,0,1,.32,0,.66.66,0,0,1,.22.12.38.38,0,0,1,.12.17.59.59,0,0,1,0,.23,1.11,1.11,0,0,1,0,.19.51.51,0,0,1-.09.16.64.64,0,0,1-.15.13l-.19.08a.27.27,0,0,1,.15.11,1.16,1.16,0,0,1,.13.2Zm-.47-1.54a.29.29,0,0,0-.11-.26.51.51,0,0,0-.3-.08h-.27v.7h.24l.18,0a.46.46,0,0,0,.14-.07.27.27,0,0,0,.09-.12A.33.33,0,0,0,158.51,29.14Z"/></g></g></svg>