<svg xmlns="http://www.w3.org/2000/svg" viewBox="0 0 144.21 43.81"><defs><style>.cls-1,.cls-2{fill:#008295;}.cls-1{fill-rule:evenodd;}</style></defs><title>moresa</title><g id="Capa_2" data-name="Capa 2"><g id="MARCAS"><polygon class="cls-1" points="0 43.13 4.36 43.13 4.36 23.43 4.71 23.43 13.27 43.81 13.34 43.81 21.27 23.66 21.34 23.66 21.34 43.13 25.9 43.13 25.9 18.91 21.15 18.91 14.65 35.32 7.7 18.91 0 18.91 0 43.13"/><path class="cls-1" d="M32.73,31c0-4.71,1.27-11.21,7.1-11.21S47,26.31,47,31s-1.31,11.22-7.14,11.22-7.1-6.51-7.1-11.22m-4.9,0c0,7.14,5,12.79,12,12.79s12-5.65,12-12.79-5-12.78-12-12.78-12,5.64-12,12.78"/><path class="cls-1" d="M58.25,43.13v-23h2.47c4.45,0,5.75,2.73,5.75,5.42,0,3.62-2.61,5.19-6.65,5.19h-.3l6.62,12.41h5L64.72,31.81c3.62-.45,6.32-2.06,6.32-5.76,0-3.89-2.47-7.14-6.88-7.14H53.69V43.13Z"/><polygon class="cls-1" points="87.67 43.13 87.67 41.56 77.77 41.56 77.77 31.4 86.96 31.4 86.96 29.83 77.77 29.83 77.77 20.48 87.52 20.48 87.52 18.91 73.2 18.91 73.2 43.13 87.67 43.13"/><path class="cls-1" d="M88.42,40c1.69,2.8,4.34,3.78,7.63,3.78,4.07,0,8-3,8-7.4,0-8.75-11.36-6.36-11.36-12a3.92,3.92,0,0,1,4-4.23c2.58,0,4,1.5,5,3.44l1.57-1a8.11,8.11,0,0,0-7.29-4.33c-4.52,0-7.77,3.21-7.77,7.1,0,8.67,11.36,5.35,11.36,12.37a4.33,4.33,0,0,1-4.34,4.19c-2.39,0-3.73-1.08-5-3.1Z"/><path class="cls-1" d="M116.29,35.25h-7.06l3.51-8.9Zm-2.31-17h-.08L104,43.13h2.13l2.43-6.31h8.34l2.58,6.31h4.67Z"/><path class="cls-2" d="M133.81,11.57l-.41,11.06-4.63.43,4.63.43.41,6,.43-6,4.6-.43-4.6-.43Zm1.79,13.22L133.8,39,132,24.79,123.4,23.1,132,21.27,133.8,0l1.8,21.27,8.61,1.83Z"/><path class="cls-1" d="M132.42,41.61a1.48,1.48,0,1,0,1.48-1.48,1.48,1.48,0,0,0-1.48,1.48m.28,0a1.2,1.2,0,1,1,1.21,1.26,1.21,1.21,0,0,1-1.21-1.26m.63.86h.29v-.76h.24l.48.76h.3l-.49-.76a.44.44,0,0,0,.44-.48c0-.33-.19-.49-.59-.49h-.67Zm.29-1.51H134c.18,0,.36.06.36.26s-.14.26-.36.26h-.33Z"/></g></g></svg>