<svg xmlns="http://www.w3.org/2000/svg" xmlns:xlink="http://www.w3.org/1999/xlink" viewBox="0 0 96.11 56.69"><defs><style>.cls-1{fill:#dcdcc4;}.cls-2{fill:#527a2e;}</style><symbol id="MTE" data-name="MTE" viewBox="0 0 168.57 99.43"><path d="M5.37,90.11C5,92.73,4.6,95.36,4.27,98c-.09.69-.33,1-1.06.93-1-.07-2.08,0-3.21,0l.71-4.3c.59-3.52,1.21-7,1.77-10.55.11-.71.33-1,1.1-1A16.16,16.16,0,0,0,6,83.1c.59,0,.84.21,1,.75.82,2.24,1.69,4.46,2.54,6.69.08.21.19.42.37.83.61-1.5,1.16-2.82,1.7-4.15.47-1.17.95-2.33,1.39-3.51a.79.79,0,0,1,.89-.61c.88,0,1.77.05,2.65,0,.64,0,.89.19,1,.83.52,3.68,1.09,7.37,1.64,11,.19,1.26.38,2.53.59,3.9-1.37,0-2.59,0-3.82,0-.16,0-.38-.51-.42-.8-.31-2.23-.58-4.47-.86-6.71a2.65,2.65,0,0,0-.32-1.07c-.4.91-.81,1.81-1.19,2.72-.73,1.73-1.47,3.46-2.14,5.21a1,1,0,0,1-1.15.72,1,1,0,0,1-1.14-.75c-.94-2.45-1.94-4.88-2.91-7.32l-.3-.73Z"/><path d="M103.38,98.83H99.31c.08-.6.13-1.12.22-1.64.76-4.44,1.54-8.87,2.28-13.31.1-.62.35-.81.94-.78.86,0,1.72,0,2.57,0a.84.84,0,0,1,.94.65c.8,2.16,1.62,4.31,2.44,6.47.13.33.28.66.51,1.2.71-1.76,1.32-3.29,1.94-4.82.38-.95.78-1.88,1.14-2.84a.86.86,0,0,1,.95-.66c1,0,1.93,0,2.89,0a.77.77,0,0,1,.58.44c.78,5,1.53,10,2.28,15,0,.05,0,.1-.07.28-1.21,0-2.45,0-3.7,0-.14,0-.36-.47-.39-.74-.35-2.5-.66-5-1-7.49,0-.13,0-.25-.11-.64-.21.46-.34.71-.44,1-1,2.4-2,4.78-3,7.2-.29.74-.75.75-1.37.78s-.79-.37-1-.84q-1.43-3.63-2.88-7.24c-.08-.19-.19-.37-.4-.78C104.23,93.14,103.81,96,103.38,98.83Z"/><path d="M164.42,92.69c0-3,0-5.8,0-8.59,0-.75.16-1.07,1-1a24.47,24.47,0,0,0,2.57,0c.44,0,.63.15.63.61q0,7.27,0,14.55c0,.44-.15.64-.61.63-1,0-2.09,0-3.13,0a1.49,1.49,0,0,1-.87-.57c-2.17-2.76-4.32-5.53-6.48-8.3-.11-.15-.24-.29-.49-.59,0,.43-.05.7-.06,1,0,2.55,0,5.09,0,7.64,0,.73-.23.94-.92.89-.86,0-1.72,0-2.57,0-.46,0-.69-.11-.69-.63q0-7.27,0-14.55c0-.46.19-.62.63-.61,1,0,2,0,3,0a1.63,1.63,0,0,1,.94.61c2.2,2.8,4.38,5.62,6.57,8.43Z"/><path d="M98.12,90.9a8.73,8.73,0,0,1-17.45-.29c.1-4.61,4-8.11,9-8A8.33,8.33,0,0,1,98.12,90.9Zm-8.7,4.51a4.53,4.53,0,0,0,4.41-4.59,4.43,4.43,0,0,0-8.85,0A4.51,4.51,0,0,0,89.42,95.41Z"/><path d="M141.43,82.61c5.32,0,9.22,3.52,9.27,7.9.08,7.7-7.28,10.55-12.76,8a8.38,8.38,0,0,1,3.49-15.93Zm4.95,8.24A4.37,4.37,0,0,0,142,86.6a4.47,4.47,0,0,0-4.5,4.14,4.56,4.56,0,0,0,4.34,4.67A4.47,4.47,0,0,0,146.38,90.85Z"/><path d="M68.62,92.51v6.38c-1.32,0-2.55,0-3.77,0-.13,0-.35-.43-.35-.66,0-1.45,0-2.89,0-4.34,0-3.3,0-6.6,0-9.89,0-.67.2-.91.87-.87a19.38,19.38,0,0,0,2.41,0c.65,0,.89.17.87.85,0,1.69,0,3.38,0,5.14h5.8c0-.25,0-.53,0-.81,0-1.47,0-3,0-4.42,0-.54.14-.78.72-.76.94,0,1.88,0,2.82,0,.44,0,.61.16.61.61q0,7.29,0,14.56c0,.52-.24.63-.69.63-.91,0-1.83,0-2.74,0-.56,0-.74-.18-.73-.74,0-1.61,0-3.22,0-4.82,0-.27,0-.53,0-.84Z"/><path d="M120.24,97.51,122,94.23c.58.37,1.1.74,1.65,1a3.8,3.8,0,0,0,2.72.43,1.51,1.51,0,0,0,1.28-1.28,1.32,1.32,0,0,0-1-1.41c-.87-.34-1.78-.59-2.65-.91a4.67,4.67,0,0,1-1.74-7.79,5.08,5.08,0,0,1,3-1.53,10.23,10.23,0,0,1,6,1.19L129.7,87.1a9.48,9.48,0,0,0-2-.8,3.6,3.6,0,0,0-1.92.25,1,1,0,0,0,0,1.81,9,9,0,0,0,1.69.7c.35.14.72.22,1.08.35,2.64,1,3.5,2.18,3.37,4.77A4.82,4.82,0,0,1,127.94,99,9.26,9.26,0,0,1,120.24,97.51Z"/><path d="M42,98.9H38.14c-1.48,0-3,0-4.43,0-.51,0-.71-.16-.7-.69q0-7.2,0-14.41c0-.51.15-.71.68-.7q3.83,0,7.65,0c.5,0,.74.13.71.68,0,.72,0,1.45,0,2.17,0,.5-.17.65-.65.64-1.37,0-2.73,0-4.17,0v2.59h4.53c0,1.12,0,2.15,0,3.18,0,.13-.37.33-.58.34-1,0-2.09,0-3.13,0H37.2v2.67H42Z"/><path d="M23.87,86.6c-1,0-1.87,0-2.75,0-.54,0-.7-.19-.68-.7,0-.7,0-1.4,0-2.09,0-.51.15-.72.69-.71,3.21,0,6.43,0,9.64,0,.2,0,.58.26.58.42.06,1,0,2,0,3-.92,0-1.75,0-2.57,0-.65,0-.82.21-.81.83,0,3.53,0,7.07,0,10.6,0,.72-.22.94-.92.9-1,0-2.08,0-3.24,0Z"/><path d="M55.27,86.6c-.94,0-1.74,0-2.54,0s-.89-.22-.84-.87a19.25,19.25,0,0,0,0-2c0-.46.19-.62.63-.62q4.81,0,9.65,0c.49,0,.66.18.65.66,0,.73,0,1.45,0,2.17,0,.48-.14.69-.64.66s-1.24,0-1.85,0-.92.17-.92.89c0,3.43,0,6.87,0,10.3,0,1.13,0,1.13-1.14,1.13-.75,0-1.5,0-2.25,0s-.78-.18-.78-.78c0-3.49,0-7,0-10.46Z"/><path d="M50.51,90.68c0,.89,0,1.74,0,2.59a.74.74,0,0,1-.53.48c-1.63,0-3.26,0-4.9,0-.19,0-.38-.35-.56-.55,0,0,0-.1,0-.15-.07-2.46-.07-2.46,2.37-2.46h3.29A2.49,2.49,0,0,1,50.51,90.68Z"/><rect class="cls-1" x="26.77" y="35.39" width="113.91" height="4.87"/><polygon class="cls-2" points="104.92 45.42 104.92 49.93 117.82 58.03 117.82 68.34 49.62 68.34 49.62 58.03 62.51 49.93 62.51 45.42 34.72 45.42 26.77 45.42 26.77 75.22 140.67 75.22 140.67 45.42 132.72 45.42 104.92 45.42"/><polygon class="cls-2" points="34.72 7.46 132.72 7.46 132.72 29.73 140.67 29.73 140.67 0 26.77 0 26.77 29.73 34.72 29.73 34.72 7.46"/><polygon class="cls-2" points="49.52 30.18 62.55 30.18 62.55 24.21 52.53 24.21 49.52 30.18"/><polygon class="cls-2" points="104.94 24.21 104.94 30.18 117.98 30.18 114.97 24.21 104.94 24.21"/></symbol></defs><title>mte-thomson</title><g id="Capa_2" data-name="Capa 2"><g id="MARCAS"><use width="168.57" height="99.43" transform="scale(0.57)" xlink:href="#MTE"/></g></g></svg>