<svg xmlns="http://www.w3.org/2000/svg" xmlns:xlink="http://www.w3.org/1999/xlink" viewBox="0 0 144.21 49.66"><defs><style>.cls-1{fill:#253c85;}</style><symbol id="Neo" data-name="Neo" viewBox="0 0 555.74 191.37"><path class="cls-1" d="M257.93,117.44V105.6h50.14v11.33l-7.33.71c-2.09.21-3.29,1.23-3.27,3.45,0,.56-.23,1.11-.23,1.67q0,26.24,0,52.47a5.17,5.17,0,0,0,.4,1.35c4.84,0,9.67.35,14.42-.09,6.37-.58,9.35-5.14,10.66-10.86.79-3.47,1.13-7,1.72-10.84h12.75v23c7.47,0,9.85-2,9.85-8.9V124.47c0-6.09-1-7.14-7.25-7.26-1.21,0-2.41,0-3.71,0V105.56H555v30.92H542.3l-1.17-4.15c-3.11-11-6.73-14.18-18-15-5-.36-10.09-.19-15.13-.06-.78,0-2.2,1-2.22,1.64-.15,7-.1,14.06-.1,21,9.07,1.78,12.08-1.07,13.94-12.81h9.85v37.67h-9.89c-.33-2.24-.64-4.53-1-6.8a9,9,0,0,0-11.6-7c-.51.17-1.2.87-1.21,1.32-.07,8.26-.05,16.52-.05,25.54,8.93-.44,17.4-.66,25.84-1.38a8.25,8.25,0,0,0,7.16-5.89c1.62-5.05,2.81-10.24,4.29-15.76h12.75v34.15H467.58V177.57c2.11-.1,4.11-.12,6.08-.31,3.14-.31,4.68-1.84,4.62-5.28-.14-9.86,0-19.73,0-29.6,0-6.5,0-13-.07-19.51,0-4.2-.93-5.08-5-5.62a14.86,14.86,0,0,0-3.16,0l-.26,2.91s.05,11.16.05,17.12c-3.47,0-9.67-.1-9.67-.1h-1.7l-.32-1.25a58.62,58.62,0,0,0-1.32-8.21c-2.26-6.94-7.57-9.9-15.81-8.94-.06,1-.16,2.12-.16,3.21q0,23.88,0,47.77c0,6.58,1,7.54,7.62,7.6,1.68,0,3.35,0,5.34,0V189H401.12V177.4c2.16,0,4.37,0,6.57,0,5.13-.16,6.33-1.22,6.45-6.39.16-6.83.08-13.68.09-20.52,0-9.3,0-18.61,0-27.92v-3.82c-5.55-.55-10.75-.15-13.54,4.51-2.44,4.07-3.38,9-5.16,14.1-2.39,0-8.62-.12-8.62-.12h-2v-2.57s.05-8.51.08-12.77c0-1.43-.12-2.86-.22-4.89-2.69.32-5.29.13-7.39,1.07-1.25.56-2.4,2.88-2.43,4.43-.21,13.34-.16,26.68-.17,40,0,3.14.18,6.29,0,9.42-.2,3.63,1.73,5.1,5,5.35,1.78.13,3.58,0,5.64,0V189H258.24V178.54c-.88.92-1.58,1.56-1.92,1.91-12.75,12.94-38.94,13.75-53.45,5.74-12.26-6.76-18.13-17.73-19.28-31.21-.83-9.85-.48-19.72,4.23-28.88,5.93-11.53,15.47-18,28.09-20a57.74,57.74,0,0,1,25.54,1.34c6.41,1.87,11.34,4,16.56,9.92s6.2,9.51,7.63,14.73c4.18,15.28,3.73,30.3-5.54,44a16.09,16.09,0,0,0-1,1.41c2.16-.28,4.79-.51,6.74-.73,2.23-.24,3.06-1.67,3.07-3.67q0-25.86,0-51.7c0-2-.83-3.51-3.07-3.66C263.24,117.61,260.58,117.55,257.93,117.44Zm-18.39,31.74a103.67,103.67,0,0,0-2.42-21.71c-1.48-6.49-5.76-9.58-11.27-9.63-5.83,0-9.86,2.86-11.67,9.56a78.93,78.93,0,0,0-2.35,15.17c-.61,8.94-.37,17.89,2.24,26.59,1.16,3.87,3.1,7.21,7.09,8.82,6.37,2.56,13.34-.21,15.32-7.17A82.3,82.3,0,0,0,239.54,149.18Z"/><path class="cls-1" d="M85.67,190.53c-9.11,0-17.83.09-26.54-.12-1,0-33.82-60.07-33.82-60.07s-.14,3.11-.14,4.16q0,17.33-.05,34.65c0,8.44.17,8.62,8.41,9.31.65,0,1.29.22,2.23.39,0,2.84,0,5.63,0,8.41,0,1-.12,2-.19,3.1H0V178.85c2.1-.24,4.08-.56,6.06-.67,3.1-.17,4.37-1.9,4.39-4.8q.06-6.9.07-13.79c0-11.55,0-23.1,0-34.65,0-6.37-.68-7-7.13-7.35-1.09-.06-2.17-.19-3.39-.29V105.42H17.24c6.73,0,20.18-.06,20.18-.06h2.69L41.78,108s17.91,33.55,26.88,50.31c.51.95,1.07,1.87,2.1,3.67.14-1.76.25-2.57.25-3.37,0-11.21,0-22.42,0-33.63,0-6.34-.85-7.37-7.14-7.3-1.7,0-4,0-4,0V113.3s-.21-4.9-.21-7.62H181.62v31c-3.84,0-7.72.13-11.57-.12,0,0-3.74-8.53-5.1-11.3a12.85,12.85,0,0,0-11.52-7.42c-5.92-.31-11.86-.37-17.78-.69-2.39-.13-3.47.51-3.42,3.13.14,6.58.05,13.16.05,19.66,9.41,1.65,12.67-1.46,13.78-12.78h10v37.56h-10c-.37-2.66-.57-5.22-1.11-7.7-1-4.43-7.14-7.68-11.42-6.08a2,2,0,0,0-1.15,1.38c-.07,8.26-.06,16.52-.06,25.41,8.75-.39,17-.54,25.26-1.22a8.57,8.57,0,0,0,7.7-6.17c1.56-5.06,2.77-10.23,4.2-15.65h12.74V189H94.14V177.63c2-.14,4.12-.26,6.2-.44,3.27-.28,4.53-2,4.5-5.34-.11-16.37,0-32.74,0-49.11,0-.33,0-.67,0-1,0-2.31-1-4-3.49-4-4.21,0-8.44,0-12.63.39-.94.09-2.17,1.56-2.53,2.64a16.45,16.45,0,0,0-.45,5q0,30.11,0,60.2C85.66,187.27,85.67,188.61,85.67,190.53Z"/><path class="cls-1" d="M250.61.53c-2.31,1.52-4.26,2.79-6.19,4.08-8,5.36-11.85,12.8-11.79,22.44.1,16.13,0,52.86,0,52.86h-28s-.06-43.61.08-63.77C204.77,6.55,211.64.07,221.21.07q14.1,0,28.22.06A6.46,6.46,0,0,1,250.61.53Z"/><path class="cls-1" d="M304.14,79.2c2.21-1.48,4.44-2.91,6.61-4.44,7.42-5.23,11-12.41,11-21.5C321.69,36.91,321.66,0,321.66,0h28.12s0,43.5-.09,63.44c-.05,10-6.79,16.44-16.82,16.44H304.35Z"/><path class="cls-1" d="M277.42,3.83c19.48-.11,36,16.26,36.25,35.86s-16.36,36.34-36,36.43c-19.5.08-36-16.29-36.25-35.87S257.72,3.94,277.42,3.83Zm24.5,36.67c0-13.64-10.38-24.22-23.87-24.25s-24.21,10.38-24.24,23.87c0,13.65,10.37,24.21,23.87,24.25S301.89,54,301.92,40.5Z"/></symbol></defs><title>neolite</title><g id="Capa_2" data-name="Capa 2"><g id="MARCAS"><use width="555.74" height="191.37" transform="scale(0.26)" xlink:href="#Neo"/></g></g></svg>