<svg xmlns="http://www.w3.org/2000/svg" xmlns:xlink="http://www.w3.org/1999/xlink" viewBox="0 0 144.21 51.77"><defs><style>.cls-1{fill:#0092d2;fill-rule:evenodd;}</style><symbol id="NTN" data-name="NTN" viewBox="0 0 175.75 63.09"><polygon class="cls-1" points="0 52.08 0 0 41.76 32.58 41.76 1.15 56.67 1.15 56.67 63.09 14.22 30.29 14.22 63.09 0 52.08 0 52.08"/><polygon class="cls-1" points="119.31 52.08 119.31 0 160.84 32.58 160.84 1.15 175.75 1.15 175.75 63.09 133.53 30.29 133.53 63.09 119.31 52.08 119.31 52.08"/><polygon class="cls-1" points="113.11 1.15 61.72 1.15 61.49 15.83 80.3 15.83 80.3 50.7 94.3 61.72 94.53 23.86 84.2 15.83 113.11 15.83 113.11 1.15 113.11 1.15"/></symbol></defs><title>ntn</title><g id="Capa_2" data-name="Capa 2"><g id="MARCAS"><use width="175.75" height="63.09" transform="scale(0.82)" xlink:href="#NTN"/></g></g></svg>