<svg xmlns="http://www.w3.org/2000/svg" viewBox="0 0 144.21 26.35"><defs><style>.cls-1{fill:#1d1d1b;}.cls-2{fill:#e20613;}</style></defs><title>perfection</title><g id="Capa_2" data-name="Capa 2"><g id="MARCAS"><path class="cls-1" d="M56.48,18.28A18.46,18.46,0,0,1,57.41,16a15.71,15.71,0,0,1,1-1.71,1.83,1.83,0,0,1,.62-.59,1.34,1.34,0,0,1,.71-.22,1,1,0,0,1,1,.66A4.41,4.41,0,0,1,61,15.68,7.92,7.92,0,0,1,60.58,18,4.8,4.8,0,0,1,59.44,20a2.52,2.52,0,0,1-1.85.78q-.51,0-.51-.27c0-.1.05-.16.12-.18a1.55,1.55,0,0,1,.39,0,2,2,0,0,0,1.24-.44,3.58,3.58,0,0,0,.94-1.3,8.29,8.29,0,0,0,.6-2,4.72,4.72,0,0,0,.07-.85,2.73,2.73,0,0,0-.24-1.22.72.72,0,0,0-.63-.48c-.37,0-.74.34-1.13,1-.22.38-.42.76-.6,1.12s-.36.74-.52,1.12a11.61,11.61,0,0,0-.42,1.17,8.62,8.62,0,0,0-.3,1.16c0,.07-.07.33-.16.79s-.18.81-.23,1.05-.11.47-.17.69-.11.4-.16.54c-.17.52-.3.78-.41.78s-.14-.17-.14-.51a1.58,1.58,0,0,1,0-.19,1.93,1.93,0,0,0,0-.23,9.62,9.62,0,0,1,.23-1.11c.12-.47.26-1,.43-1.56S56.34,18.72,56.48,18.28Z"/><path class="cls-1" d="M55.47,23.56c-.32,0-.32-.47-.32-.68,0,0,0-.11,0-.21a1.62,1.62,0,0,0,0-.21,9.19,9.19,0,0,1,.23-1.15c.12-.47.27-1,.44-1.57s.32-1.07.47-1.51h0a17,17,0,0,1,.94-2.34,15.46,15.46,0,0,1,1-1.73,2.33,2.33,0,0,1,.68-.65,1.6,1.6,0,0,1,.8-.23,1.13,1.13,0,0,1,1.13.77,4.49,4.49,0,0,1,.27,1.63,7.89,7.89,0,0,1-.38,2.38,5,5,0,0,1-1.17,2,2.74,2.74,0,0,1-2,.84c-.59,0-.68-.28-.68-.45s.16-.32.24-.34a1.32,1.32,0,0,1,.44,0,1.71,1.71,0,0,0,1.13-.41,3.42,3.42,0,0,0,.9-1.23,8.59,8.59,0,0,0,.58-2,5.44,5.44,0,0,0,.07-.82A2.51,2.51,0,0,0,60,14.52c-.19-.39-.4-.39-.47-.39-.29,0-.63.32-1,.93-.21.37-.41.75-.59,1.11s-.36.74-.52,1.11a12.19,12.19,0,0,0-.42,1.15,10.6,10.6,0,0,0-.29,1.14c0,.07-.07.34-.16.8s-.18.81-.23,1.05-.11.47-.17.7-.11.41-.16.55C55.83,23.33,55.68,23.56,55.47,23.56Zm4.25-9.93a1.17,1.17,0,0,0-.62.19,1.68,1.68,0,0,0-.57.53,16.65,16.65,0,0,0-1,1.7,15.78,15.78,0,0,0-.92,2.29h0c-.15.44-.3.94-.47,1.5s-.31,1.09-.43,1.56a8.56,8.56,0,0,0-.22,1.08c0,.05,0,.13,0,.23s0,.14,0,.17,0,.16,0,.21a4,4,0,0,0,.21-.53l.15-.53c.06-.22.11-.45.17-.69s.13-.58.23-1,.15-.72.16-.79a8.88,8.88,0,0,1,.3-1.18,11.84,11.84,0,0,1,.43-1.18c.16-.39.34-.77.52-1.14s.39-.74.61-1.13c.42-.74.84-1.1,1.28-1.1a.88.88,0,0,1,.78.58,2.81,2.81,0,0,1,.27,1.3,5.05,5.05,0,0,1-.08.88,8.19,8.19,0,0,1-.61,2,3.63,3.63,0,0,1-1,1.36,2.12,2.12,0,0,1-1.35.49,1.46,1.46,0,0,0-.33,0v0c0,.07.25.08.33.08a2.4,2.4,0,0,0,1.73-.73A4.78,4.78,0,0,0,60.41,18a7.52,7.52,0,0,0,.36-2.27,4,4,0,0,0-.25-1.5A.77.77,0,0,0,59.72,13.63Z"/><path class="cls-1" d="M64.37,20.44h0s.07.06.07.19a.52.52,0,0,1-.14.36c-.32.3-.61.55-.87.76a4.33,4.33,0,0,1-1,.56,2.68,2.68,0,0,1-1.15.25.76.76,0,0,1-.7-.5,3.23,3.23,0,0,1-.2-1.25,2.49,2.49,0,0,1,.64-1.56,4.28,4.28,0,0,1,1.44-1.2,2,2,0,0,1,.68-.18.86.86,0,0,1,.53.17.59.59,0,0,1,.21.49,1.86,1.86,0,0,1-.89,1.71,4,4,0,0,1-2.12.55,1.39,1.39,0,0,1,0,.32,1.29,1.29,0,0,0,.21.75.81.81,0,0,0,.66.25,2.55,2.55,0,0,0,1.11-.45A12.54,12.54,0,0,0,64.37,20.44ZM61,20.33l.18,0,.19,0a3.06,3.06,0,0,0,.92-.24,2.15,2.15,0,0,0,.81-.58,1.26,1.26,0,0,0,.34-.88c0-.26-.12-.38-.37-.38a1.74,1.74,0,0,0-1,.53A3.22,3.22,0,0,0,61,20.33Z"/><path class="cls-1" d="M61.36,22.73a1,1,0,0,1-.87-.6,3.59,3.59,0,0,1-.2-1.32A2.67,2.67,0,0,1,61,19.14a4.77,4.77,0,0,1,1.5-1.25,2.24,2.24,0,0,1,.76-.2,1,1,0,0,1,.63.21.76.76,0,0,1,.29.63,2.06,2.06,0,0,1-1,1.86,4.13,4.13,0,0,1-2.05.57c0,.06,0,.12,0,.16a1.1,1.1,0,0,0,.17.63.63.63,0,0,0,.52.18,2.35,2.35,0,0,0,1-.41,12.42,12.42,0,0,0,1.44-1.21l0,0h.1c.09,0,.24,0,.24.37a.72.72,0,0,1-.18.48c-.33.31-.63.57-.89.78a5.39,5.39,0,0,1-1,.58A2.89,2.89,0,0,1,61.36,22.73ZM63.22,18a1.75,1.75,0,0,0-.62.17,4.57,4.57,0,0,0-1.37,1.15,2.36,2.36,0,0,0-.59,1.45A3.13,3.13,0,0,0,60.82,22a.61.61,0,0,0,.55.39,2.65,2.65,0,0,0,1.07-.24,4.38,4.38,0,0,0,.91-.54c.26-.2.55-.45.86-.74a.41.41,0,0,0,.05-.09,11.56,11.56,0,0,1-1.26,1,2.72,2.72,0,0,1-1.19.47h0A1,1,0,0,1,61,22a1.46,1.46,0,0,1-.24-.85v0a2.07,2.07,0,0,0,0-.29v-.18H61a3.76,3.76,0,0,0,2-.52,1.71,1.71,0,0,0,.81-1.56.41.41,0,0,0-.15-.35A.66.66,0,0,0,63.22,18Zm-1.83,2.52h0l-.15,0-.21,0-.16,0,0-.17A3.26,3.26,0,0,1,62,18.71a1.86,1.86,0,0,1,1.15-.58.51.51,0,0,1,.54.56,1.44,1.44,0,0,1-.38,1,2.27,2.27,0,0,1-.87.62,3.15,3.15,0,0,1-1,.25Zm-.13-.37.16,0a2.75,2.75,0,0,0,.84-.22,1.93,1.93,0,0,0,.75-.54,1.08,1.08,0,0,0,.29-.76c0-.18-.06-.21-.19-.21a1.62,1.62,0,0,0-.92.49A3.54,3.54,0,0,0,61.26,20.19Z"/><path class="cls-1" d="M65.7,18.33a.62.62,0,0,1-.19-.52.45.45,0,0,1,.27-.45h.13c.14,0,.23.05.26.14a4.24,4.24,0,0,1,.11.52h.3q.87,0,.87.69a1.16,1.16,0,0,1-.07.4,5.14,5.14,0,0,1-.19.51c-.09.21-.14.34-.15.38-.09.2-.2.48-.35.83s-.25.61-.31.78a1,1,0,0,0-.1.31l.06.05a1.79,1.79,0,0,0,.56-.34c.27-.21.53-.42.77-.63l.52-.47,0-.06a.1.1,0,0,1,.08,0c.05,0,.07,0,.07.08v.19a.37.37,0,0,1-.15.31c-.4.37-.69.64-.89.81a5,5,0,0,1-.8.55,1.2,1.2,0,0,1-.62.21.32.32,0,0,1-.32-.28,7.13,7.13,0,0,1,.23-.7c.09-.24.2-.54.36-.91s.28-.7.39-1,.21-.55.28-.79a.56.56,0,0,0,0-.07.28.28,0,0,0,0-.08c0-.17-.14-.26-.43-.26l-.23,0-.18,0a12.21,12.21,0,0,1-1.82,2.54c-.08,0-.12-.11-.12-.26a.4.4,0,0,1,0-.18,1.42,1.42,0,0,1,.18-.22,5.69,5.69,0,0,0,.9-1.18A6.75,6.75,0,0,0,65.7,18.33Z"/><path class="cls-1" d="M65.93,22.73a.49.49,0,0,1-.49-.41v-.09c.07-.23.14-.47.23-.71L66,20.6c.15-.37.29-.7.4-1s.2-.53.27-.76c0,0,0-.05,0-.08a.08.08,0,0,0,0,0c0-.08-.18-.09-.26-.09l-.2,0h-.1a12.4,12.4,0,0,1-1.8,2.5l-.07.08-.1,0c-.12,0-.25-.13-.25-.43a.47.47,0,0,1,.07-.28l.18-.23a6,6,0,0,0,.89-1.15q.28-.49.42-.78a.85.85,0,0,1-.16-.56.64.64,0,0,1,.36-.61h.08l.13,0a.4.4,0,0,1,.42.26c0,.09.06.22.1.4h.15c.91,0,1,.54,1,.87a1.41,1.41,0,0,1-.07.45c0,.14-.11.31-.2.53L67.2,20c-.08.21-.2.49-.35.84s-.25.61-.31.77h0a2.06,2.06,0,0,0,.25-.19,9.71,9.71,0,0,0,.76-.62l.51-.45a.19.19,0,0,1,.06-.07.27.27,0,0,1,.2-.1.24.24,0,0,1,.24.26v.19a.57.57,0,0,1-.21.45c-.38.36-.68.63-.88.81a6.93,6.93,0,0,1-.83.56A1.32,1.32,0,0,1,65.93,22.73Zm-.14-.46c0,.11.1.11.14.11a1.08,1.08,0,0,0,.53-.18,5.45,5.45,0,0,0,.78-.53c.19-.17.49-.44.88-.81a.22.22,0,0,0,.09-.13l-.43.38c-.24.21-.5.43-.77.64s-.55.36-.65.37h-.08L66.11,22V21.9a1.13,1.13,0,0,1,.1-.38c.07-.16.17-.42.32-.77l.34-.83.16-.39a4.3,4.3,0,0,0,.19-.5,1.33,1.33,0,0,0,0-.34c0-.24-.08-.52-.69-.52h-.45l0-.14a3.14,3.14,0,0,0-.11-.49s-.07,0-.09,0l-.08,0a.28.28,0,0,0-.14.28c0,.13,0,.31.12.38l.11.08,0,.13a9.82,9.82,0,0,1-.48.91,9.94,9.94,0,0,0,.5-.86l0-.09h.11l.15,0,.26,0c.53,0,.61.28.61.44a.52.52,0,0,1,0,.11V19c-.08.24-.17.5-.29.79s-.24.62-.39,1l-.36.91Q65.88,22,65.79,22.27ZM64.3,20.73h0l.29-.33-.13.13a1.63,1.63,0,0,0-.15.2Z"/><path class="cls-1" d="M70,17.86c.07-.26.2-.67.37-1.24s.35-1.15.55-1.76a12.73,12.73,0,0,1,.43-1.21c.13-.23.2-.36.23-.4a.18.18,0,0,1,.16-.06c.09,0,.14.12.14.26s0,.1,0,.2a1.06,1.06,0,0,0,0,.2A22.23,22.23,0,0,1,71,16.47c-.48,1.4-.88,2.51-1.2,3.36q-.24.66-.6,1.77c-.25.74-.46,1.43-.65,2.08a10.88,10.88,0,0,0-.33,1.3,1.76,1.76,0,0,1,0,.19c0,.08,0,.13,0,.15,0,.18,0,.27.16.27s.22-.09.33-.27a8.31,8.31,0,0,0,.52-.93,5.76,5.76,0,0,0,.29-.82c.07-.26.13-.57.19-.92s.11-.69.16-1a5.12,5.12,0,0,0,.65-.35,6,6,0,0,0,1-.83.15.15,0,0,1,.08-.05c.06,0,.09.07.09.22a.45.45,0,0,1-.12.31,8,8,0,0,1-1.33,1A7.31,7.31,0,0,1,70,23.17a8.65,8.65,0,0,1-.36,1.27,4,4,0,0,1-.43.9,1.69,1.69,0,0,1-.26.36,1.85,1.85,0,0,1-.44.4,1.24,1.24,0,0,1-.39.07c-.29,0-.43-.23-.43-.71,0-.2,0-.35,0-.45A11,11,0,0,1,68,23.83c.11-.43.28-1,.48-1.62s.47-1.42.77-2.31h0l-.57.67a4.49,4.49,0,0,1-.51.53h0c-.07,0-.1-.12-.1-.32a.23.23,0,0,1,0-.11l.11-.14a.71.71,0,0,0,.07-.11l.56-.61a8.39,8.39,0,0,0,.68-.78,1.1,1.1,0,0,0,.14-.27,3.61,3.61,0,0,0,.17-.45C69.85,18.14,69.9,18,70,17.86Z"/><path class="cls-1" d="M68.16,26.35c-.22,0-.61-.12-.61-.89a2.88,2.88,0,0,1,0-.48,11.1,11.1,0,0,1,.25-1.19c.12-.43.28-1,.49-1.63l.49-1.51,0,0a4,4,0,0,1-.54.55l-.09.05h-.06c-.24,0-.24-.37-.24-.49a.46.46,0,0,1,.05-.2l.12-.16.07-.1.58-.63a8,8,0,0,0,.66-.77.62.62,0,0,0,.12-.23c0-.12.11-.26.17-.44l.17-.46.37-1.23c.17-.56.35-1.15.55-1.77s.35-1,.44-1.23.22-.38.25-.42a.33.33,0,0,1,.3-.13h0a.39.39,0,0,1,.26.43,1.22,1.22,0,0,1,0,.23c0,.08,0,.13,0,.17a23.47,23.47,0,0,1-.83,2.68c-.48,1.38-.89,2.51-1.21,3.36-.16.43-.36,1-.6,1.76s-.45,1.43-.64,2.08A10.41,10.41,0,0,0,68.36,25a1.62,1.62,0,0,1,0,.18.85.85,0,0,0,0,.13v.08s.09-.06.16-.17a8.94,8.94,0,0,0,.51-.91,4.7,4.7,0,0,0,.28-.79c.07-.26.13-.56.19-.91s.11-.69.16-1l0-.1.09,0a4.92,4.92,0,0,0,.62-.34,6.06,6.06,0,0,0,1-.8.27.27,0,0,1,.2-.11c.08,0,.27,0,.27.4a.65.65,0,0,1-.16.42,8,8,0,0,1-1.3,1,6.67,6.67,0,0,1-.15,1.19,10.94,10.94,0,0,1-.36,1.29,4.67,4.67,0,0,1-.44.92,3,3,0,0,1-.28.39,1.7,1.7,0,0,1-.5.44A1.37,1.37,0,0,1,68.16,26.35Zm1-6.62h.33l-.06.23c-.3.89-.55,1.66-.76,2.31s-.37,1.18-.48,1.61A11.06,11.06,0,0,0,67.92,25a4.26,4.26,0,0,0,0,.43c0,.54.19.54.26.54a.93.93,0,0,0,.33-.07,1.55,1.55,0,0,0,.37-.35c.14-.17.19-.24.21-.27v0l0-.05a4,4,0,0,0,.42-.86,8.6,8.6,0,0,0,.35-1.24A7.1,7.1,0,0,0,70,21.92v-.09l.08,0a7.37,7.37,0,0,0,1.29-1,.21.21,0,0,0,.06-.1,5.33,5.33,0,0,1-1.48,1c0,.29-.09.6-.15.92s-.12.67-.19.94a4.55,4.55,0,0,1-.31.84,6.67,6.67,0,0,1-.53.95c-.14.23-.3.35-.47.35s-.33,0-.33-.44a1.49,1.49,0,0,1,0-.17A1.09,1.09,0,0,0,68,25a12.83,12.83,0,0,1,.34-1.35c.19-.66.41-1.36.65-2.09s.44-1.34.6-1.77c.32-.85.73-2,1.21-3.35a23.71,23.71,0,0,0,.81-2.6s0-.09,0-.2a.66.66,0,0,0,0-.17v-.07l-.2.35c-.08.18-.22.58-.42,1.18s-.38,1.2-.55,1.76l-.37,1.24h0c-.05.13-.11.28-.17.46s-.12.33-.17.46a1.65,1.65,0,0,1-.17.31,8.66,8.66,0,0,1-.69.79l-.55.6-.08.11-.09.12v0c.08-.07.18-.19.32-.34l.57-.67Z"/><path class="cls-1" d="M73.58,17.7l.19,0c.15,0,.23.07.23.21s0,.22-.16.24a2.75,2.75,0,0,0-1.52,1.12,3.32,3.32,0,0,0-.53,1.69c0,.27.06.46.08.57a.81.81,0,0,0,.16.34.52.52,0,0,0,.36.18,1.25,1.25,0,0,0,.69-.32,2.27,2.27,0,0,0,.55-.6,1.71,1.71,0,0,1-.25-.91A3.83,3.83,0,0,1,73.65,19a.8.8,0,0,1,.75-.6.32.32,0,0,1,.34.19,1.5,1.5,0,0,1,.07.54,2.87,2.87,0,0,1-.11.77,4,4,0,0,1-.24.67l-.21.41.1,0,.12,0a.81.81,0,0,0,.42-.16,2.59,2.59,0,0,0,.42-.32l.21-.18s0,.06,0,.2a.71.71,0,0,1-.41.64,1.73,1.73,0,0,1-.8.27L74,21.39a4.43,4.43,0,0,1-.84.81,1.62,1.62,0,0,1-.83.28.84.84,0,0,1-.73-.36,2.22,2.22,0,0,1-.24-1.2v-.13a2.89,2.89,0,0,1,.51-1.69,3.89,3.89,0,0,1,1-1A5.42,5.42,0,0,1,73.58,17.7Zm.36,3a8.61,8.61,0,0,0,.34-.89,2.83,2.83,0,0,0,.14-.73c0-.15,0-.22-.07-.22s-.27.13-.38.4a2.52,2.52,0,0,0-.2.88A1.28,1.28,0,0,0,73.94,20.71Z"/><path class="cls-1" d="M72.33,22.66a1,1,0,0,1-.87-.44,2.26,2.26,0,0,1-.28-1.3v-.13A3.12,3.12,0,0,1,71.73,19a3.76,3.76,0,0,1,1-1,4.19,4.19,0,0,1,.76-.42h0a.55.55,0,0,1,.24,0,.41.41,0,0,1,.11.8,2.5,2.5,0,0,0-1.41,1.05,3,3,0,0,0-.5,1.59c0,.24,0,.43.07.54a.58.58,0,0,0,.13.26.34.34,0,0,0,.24.11,1,1,0,0,0,.56-.28,2.14,2.14,0,0,0,.45-.46,2,2,0,0,1-.21-.9,3.66,3.66,0,0,1,.28-1.31,1,1,0,0,1,.91-.71.47.47,0,0,1,.5.29,1.7,1.7,0,0,1,.08.61,2.85,2.85,0,0,1-.11.82,3.79,3.79,0,0,1-.26.7l-.11.23a.94.94,0,0,0,.3-.12,2.79,2.79,0,0,0,.39-.31c.24-.22.25-.23.33-.23s.22.27.22.38a.91.91,0,0,1-.5.8,2,2,0,0,1-.88.29h0l-.25-.05a4.15,4.15,0,0,1-.8.75,1.76,1.76,0,0,1-.93.32Zm1.31-4.79a4,4,0,0,0-.69.38,3.84,3.84,0,0,0-.94.95,2.8,2.8,0,0,0-.48,1.59v.13A2,2,0,0,0,71.75,22a.67.67,0,0,0,.58.28,1.47,1.47,0,0,0,.73-.26,3.52,3.52,0,0,0,.8-.77l.07-.08.11,0,.32.08a1.56,1.56,0,0,0,.7-.25.58.58,0,0,0,.3-.32A3.27,3.27,0,0,1,75,21a1,1,0,0,1-.51.18h0L74,21l.09-.18c0-.08.11-.21.2-.41a3.78,3.78,0,0,0,.24-.63,3,3,0,0,0,.09-.73,1.74,1.74,0,0,0,0-.48s0-.07-.18-.07-.41.05-.59.49a3.41,3.41,0,0,0-.25,1.18,1.43,1.43,0,0,0,.21.79l.07.09-.06.11a2.44,2.44,0,0,1-.59.64,1.33,1.33,0,0,1-.79.36.66.66,0,0,1-.51-.25.92.92,0,0,1-.19-.4c0-.12,0-.32-.08-.59a3.43,3.43,0,0,1,.55-1.8A2.9,2.9,0,0,1,73.79,18s0,0,0-.07v0h0A.31.31,0,0,0,73.64,17.87ZM74,21.05l-.17-.24a1.34,1.34,0,0,1-.2-.64,2.43,2.43,0,0,1,.21-1c0-.13.22-.51.54-.51.11,0,.25.07.25.4a2.82,2.82,0,0,1-.15.78,8.18,8.18,0,0,1-.35.91Zm.28-1.93a.86.86,0,0,0-.12.22,2.14,2.14,0,0,0-.18.82v.06c.06-.15.11-.3.16-.45A3.2,3.2,0,0,0,74.25,19.12Z"/><path class="cls-1" d="M76.79,18.33a.59.59,0,0,1-.19-.52.44.44,0,0,1,.26-.45H77c.14,0,.23.05.26.14a3.79,3.79,0,0,1,.12.52h.29q.87,0,.87.69a1.44,1.44,0,0,1-.06.4c0,.13-.11.3-.19.51l-.16.38-.34.83c-.15.36-.26.61-.32.78a1.19,1.19,0,0,0-.09.31l0,.05a1.79,1.79,0,0,0,.56-.34c.27-.21.53-.42.77-.63l.52-.47.06-.06a.09.09,0,0,1,.07,0s.07,0,.07.08v.19a.37.37,0,0,1-.15.31c-.39.37-.69.64-.89.81a4.82,4.82,0,0,1-.79.55,1.24,1.24,0,0,1-.63.21.32.32,0,0,1-.32-.28c.07-.23.14-.46.23-.7s.21-.54.36-.91.28-.7.39-1a7.68,7.68,0,0,0,.28-.79.41.41,0,0,1,0-.07s0-.06,0-.08-.15-.26-.44-.26l-.23,0-.18,0a12.13,12.13,0,0,1-1.81,2.54c-.08,0-.12-.11-.12-.26a.42.42,0,0,1,0-.18l.18-.22a5.69,5.69,0,0,0,.9-1.18A7.13,7.13,0,0,0,76.79,18.33Z"/><path class="cls-1" d="M77,22.73a.49.49,0,0,1-.49-.41v-.09c.07-.23.15-.47.24-.71s.2-.54.36-.92l.39-1c.11-.27.2-.53.27-.76a.31.31,0,0,1,0-.08v0c0-.08-.18-.09-.26-.09l-.2,0h-.1a12.71,12.71,0,0,1-1.79,2.5l-.08.08-.1,0c-.11,0-.25-.13-.25-.43a.47.47,0,0,1,.07-.28l.19-.23a6,6,0,0,0,.88-1.15q.28-.49.42-.78a.85.85,0,0,1-.16-.56.63.63,0,0,1,.37-.61h.07l.13,0a.43.43,0,0,1,.43.26,2.77,2.77,0,0,1,.09.4h.15c.91,0,1,.54,1,.87a1.8,1.8,0,0,1-.06.45c0,.14-.11.31-.2.53l-.16.37c-.08.21-.19.49-.34.84s-.25.61-.32.77h0a2,2,0,0,0,.26-.19c.26-.2.52-.41.75-.62l.51-.45a.19.19,0,0,1,.06-.07.27.27,0,0,1,.2-.1.24.24,0,0,1,.25.26v.19a.58.58,0,0,1-.22.45c-.39.37-.68.63-.88.81a5.61,5.61,0,0,1-.83.56A1.32,1.32,0,0,1,77,22.73Zm-.13-.46c0,.11.09.11.13.11a1,1,0,0,0,.53-.18,5.45,5.45,0,0,0,.78-.53c.19-.17.49-.44.88-.81a.22.22,0,0,0,.09-.13c-.1.1-.25.23-.43.38s-.5.43-.77.64-.55.36-.64.37h-.08L77.19,22V21.9a1,1,0,0,1,.11-.38c.06-.16.17-.42.31-.77s.27-.63.35-.83.07-.18.15-.39a4.3,4.3,0,0,0,.19-.5,1,1,0,0,0,.06-.34c0-.24-.08-.52-.7-.52h-.44l0-.14a3.9,3.9,0,0,0-.1-.49s-.09,0-.1,0l-.08,0a.28.28,0,0,0-.14.28c0,.13,0,.31.12.38l.11.08,0,.13a7.82,7.82,0,0,1-.48.91,7.89,7.89,0,0,0,.5-.86l0-.09h.11l.15,0,.26,0c.53,0,.61.28.61.44a.45.45,0,0,1,0,.11.08.08,0,0,0,0,0V19c-.07.24-.17.51-.28.79l-.4,1c-.15.37-.27.68-.35.91S76.94,22.07,76.88,22.27Zm-1.5-1.54h0l.29-.34-.13.14a2.19,2.19,0,0,0-.16.2Z"/><path class="cls-1" d="M80.24,21v0a16.38,16.38,0,0,1,2.53-2.79,1.16,1.16,0,0,1,.71-.37c.15,0,.23.09.23.27a.84.84,0,0,1-.07.3,15.74,15.74,0,0,0-1,2.51v0q.67-.87,1.47-1.74A8.63,8.63,0,0,1,85.34,18a.8.8,0,0,1,.39-.15c.17,0,.25.09.25.28a.71.71,0,0,1,0,.15c0,.05,0,.12-.06.19s0,.14-.07.2l-.49,1.22c-.18.49-.33.87-.44,1.14s-.22.55-.35.82l0,.05a3.31,3.31,0,0,0,.53-.27,4.57,4.57,0,0,0,.49-.38,5.44,5.44,0,0,0,.51-.48l.45-.43a.23.23,0,0,1,.09.2c0,.24-.18.49-.53.76s-.56.42-.93.68a3.93,3.93,0,0,1-.8.46h-.14c-.24,0-.37-.09-.39-.26a.37.37,0,0,0,0-.12c.07-.2.2-.51.38-.95s.36-.84.53-1.22l.39-.87,0-.13a1,1,0,0,0,0-.17l-.18.11L84.9,19c-.39.41-.75.8-1.08,1.2L82.07,22.3a.44.44,0,0,1-.34.16c-.09,0-.14-.06-.16-.16a.44.44,0,0,0,0-.1,9.49,9.49,0,0,1,.32-.94c.13-.33.28-.69.44-1.07l.55-1.27a.13.13,0,0,1,0-.06.1.1,0,0,0,0,0c0-.06,0-.08,0-.08s0,0-.08.05a7.55,7.55,0,0,0-.74.75c-.26.29-.59.69-1,1.18s-.7.86-.9,1.1a5.71,5.71,0,0,1-.58.61s0,0-.12,0-.2-.06-.2-.16v-.08c.06-.21.16-.51.31-.91s.26-.72.35-.95l-.29.33-.3.33s0,0-.07.05-.09-.07-.09-.21a1.16,1.16,0,0,1,.43-.74,4,4,0,0,0,.46-.46l.32-.39a2.41,2.41,0,0,0,.21-.51,2.9,2.9,0,0,1,.27-.62.4.4,0,0,1,.36-.22c.13,0,.2,0,.2.13a.52.52,0,0,1,0,.11.36.36,0,0,1,0,.11l0,.12s-.09.19-.21.5L80.64,20C80.44,20.49,80.31,20.81,80.24,21Z"/><path class="cls-1" d="M84.44,22.63h-.16c-.47,0-.55-.29-.57-.42v-.05l0-.08V22c.07-.2.19-.52.38-1s.36-.84.53-1.22l.3-.67c-.35.37-.69.75-1,1.12l-1.75,2.12a.61.61,0,0,1-.48.22.33.33,0,0,1-.33-.3v0l0-.13q.14-.46.33-1c.13-.33.28-.68.44-1.07l.38-.88c-.13.13-.25.26-.38.41s-.59.69-1,1.18l-.89,1.1a6.1,6.1,0,0,1-.6.63.34.34,0,0,1-.24.07.33.33,0,0,1-.37-.33v-.13c.06-.21.17-.52.31-.92l0-.08-.07,0-.1,0c-.08,0-.27,0-.27-.39a1.29,1.29,0,0,1,.49-.86,4.67,4.67,0,0,0,.44-.45,4.37,4.37,0,0,0,.32-.39,2.08,2.08,0,0,0,.19-.46,3.33,3.33,0,0,1,.28-.66.59.59,0,0,1,.51-.29c.35,0,.37.25.37.3a.77.77,0,0,1,0,.15,1,1,0,0,1,0,.13s0,.07,0,.11l-.22.52c-.12.27-.26.59-.42,1a14.41,14.41,0,0,1,1.8-1.84,1.29,1.29,0,0,1,.82-.42.4.4,0,0,1,.41.45.94.94,0,0,1-.09.36q-.43.9-.72,1.62c.28-.33.57-.67.87-1a9.47,9.47,0,0,1,1.29-1.23.9.9,0,0,1,.49-.19.41.41,0,0,1,.43.46,1.36,1.36,0,0,1,0,.2l-.07.2a1.89,1.89,0,0,0-.06.18L85.52,20l-.45,1.14c-.06.16-.13.32-.2.48l.17-.1a4.29,4.29,0,0,0,.48-.36c.15-.13.32-.29.5-.47l.54-.54.12.08a.38.38,0,0,1,.18.35,1.2,1.2,0,0,1-.61.9c-.25.19-.56.42-.93.68a3.44,3.44,0,0,1-.85.48Zm-5-.33h0Zm4.59-.09s.06.07.21.07h.11a2.71,2.71,0,0,0,.62-.35l-.34.16-.11,0-.21-.22.05-.11c.13-.27.24-.54.35-.81s.25-.66.44-1.14.35-.9.49-1.23a1.83,1.83,0,0,1,.06-.19c0-.07,0-.12.06-.17a.37.37,0,0,0,0-.11c0-.11,0-.11-.08-.11a.72.72,0,0,0-.3.13,8.76,8.76,0,0,0-1.22,1.18c-.53.58-1,1.16-1.47,1.72l-.31.4v-.58a16.08,16.08,0,0,1,1-2.54.55.55,0,0,0,.06-.22c0-.1,0-.1-.06-.1s-.29.06-.59.33a16.82,16.82,0,0,0-2.51,2.76l-.32.42,0-.62.39-1c.19-.46.36-.84.48-1.15l.23-.52a.47.47,0,0,1,0-.09l0-.1h0a.22.22,0,0,0-.23.13,3.09,3.09,0,0,0-.25.58,2.46,2.46,0,0,1-.23.55c-.08.11-.19.24-.34.41a4.29,4.29,0,0,1-.47.48,1.62,1.62,0,0,0-.34.45l.41-.46.3.18-.36.95a8.67,8.67,0,0,0-.29.88v0h0A6.14,6.14,0,0,0,80,21.7c.2-.23.49-.6.89-1.09l1-1.19a7.77,7.77,0,0,1,.77-.76.25.25,0,0,1,.19-.1.23.23,0,0,1,.22.26.29.29,0,0,1,0,.09l0,.08-.55,1.27-.44,1.06c-.12.31-.22.62-.3.9a.09.09,0,0,0,0,.05.26.26,0,0,0,.19-.09l1.74-2.12c.33-.39.69-.8,1.09-1.2l.21-.15.45-.3v.33a1.26,1.26,0,0,1,0,.21.62.62,0,0,0,0,.11v.05L85,20c-.17.38-.34.79-.53,1.22s-.3.72-.36.91S84.08,22.18,84.07,22.21Zm2.4-1.49-.2.2c-.18.17-.34.33-.5.46l.27-.2A1.36,1.36,0,0,0,86.47,20.72Z"/><path class="cls-1" d="M89.2,22a2.41,2.41,0,0,0,1-.49,11.3,11.3,0,0,0,1.15-1.07c.08,0,.12.09.13.27s-.15.32-.44.58A8,8,0,0,1,90,22a4.44,4.44,0,0,1-.76.45.74.74,0,0,1-.29.05c-.22,0-.33-.08-.36-.25a2.28,2.28,0,0,1,.1-.36c0-.17.1-.3.13-.4a2,2,0,0,1,.08-.2l0,0c0,.05-.16.19-.34.42a3.63,3.63,0,0,1-.47.52,1.35,1.35,0,0,1-.47.3l-.11,0h-.16c-.62,0-.94-.53-.94-1.59a3.06,3.06,0,0,1,1.93-2.64,3.25,3.25,0,0,1,1.57-.46,2.25,2.25,0,0,1,.61.09c.22.06.33.17.33.32v.12a1.51,1.51,0,0,1-.14.21,1.41,1.41,0,0,0-1.5-.2,4.21,4.21,0,0,0-1.54,1,2.23,2.23,0,0,0-.78,1.36v.14a.68.68,0,0,0,0,.12c0,.68.15,1,.45,1.06a.91.91,0,0,0,.53-.26,10.49,10.49,0,0,0,1.93-2.55A.69.69,0,0,1,90,19a.5.5,0,0,1,.27-.05c.13,0,.19,0,.19.08a1.37,1.37,0,0,1,0,.18Z"/><path class="cls-1" d="M87.36,22.73c-.51,0-1.11-.3-1.11-1.76a3.21,3.21,0,0,1,2-2.79,3.45,3.45,0,0,1,1.65-.49,2.64,2.64,0,0,1,.66.1c.4.11.46.36.46.49v.17l0,0a1.27,1.27,0,0,1-.16.23l-.1.11-.12-.07a1.79,1.79,0,0,0-.83-.3,1.91,1.91,0,0,0-.53.11,4.49,4.49,0,0,0-.74.36,4.36,4.36,0,0,0-.73.57,2,2,0,0,0-.72,1.24.82.82,0,0,1,0,.14V21c0,.31,0,.84.27.89a.78.78,0,0,0,.42-.22,10.68,10.68,0,0,0,1.89-2.51.8.8,0,0,1,.26-.3.77.77,0,0,1,.35-.07c.33,0,.36.18.36.26a.67.67,0,0,1-.05.23c-.31.69-.65,1.49-1,2.41a2.61,2.61,0,0,0,.54-.33,10.17,10.17,0,0,0,1.13-1.06l.06-.06h.07c.11,0,.29.06.3.44,0,.2-.15.42-.49.72a8.26,8.26,0,0,1-1,.78,4,4,0,0,1-.8.47.87.87,0,0,1-.35.07.47.47,0,0,1-.53-.41v-.06a.83.83,0,0,1,0-.15l-.27.27a1.61,1.61,0,0,1-.52.34h-.34ZM89.92,18a3,3,0,0,0-1.48.45A2.84,2.84,0,0,0,86.6,21c0,1.41.57,1.41.76,1.41h.23a1.3,1.3,0,0,0,.39-.25,5,5,0,0,0,.46-.51,5.13,5.13,0,0,1,.33-.42l.14-.17.2.25,0,.12s0,.11-.07.2-.08.23-.13.4a1.07,1.07,0,0,0-.09.3s0,.08.18.08a.62.62,0,0,0,.23,0,3.8,3.8,0,0,0,.72-.43,9.92,9.92,0,0,0,1-.76,1.29,1.29,0,0,0,.36-.41,9.17,9.17,0,0,1-1,.9,2.67,2.67,0,0,1-1,.53l-.34.07.14-.31,1.2-2.76v0c-.13,0-.17,0-.17,0s0,0-.12.17a10.83,10.83,0,0,1-2,2.59,1.17,1.17,0,0,1-.63.31h0c-.4,0-.6-.46-.6-1.24v-.13a.72.72,0,0,0,0-.13,2.3,2.3,0,0,1,.83-1.48,4.23,4.23,0,0,1,.79-.62,4.92,4.92,0,0,1,.81-.39,2,2,0,0,1,.64-.13,1.94,1.94,0,0,1,.87.27l0,0v-.07s0-.1-.2-.15A2,2,0,0,0,89.92,18Z"/><path class="cls-1" d="M92.29,19.32a4.52,4.52,0,0,0,.21-.51,3,3,0,0,1,.3-.64.5.5,0,0,1,.43-.22.17.17,0,0,1,.13.18.84.84,0,0,1-.09.28c-.07.13-.1.21-.11.23l-.36.85-.38.91c-.11.28-.23.55-.34.81h0c.16-.19.43-.48.81-.89s.78-.83,1.24-1.29a6.86,6.86,0,0,1,1-.9l.14-.1a.94.94,0,0,1,.2-.12.32.32,0,0,1,.16,0,.34.34,0,0,1,.21.08.25.25,0,0,1,.09.2,1.56,1.56,0,0,1-.17.52c-.11.25-.18.4-.2.47-.54,1.34-.89,2.21-1.06,2.6a.49.49,0,0,1,0,.13s0,0,.09.08l.12-.05a5,5,0,0,0,.84-.63c.41-.35.73-.64,1-.86h0s.07,0,.07.13a.68.68,0,0,1-.06.31,1.52,1.52,0,0,1-.22.26,11.38,11.38,0,0,1-1,.81,4.27,4.27,0,0,1-.92.54l-.25,0c-.2,0-.31-.09-.33-.26a8,8,0,0,1,.32-1c.13-.34.28-.68.44-1L95.23,19a.68.68,0,0,0,0-.17s0-.05,0-.05a.29.29,0,0,0-.16.08,6.61,6.61,0,0,0-.86.74c-.27.27-.55.58-.85.92l-.89,1c-.31.36-.59.66-.85.91a.29.29,0,0,1-.19.05c-.13,0-.2-.06-.2-.18v-.1c.13-.36.34-1,.63-1.84l-.32.38a1.66,1.66,0,0,1-.29.3l0,0c-.08,0-.12-.12-.12-.26a.6.6,0,0,1,.21-.4c.09-.11.24-.27.45-.49A6.1,6.1,0,0,0,92.29,19.32Z"/><path class="cls-1" d="M94.24,22.66a.46.46,0,0,1-.5-.42v-.06a7.06,7.06,0,0,1,.33-1.05c.13-.34.28-.69.44-1s.29-.62.46-1c-.22.18-.44.37-.64.57s-.54.58-.83.91l-.9,1.05c-.31.35-.6.66-.86.92a.42.42,0,0,1-.31.1.35.35,0,0,1-.38-.36v-.16c.09-.23.2-.57.35-1l0,.05-.08.09-.11,0c-.11,0-.23-.14-.23-.42a.74.74,0,0,1,.26-.52,4,4,0,0,1,.45-.49c.2-.22.37-.41.5-.58a4.61,4.61,0,0,0,.19-.47,2.71,2.71,0,0,1,.32-.68.68.68,0,0,1,.57-.3h0a.35.35,0,0,1,.26.35.89.89,0,0,1-.12.35l-.1.23-.36.84-.36.88.21-.23c.36-.39.78-.83,1.24-1.29A7.84,7.84,0,0,1,95.11,18l.14-.09a1.27,1.27,0,0,1,.22-.14.52.52,0,0,1,.56.06.45.45,0,0,1,.15.34,1.66,1.66,0,0,1-.18.59c-.13.3-.18.41-.19.45l-1,2.48a8,8,0,0,0,.67-.53l1-.86,0-.05h.12s.24,0,.24.31a.75.75,0,0,1-.08.39,1.15,1.15,0,0,1-.26.31,9.17,9.17,0,0,1-1,.82,4,4,0,0,1-1,.56A1.11,1.11,0,0,1,94.24,22.66Zm-.15-.43s0,.08.15.08a.67.67,0,0,0,.19,0,3.6,3.6,0,0,0,.87-.51,11.48,11.48,0,0,0,1-.8.81.81,0,0,0,.18-.21s0,0,0-.05l-.77.68a4.91,4.91,0,0,1-.89.66h-.07s0,0,0,0l-.08,0-.08,0c-.07,0-.19-.1-.19-.23l0-.07a.29.29,0,0,0,0-.09c.18-.43.53-1.3,1.07-2.64,0,0,0-.13.2-.47a1.18,1.18,0,0,0,.15-.45.08.08,0,0,0,0-.07c-.09-.08-.13,0-.17,0l-.18.11a1.43,1.43,0,0,1-.15.11,6.49,6.49,0,0,0-1,.88c-.46.45-.87.89-1.23,1.28s-.65.7-.81.89l-.06.06h-.39l.11-.25c.11-.26.23-.53.34-.8l.38-.92.36-.85.11-.24a1.12,1.12,0,0,0,.08-.2h0a.29.29,0,0,0-.24.14,2.8,2.8,0,0,0-.29.6,3.7,3.7,0,0,1-.22.55h0a6.34,6.34,0,0,1-.53.61c-.21.21-.35.37-.44.48a.64.64,0,0,0-.16.23l.11-.13.32-.38.3.17c-.29.85-.5,1.45-.63,1.82v.07h.11c.24-.24.52-.54.82-.89l.9-1.05c.3-.34.58-.65.85-.92a9,9,0,0,1,.88-.77.56.56,0,0,1,.27-.11.21.21,0,0,1,.21.23.7.7,0,0,1,0,.23l-.57,1.23c-.16.34-.31.68-.44,1A9,9,0,0,0,94.09,22.23Z"/><path class="cls-1" d="M100.21,20.49h0a.09.09,0,0,1,.08,0,.13.13,0,0,1,0,.07c0,.18,0,.29-.09.34a7.94,7.94,0,0,1-1.34,1.15,2.53,2.53,0,0,1-1.42.47,2.87,2.87,0,0,1-.42,0,.72.72,0,0,1-.43-.48A2.61,2.61,0,0,1,96.48,21a3.13,3.13,0,0,1,0-.34,2.26,2.26,0,0,1,.37-1,3.87,3.87,0,0,1,.78-.89,5,5,0,0,1,.91-.63,1.67,1.67,0,0,1,.72-.21.79.79,0,0,1,.55.18.59.59,0,0,1,.2.48,2,2,0,0,1-.17.78c-.11.29-.25.46-.41.49l-.1-.05a.16.16,0,0,1-.12-.13,4.69,4.69,0,0,1,.2-.48,2.41,2.41,0,0,0,.17-.5.26.26,0,0,0-.14-.25.56.56,0,0,0-.27-.08,1.33,1.33,0,0,0-.3.05A3.71,3.71,0,0,0,98,19a3.87,3.87,0,0,0-.76.94A2.24,2.24,0,0,0,96.93,21c0,.72.23,1.1.7,1.14a3.45,3.45,0,0,0,1.24-.54A16.69,16.69,0,0,0,100.21,20.49Z"/><path class="cls-1" d="M97.5,22.73a2.33,2.33,0,0,1-.46-.05.89.89,0,0,1-.55-.58A3,3,0,0,1,96.3,21a2.93,2.93,0,0,1,0-.36,2.4,2.4,0,0,1,.39-1.11,4.42,4.42,0,0,1,.81-.92,5.84,5.84,0,0,1,1-.66,1.26,1.26,0,0,1,1.47,0,.79.79,0,0,1,.26.61,2.36,2.36,0,0,1-.18.84c-.14.36-.32.55-.55.6l-.09,0,0,0,0,0a.35.35,0,0,1-.22-.26l0,0,0-.05a3.13,3.13,0,0,1,.2-.5,2.21,2.21,0,0,0,.16-.46.1.1,0,0,0-.06-.07.32.32,0,0,0-.18-.06.87.87,0,0,0-.25.05,3.3,3.3,0,0,0-.78.56,3.69,3.69,0,0,0-.73.89,2.18,2.18,0,0,0-.32,1c0,.79.29.93.52,1a3.42,3.42,0,0,0,1.15-.52,14.13,14.13,0,0,0,1.33-1.08l.05-.05h.09a.29.29,0,0,1,.22.11.27.27,0,0,1,.07.18.59.59,0,0,1-.16.48A8.14,8.14,0,0,1,99,22.23,2.63,2.63,0,0,1,97.5,22.73ZM99.27,18a1.49,1.49,0,0,0-.64.2,4.92,4.92,0,0,0-.88.6,4,4,0,0,0-.74.85,2.12,2.12,0,0,0-.35.95c0,.08,0,.19,0,.33a2.71,2.71,0,0,0,.16,1c.09.21.19.34.31.37a2.12,2.12,0,0,0,.38,0,2.34,2.34,0,0,0,1.33-.44,7.9,7.9,0,0,0,1.3-1.12.11.11,0,0,0,0-.05,13.94,13.94,0,0,1-1.19,1,3.61,3.61,0,0,1-1.3.57h0c-.4,0-.87-.29-.87-1.32a2.44,2.44,0,0,1,.37-1.18,4,4,0,0,1,.79-1,3.9,3.9,0,0,1,.9-.63,1.23,1.23,0,0,1,.37-.07.72.72,0,0,1,.36.11.43.43,0,0,1,.22.39,2.31,2.31,0,0,1-.18.58l-.16.38,0,0a.77.77,0,0,0,.23-.36,2,2,0,0,0,.16-.72.45.45,0,0,0-.14-.35A.64.64,0,0,0,99.27,18Z"/><path class="cls-1" d="M104,20.44h0s.07.06.07.19a.52.52,0,0,1-.14.36,10.7,10.7,0,0,1-.87.76,4.25,4.25,0,0,1-.94.56,2.72,2.72,0,0,1-1.16.25.77.77,0,0,1-.7-.5,3.25,3.25,0,0,1-.19-1.25,2.53,2.53,0,0,1,.63-1.56,4.38,4.38,0,0,1,1.44-1.2,2,2,0,0,1,.68-.18.84.84,0,0,1,.53.17.6.6,0,0,1,.22.49,1.88,1.88,0,0,1-.89,1.71,4,4,0,0,1-2.13.55,2.58,2.58,0,0,1,0,.32,1.37,1.37,0,0,0,.2.75.82.82,0,0,0,.67.25,2.55,2.55,0,0,0,1.11-.45A12.54,12.54,0,0,0,104,20.44Zm-3.34-.11.19,0,.18,0a3.06,3.06,0,0,0,.92-.24,2.27,2.27,0,0,0,.82-.58,1.3,1.3,0,0,0,.33-.88c0-.26-.12-.38-.36-.38a1.76,1.76,0,0,0-1,.53A3.22,3.22,0,0,0,100.62,20.33Z"/><path class="cls-1" d="M100.94,22.73a1,1,0,0,1-.86-.6,3.37,3.37,0,0,1-.21-1.32,2.69,2.69,0,0,1,.68-1.67A4.74,4.74,0,0,1,102,17.89a2.3,2.3,0,0,1,.76-.2,1.07,1.07,0,0,1,.64.21.75.75,0,0,1,.28.63,2.06,2.06,0,0,1-1,1.86,4.07,4.07,0,0,1-2,.57.7.7,0,0,1,0,.16,1.1,1.1,0,0,0,.17.63.65.65,0,0,0,.53.18,2.32,2.32,0,0,0,1-.41,12.37,12.37,0,0,0,1.45-1.21l0,0H104c.09,0,.25,0,.25.37a.73.73,0,0,1-.19.48c-.33.31-.63.57-.89.78a4.78,4.78,0,0,1-1,.58A2.89,2.89,0,0,1,100.94,22.73ZM102.8,18a1.72,1.72,0,0,0-.61.17,4.34,4.34,0,0,0-1.37,1.15,2.32,2.32,0,0,0-.6,1.45A3.13,3.13,0,0,0,100.4,22a.62.62,0,0,0,.56.39,2.69,2.69,0,0,0,1.07-.24,4.29,4.29,0,0,0,.9-.54c.26-.2.55-.45.86-.74l.06-.09a12.61,12.61,0,0,1-1.26,1,2.81,2.81,0,0,1-1.19.47h0a1,1,0,0,1-.81-.31,1.39,1.39,0,0,1-.25-.85v0a1.19,1.19,0,0,0,0-.29v-.18h.18a3.8,3.8,0,0,0,2-.52,1.7,1.7,0,0,0,.8-1.56.41.41,0,0,0-.15-.35A.64.64,0,0,0,102.8,18ZM101,20.56h0l-.15,0-.2,0-.17,0,0-.17a3.34,3.34,0,0,1,1.09-1.59,1.88,1.88,0,0,1,1.16-.58.51.51,0,0,1,.54.56,1.49,1.49,0,0,1-.38,1,2.39,2.39,0,0,1-.88.62,3.15,3.15,0,0,1-1,.25Zm-.12-.37.15,0a2.75,2.75,0,0,0,.84-.22,2,2,0,0,0,.76-.54,1.13,1.13,0,0,0,.29-.76c0-.18-.06-.21-.19-.21a1.62,1.62,0,0,0-.92.49A3.41,3.41,0,0,0,100.85,20.19Z"/><path class="cls-1" d="M107.41,18.28a15.84,15.84,0,0,1,.93-2.31,14.27,14.27,0,0,1,1-1.71,1.83,1.83,0,0,1,.62-.59,1.34,1.34,0,0,1,.71-.22,1,1,0,0,1,1,.66,4.41,4.41,0,0,1,.26,1.57A7.61,7.61,0,0,1,111.5,18,4.9,4.9,0,0,1,110.37,20a2.55,2.55,0,0,1-1.86.78c-.33,0-.5-.09-.5-.27s0-.16.11-.18a1.67,1.67,0,0,1,.39,0,1.94,1.94,0,0,0,1.24-.44,3.6,3.6,0,0,0,1-1.3,7.88,7.88,0,0,0,.59-2,4.72,4.72,0,0,0,.07-.85,2.73,2.73,0,0,0-.24-1.22.72.72,0,0,0-.63-.48c-.36,0-.74.34-1.13,1-.21.38-.41.76-.6,1.12s-.36.74-.52,1.12a11.61,11.61,0,0,0-.42,1.17c-.12.39-.22.78-.3,1.16,0,.07-.06.33-.16.79s-.17.81-.23,1.05-.11.47-.17.69l-.15.54q-.25.78-.42.78c-.09,0-.14-.17-.14-.51,0,0,0-.1,0-.19a2.15,2.15,0,0,0,0-.23,9.16,9.16,0,0,1,.22-1.11c.12-.47.27-1,.44-1.56S107.26,18.72,107.41,18.28Z"/><path class="cls-1" d="M106.39,23.56c-.31,0-.31-.47-.31-.68a2,2,0,0,1,0-.21,1.62,1.62,0,0,0,0-.21,9.19,9.19,0,0,1,.23-1.15c.12-.47.27-1,.44-1.57s.32-1.07.47-1.51h0a18.34,18.34,0,0,1,.94-2.34,15.41,15.41,0,0,1,1-1.73,2.18,2.18,0,0,1,.67-.65,1.66,1.66,0,0,1,.8-.23,1.12,1.12,0,0,1,1.13.77,4.49,4.49,0,0,1,.27,1.63,7.59,7.59,0,0,1-.38,2.38,4.84,4.84,0,0,1-1.17,2,2.71,2.71,0,0,1-2,.84c-.6,0-.69-.28-.69-.45s.16-.32.24-.34a1.42,1.42,0,0,1,.44,0,1.71,1.71,0,0,0,1.13-.41,3.42,3.42,0,0,0,.9-1.23,8.11,8.11,0,0,0,.58-2,4.39,4.39,0,0,0,.07-.82,2.51,2.51,0,0,0-.23-1.14c-.19-.39-.4-.39-.47-.39-.29,0-.63.32-1,.93-.21.37-.41.75-.59,1.11s-.36.74-.51,1.11a11.25,11.25,0,0,0-.42,1.15,10.6,10.6,0,0,0-.29,1.14c0,.07-.07.34-.17.8s-.17.81-.23,1.05-.11.47-.17.7-.11.41-.16.55C106.76,23.33,106.61,23.56,106.39,23.56Zm4.25-9.93a1.17,1.17,0,0,0-.62.19,1.66,1.66,0,0,0-.56.53,16.57,16.57,0,0,0-1,1.7,18.44,18.44,0,0,0-.92,2.29h0c-.14.44-.3.94-.47,1.5s-.31,1.09-.43,1.56a8.56,8.56,0,0,0-.22,1.08,2.2,2.2,0,0,1,0,.23,1.31,1.31,0,0,0,0,.17v.21a4,4,0,0,0,.21-.53,5.26,5.26,0,0,0,.15-.53c.06-.22.12-.45.17-.69s.13-.58.23-1,.15-.72.16-.79c.08-.39.18-.79.3-1.18s.27-.8.43-1.18.34-.77.53-1.14.39-.75.6-1.13c.42-.74.84-1.1,1.28-1.1a.9.9,0,0,1,.79.58,3,3,0,0,1,.26,1.3,6.27,6.27,0,0,1-.07.88,8.63,8.63,0,0,1-.61,2,3.65,3.65,0,0,1-1,1.36,2.1,2.1,0,0,1-1.35.49,1.34,1.34,0,0,0-.32,0,0,0,0,0,0,0,0c0,.08.28.08.33.08a2.38,2.38,0,0,0,1.73-.73A4.67,4.67,0,0,0,111.33,18a7.52,7.52,0,0,0,.36-2.27,4.21,4.21,0,0,0-.24-1.5A.78.78,0,0,0,110.64,13.63Z"/><path class="cls-1" d="M112.93,18.33a.59.59,0,0,1-.19-.52.45.45,0,0,1,.26-.45h.13c.14,0,.23.05.26.14a2.7,2.7,0,0,1,.12.52h.29q.87,0,.87.69a1.44,1.44,0,0,1-.06.4c0,.13-.11.3-.19.51l-.16.38c-.08.2-.19.48-.34.83l-.32.78a1.19,1.19,0,0,0-.09.31l.06.05a1.79,1.79,0,0,0,.55-.34c.28-.21.53-.42.77-.63l.52-.47s0,0,.06-.06a.09.09,0,0,1,.07,0s.07,0,.07.08v.19a.37.37,0,0,1-.15.31c-.39.37-.69.64-.88.81a5.46,5.46,0,0,1-.8.55,1.24,1.24,0,0,1-.63.21c-.16,0-.26-.09-.32-.28s.15-.46.23-.7.21-.54.36-.91l.4-1c.11-.29.2-.55.28-.79a.23.23,0,0,1,0-.07.28.28,0,0,0,0-.08c0-.17-.15-.26-.44-.26l-.22,0-.19,0a12.13,12.13,0,0,1-1.81,2.54c-.08,0-.12-.11-.12-.26a.3.3,0,0,1,0-.18,1.91,1.91,0,0,1,.17-.22,6.12,6.12,0,0,0,.91-1.18A8.24,8.24,0,0,0,112.93,18.33Z"/><path class="cls-1" d="M113.15,22.73a.47.47,0,0,1-.48-.41l0-.05,0,0a7.3,7.3,0,0,1,.23-.71c.09-.24.21-.54.36-.92l.39-1c.11-.28.2-.53.27-.76,0,0,0-.05,0-.08s0,0,0,0-.19-.09-.27-.09l-.19,0h-.11a12.31,12.31,0,0,1-1.79,2.5l-.07.08-.11,0c-.11,0-.25-.13-.25-.43a.55.55,0,0,1,.07-.28l.19-.23a6.48,6.48,0,0,0,.89-1.15c.18-.33.32-.59.41-.78a.91.91,0,0,1-.15-.56.62.62,0,0,1,.36-.61H113l.13,0a.43.43,0,0,1,.43.26,2.77,2.77,0,0,1,.09.4h.15c.91,0,1,.54,1,.87a1.76,1.76,0,0,1-.07.45c0,.14-.11.32-.2.53l-.16.37c-.08.21-.19.49-.34.84s-.25.61-.31.77h0a2,2,0,0,0,.26-.19,9.51,9.51,0,0,0,.75-.62c.24-.21.42-.36.52-.46s0,0,0-.06a.27.27,0,0,1,.2-.1.24.24,0,0,1,.25.26v.19a.58.58,0,0,1-.22.45c-.38.36-.68.63-.88.81a6,6,0,0,1-.82.56A1.37,1.37,0,0,1,113.15,22.73Zm-.13-.46c0,.11.1.11.13.11a1.08,1.08,0,0,0,.54-.18,5.9,5.9,0,0,0,.77-.53c.2-.17.49-.44.88-.81a.2.2,0,0,0,.1-.13l-.43.38c-.24.21-.5.43-.78.64s-.55.36-.64.37h-.08l-.18-.15V21.9a1.32,1.32,0,0,1,.11-.38c.06-.16.17-.42.32-.77s.26-.63.34-.83a4,4,0,0,1,.16-.39c.08-.2.14-.36.18-.5a1,1,0,0,0,.06-.34c0-.24-.08-.52-.7-.52h-.44l0-.14a2.57,2.57,0,0,0-.1-.49s-.08,0-.1,0l-.08,0a.28.28,0,0,0-.14.28c0,.13,0,.31.12.38l.11.08,0,.13a7.82,7.82,0,0,1-.48.91,7.17,7.17,0,0,0,.51-.86l0-.09h.11l.16,0,.25,0c.54,0,.61.28.61.44a.49.49,0,0,1,0,.11s0,0,0,0V19c-.07.24-.17.5-.28.79s-.25.62-.4,1-.27.68-.35.91S113.08,22.07,113,22.27Zm-1.5-1.54h0l.29-.34-.13.13a2.19,2.19,0,0,0-.16.2Z"/><path class="cls-1" d="M117.55,17.7l.18,0c.15,0,.23.07.23.21s0,.22-.15.24a2.74,2.74,0,0,0-1.53,1.12,3.22,3.22,0,0,0-.52,1.69,5.4,5.4,0,0,0,.07.57,1,1,0,0,0,.16.34.52.52,0,0,0,.37.18,1.25,1.25,0,0,0,.69-.32,2.39,2.39,0,0,0,.54-.6,1.63,1.63,0,0,1-.24-.91,3.57,3.57,0,0,1,.26-1.24.8.8,0,0,1,.75-.6c.18,0,.3.06.34.19a1.5,1.5,0,0,1,.07.54,2.86,2.86,0,0,1-.1.77,3.94,3.94,0,0,1-.25.67c-.1.19-.16.33-.2.41l.1,0,.11,0a.88.88,0,0,0,.43-.16,3,3,0,0,0,.41-.32l.21-.18s0,.06,0,.2a.71.71,0,0,1-.4.64,1.81,1.81,0,0,1-.81.27l-.35-.08a4.43,4.43,0,0,1-.84.81,1.56,1.56,0,0,1-.83.28.81.81,0,0,1-.72-.36,2.12,2.12,0,0,1-.25-1.2v-.13a2.89,2.89,0,0,1,.51-1.69,3.75,3.75,0,0,1,1-1A4.87,4.87,0,0,1,117.55,17.7Zm.35,3a6.81,6.81,0,0,0,.34-.89,2.46,2.46,0,0,0,.14-.73c0-.15,0-.22-.07-.22s-.26.13-.38.4a2.52,2.52,0,0,0-.2.88A1.28,1.28,0,0,0,117.9,20.71Z"/><path class="cls-1" d="M116.29,22.66a1,1,0,0,1-.87-.44,2.26,2.26,0,0,1-.28-1.3v-.13a3.12,3.12,0,0,1,.55-1.79,3.76,3.76,0,0,1,1-1,4.19,4.19,0,0,1,.76-.42h0a.55.55,0,0,1,.24,0,.41.41,0,0,1,.11.8,2.57,2.57,0,0,0-1.41,1.05,3,3,0,0,0-.5,1.59c0,.24,0,.43.07.54a.58.58,0,0,0,.13.26.34.34,0,0,0,.24.11,1,1,0,0,0,.57-.28,2.32,2.32,0,0,0,.44-.46,2.33,2.33,0,0,1-.21-.9,3.89,3.89,0,0,1,.28-1.31,1,1,0,0,1,.91-.71.5.5,0,0,1,.51.29,2,2,0,0,1,.08.61,3.24,3.24,0,0,1-.11.82,6.13,6.13,0,0,1-.26.7l-.12.23a.94.94,0,0,0,.3-.12,2.31,2.31,0,0,0,.39-.31c.24-.22.25-.23.33-.23s.22.27.22.38a.91.91,0,0,1-.5.8,2,2,0,0,1-.88.29h0l-.26-.05a4.15,4.15,0,0,1-.8.75,1.73,1.73,0,0,1-.92.32Zm1.32-4.79a3.67,3.67,0,0,0-.7.38,3.84,3.84,0,0,0-.94.95,2.88,2.88,0,0,0-.48,1.59v.13a2.1,2.1,0,0,0,.22,1.11.67.67,0,0,0,.58.28,1.5,1.5,0,0,0,.74-.26,3.73,3.73,0,0,0,.79-.77l.07-.08.11,0,.32.08a1.6,1.6,0,0,0,.71-.25.59.59,0,0,0,.29-.32A3.27,3.27,0,0,1,119,21a1,1,0,0,1-.51.18h0L118,21l.09-.18c0-.08.11-.21.2-.41a3.78,3.78,0,0,0,.24-.63,3,3,0,0,0,.1-.73,1.31,1.31,0,0,0-.06-.48s0-.07-.18-.07-.41.05-.59.49a3.41,3.41,0,0,0-.25,1.18,1.43,1.43,0,0,0,.21.79l.07.09-.06.11a2.56,2.56,0,0,1-.58.64,1.39,1.39,0,0,1-.79.36.67.67,0,0,1-.52-.25.92.92,0,0,1-.19-.4c0-.12,0-.31-.08-.59a3.38,3.38,0,0,1,.56-1.8,2.88,2.88,0,0,1,1.61-1.2s0,0,0-.07v0h0A.22.22,0,0,0,117.61,17.87Zm.32,3.18-.17-.24a1.34,1.34,0,0,1-.2-.64,2.83,2.83,0,0,1,.21-1c0-.13.22-.51.54-.51.11,0,.25.07.25.4a2.88,2.88,0,0,1-.15.78,8.18,8.18,0,0,1-.35.91Zm.28-1.93a.86.86,0,0,0-.12.22,2.14,2.14,0,0,0-.18.82v.06c0-.15.11-.3.15-.45A2.64,2.64,0,0,0,118.21,19.12Z"/><path class="cls-1" d="M122.15,20.43a2.41,2.41,0,0,0,.07-.37,4.5,4.5,0,0,1,.2-.76c.1-.27.18-.48.24-.62a1.69,1.69,0,0,1,.26-.44.5.5,0,0,1,.39-.22c.07,0,.1,0,.1.11a3.24,3.24,0,0,1-.19,1.11c-.13.36-.33.82-.59,1.39a.93.93,0,0,0,.12.36.52.52,0,0,0,.3.14,1.28,1.28,0,0,0,.55-.21,4.12,4.12,0,0,0,.4-.33,1.05,1.05,0,0,1,.25-.21s.06.08.06.22a.61.61,0,0,1-.32.53,1.88,1.88,0,0,1-1,.47.63.63,0,0,1-.63-.53,6.8,6.8,0,0,1-.67.78,2.42,2.42,0,0,1-1,.66,3.54,3.54,0,0,1-.45,0,.71.71,0,0,1-.49-.17.63.63,0,0,1-.18-.49,1.86,1.86,0,0,1,.09-.55c.06-.19.17-.51.34-1l0,0-.37.41c-.17.18-.26.29-.29.33s-.1-.13-.1-.29a.31.31,0,0,1,.06-.19.87.87,0,0,1,.16-.2,1,1,0,0,1,.13-.14,8.41,8.41,0,0,0,1-1.24c0-.05.1-.22.22-.52A2.78,2.78,0,0,1,121,18a1.46,1.46,0,0,1,.44.05q-.15.42-.36.93c-.14.35-.3.75-.5,1.22s-.34.81-.42,1a2.37,2.37,0,0,0-.14.28,1.13,1.13,0,0,0-.1.38c0,.16.11.26.33.28a.25.25,0,0,1,.13,0,2.15,2.15,0,0,0,1.13-.81A3.77,3.77,0,0,0,122.15,20.43Z"/><path class="cls-1" d="M120.2,22.73a.89.89,0,0,1-.61-.21.78.78,0,0,1-.24-.62,1.89,1.89,0,0,1,.1-.6c0-.06,0-.13.07-.21l-.11.12-.09.11-.12-.07c-.19-.1-.19-.36-.19-.44a.46.46,0,0,1,.08-.28,1.12,1.12,0,0,1,.18-.23l.12-.14a7.83,7.83,0,0,0,1-1.21l.21-.5a2,2,0,0,1,.32-.6l0-.05H121a1.49,1.49,0,0,1,.5.06l.16.06-.06.17q-.15.42-.36.93c-.14.34-.3.75-.5,1.22l-.42,1c0,.08-.09.17-.14.29a.79.79,0,0,0-.08.32s0,.07.13.09l.15,0a2.13,2.13,0,0,0,1-.75,4.1,4.1,0,0,0,.57-.81,2.65,2.65,0,0,1,.06-.34,4,4,0,0,1,.21-.79q.15-.42.24-.63a1.71,1.71,0,0,1,.28-.48.67.67,0,0,1,.53-.28.27.27,0,0,1,.28.28,3.36,3.36,0,0,1-.21,1.17c-.12.35-.32.8-.57,1.35a.6.6,0,0,0,.08.23.28.28,0,0,0,.16.08,1.11,1.11,0,0,0,.45-.19,2.2,2.2,0,0,0,.37-.3c.19-.19.26-.23.32-.25h.06c.23,0,.23.29.23.39a.78.78,0,0,1-.4.68,2.07,2.07,0,0,1-1.13.5.82.82,0,0,1-.67-.37c-.14.16-.3.35-.51.56a1.94,1.94,0,0,1-1.57.76Zm-.26-2.64.22.26,0,.1c-.18.46-.29.77-.35,1a1.73,1.73,0,0,0-.08.49.44.44,0,0,0,.13.36.53.53,0,0,0,.37.12,2.31,2.31,0,0,0,.43-.05,2.12,2.12,0,0,0,.89-.6,7.28,7.28,0,0,0,.65-.76l.22-.31.1.37a.47.47,0,0,0,.47.4,1.73,1.73,0,0,0,.92-.44.51.51,0,0,0,.24-.27,3.47,3.47,0,0,1-.42.34,1.49,1.49,0,0,1-.63.25H123a.66.66,0,0,1-.4-.21.93.93,0,0,1-.15-.44v0l0-.05c.26-.56.46-1,.58-1.37a2.93,2.93,0,0,0,.19-1,.35.35,0,0,0-.19.14,1.8,1.8,0,0,0-.23.39c-.06.14-.14.35-.23.62a4.2,4.2,0,0,0-.2.73,2.13,2.13,0,0,1-.09.43,3.51,3.51,0,0,1-.62.88,2.28,2.28,0,0,1-1.23.88h-.07l0,0h-.06c-.44-.06-.48-.34-.48-.46a1.41,1.41,0,0,1,.11-.45,2,2,0,0,1,.15-.3c.07-.19.21-.53.41-1s.36-.87.5-1.21.2-.51.28-.73h-.11a3.84,3.84,0,0,0-.21.44,4.35,4.35,0,0,1-.23.53A6,6,0,0,1,119.94,20.09Zm-.12.13-.17.18-.13.14a.59.59,0,0,0-.13.17l0,0,.07-.08.36-.4Z"/><path class="cls-1" d="M127.9,20.44h0s.07.06.07.19a.52.52,0,0,1-.14.36,10.7,10.7,0,0,1-.87.76,4.25,4.25,0,0,1-.94.56,2.72,2.72,0,0,1-1.16.25.77.77,0,0,1-.7-.5,3.25,3.25,0,0,1-.19-1.25,2.53,2.53,0,0,1,.63-1.56,4.48,4.48,0,0,1,1.44-1.2,2,2,0,0,1,.68-.18.84.84,0,0,1,.53.17.6.6,0,0,1,.22.49,1.88,1.88,0,0,1-.89,1.71,4,4,0,0,1-2.13.55,2.58,2.58,0,0,1,0,.32,1.29,1.29,0,0,0,.21.75.78.78,0,0,0,.66.25,2.55,2.55,0,0,0,1.11-.45A12.54,12.54,0,0,0,127.9,20.44Zm-3.34-.11.19,0,.18,0a3.06,3.06,0,0,0,.92-.24,2.27,2.27,0,0,0,.82-.58,1.3,1.3,0,0,0,.33-.88c0-.26-.12-.38-.36-.38a1.76,1.76,0,0,0-1,.53A3.22,3.22,0,0,0,124.56,20.33Z"/><path class="cls-1" d="M124.88,22.73a1,1,0,0,1-.86-.6,3.4,3.4,0,0,1-.21-1.32,2.69,2.69,0,0,1,.68-1.67A4.74,4.74,0,0,1,126,17.89a2.3,2.3,0,0,1,.76-.2,1.07,1.07,0,0,1,.64.21.75.75,0,0,1,.28.63,2.06,2.06,0,0,1-1,1.86,4.07,4.07,0,0,1-2,.57.7.7,0,0,1,0,.16,1.1,1.1,0,0,0,.17.63.65.65,0,0,0,.53.18,2.32,2.32,0,0,0,1-.41,12.37,12.37,0,0,0,1.45-1.21l0,0h.09c.09,0,.25,0,.25.37a.73.73,0,0,1-.19.48c-.33.31-.62.56-.89.78a4.78,4.78,0,0,1-1,.58A2.89,2.89,0,0,1,124.88,22.73ZM126.74,18a1.72,1.72,0,0,0-.61.17,4.32,4.32,0,0,0-1.37,1.15,2.32,2.32,0,0,0-.6,1.45,3.13,3.13,0,0,0,.18,1.19.62.62,0,0,0,.56.39,2.69,2.69,0,0,0,1.07-.24,4.29,4.29,0,0,0,.9-.54c.26-.2.55-.46.86-.74a.47.47,0,0,0,.06-.09,12.61,12.61,0,0,1-1.26,1,2.81,2.81,0,0,1-1.19.47h0a1,1,0,0,1-.81-.31,1.53,1.53,0,0,1-.25-.85v0a2.07,2.07,0,0,0,0-.29v-.18h.17a3.8,3.8,0,0,0,2-.52,1.7,1.7,0,0,0,.8-1.56.41.41,0,0,0-.15-.35A.64.64,0,0,0,126.74,18Zm-1.83,2.52h0l-.15,0-.2,0-.17,0,0-.17a3.34,3.34,0,0,1,1.09-1.59,1.88,1.88,0,0,1,1.16-.58.51.51,0,0,1,.54.56,1.49,1.49,0,0,1-.38,1,2.39,2.39,0,0,1-.88.62,3.15,3.15,0,0,1-1,.25Zm-.12-.37.15,0a2.75,2.75,0,0,0,.84-.22,2,2,0,0,0,.76-.54,1.13,1.13,0,0,0,.29-.76c0-.18-.06-.21-.19-.21a1.62,1.62,0,0,0-.92.49A3.41,3.41,0,0,0,124.79,20.19Z"/><path class="cls-1" d="M128.84,19.32a2.41,2.41,0,0,0,.21-.51,2.54,2.54,0,0,1,.31-.64.47.47,0,0,1,.42-.22.17.17,0,0,1,.13.18.84.84,0,0,1-.09.28l-.11.23-.36.85c-.14.33-.26.64-.38.91s-.23.55-.34.81h.05l.81-.89c.37-.4.79-.83,1.24-1.29a7.4,7.4,0,0,1,1-.9l.15-.1a.93.93,0,0,1,.19-.12.33.33,0,0,1,.17,0,.32.32,0,0,1,.2.08.25.25,0,0,1,.09.2,1.35,1.35,0,0,1-.17.52,4.89,4.89,0,0,0-.19.47l-1.06,2.6a.87.87,0,0,1,0,.13s0,0,.09.08l.12-.05a4.31,4.31,0,0,0,.84-.63l1-.86h0c.05,0,.07,0,.07.13a.68.68,0,0,1-.06.31,1.17,1.17,0,0,1-.22.26,9,9,0,0,1-1,.81,4,4,0,0,1-.92.54l-.24,0c-.2,0-.31-.09-.33-.26a7.93,7.93,0,0,1,.31-1c.14-.34.28-.68.44-1l.56-1.21a.41.41,0,0,0,0-.17s0-.05,0-.05a.29.29,0,0,0-.16.08,6.61,6.61,0,0,0-.86.74c-.27.27-.55.58-.84.92l-.9,1c-.31.36-.59.66-.85.91a.27.27,0,0,1-.19.05c-.13,0-.2-.06-.2-.18v-.1c.13-.36.34-1,.64-1.84l-.33.38a1.66,1.66,0,0,1-.29.3l0,0c-.08,0-.12-.12-.12-.26a.62.62,0,0,1,.22-.4,4.94,4.94,0,0,1,.45-.49A5.87,5.87,0,0,0,128.84,19.32Z"/><path class="cls-1" d="M130.8,22.66a.47.47,0,0,1-.51-.42v-.06a8.41,8.41,0,0,1,.32-1.05c.13-.34.28-.69.44-1s.29-.62.46-1q-.33.27-.63.57c-.27.27-.55.58-.84.91l-.9,1.05c-.31.35-.6.66-.86.92a.42.42,0,0,1-.31.1.34.34,0,0,1-.37-.36v-.16l.35-1,0,.05-.08.09-.12,0c-.1,0-.23-.14-.23-.42a.78.78,0,0,1,.26-.52,6.44,6.44,0,0,1,.45-.49c.2-.22.37-.41.5-.58a2.81,2.81,0,0,0,.19-.47,3.11,3.11,0,0,1,.32-.68.7.7,0,0,1,.57-.3h.06a.35.35,0,0,1,.25.35.79.79,0,0,1-.11.35l-.11.23-.36.84-.36.88.21-.23c.37-.39.79-.83,1.25-1.29a7.26,7.26,0,0,1,1.06-.93l.13-.09a1.8,1.8,0,0,1,.22-.14.52.52,0,0,1,.56.06.46.46,0,0,1,.16.34,1.53,1.53,0,0,1-.19.59c-.13.3-.18.41-.19.45l-1,2.48a6.6,6.6,0,0,0,.67-.53l1-.86.05-.05h.11s.25,0,.25.31a.75.75,0,0,1-.09.39,1.1,1.1,0,0,1-.25.31,10.46,10.46,0,0,1-1,.82,4,4,0,0,1-1,.56A1,1,0,0,1,130.8,22.66Zm-.16-.43s0,.08.16.08a.48.48,0,0,0,.18,0,3.62,3.62,0,0,0,.88-.51,9.64,9.64,0,0,0,1-.8,1.31,1.31,0,0,0,.19-.21s0,0,0-.05l-.78.68a4.29,4.29,0,0,1-.89.66h-.07s0,0,0,0l-.09,0-.08,0c-.07,0-.19-.1-.19-.23l0-.07s0-.08,0-.09L132,19.07s.05-.13.2-.47a1.35,1.35,0,0,0,.16-.45s0,0,0-.07-.14,0-.18,0l-.17.11-.16.11a7.62,7.62,0,0,0-1,.88c-.45.45-.87.89-1.23,1.28l-.81.89-.05.06h-.4l.11-.25c.11-.26.23-.53.34-.8l.38-.92.36-.85.11-.24a1.12,1.12,0,0,0,.08-.2h0a.3.3,0,0,0-.24.14,2.42,2.42,0,0,0-.28.6,3.72,3.72,0,0,1-.23.55h0a5.19,5.19,0,0,1-.53.61c-.21.21-.35.37-.44.48a.8.8,0,0,0-.16.23.81.81,0,0,0,.11-.13l.32-.38.3.17c-.28.85-.49,1.45-.62,1.82v.07s0,0,0,0h.08c.24-.24.52-.54.83-.89l.89-1.05c.3-.34.58-.65.86-.92a7.14,7.14,0,0,1,.88-.77.54.54,0,0,1,.26-.11.21.21,0,0,1,.21.23.7.7,0,0,1,0,.23l-.57,1.23c-.16.34-.3.68-.43,1A7.27,7.27,0,0,0,130.64,22.23Z"/><path class="cls-1" d="M90,.23l-1.67,0c-1.29,0-4.41,0-5.58,0-1.49,0-2.86.18-3.88,2.67-.06.14-.12.27-.17.41a39.9,39.9,0,0,0-2.35,5.86c-.09,2.69,2.44,2.61,3.93,2.58s3.84,0,3.84,0l0,0c2,0,3-.12,3.74-1a17.72,17.72,0,0,0,1.74-3.51l-3.19,0s-.35.82-.56,1.24-.9.59-1.75.66H81.34c-.8,0-1.61,0-1.45-.81.11-.29.25-.63.39-1a1.8,1.8,0,0,0,.08-.21c.31-.77.63-1.56.81-2,1-2.21,1.61-2.44,2.61-2.44h3.54c.65,0,.56.61.39,1.09a6.06,6.06,0,0,1-.31.71h3.38S93.07.28,90,.23Z"/><polygon class="cls-1" points="106.77 0.09 94.74 0.09 93.67 2.75 97.99 2.75 94.58 11.76 98.01 11.76 101.42 2.75 105.7 2.75 106.77 0.09"/><polygon class="cls-1" points="108.95 0 104.48 11.67 107.92 11.67 112.38 0 108.95 0"/><path class="cls-1" d="M13.81.22H6.68L2,11.76H5.09L6.74,7.64h5.78c4.13.13,5.53-2.43,5.59-4.91S17.05.35,13.81.22Zm.88,3.51c-.12.61-.43,1.55-2.27,1.55H7.86l1-2.52,4.63,0C14.69,2.76,14.82,3.11,14.69,3.73Z"/><path class="cls-1" d="M47.21,2.73C47.28.34,46.15.35,42.91.22H35.78L31.14,11.76H34.2l1.65-4.11h2.57l-.28,0,2.49,4h3.6L41.68,7.64C45.77,7.74,47.15,5.2,47.21,2.73ZM37,5.28l1-2.52,4.63,0c1.24,0,1.36.31,1.24.93s-.44,1.55-2.27,1.55Z"/><path class="cls-1" d="M51.9,4.66c.75-1.65,1.51-1.93,2.4-1.93l7.82,0L63.34.25s-8.58,0-10.07,0S50.41.4,49.39,2.89s-3.73,8.94-3.73,8.94l3.39-.09s1-2.45,1.87-4.57l9.47,0L61.6,4.69S54.08,4.69,51.9,4.66Z"/><path class="cls-1" d="M68.93,2.73l7.83,0L78,.25s-8.58,0-10.07,0S65,.4,64,2.89c-.18.42-.34.83-.49,1.2a30.87,30.87,0,0,0-2,5.07c-.09,2.69,2.4,2.7,3.89,2.67s8.1,0,8.1,0l.75-2.45-7.83,0c-.78,0-1.56,0-1.46-.75l.59-1.4,9.48,0,1.21-2.45s-7.52,0-9.7,0C67.28,3,68,2.73,68.93,2.73Z"/><path class="cls-1" d="M123,.25h0c-.43,0-.85,0-1.21,0h-2.21l-1.63,0v0h-1C115.37.19,114,.4,113,2.89c0,.14-.11.27-.16.41-.67,1.45-2.33,5.12-2.35,5.86-.07,2,1.34,2.48,2.68,2.57h0c.43,0,.85,0,1.21,0h2.21l1.63,0h1.06c1.49,0,2.86-.18,3.89-2.67,0-.14.11-.27.16-.41.67-1.45,2.33-5.12,2.35-5.86C125.76.8,124.35.34,123,.25Zm-.85,3.4c-.12.29-.25.63-.4,1a1.8,1.8,0,0,0-.08.21c-.31.77-.63,1.56-.8,2-.68,1.54-1.2,2.12-1.79,2.32h-3.64c-.8,0-1.61,0-1.46-.81.12-.29.25-.63.4-1a1.8,1.8,0,0,0,.08-.21c.31-.77.63-1.56.8-2,.68-1.55,1.2-2.12,1.79-2.33h3.64C121.5,2.83,122.31,2.81,122.16,3.65Z"/><path class="cls-1" d="M30.94,7.14l1.21-2.45s-7.51,0-9.69,0C23.2,3,24,2.73,24.85,2.73l7.83,0L33.89.25s-8.57,0-10.06,0S21,.4,19.94,2.89l-.48,1.2a30,30,0,0,0-2,5.07c-.09,2.69,2.39,2.7,3.88,2.67s8.11,0,8.11,0l.74-2.45-7.83,0c-.78,0-1.56,0-1.46-.75.18-.43.39-.9.59-1.4Z"/><polygon class="cls-1" points="138 0.34 135.56 6.83 132.05 0.34 128.72 0.34 123.95 11.77 127.27 11.77 130 4.81 133.44 11.77 137.11 11.77 141.3 0.34 138 0.34"/><path class="cls-1" d="M143,.21a1.18,1.18,0,0,1,1,.66,1.45,1.45,0,0,1,.17.67,1.53,1.53,0,0,1-.16.66,1.28,1.28,0,0,1-.45.5,1.19,1.19,0,0,1-.6.17,1.22,1.22,0,0,1-.61-.17,1.19,1.19,0,0,1-.44-.5,1.4,1.4,0,0,1-.16-.66A1.44,1.44,0,0,1,142,.87,1.18,1.18,0,0,1,143,.21Zm0,.26a.92.92,0,0,0-.48.14,1,1,0,0,0-.36.39,1.13,1.13,0,0,0-.13.54,1.18,1.18,0,0,0,.12.53,1,1,0,0,0,.36.4.89.89,0,0,0,.49.14.84.84,0,0,0,.48-.14.88.88,0,0,0,.36-.4,1.07,1.07,0,0,0,.13-.53,1.13,1.13,0,0,0-.13-.54A1,1,0,0,0,143,.47Zm-.55,1.78V.84h.67a.47.47,0,0,1,.2.06.28.28,0,0,1,.12.14.42.42,0,0,1,.05.2.39.39,0,0,1-.09.26.38.38,0,0,1-.26.13l.09.06a.37.37,0,0,1,.09.11l.1.17.15.28h-.32L143.14,2a.91.91,0,0,0-.18-.29.28.28,0,0,0-.18-.06h-.07v.58Zm.26-.8h.11a1.35,1.35,0,0,0,.28,0,.13.13,0,0,0,.08-.07.17.17,0,0,0,0-.1.2.2,0,0,0,0-.11.27.27,0,0,0-.08-.07,1.43,1.43,0,0,0-.28,0h-.11Z"/><path class="cls-1" d="M134.76,19.29h-.32l.27-1.4h-.45l.05-.28h1.21l-.05.28H135Z"/><path class="cls-1" d="M136.28,19.29H136l-.06-1.4-.24,1.4h-.28l.32-1.68h.45l0,1.18.52-1.18h.46l-.32,1.68h-.29l.3-1.39Z"/><path class="cls-2" d="M72.59,13.45a1.45,1.45,0,0,1,0,.32s0,.07,0,.1V14A16.56,16.56,0,0,1,72,15.93h35.58c0-.09.09-.2.14-.29a16.74,16.74,0,0,1,1-1.8,2.87,2.87,0,0,1,.69-.7H72.54A1,1,0,0,1,72.59,13.45Z"/><path class="cls-2" d="M61.38,13.84a5,5,0,0,1,.31,1.84,2,2,0,0,1,0,.25h8.08c.13-.42.26-.85.41-1.3a10.45,10.45,0,0,1,.47-1.3l0-.05.08-.14H60.9A1.75,1.75,0,0,1,61.38,13.84Z"/><path class="cls-2" d="M111.83,13.14a1.84,1.84,0,0,1,.47.7,5,5,0,0,1,.31,1.84,2,2,0,0,1,0,.25h22.89l1-2.79Z"/><path class="cls-2" d="M0,15.93H56.61c0-.09.09-.2.14-.29a16.74,16.74,0,0,1,1-1.8,2.56,2.56,0,0,1,.69-.7H1.3Z"/></g></g></svg>