<svg xmlns="http://www.w3.org/2000/svg" viewBox="0 0 144.21 70.68"><defs><style>.cls-1,.cls-3{fill:#264792;}.cls-2{fill:#ee7d0e;}.cls-3{fill-rule:evenodd;}</style></defs><title>permatex</title><g id="Capa_2" data-name="Capa 2"><g id="MARCAS"><path class="cls-1" d="M5.57,70.09l-.18.19-5.24.09L0,70.18l1.45-5.91.9-3.65q.59-2.44.93-3.93c.23-1,.41-1.83.56-2.51s.31-1.47.49-2.37.41-2,.65-3.17l.22-.19,2.72,0,2.88,0a38,38,0,0,1,4.18.16,6.27,6.27,0,0,1,2.26.65,4.83,4.83,0,0,1,2.1,2.12,6.59,6.59,0,0,1,.69,3A8.57,8.57,0,0,1,19.59,57a9,9,0,0,1-1.14,2.35,6.94,6.94,0,0,1-1.92,1.87,7.7,7.7,0,0,1-2.35,1,14.17,14.17,0,0,1-2.54.42c-.85.06-1.88.12-3.1.16H7.15L6.5,65.69ZM8.05,59H8.7a17.68,17.68,0,0,0,2-.11,4.81,4.81,0,0,0,1.64-.48A3.6,3.6,0,0,0,14,56.9a4.39,4.39,0,0,0,.59-2.22,2.28,2.28,0,0,0-.37-1.38,3.51,3.51,0,0,0-.81-.82l-.06,0a3,3,0,0,0-1-.3,18,18,0,0,0-1.94-.07h-.8l-.5,2.16Z"/><path class="cls-1" d="M34.45,65.51c-.15.45-.34,1.13-.59,2-.06.25-.15.63-.28,1.15-.08.27-.14.49-.18.68l-.16.18a10.14,10.14,0,0,1-2.09.79,12.4,12.4,0,0,1-3.2.33,12.9,12.9,0,0,1-2.65-.25,7.3,7.3,0,0,1-1.84-.62,5.46,5.46,0,0,1-1.11-.73,6,6,0,0,1-.71-.72,5.84,5.84,0,0,1-1.12-2.11,9.08,9.08,0,0,1-.31-2.47,12.05,12.05,0,0,1,.56-3.59,10.21,10.21,0,0,1,1.72-3.3,8.64,8.64,0,0,1,2.92-2.42,8.9,8.9,0,0,1,4.09-.91,9.86,9.86,0,0,1,2.13.23,6.46,6.46,0,0,1,1.77.67,4.68,4.68,0,0,1,1.3,1.08,4.26,4.26,0,0,1,.72,1.29,5.72,5.72,0,0,1,.31,1.27,9.87,9.87,0,0,1,.08,1.22,11.18,11.18,0,0,1-.14,1.81c-.09.55-.22,1.16-.39,1.84l-.24.16q-3.81,0-5.79,0-1.68,0-4,.06v.06a8.1,8.1,0,0,0-.07.93q0,2.88,3.75,2.88a8.15,8.15,0,0,0,2.72-.47,9.82,9.82,0,0,0,2.51-1.3Zm-3.16-5.45a7.35,7.35,0,0,0,.19-1.39A2.12,2.12,0,0,0,31,57.23a2,2,0,0,0-1.58-.6,3,3,0,0,0-1.07.2,3.22,3.22,0,0,0-1.12.76,3.81,3.81,0,0,0-.87,1.13,8.86,8.86,0,0,0-.56,1.4Z"/><path class="cls-1" d="M42.16,70.09l-.22.19-5.17.12-.15-.22,1.14-4.52L38.41,63q.35-1.48.57-2.49c.16-.67.28-1.26.37-1.78s.2-1.12.31-1.83.24-1.47.36-2.32l.22-.18.62-.1,1.42-.2.9-.14,1.11-.18c.39-.06.85-.15,1.36-.25l.16.22-.93,3.46A12.27,12.27,0,0,1,46,55.45a7,7,0,0,1,1.47-1.35,3.35,3.35,0,0,1,1.91-.57,2.83,2.83,0,0,1,.85.11,5.41,5.41,0,0,1,.69.29l.13.31c-.52,1.14-.88,2-1.1,2.48l-.67,1.58-.37.9-.31.06-.06,0a5.34,5.34,0,0,0-.88-.51,1.73,1.73,0,0,0-.73-.14,2.34,2.34,0,0,0-1.58.65,3.45,3.45,0,0,0-.57.65,4.19,4.19,0,0,0-.43.85A11.28,11.28,0,0,0,43.9,62c-.13.5-.3,1.23-.51,2.18l-.68,3.19Z"/><path class="cls-1" d="M73.08,70.12l-.22.16-5,.12-.18-.22,1.3-5.41.52-2.23c0-.11.08-.36.18-.78s.16-.77.21-1.08.1-.61.16-.9a3.94,3.94,0,0,0,.07-.62A1.88,1.88,0,0,0,69.69,58a1.45,1.45,0,0,0-1.19-.48,2.86,2.86,0,0,0-1.27.27,6.14,6.14,0,0,0-1.15.69l-.09.06c-.08.77-.16,1.33-.22,1.71s-.18,1-.37,1.79l-.68,3-1,5.11-.22.16-5,.12-.16-.22L59.55,65l.46-2.1c.27-1.26.45-2.14.53-2.63a7.77,7.77,0,0,0,.12-1.12,2,2,0,0,0-.17-.91,1.14,1.14,0,0,0-.41-.51,1.59,1.59,0,0,0-.48-.2,2.61,2.61,0,0,0-.48,0,2.66,2.66,0,0,0-1.16.27,4.66,4.66,0,0,0-1.13.72l-1.06,4.68-1.42,7-.22.16-5.07.12-.16-.22,1.3-5.29L51,61.58c.14-.64.28-1.28.41-1.92s.24-1.19.31-1.66.17-1,.28-1.78.2-1.28.27-1.67l.21-.18c.39-.07.82-.13,1.27-.19s.86-.12,1.22-.19.7-.11,1-.17.88-.15,1.72-.32l.19.22-.4,1.85c.49-.39,1-.73,1.42-1a8.2,8.2,0,0,1,1.75-.71,6.44,6.44,0,0,1,1.81-.28,3.24,3.24,0,0,1,3.34,2.2,12.44,12.44,0,0,1,2.73-1.61,7.16,7.16,0,0,1,2.81-.59,5.92,5.92,0,0,1,1.38.17,4.56,4.56,0,0,1,1.36.61,3.1,3.1,0,0,1,1.08,1.23,4.35,4.35,0,0,1,.42,2,13.49,13.49,0,0,1-.49,3l-.65,2.94Z"/><path class="cls-1" d="M93.84,60c-.33,1.42-.57,2.51-.74,3.25s-.31,1.45-.45,2.12-.26,1.36-.38,2.06-.27,1.59-.44,2.66l-.21.16-4.68.12-.15-.19L87,68.85l0,0c-.31.27-.56.48-.76.62a3.86,3.86,0,0,1-.78.44,6.93,6.93,0,0,1-2.94.68A5,5,0,0,1,80,70a4.63,4.63,0,0,1-1.77-1.77,7.23,7.23,0,0,1-.6-1.62,8.63,8.63,0,0,1-.23-2,11.68,11.68,0,0,1,.88-4.41,9.45,9.45,0,0,1,2.49-3.6,9.64,9.64,0,0,1,4.46-2.33A16.51,16.51,0,0,1,87.41,54c.68-.05,1.47-.08,2.38-.08h5.29l.19.25Zm-4.36-2.72h-.43l-.47,0a6.21,6.21,0,0,0-1.45.15,4.85,4.85,0,0,0-2,1.08,6,6,0,0,0-1.35,1.77,8.68,8.68,0,0,0-.72,2,7.89,7.89,0,0,0-.24,1.78A4.39,4.39,0,0,0,83,65.63a2.56,2.56,0,0,0,.61,1,1.82,1.82,0,0,0,.74.43,2.81,2.81,0,0,0,.73.11,2.86,2.86,0,0,0,1.28-.26,6.18,6.18,0,0,0,1.07-.73Z"/><path class="cls-1" d="M104.24,70l-.24.25-.19,0-1.41.23a8.68,8.68,0,0,1-1.19.08,6,6,0,0,1-3.43-.84A3.11,3.11,0,0,1,96.54,67a10.42,10.42,0,0,1,.26-2.1c.18-.85,3.48-15,3.48-15l.22-.22,1.65-.38.93-.24,1.09-.27c.32-.09.79-.22,1.4-.41l.19.19-.68,2.57L104.4,54l3.16-.06.12.22-.12.37c-.21.6-.36,1-.45,1.36s-.23.77-.39,1.37l-.25.21-2.85-.06-1.3,5.42c-.12.45-.25,1-.38,1.62a7,7,0,0,0-.2,1.32,1.08,1.08,0,0,0,.43,1,1.75,1.75,0,0,0,1,.3A3.83,3.83,0,0,0,104,67c.22,0,.49-.13.8-.23l.19-.07.18.16Z"/><path class="cls-1" d="M121.48,65.51c-.14.45-.34,1.13-.58,2-.07.25-.16.63-.28,1.15a6.19,6.19,0,0,0-.19.68l-.15.18a10.36,10.36,0,0,1-2.09.79,12.54,12.54,0,0,1-3.21.33,12.73,12.73,0,0,1-2.64-.25,7,7,0,0,1-1.84-.62,5.57,5.57,0,0,1-1.12-.73,6.86,6.86,0,0,1-.71-.72,5.66,5.66,0,0,1-1.11-2.11,9.08,9.08,0,0,1-.31-2.47,12,12,0,0,1,.55-3.59,10.41,10.41,0,0,1,1.72-3.3,8.67,8.67,0,0,1,2.93-2.42,8.83,8.83,0,0,1,4.08-.91,10,10,0,0,1,2.14.23,6.27,6.27,0,0,1,1.76.67,4.4,4.4,0,0,1,2,2.37,6.34,6.34,0,0,1,.31,1.27,9.87,9.87,0,0,1,.08,1.22,11.18,11.18,0,0,1-.14,1.81c-.1.55-.23,1.16-.39,1.84l-.25.16q-3.81,0-5.79,0-1.66,0-4,.06v.06q-.06.61-.06.93,0,2.88,3.74,2.88a8.25,8.25,0,0,0,2.73-.47,10.16,10.16,0,0,0,2.51-1.3Zm-3.15-5.45a8,8,0,0,0,.18-1.39,2.11,2.11,0,0,0-.52-1.44,2,2,0,0,0-1.58-.6,2.93,2.93,0,0,0-1.07.2,3.25,3.25,0,0,0-1.13.76,4.18,4.18,0,0,0-.87,1.13,8.89,8.89,0,0,0-.55,1.4Z"/><path class="cls-2" d="M133.66,57.45l.88-1.23,1.09-1.61c.16-.24.29-.42.37-.52l.25-.19h1.05l.68,0h1.1l1.66-.08.12.31-1.64,2c-.91,1-3.92,5.38-4,5.42Z"/><path class="cls-1" d="M134.33,61.89c.51,1.17.86,2,1,2.33l.65,1.41.93,2c.36.77.76,1.59,1.2,2.48l-.16.22c-1.34,0-2.26,0-2.75,0l-1,0-1.69.09-.27-.18-.84-2.51-.8-2.2-1.55,2-1.86,2.63-.28.16h-1.21l-.74,0h-1.14l-1.61.08-.16-.25L125,66.78l4.12-4.71c-.79-1.77-1.26-2.85-1.44-3.25s-.57-1.3-1.19-2.72l-.84-1.86.19-.25,1.58,0,1,0c.49,0,.91,0,1.24-.07s.77-.07,1.33-.11l.25.21c.14.46.29.91.44,1.35s.29.82.41,1.11.37,1,.79,2"/><path class="cls-3" d="M75.29,0c4.24.85,7.62,3.39,11,5.93-9.31-1.7-17.78,0-24.55,6.77A39.29,39.29,0,0,1,75.29,0Z"/><path class="cls-3" d="M89.68,10.16a18.59,18.59,0,0,1,3.39,11C88,14.39,81.22,9.31,71.06,9.31c5.93-1.69,12.7-.85,18.62.85Z"/><path class="cls-3" d="M93.07,26.24a19.7,19.7,0,0,1-5.93,11c1.7-8.46,0-16.93-6.77-23.7,5.08,2.54,9.31,7.62,12.7,12.7Z"/><path class="cls-3" d="M82.91,40.62C79.53,43.16,75.29,44,71.06,44c7.62-5.08,12.7-11.85,12.7-21.16,1.69,5.93.84,11.85-.85,17.77Z"/><path class="cls-3" d="M66,44a20.29,20.29,0,0,1-11-5.92c9.31,1.69,17.77.84,24.55-6.77C76.14,37.24,71.91,40.62,66,44Z"/><path class="cls-3" d="M51.6,34.7a21.16,21.16,0,0,1-3.39-11.85c5.08,7.62,11.85,12.7,22,12.7A46.93,46.93,0,0,1,51.6,34.7Z"/><path class="cls-3" d="M48.21,17.77c.85-4.23,3.39-7.61,5.93-11-1.7,9.31,0,16.93,6.77,24.55-5.08-3.39-9.31-8.47-12.7-13.55Z"/><path class="cls-3" d="M58.37,3.39C61.75.85,66,0,70.22,0c-7.62,5.08-12.7,11.85-12.7,22-1.69-5.93-.85-12.7.85-18.62Z"/><path class="cls-1" d="M144,68.53a2.53,2.53,0,0,1-1.34,1.34,2.64,2.64,0,0,1-1.94,0,2.48,2.48,0,0,1-1.37-1.33,2.6,2.6,0,0,1-.2-1,2.55,2.55,0,0,1,.2-1,2.24,2.24,0,0,1,.55-.8,2.5,2.5,0,0,1,.81-.54,2.69,2.69,0,0,1,2,0,2.7,2.7,0,0,1,.81.55,2.6,2.6,0,0,1,.72,1.79A2.49,2.49,0,0,1,144,68.53Zm-.2-1.87a2.33,2.33,0,0,0-.49-.74,2.16,2.16,0,0,0-.73-.5,2.34,2.34,0,0,0-1.8,0,2.31,2.31,0,0,0-1.23,1.23,2.24,2.24,0,0,0-.17.89,2.44,2.44,0,0,0,.17.9,2.31,2.31,0,0,0,1.24,1.22,2.2,2.2,0,0,0,.88.18,2.26,2.26,0,0,0,.9-.18,2.23,2.23,0,0,0,1.23-1.23,2.39,2.39,0,0,0,0-1.77Zm-2.15-.75h.06l.42,0a1.31,1.31,0,0,1,.27.06.68.68,0,0,1,.4.3.8.8,0,0,1,.14.46.7.7,0,0,1-.07.33.73.73,0,0,1-.16.22.92.92,0,0,1-.19.13.77.77,0,0,1-.17.07h0a.75.75,0,0,1,.27.21,1.12,1.12,0,0,1,.14.42v0c0,.24.08.42.11.55a1.37,1.37,0,0,0,.15.38h-.77a1,1,0,0,1-.1-.29,2.7,2.7,0,0,1-.07-.4c0-.17,0-.29-.07-.38a.39.39,0,0,0-.1-.19.39.39,0,0,0-.17-.09,2.11,2.11,0,0,0-.34,0h-.16v1.39h-.67V65.91Zm-.43,1.28h.64l.2,0a.37.37,0,0,0,.15-.13.33.33,0,0,0,.06-.21.41.41,0,0,0-.05-.19.29.29,0,0,0-.15-.14l-.16,0h-.69Z"/><path class="cls-2" d="M80.86,22A10.16,10.16,0,1,1,70.71,11.85,10.15,10.15,0,0,1,80.86,22Z"/></g></g></svg>