<svg xmlns="http://www.w3.org/2000/svg" xmlns:xlink="http://www.w3.org/1999/xlink" viewBox="0 0 155.16 29.46"><defs><style>.cls-1{fill:#0096dc;fill-rule:evenodd;}</style><symbol id="Philips" data-name="Philips" viewBox="0 0 150.31 29.86"><path class="cls-1" d="M0,.46H13.15s10,.16,10,11.32c0,10.63-10.16,11.32-10.16,11.32H7.7v6.47H0V.46Zm7.7,16h3.08a4.62,4.62,0,0,0,4.08-4.85c0-4.47-4.39-4.78-4.39-4.78H7.7v9.63Z"/><path class="cls-1" d="M104.59.46H118s9.7.62,9.7,11.32c0,9.7-9.78,11.32-9.78,11.32h-5.62v6.47h-7.7V.46Zm7.7,16h3.08a4.62,4.62,0,0,0,4.08-4.85c0-4.47-4.39-4.78-4.39-4.78h-2.77v9.63Z"/><polygon class="cls-1" points="26.49 0.69 34.11 0.69 34.11 11.32 42.2 11.32 42.2 0.69 49.51 0.69 49.51 29.57 42.27 29.57 42.27 17.86 34.19 17.86 34.19 29.57 26.49 29.57 26.49 0.69 26.49 0.69 26.49 0.69"/><polygon class="cls-1" points="56.71 0.62 63.99 0.62 63.99 29.57 56.71 29.57 56.71 0.62 56.71 0.62 56.71 0.62"/><polygon class="cls-1" points="90.29 0.62 97.56 0.62 97.56 29.57 90.29 29.57 90.29 0.62 90.29 0.62 90.29 0.62"/><polygon class="cls-1" points="71.15 0.69 78.47 0.69 78.47 22.72 86.4 22.72 86.4 29.57 71.15 29.57 71.15 0.69 71.15 0.69 71.15 0.69"/><path class="cls-1" d="M147.08.38A48.18,48.18,0,0,0,141.61,0c-4,0-11,1.08-11.09,9.39a8.15,8.15,0,0,0,6.62,8.32c6.7,1.69,5.2,3,5.39,3.23,0,0,.16,2.08-4.93,2.08s-6.23-.92-6.23-.92h0v6.78h0s1.17.51,6.16.92c6.54.54,12.78-2.3,12.78-9.32,0-2.77-1.39-7.24-7.78-8.78-4.08-1-4.65-2.15-4.62-2.69,0,0-.18-2.34,4.47-2.23,4.31.09,4.77.69,4.77.69h0L147.08.38Z"/></symbol></defs><title>philips</title><g id="Capa_2" data-name="Capa 2"><g id="MARCAS"><use width="150.31" height="29.86" transform="translate(28.75 2.17) scale(0.84)" xlink:href="#Philips"/><path class="cls-1" d="M10.76,29.46C3.36,29.46,0,23.23,0,18.36V0H22V18.36a11,11,0,0,1-11,11.1Zm.13-.63A10.45,10.45,0,0,0,21.36,18.35V.63H.65V18.35c0,4.58,3.26,10.48,10.22,10.48h0Z"/><path class="cls-1" d="M1.18,18.45A9.82,9.82,0,1,1,11,28.27a9.82,9.82,0,0,1-9.82-9.82ZM11,27.69a9.24,9.24,0,1,0-9.24-9.24A9.24,9.24,0,0,0,11,27.69Z"/><polygon class="cls-1" points="6.45 10.25 7 13.32 10.07 13.87 7 14.42 6.45 17.49 5.9 14.42 2.83 13.87 5.9 13.32 6.45 10.25 6.45 10.25 6.45 10.25"/><polygon class="cls-1" points="8.75 9.26 9.1 11.21 11.04 11.56 9.1 11.91 8.75 13.86 8.4 11.91 6.45 11.56 8.4 11.21 8.75 9.26 8.75 9.26 8.75 9.26"/><polygon class="cls-1" points="15.63 26.72 15.07 23.65 12.01 23.1 15.07 22.55 15.63 19.48 16.18 22.55 19.24 23.1 16.18 23.65 15.63 26.72 15.63 26.72 15.63 26.72"/><polygon class="cls-1" points="13.33 27.71 12.98 25.76 11.03 25.41 12.98 25.06 13.33 23.11 13.68 25.06 15.63 25.41 13.68 25.76 13.33 27.71 13.33 27.71 13.33 27.71"/><path class="cls-1" d="M20.16,17.12a6.71,6.71,0,0,1-2.25.59,5.39,5.39,0,0,1-2.07-.57,5.76,5.76,0,0,0-2.62-.71,4.75,4.75,0,0,0-2.33.74,6.72,6.72,0,0,1-2.35.59,4.27,4.27,0,0,1-2-.59,4.7,4.7,0,0,0-2.48-.74,3.93,3.93,0,0,0-2.27.65h0l-.05.73h0a4.11,4.11,0,0,1,2.32-.67,4.7,4.7,0,0,1,2.48.74,4.27,4.27,0,0,0,2,.59,6.72,6.72,0,0,0,2.35-.59,4.75,4.75,0,0,1,2.33-.74,5.76,5.76,0,0,1,2.62.71,5.46,5.46,0,0,0,2.07.56,7.08,7.08,0,0,0,2.33-.63h0l-.08-.66Z"/><path class="cls-1" d="M20.25,19.29a7.08,7.08,0,0,1-2.34.64,5.46,5.46,0,0,1-2.07-.56,5.76,5.76,0,0,0-2.62-.71,4.75,4.75,0,0,0-2.33.74A6.81,6.81,0,0,1,8.54,20a4.32,4.32,0,0,1-2-.58,4.7,4.7,0,0,0-2.48-.74,4.42,4.42,0,0,0-2.36.65h0l0,.73h0a4.11,4.11,0,0,1,2.32-.67,4.7,4.7,0,0,1,2.48.74,4.32,4.32,0,0,0,2,.58,6.81,6.81,0,0,0,2.35-.58,4.75,4.75,0,0,1,2.33-.74,5.76,5.76,0,0,1,2.62.71,5.46,5.46,0,0,0,2.07.56A7.08,7.08,0,0,0,20.24,20h0v-.72Z"/><path class="cls-1" d="M20.28,18.17a7.26,7.26,0,0,1-2.37.65,5.46,5.46,0,0,1-2.07-.56,5.7,5.7,0,0,0-2.62-.72,4.75,4.75,0,0,0-2.33.74,6.72,6.72,0,0,1-2.35.59,4.27,4.27,0,0,1-2-.59,4.7,4.7,0,0,0-2.48-.74,4.29,4.29,0,0,0-2.36.68h0l0,.7h0a4.11,4.11,0,0,1,2.32-.67A4.7,4.7,0,0,1,6.53,19a4.27,4.27,0,0,0,2,.59A6.72,6.72,0,0,0,10.89,19a4.75,4.75,0,0,1,2.33-.74,5.7,5.7,0,0,1,2.62.72,5.46,5.46,0,0,0,2.07.56,7.28,7.28,0,0,0,2.39-.67h0l0-.69Z"/><path class="cls-1" d="M1.54,2.85H3.25A1.35,1.35,0,0,1,4.48,4.3,1.49,1.49,0,0,1,3.24,5.74H2.52v.82h-1V2.85Zm1,2h.39a.58.58,0,0,0,.52-.61.6.6,0,0,0-.56-.61H2.52V4.89Z"/><path class="cls-1" d="M14.86,2.85h1.7A1.36,1.36,0,0,1,17.8,4.3a1.49,1.49,0,0,1-1.25,1.44h-.71v.82h-1V2.85Zm1,2h.39a.58.58,0,0,0,.52-.61.6.6,0,0,0-.56-.61h-.35V4.89Z"/><polygon class="cls-1" points="4.91 2.88 5.88 2.88 5.88 4.24 6.91 4.24 6.91 2.88 7.84 2.88 7.84 6.56 6.92 6.56 6.92 5.07 5.89 5.07 5.89 6.56 4.91 6.56 4.91 2.88 4.91 2.88 4.91 2.88"/><polygon class="cls-1" points="8.76 2.87 9.69 2.87 9.69 6.56 8.77 6.56 8.76 2.87 8.76 2.87 8.76 2.87"/><polygon class="cls-1" points="13.03 2.87 13.96 2.87 13.96 6.56 13.04 6.56 13.03 2.87 13.03 2.87 13.03 2.87"/><polygon class="cls-1" points="10.6 2.88 11.53 2.88 11.53 5.69 12.54 5.69 12.54 6.56 10.6 6.56 10.6 2.88 10.6 2.88 10.6 2.88"/><path class="cls-1" d="M20.27,2.85a6.12,6.12,0,0,0-.7-.05c-.51,0-1.4.13-1.41,1.19A1,1,0,0,0,19,5.05c.86.22.66.39.69.41s0,.27-.63.27-.79-.12-.79-.12h0v.86h0a2.89,2.89,0,0,0,.78.12c.83.07,1.63-.29,1.63-1.19a1.13,1.13,0,0,0-1-1.11c-.52-.13-.62-.28-.59-.35s0-.28.57-.28.61.09.61.09h0v-.9Z"/></g></g></svg>