<svg xmlns="http://www.w3.org/2000/svg" viewBox="0 0 461.22 352.03"><defs><style>.cls-1,.cls-4{fill:#fff;}.cls-2{fill:#433f83;}.cls-2,.cls-3,.cls-4{stroke:#000;stroke-miterlimit:10;stroke-width:0.5px;}.cls-3{fill:#c9cadf;}.cls-5{fill:#d8292a;}</style></defs><g id="Capa_2" data-name="Capa 2"><g id="Capa_2-2" data-name="Capa 2"><path class="cls-1" d="M364.9,262l-2.25,2s-.44-.48-1.22-1.28c.63-.81,1.23-1.63,1.84-2.45C364.31,261.31,364.86,261.91,364.9,262Z"/><path class="cls-2" d="M394.58,164q0,6.83-.56,13.52-.11,1.51-.27,3a162.84,162.84,0,0,1-30.48,79.76c-.61.82-1.21,1.64-1.84,2.45a163.75,163.75,0,0,1-284.17-42c-.35-1-.69-1.91-1-2.87a164.81,164.81,0,0,1-6.95-80.27c.16-1,.33-2,.52-3A162.84,162.84,0,0,1,103.9,60.62c.65-.79,1.3-1.58,1.95-2.35A163.48,163.48,0,0,1,208.56,1.76c1.72-.24,3.44-.44,5.17-.62a165.69,165.69,0,0,1,36.89.29c1,.12,2,.25,3,.39a161.78,161.78,0,0,1,40.28,11q2.46,1,4.87,2.12a164.36,164.36,0,0,1,79.06,76.8c.45.91.88,1.82,1.31,2.73A163,163,0,0,1,394.58,164Z"/><path class="cls-1" d="M393.75,180.5q.17-1.51.27-3l-61.1-8.08a250.56,250.56,0,0,0-1.37-58.94,225.69,225.69,0,0,0,47.6-16c-.43-.91-.86-1.82-1.31-2.73A221.09,221.09,0,0,1,331.1,107.4c-1.41-9.17-3.2-17.68-5.17-25.37A266.34,266.34,0,0,0,298.78,15q-2.41-1.09-4.87-2.12C296,16,312.73,42.73,323,82.78c2,7.65,3.74,16.11,5.13,25.24-30.23,6.09-59.51,5.6-85.74,1.9L253.63,1.82c-1-.14-2-.27-3-.39L239.38,109.48a317.4,317.4,0,0,1-48.06-11.26,363.84,363.84,0,0,1-38.75-14.8q2.43-5.06,5-9.73c22.85-42.55,53-69.71,56.21-72.55-1.73.18-3.45.38-5.17.62a289.36,289.36,0,0,0-53.67,70.4q-2.67,5-5.1,10a335.77,335.77,0,0,1-43.94-23.9c-.65.77-1.3,1.56-1.95,2.35a339,339,0,0,0,44.61,24.29,219.35,219.35,0,0,0-18.12,57.66l-60.58-8c-.19,1-.36,2-.52,3l60.64,8c-.37,2.54-.71,5.08-1,7.62a189.63,189.63,0,0,0,.51,45,300.92,300.92,0,0,0-53.22,19.63c.33,1,.67,1.92,1,2.87a295.12,295.12,0,0,1,52.64-19.44A204.74,204.74,0,0,0,145.23,254l2.78-1.22a199.36,199.36,0,0,1-15.1-52.28c36.55-9.09,69.4-9,97.47-4.45l-4.87,46.84,3,.32,4.86-46.65a235.57,235.57,0,0,1,50.35,14.81A252.92,252.92,0,0,1,316.5,228c-2.31,6.32-4.93,12.7-7.92,19.13l2.76,1.27c2.93-6.3,5.51-12.57,7.8-18.77,23.4,14.51,38.12,28.79,42.29,33,.63-.81,1.23-1.63,1.84-2.45-4.75-4.81-19.71-19.1-43.09-33.52a240.18,240.18,0,0,0,12.44-54.34ZM151.27,86.17a369.32,369.32,0,0,0,39,14.91,322.07,322.07,0,0,0,48.75,11.48l-4.56,43.8L133.53,143A217.49,217.49,0,0,1,151.27,86.17ZM230.7,192.9a233.78,233.78,0,0,0-37.4-3.1h-.51a248.5,248.5,0,0,0-60.3,7.6,189.66,189.66,0,0,1,.58-51.41l101.12,13.38Zm86.84,32.23A254.16,254.16,0,0,0,285,208.6a240.79,240.79,0,0,0-51.33-15.2l3.5-33.63L329.61,172A237.18,237.18,0,0,1,317.54,225.13ZM329.91,169l-92.4-12.23L242.06,113a273,273,0,0,0,37.36,2.8h1.23a241.27,241.27,0,0,0,47.92-4.75A247.42,247.42,0,0,1,329.91,169Z"/><path class="cls-1" d="M305.33,185.8c4.22-41.33-13.34-70.89-13.34-70.89C276.22,80.91,259.4,64,259.4,64c-3.92-6.66,9.15-13.89,9.15-13.89C259,46,248.44,49,248.44,49,234.66,36.24,227,40.69,223,43.5s-9.85.6-14.15-2.66a31.49,31.49,0,0,0-9.26-4.67c-5.68,6,1.82,14.21,2.44,14.88-.43-.26-3.91-2.44-4.9-3.69,0,0-1.37,3.28,3.08,8.56a54.52,54.52,0,0,1,6.23,8.93c6.87,12.61,17.86,41.35,2,77.39,0,0-4.95,13.39-19.86,33.58a220.3,220.3,0,0,1-14.78,17.8c-8.89,9.67-31.58,34.62-28.28,53.63a659.59,659.59,0,0,1,85.36-5.45q16,0,31.69.74a73.65,73.65,0,0,1,1.09-11.8c1.52,3.61,5,10.08,6.13,12.17,17.92,1,35.39,2.76,52.3,5.13C315.92,241,301.58,222.48,305.33,185.8ZM224.07,51a2.74,2.74,0,0,1,2.85-2.67c3.15,0,3.15,2.67,3.15,2.67Z"/><path class="cls-3" d="M460.78,287.62l-59.73,57.52C351.39,330.44,293,322,230.61,322s-120.79,8.47-170.45,23.17L.43,287.62c39.71-19,89.35-33.13,144.82-40.37a659.59,659.59,0,0,1,85.36-5.45q16,0,31.69.74c2.42.11,4.82.23,7.22.37,17.92,1,35.39,2.76,52.3,5.13h0C374.93,255.5,422.48,269.29,460.78,287.62Z"/><path class="cls-4" d="M420.46,298.7l-57,53.05c-39.53-13.35-84.77-20.94-132.84-20.94s-93.32,7.59-132.85,20.94l-57-53.05c49.92-29,116.6-46.68,189.85-46.68S370.53,269.72,420.46,298.7Z"/><path class="cls-5" d="M125.57,285.59l19-3.61a17.92,17.92,0,0,1,6.93-.13,12.81,12.81,0,0,1,5.09,2.18,11.79,11.79,0,0,1,3.35,3.82,16.15,16.15,0,0,1,1.75,4.86,16.33,16.33,0,0,1,.15,5.13,11.87,11.87,0,0,1-1.71,4.82,12.8,12.8,0,0,1-3.93,3.89,17.79,17.79,0,0,1-6.5,2.43L140,310.82l2.87,15.09-9.26,1.76Zm13,18,7.19-1.36a19.94,19.94,0,0,0,3-.82,7.18,7.18,0,0,0,2.42-1.41,5.06,5.06,0,0,0,1.44-2.26,7,7,0,0,0,.06-3.37,6.82,6.82,0,0,0-1.29-3.11,5,5,0,0,0-2.17-1.57,7.21,7.21,0,0,0-2.76-.42,18.83,18.83,0,0,0-3.11.34L136.19,291Z"/><path class="cls-5" d="M168.24,299.61a26.92,26.92,0,0,1,.65-9,21.35,21.35,0,0,1,3.5-7.51,18.79,18.79,0,0,1,6.18-5.36,23.41,23.41,0,0,1,17.66-1.57,19.07,19.07,0,0,1,7,4.21,21.45,21.45,0,0,1,4.75,6.77,26.69,26.69,0,0,1,2.22,8.75,26,26,0,0,1-.67,8.83,20.81,20.81,0,0,1-3.5,7.38,19.15,19.15,0,0,1-6.16,5.28A23.9,23.9,0,0,1,182.21,319a19.1,19.1,0,0,1-7-4.11,21.08,21.08,0,0,1-4.75-6.66A26.12,26.12,0,0,1,168.24,299.61Zm9.39-.83a21.71,21.71,0,0,0,1.08,5.17,14.1,14.1,0,0,0,2.41,4.4,10.4,10.4,0,0,0,3.88,2.94,10.88,10.88,0,0,0,5.48.75,11,11,0,0,0,5.27-1.7,10.33,10.33,0,0,0,3.3-3.57,14.19,14.19,0,0,0,1.6-4.75,22.22,22.22,0,0,0,.17-5.29,23.8,23.8,0,0,0-1.11-5.38,14.62,14.62,0,0,0-2.42-4.52,10.27,10.27,0,0,0-3.88-3,12.46,12.46,0,0,0-10.75.95,10.19,10.19,0,0,0-3.3,3.61,14.61,14.61,0,0,0-1.59,4.87A23.36,23.36,0,0,0,177.63,298.78Z"/><path class="cls-5" d="M217.69,274.3l9.42,0L227,309.25l20.88.06,0,7.92-30.3-.09Z"/><path class="cls-5" d="M267.6,275.7l9.63.82,12.33,44-9.74-.83L277.4,310l-16-1.36-4.16,9.23-9.45-.81Zm-3.12,26.11,11.06.94-4.05-16.12h-.12Z"/><path class="cls-5" d="M300,278.93l22.72,4.18a13.61,13.61,0,0,1,4.94,1.85,12.07,12.07,0,0,1,3.44,3.22,11.26,11.26,0,0,1,1.8,4.14,12.26,12.26,0,0,1,0,4.68,12.86,12.86,0,0,1-2.75,6.14,10,10,0,0,1-5.86,3.2l0,.12a7.18,7.18,0,0,1,2.56,2,8.2,8.2,0,0,1,1.41,2.64,10.83,10.83,0,0,1,.5,3.11,25.4,25.4,0,0,1-.15,3.27c-.08.67-.18,1.47-.31,2.38s-.23,1.85-.3,2.81a17.26,17.26,0,0,0,0,2.78,6.39,6.39,0,0,0,.57,2.33l-9.26-1.7a16.55,16.55,0,0,1-.07-5c.22-1.87.37-3.67.44-5.41a8.52,8.52,0,0,0-1.11-5.2c-.84-1.22-2.42-2-4.74-2.46l-9.27-1.7-3,16.47-9.26-1.71Zm5.77,20.77L316,301.56a7.12,7.12,0,0,0,5-.54c1.24-.75,2.05-2.18,2.44-4.31s.12-3.63-.78-4.75a7.21,7.21,0,0,0-4.52-2.26L308,287.84Z"/></g></g></svg>