<svg xmlns="http://www.w3.org/2000/svg" viewBox="0 0 144.21 42.44"><defs><style>.cls-1{fill:#0c7bbe;}.cls-2{fill:#fff;}</style></defs><title>prestoplus</title><g id="Capa_2" data-name="Capa 2"><g id="MARCAS"><ellipse class="cls-1" cx="46.16" cy="21.22" rx="46.16" ry="21.22"/><path class="cls-2" d="M24.62,12l-2.44,7.36a1.27,1.27,0,0,1-1.21.87H13.24l-2.51,7.57H5.91L12.06,9.22H22.63A2.1,2.1,0,0,1,24.62,12Zm-6.35.67H15.78l-1.56,4.73h3.43l1.27-3.84A.68.68,0,0,0,18.27,12.65Z"/><path class="cls-1" d="M109,19l-2.48,7.59a1.73,1.73,0,0,1-1.65,1.19H98.42l-2.36,7H92l6.15-18.56H107A2.1,2.1,0,0,1,109,19Zm-4.81-.26h-2.57l-2.25,6.78h3.21l2-6.17A.47.47,0,0,0,104.16,18.74Z"/><polygon class="cls-1" points="118.17 10.82 113.81 10.82 108.12 28 112.48 28 118.17 10.82"/><path class="cls-2" d="M35.15,16.26l-1.36,4.1H28L25.5,27.78H21.11l3.81-11.52h4.31l-.36,1.08.52-.52a2,2,0,0,1,1.39-.56Z"/><path class="cls-1" d="M144.21,16.26l-.87,2.61H136l-.64,1.94h5.2a1.55,1.55,0,0,1,1.47,2l-1.64,4.94H128.25l.84-2.54h7.34l.64-1.93H132a1.65,1.65,0,0,1-1.56-2.17l1.29-3.89a1.44,1.44,0,0,1,1.37-1Z"/><path class="cls-2" d="M75,16.3l0,.06-.74,2.14H71.43l-2.31,7h2.81l-.76,2.3H65.42a1,1,0,0,1-1-1.37l.31-.93,2.31-7H64.14l.74-2.14,0-.06h2.92l.74-2.25h4.38l-.75,2.25Z"/><path class="cls-1" d="M130.27,16.24l-3.63,11a.83.83,0,0,1-.8.57h-9a1.5,1.5,0,0,1-1.43-2l3.17-9.57h4.06l-2.82,8.54a.54.54,0,0,0,.52.71h2.22a.56.56,0,0,0,.52-.37L126,16.24Z"/><path class="cls-2" d="M46.51,16.26h-8a1.87,1.87,0,0,0-1.78,1.28l-2.67,8.07a1.65,1.65,0,0,0,1.57,2.17H45.4l.76-2.3H38.42l.72-2.18h7.75l1.48-4.48A2,2,0,0,0,46.51,16.26Zm-3,3.08-.39,1.2H39.94l.55-1.67h2.67A.35.35,0,0,1,43.49,19.34Z"/><path class="cls-2" d="M50.74,17.12,49.25,21.6a1.3,1.3,0,0,0,1.24,1.71H56l-.64,1.93H48l-.84,2.54H59.35l1.64-5a1.54,1.54,0,0,0-1.47-2h-5.2L55,18.87H62.3l.86-2.61H51.93A1.25,1.25,0,0,0,50.74,17.12Z"/><path class="cls-2" d="M86.44,16.26H78.55a2,2,0,0,0-1.93,1.39L74,25.53a1.71,1.71,0,0,0,1.63,2.25h8a2,2,0,0,0,1.93-1.39l2.59-7.82A1.76,1.76,0,0,0,86.44,16.26ZM83.5,19.48l-2,6H79a.49.49,0,0,1-.46-.64l2.11-6.38H82.8A.75.75,0,0,1,83.5,19.48Z"/></g></g></svg>