<svg xmlns="http://www.w3.org/2000/svg" viewBox="0 0 78.28 76.57"><defs><style>.cls-1{fill:#e3171a;}.cls-2{fill:#2d4c9a;}.cls-3{fill:#fff;}</style></defs><title>quimica tf</title><g id="Capa_2" data-name="Capa 2"><g id="MARCAS"><path class="cls-1" d="M74.55,54a8.86,8.86,0,0,1-4.69-3.31c-1-1.28-2.94-1.91-4.43-2.22a26.86,26.86,0,0,0,7.46-18.28C72.89,13.51,56.58,0,36.45,0S0,13.51,0,30.17,16.32,60.33,36.45,60.33A43.19,43.19,0,0,0,47.9,58.8c2.15.05,4.86.27,5.8,1a20.19,20.19,0,0,0,13.26,4C73.45,63.23,77,54.53,77,54.53A14,14,0,0,1,74.55,54Z"/><path class="cls-2" d="M8.1,74.38l.64.43c.15.08.35.18.61.29l-.73,1.47a8.06,8.06,0,0,1-1.09-.63c-.36-.25-.61-.43-.76-.56a5.33,5.33,0,0,1-2.18.38,4.34,4.34,0,0,1-3-1A4.27,4.27,0,0,1,.22,71.4a4.41,4.41,0,0,1,1.15-3.26A4.35,4.35,0,0,1,4.61,67a4.42,4.42,0,0,1,3.26,1.14A4.36,4.36,0,0,1,9,71.36,4.67,4.67,0,0,1,8.1,74.38ZM6.08,73a3.49,3.49,0,0,0,.32-1.68,2.8,2.8,0,0,0-.48-1.84A1.65,1.65,0,0,0,4.6,69a1.61,1.61,0,0,0-1.27.56,2.68,2.68,0,0,0-.49,1.76,3,3,0,0,0,.48,2,1.61,1.61,0,0,0,1.3.57,2.1,2.1,0,0,0,.51-.06,3.3,3.3,0,0,0-1-.6l.42-.94a2.25,2.25,0,0,1,.54.15,6.91,6.91,0,0,1,.75.49Z"/><path class="cls-2" d="M16,67.12h2.62v5.06a4.15,4.15,0,0,1-.24,1.42,3,3,0,0,1-.73,1.17,3.05,3.05,0,0,1-1.05.71,5.32,5.32,0,0,1-1.84.28,13.49,13.49,0,0,1-1.36-.08,3.66,3.66,0,0,1-1.22-.35,3.08,3.08,0,0,1-.9-.73,2.66,2.66,0,0,1-.56-1,4.84,4.84,0,0,1-.25-1.44V67.12h2.62V72.3a1.47,1.47,0,0,0,.39,1.09,1.44,1.44,0,0,0,1.07.39,1.41,1.41,0,0,0,1.06-.39A1.45,1.45,0,0,0,16,72.3Z"/><path class="cls-2" d="M20.43,67.12h2.63v8.5H20.43Zm1.28-2.25h2L21.86,66.6H20.73Z"/><path class="cls-2" d="M24.92,67.12h3.45l1.34,5.17L31,67.12h3.45v8.5H32.33V69.14l-1.66,6.48h-2l-1.65-6.48v6.48H24.92Z"/><path class="cls-2" d="M36.26,67.12h2.63v8.5H36.26Z"/><path class="cls-2" d="M46.43,72.14l2.31.69A4.18,4.18,0,0,1,48,74.45a3.17,3.17,0,0,1-1.23,1,4.66,4.66,0,0,1-1.88.33,5.46,5.46,0,0,1-2.27-.4,3.57,3.57,0,0,1-1.51-1.42,4.74,4.74,0,0,1-.64-2.59,4.38,4.38,0,0,1,1.12-3.24A4.26,4.26,0,0,1,44.76,67a4.34,4.34,0,0,1,2.53.65,3.77,3.77,0,0,1,1.36,2l-2.31.51a2.21,2.21,0,0,0-.26-.57,1.58,1.58,0,0,0-.54-.46,1.51,1.51,0,0,0-.71-.16,1.54,1.54,0,0,0-1.37.72,3,3,0,0,0-.36,1.67,3.17,3.17,0,0,0,.43,1.94,1.48,1.48,0,0,0,1.21.52,1.44,1.44,0,0,0,1.13-.42A2.52,2.52,0,0,0,46.43,72.14Z"/><path class="cls-2" d="M55.24,74.21h-3l-.41,1.41H49.16l3.19-8.5h2.87l3.19,8.5H55.66Zm-.55-1.83-.94-3.06-.93,3.06Z"/><path class="cls-2" d="M62.61,67.12h8v2.1H67.91v6.4H65.29v-6.4H62.61Z"/><path class="cls-2" d="M71.79,67.12h6.49v1.82H74.43v1.49h3.29v1.71H74.43v3.48H71.79Z"/><circle class="cls-2" cx="35.9" cy="29.82" r="24.16"/><path class="cls-3" d="M35.9,54.55A24.73,24.73,0,1,1,60.62,29.82,24.76,24.76,0,0,1,35.9,54.55Zm0-48.32A23.6,23.6,0,1,0,59.49,29.82,23.62,23.62,0,0,0,35.9,6.23Z"/><polygon class="cls-3" points="29.82 24.3 37.83 21.12 34.79 9.66 8.56 19.6 11.18 31.48 19.47 28.44 26.92 57.85 47.77 51.5 48.18 35.9 56.6 34.1 55.91 26.37 49.42 27.89 49.29 23.75 58.54 21.68 58.26 10.22 39.62 14.36 36.59 51.36 29.82 24.3"/><path class="cls-2" d="M76.31,45.83a2.43,2.43,0,0,0-.9-.9,2.48,2.48,0,0,0-1.24-.33,2.41,2.41,0,0,0-1.23.33,2.46,2.46,0,0,0,0,4.28,2.41,2.41,0,0,0,1.23.33,2.48,2.48,0,0,0,1.24-.33,2.43,2.43,0,0,0,.9-.9,2.49,2.49,0,0,0,0-2.48Zm-.73,2.65a2,2,0,1,1,.58-1.41A1.92,1.92,0,0,1,75.58,48.48Z"/><path class="cls-2" d="M72.59,47.9V46.28h.49l.29,1.1.29-1.1h.49V47.9h-.31V46.63l-.32,1.27h-.31l-.32-1.27V47.9Z"/><path class="cls-2" d="M74.47,47.9V46.28h.69a1.09,1.09,0,0,1,.37,0,.4.4,0,0,1,.19.15.46.46,0,0,1,.07.26.44.44,0,0,1-.11.3.53.53,0,0,1-.32.14.94.94,0,0,1,.18.14,2.13,2.13,0,0,1,.18.26l.2.32h-.39l-.23-.35a1.39,1.39,0,0,0-.18-.24.28.28,0,0,0-.09-.07l-.17,0H74.8v.68ZM74.8,47H75a1.48,1.48,0,0,0,.29,0,.22.22,0,0,0,.09-.07.21.21,0,0,0,0-.12.17.17,0,0,0,0-.13.19.19,0,0,0-.12-.07H74.8Z"/></g></g></svg>