<svg xmlns="http://www.w3.org/2000/svg" viewBox="0 0 139.09 64.83"><defs><style>.cls-1{fill:#d02e34;}.cls-2{fill:#0075bd;}.cls-2,.cls-3{fill-rule:evenodd;}.cls-3,.cls-4{fill:#051c2c;}</style></defs><title>race</title><g id="Capa_2" data-name="Capa 2"><g id="MARCAS"><polygon class="cls-1" points="0.34 49.87 0.34 52.47 91.9 52.47 107.16 49.87 139.09 49.87 139.09 48.99 0.34 48.99 0.34 49.87 0.34 49.87"/><polygon class="cls-1" points="0.34 14.96 0.34 12.37 91.9 12.37 107.16 14.96 139.09 14.96 139.09 15.84 0.34 15.84 0.34 14.96 0.34 14.96"/><polygon class="cls-2" points="0 64.83 74.58 64.83 90.56 61.34 90.56 61.34 0 61.34 0 64.83 0 64.83"/><polygon class="cls-3" points="0 56.06 0 58.65 85.78 58.65 101.11 55.17 101.11 55.17 0 55.17 0 56.06 0 56.06"/><polygon class="cls-4" points="109.78 45.24 138.74 45.24 138.74 38.98 120.54 38.98 120.54 35.52 137.44 35.52 137.44 29.26 120.54 29.26 120.54 25.8 138.74 25.8 138.74 19.54 109.78 19.54 109.78 45.24 109.78 45.24"/><path class="cls-3" d="M10.76,26h7.48c1.79,0,3.13.46,3.13,2.41,0,1.62-.88,2.41-3,2.41H10.76V26ZM0,45.24H10.76V37.32h7.63c2,0,2.67,1.15,2.79,3.06.19,3,.19,4.1.57,4.86H33.5a5.56,5.56,0,0,1-1.33-3l-.46-5.61a4.19,4.19,0,0,0-3.09-4,5.8,5.8,0,0,0,4.2-5.94,7,7,0,0,0-3.7-6.23c-1.49-.68-3.36-.93-6.45-.93H0v25.7Z"/><path class="cls-4" d="M94.69,35.23c-.88,3.1-2.9,4.43-6.3,4.43-3.93,0-6.64-2-6.64-7.27s2.79-7.27,7.18-7.27c4.15,0,5.45,2.66,5.76,4.5h12.13c-1.41-10.19-11.41-11-17.89-11S70.3,19.07,70.3,32.39,82.4,46.14,88.93,46.14s10.68-1,13.31-2.92,3.9-4.61,4.58-8Z"/><path class="cls-3" d="M56.84,36H50.35l3.21-8.71L56.84,36ZM35.39,45.24H46.84l1.15-3H59.21l1.14,3H71.8L60.2,19.54H47l-11.6,25.7Z"/><path class="cls-3" d="M133.22,3.88h.6l1,1.67h.73l-1.1-1.72a1,1,0,0,0,1-1.06c0-.8-.48-1.13-1.42-1.13h-1.49V5.55h.65V3.88Zm0-.55V2.19H134c.39,0,.85.06.85.53s-.42.61-.91.61Zm4.15.2a3.47,3.47,0,1,0-6.93,0,3.47,3.47,0,1,0,6.93,0Zm-.75,0a2.72,2.72,0,1,1-5.43,0,2.72,2.72,0,1,1,5.43,0Z"/><polygon class="cls-2" points="0 0 74.58 0 90.56 3.49 90.56 3.49 0 3.49 0 0 0 0"/><polygon class="cls-3" points="0 8.78 0 6.18 85.78 6.18 101.11 9.66 101.11 9.66 0 9.66 0 8.78 0 8.78"/></g></g></svg>