<svg xmlns="http://www.w3.org/2000/svg" viewBox="0 0 157.42 45.56"><defs><style>.cls-1{fill:#232955;}.cls-2{fill:#e95c18;}.cls-3{fill:#fff;}.cls-4{fill:#e75c19;}</style></defs><title>radec</title><g id="Capa_2" data-name="Capa 2"><g id="MARCAS"><path class="cls-1" d="M154.68,6.31a2.74,2.74,0,1,1,2.74-2.74A2.74,2.74,0,0,1,154.68,6.31Zm0-5a2.26,2.26,0,1,0,2.26,2.26A2.27,2.27,0,0,0,154.68,1.31Z"/><path class="cls-1" d="M155.3,4.92l-.55-.79H154v.78h-.5V2.22h1.11a1.44,1.44,0,0,1,.61.12.88.88,0,0,1,.4.33.93.93,0,0,1,.14.51.92.92,0,0,1-.15.53,1,1,0,0,1-.42.33l.62.88Zm-.18-2.13a.75.75,0,0,0-.5-.14H154V3.72h.59a.75.75,0,0,0,.5-.14.49.49,0,0,0,.17-.4A.48.48,0,0,0,155.12,2.79Z"/><path class="cls-1" d="M7,19V30.58H.48V0H15.41c4.28,0,7.28.55,9,1.64a7.55,7.55,0,0,1,2.68,2.9,8.4,8.4,0,0,1,.95,4q0,4.38-2.22,6.73a8.83,8.83,0,0,1-3.63,2.19,9.09,9.09,0,0,1,2.71,1.32,6.35,6.35,0,0,1,1.66,2.11,9.2,9.2,0,0,1,.8,2.09,24.55,24.55,0,0,1,.39,3,20.2,20.2,0,0,0,.74,4.61H21.16a28.18,28.18,0,0,1-.67-4.34,12.38,12.38,0,0,0-1-4.12,5.15,5.15,0,0,0-2.14-2.22A10.83,10.83,0,0,0,12.22,19h-1L8.58,13.51h7.54a5.86,5.86,0,0,0,3.25-.67A4,4,0,0,0,20.83,9.3c0-1.87-.73-3.06-2.2-3.59a8.26,8.26,0,0,0-2.51-.27H7V19Z"/><path class="cls-1" d="M30.33,30.58,43,0h7.5L63.15,30.58H55.51l-3-7.08H40.93l-3,7.08ZM46.75,7.35,42.38,18.06H51.1Z"/><path class="cls-1" d="M66.44,0h13a23.06,23.06,0,0,1,7.52,1,10.19,10.19,0,0,1,6.55,6.55,24.08,24.08,0,0,1,1.25,7.84,25.05,25.05,0,0,1-1.19,7.82,9.71,9.71,0,0,1-4,5.53,10.46,10.46,0,0,1-3.82,1.5,37.77,37.77,0,0,1-6.35.38h-13Zm6.5,5.44v19.7h6.48c2.83,0,4.81-.64,5.91-1.91A8.79,8.79,0,0,0,87,19.91a16.78,16.78,0,0,0,.61-4.61,16,16,0,0,0-.73-5A7.57,7.57,0,0,0,84.91,7q-1.75-1.54-5.49-1.55Z"/><path class="cls-1" d="M122.28,0V5.44h-8.5a18.61,18.61,0,0,0-4.85.46,5,5,0,0,0-2.52,1.78,5.45,5.45,0,0,0-.91,1.82,19.2,19.2,0,0,0-.43,3.14h17.21v5.44H105.07q.33,4,2.31,5.51t6.7,1.55h8.2v5.44h-8.5a38.79,38.79,0,0,1-6.07-.42,10.38,10.38,0,0,1-6.56-3.61q-3.48-4.22-3.47-11.43,0-8,4.9-12.43a9.82,9.82,0,0,1,3.59-2.1A17.94,17.94,0,0,1,111.28,0Z"/><path class="cls-1" d="M150.66,25.14v5.44H140a26,26,0,0,1-4.66-.31,10.54,10.54,0,0,1-8-6.3,20.78,20.78,0,0,1-1.57-8.6,18.84,18.84,0,0,1,2.4-10,10.15,10.15,0,0,1,4.63-4A18.78,18.78,0,0,1,140.31,0h10.35V5.44h-9.61q-4.37,0-6.41,2.33-1.68,1.94-1.68,7c0,4.52.88,7.48,2.62,8.9,1.23,1,3.13,1.48,5.72,1.48Z"/><rect class="cls-2" y="33.58" width="150.21" height="11.98"/><path class="cls-3" d="M5.25,43.16l3.93-6.59h1.56l4,6.59H12.91l-.83-1.44H7.67l-.81,1.44Zm3.11-2.63h3.05l-1.5-2.68Z"/><path class="cls-4" d="M15.08,43.35H12.8L12,41.91H7.79L7,43.35H4.9l4.17-7h1.78ZM13,43h1.35l-3.75-6.19H9.3L5.6,43H6.74l.81-1.44h4.64Zm-1.28-2.23H8l1.89-3.28Zm-3.05-.4h2.37L9.9,38.25Z"/><path class="cls-3" d="M22.74,36.57v5.35h4.61V36.57H29v5a1.69,1.69,0,0,1-.35,1.23,2.09,2.09,0,0,1-1.37.33h-4.4a2.06,2.06,0,0,1-1.36-.33,1.64,1.64,0,0,1-.36-1.23v-5Z"/><path class="cls-4" d="M27.24,43.35h-4.4a2.26,2.26,0,0,1-1.5-.37,1.85,1.85,0,0,1-.42-1.38V36.38h2v5.34h4.21V36.38h2V41.6A1.81,1.81,0,0,1,28.74,43,2.2,2.2,0,0,1,27.24,43.35Zm-5.92-6.58V41.6a1.5,1.5,0,0,0,.29,1.08,1.81,1.81,0,0,0,1.23.28h4.4c.77,0,1.1-.15,1.23-.28a1.46,1.46,0,0,0,.29-1.08V36.77H27.55v5.34h-5V36.77Z"/><path class="cls-3" d="M40.21,37.75v5.41H38.59V37.75H35.4V36.57h8v1.18Z"/><path class="cls-4" d="M40.41,43.35h-2V38H35.2V36.38h8.41V38h-3.2ZM38.79,43H40V37.55h3.2v-.78H35.6v.78h3.19Z"/><path class="cls-3" d="M49.7,38.13a1.64,1.64,0,0,1,.35-1.23,2.07,2.07,0,0,1,1.37-.33h5.12a2.09,2.09,0,0,1,1.37.33,1.69,1.69,0,0,1,.35,1.23V41.6a1.69,1.69,0,0,1-.35,1.23,2.09,2.09,0,0,1-1.37.33H51.42a2.07,2.07,0,0,1-1.37-.33,1.64,1.64,0,0,1-.35-1.23Zm1.61,3.79h5.34V37.75H51.31Z"/><path class="cls-4" d="M56.54,43.35H51.42a2.18,2.18,0,0,1-1.5-.38,1.77,1.77,0,0,1-.42-1.37V38.13a1.77,1.77,0,0,1,.42-1.37,2.18,2.18,0,0,1,1.5-.38h5.12a2.18,2.18,0,0,1,1.5.38,1.81,1.81,0,0,1,.42,1.37V41.6A1.81,1.81,0,0,1,58,43,2.2,2.2,0,0,1,56.54,43.35Zm-5.12-6.58c-.77,0-1.1.15-1.23.28a1.45,1.45,0,0,0-.3,1.08V41.6a1.45,1.45,0,0,0,.3,1.08c.13.13.46.28,1.23.28h5.12c.77,0,1.1-.15,1.23-.28a1.45,1.45,0,0,0,.3-1.08V38.13a1.45,1.45,0,0,0-.3-1.08c-.13-.13-.46-.28-1.23-.28Zm5.43,5.34H51.12V37.55h5.73Zm-5.34-.39h4.94V38H51.51Z"/><path class="cls-3" d="M66.12,43.16V36.57h5.95a1.86,1.86,0,0,1,1.2.31,1.16,1.16,0,0,1,.37,1v1.47a1.18,1.18,0,0,1-.37,1,1.92,1.92,0,0,1-1.2.3H67.71v2.57Zm5.23-5.45H67.71v1.75h3.64a1,1,0,0,0,.58-.12.49.49,0,0,0,.15-.41v-.7a.47.47,0,0,0-.15-.4A1,1,0,0,0,71.35,37.71Z"/><path class="cls-4" d="M67.91,43.35h-2v-7h6.15a2.07,2.07,0,0,1,1.32.34,1.36,1.36,0,0,1,.45,1.13v1.47a1.36,1.36,0,0,1-.45,1.12,2.06,2.06,0,0,1-1.32.35H67.91ZM66.32,43h1.19V40.39h4.56a1.66,1.66,0,0,0,1.07-.26,1,1,0,0,0,.3-.81V37.85a1,1,0,0,0-.3-.82,1.73,1.73,0,0,0-1.07-.26H66.32Zm5-3.31H67.51V37.51h3.84a1.11,1.11,0,0,1,.69.16.65.65,0,0,1,.24.56v.7a.67.67,0,0,1-.24.57A1.12,1.12,0,0,1,71.35,39.65Zm-3.44-.39h3.44c.32,0,.43,0,.46-.08s.07-.16.07-.25v-.7c0-.09,0-.2-.07-.24s-.14-.08-.46-.08H67.91Z"/><path class="cls-3" d="M78.52,43.16l3.93-6.59H84l4,6.59H86.18l-.83-1.44H80.94l-.81,1.44Zm3.11-2.63h3l-1.5-2.68Z"/><path class="cls-4" d="M88.35,43.35H86.07l-.84-1.44H81.05l-.81,1.44H78.17l4.17-7h1.78Zm-2-.39h1.35L83.9,36.77H82.56L78.87,43H80l.81-1.44h4.64ZM85,40.73H81.28l1.9-3.28Zm-3-.4h2.37l-1.17-2.08Z"/><path class="cls-3" d="M94.68,43.16V36.57h5.95a1.86,1.86,0,0,1,1.2.31,1.16,1.16,0,0,1,.37,1v1.54a1.2,1.2,0,0,1-.37,1,1.92,1.92,0,0,1-1.2.3h-.91l3.21,2.49h-2.32l-2.8-2.49H96.27v2.49Zm5.23-5.45H96.27v1.83h3.64a1,1,0,0,0,.58-.11.49.49,0,0,0,.15-.41v-.79a.47.47,0,0,0-.15-.4A1,1,0,0,0,99.91,37.71Z"/><path class="cls-4" d="M103.51,43.35h-3l-2.81-2.48H96.47v2.48h-2v-7h6.15a2.1,2.1,0,0,1,1.33.34,1.39,1.39,0,0,1,.44,1.13v1.54a1.39,1.39,0,0,1-.44,1.13,2.1,2.1,0,0,1-1.33.35h-.33ZM100.69,43h1.66l-3.21-2.49h1.49a1.7,1.7,0,0,0,1.08-.26,1,1,0,0,0,.3-.82V37.85a1,1,0,0,0-.3-.82,1.76,1.76,0,0,0-1.08-.26H94.88V43h1.2V40.47h1.8Zm-.78-3.22H96.08V37.51h3.83a1.13,1.13,0,0,1,.7.16.67.67,0,0,1,.23.56V39a.69.69,0,0,1-.23.57A1.21,1.21,0,0,1,99.91,39.74Zm-3.44-.39h3.44a.85.85,0,0,0,.46-.08.34.34,0,0,0,.08-.25v-.79a.31.31,0,0,0-.08-.24s-.14-.08-.46-.08H96.47Z"/><path class="cls-3" d="M112.94,37.75v5.41h-1.62V37.75h-3.19V36.57h8v1.18Z"/><path class="cls-4" d="M113.13,43.35h-2V38h-3.19V36.38h8.41V38h-3.21ZM111.52,43h1.22V37.55h3.2v-.78h-7.62v.78h3.2Z"/><path class="cls-3" d="M122.57,43.16V36.57h7.12v1.12h-5.5v1.47h3.21v1.12h-3.21v1.64h5.56v1.24Z"/><path class="cls-4" d="M130,43.35h-7.58v-7h7.52v1.51h-5.5V39h3.21v1.51h-3.21v1.24H130ZM122.77,43h6.79v-.85H124v-2h3.21v-.73H124V37.5h5.5v-.73h-6.72Z"/><path class="cls-3" d="M143.22,37.73h-4.56v1.41H143a2.1,2.1,0,0,1,1.38.33,1.64,1.64,0,0,1,.36,1.23v.9a1.66,1.66,0,0,1-.36,1.23,2.1,2.1,0,0,1-1.38.33h-4.3a2.1,2.1,0,0,1-1.38-.33A1.66,1.66,0,0,1,137,41.6v-.18l1.42-.28v.78h4.92v-1.5H139a2.09,2.09,0,0,1-1.37-.33,1.69,1.69,0,0,1-.35-1.23v-.73a1.69,1.69,0,0,1,.35-1.23,2.09,2.09,0,0,1,1.37-.33h3.95a2.15,2.15,0,0,1,1.35.32,1.42,1.42,0,0,1,.37,1.13v.14l-1.42.31Z"/><path class="cls-4" d="M143,43.35h-4.3a2.22,2.22,0,0,1-1.51-.38,1.81,1.81,0,0,1-.42-1.37v-.35l1.82-.35v.82h4.52V40.61H139a2.2,2.2,0,0,1-1.5-.38,1.81,1.81,0,0,1-.42-1.37v-.73a1.81,1.81,0,0,1,.42-1.37,2.2,2.2,0,0,1,1.5-.38h3.95a2.26,2.26,0,0,1,1.48.36,1.62,1.62,0,0,1,.44,1.28v.29l-1.82.41v-.8h-4.16v1H143a2.27,2.27,0,0,1,1.51.38,1.8,1.8,0,0,1,.42,1.38v.9a1.77,1.77,0,0,1-.42,1.37A2.22,2.22,0,0,1,143,43.35Zm-5.84-1.77v0a1.45,1.45,0,0,0,.3,1.08,1.83,1.83,0,0,0,1.24.28H143c.78,0,1.11-.15,1.24-.28a1.45,1.45,0,0,0,.3-1.08v-.9a1.48,1.48,0,0,0-.3-1.09,1.89,1.89,0,0,0-1.24-.27h-4.54V37.53h4.95v.7l1-.23a1.26,1.26,0,0,0-.31-1,1.9,1.9,0,0,0-1.22-.27H139c-.77,0-1.1.15-1.23.28a1.46,1.46,0,0,0-.29,1.08v.73a1.46,1.46,0,0,0,.29,1.08c.13.13.46.28,1.23.28h4.54v1.89H138.2v-.73Z"/></g></g></svg>