<svg xmlns="http://www.w3.org/2000/svg" viewBox="0 0 144.21 77.87"><defs><style>.cls-1,.cls-2{fill:#0082ca;}.cls-1{fill-rule:evenodd;}</style></defs><title>tf victor</title><g id="Capa_2" data-name="Capa 2"><g id="MARCAS"><path class="cls-1" d="M51.55,24.53A18.4,18.4,0,1,1,70,42.93,18.4,18.4,0,0,1,51.55,24.53Zm-6.13,0A24.53,24.53,0,1,1,70,49.06,24.53,24.53,0,0,1,45.42,24.53Z"/><polygon class="cls-1" points="52.98 14.53 60.84 14.53 69.63 29.82 78.31 14.45 86.92 14.45 69.91 44.09 52.98 14.53"/><polygon class="cls-1" points="39.21 58.59 44.66 58.59 48.45 71.99 52.2 58.59 57.48 58.59 51.23 77.22 45.58 77.22 39.21 58.59"/><rect class="cls-2" x="58.87" y="58.59" width="5.78" height="18.63"/><path class="cls-1" d="M79,70.27h5.22a10.59,10.59,0,0,1-1.78,4.6,6.93,6.93,0,0,1-2.71,2.19,9.88,9.88,0,0,1-4.13.74,11.73,11.73,0,0,1-5-.9,7.91,7.91,0,0,1-3.33-3.17,11,11,0,0,1-1.4-5.82c0-3.15.82-5.58,2.46-7.27a9.25,9.25,0,0,1,7-2.54,9.3,9.3,0,0,1,5.54,1.46,9.69,9.69,0,0,1,3.4,5.66l-5.48,0a4.61,4.61,0,0,0-.56-1.26,3.44,3.44,0,0,0-1.18-1,3.6,3.6,0,0,0-4.57,1.25,6.89,6.89,0,0,0-.79,3.75c0,2.1.31,3.55.94,4.33a3.2,3.2,0,0,0,2.64,1.17,3.25,3.25,0,0,0,2.49-.94A3.32,3.32,0,0,0,79,70.27Z"/><polygon class="cls-1" points="84.63 58.59 102.13 58.59 102.13 63.19 96.25 63.19 96.25 77.22 90.51 77.22 90.51 63.19 84.63 63.19 84.63 58.59"/><path class="cls-1" d="M102.06,68.08a9.87,9.87,0,0,1,2.54-7.22,9.51,9.51,0,0,1,7.08-2.58c3.1,0,5.49.84,7.17,2.54a9.64,9.64,0,0,1,2.51,7.11,11.9,11.9,0,0,1-1.09,5.45,7.9,7.9,0,0,1-3.18,3.3,10.34,10.34,0,0,1-5.18,1.19,11.78,11.78,0,0,1-5.22-1,7.88,7.88,0,0,1-3.34-3.24A10.8,10.8,0,0,1,102.06,68.08Zm5.75,0a6.36,6.36,0,0,0,1.06,4.12,3.49,3.49,0,0,0,2.85,1.25,3.53,3.53,0,0,0,2.88-1.23c.68-.81,1-2.28,1-4.4a5.91,5.91,0,0,0-1.07-3.91,3.59,3.59,0,0,0-2.88-1.23,3.49,3.49,0,0,0-2.8,1.25A6.48,6.48,0,0,0,107.81,68.1Z"/><path class="cls-1" d="M122.65,77.05V58.42h9.59a14.07,14.07,0,0,1,4.07.46,4.38,4.38,0,0,1,2.28,1.7,5.75,5.75,0,0,1,.2,5.7,5.26,5.26,0,0,1-1.8,1.89,1.29,1.29,0,0,1-.76.26,4,4,0,0,1,1,.21,3.22,3.22,0,0,1,1.48,1.06,3.17,3.17,0,0,1,.57,2v5.38H133.9V71.37a2.45,2.45,0,0,0-1.21-1.72c-.41-.29-3.23-.15-3.76-.15h-.51v7.55Zm5.77-10.48h2.74a10,10,0,0,0,1.72-.29,1.7,1.7,0,0,0,1.06-.66,1.94,1.94,0,0,0,.4-1.22,1.92,1.92,0,0,0-.64-1.56,3.85,3.85,0,0,0-2.42-.55h-2.86Z"/><polygon class="cls-1" points="0 58.59 17.51 58.59 17.51 63.19 11.63 63.19 11.63 77.22 5.88 77.22 5.88 63.19 0 63.19 0 58.59"/><polygon class="cls-1" points="18.51 58.59 32.74 58.59 32.74 62.6 24.28 62.6 24.28 66.53 31.52 66.53 31.52 70.97 24.28 70.97 24.28 77.22 18.51 77.22 18.51 58.59"/><path class="cls-1" d="M140.29,61.71a2,2,0,1,0,2-2A2,2,0,0,0,140.29,61.71Zm.37,0a1.59,1.59,0,1,1,1.59,1.66A1.6,1.6,0,0,1,140.66,61.71Zm.84,1.14h.37v-1h.32l.64,1h.39l-.65-1a.59.59,0,0,0,.59-.64c0-.43-.26-.64-.78-.64h-.88Zm.37-2h.45c.24,0,.47.08.47.34s-.19.36-.47.36h-.45Z"/></g></g></svg>