<svg xmlns="http://www.w3.org/2000/svg" viewBox="0 0 112.55 63.78"><defs><style>.cls-1{fill:#e3032e;}.cls-1,.cls-3{fill-rule:evenodd;}.cls-2{fill:#12100c;}.cls-3{fill:#e20430;}</style></defs><title>tmk</title><g id="Capa_2" data-name="Capa 2"><g id="MARCAS"><path class="cls-1" d="M.31.13,12.7,0V16.55c0,1.05.81.87,1,.89l9.21,0v7H13.74c-1-.07-1.06.41-1,1.05V40.38c0,.66.47.86,1.06.84H16c.81,0,.79-.51.81-1v-5.1H23V46.94H4.18C1.13,46.75.39,44.85.44,43,.4,28.25.36,14.89.31.13Z"/><path class="cls-1" d="M26.83,47V17.33h41a3.68,3.68,0,0,1,3.93,3.46c0,9,.05,17.13.05,26.15H59.42V25.33c0-.37-.21-.72-.88-.79H56.22a.82.82,0,0,0-.74.84c0,7.23,0,14.3,0,21.53H43.12V25.45a.9.9,0,0,0-1-.91H40.07a.81.81,0,0,0-.86.95V46.94Z"/><path class="cls-1" d="M75.29,0H87.44V24.68c.12.92.6,1,1,1h2.22c.75-.06.92-.38,1-.84h0V17.36h12.29V24l-.54,1.5L98,29c0,.27,0,.54,0,.81,1.91,1.27,3,1.86,4.94,3.14.57.43.83.61.8,1.89,0,4.09,0,8,0,12.13H91.59V33.89c0-.4,0-.88-1.09-.9H88.3c-.51.07-.7.46-.67,1V47H75.3Q75.3,23.49,75.29,0Z"/><path class="cls-2" d="M.09,50.4H3c2.31,0,3.1,1.3,3.1,2.42a2.25,2.25,0,0,1-1.85,2.33v0a2.37,2.37,0,0,1,2.09,2.44c0,1.78-1.34,2.77-3.4,2.77H0Zm1.23,9H2.85C4.19,59.43,5,58.87,5,57.5c0-1.21-.91-1.85-2.42-1.85H1.38Zm.06-4.73h1C4.09,54.7,4.79,54,4.79,53s-.67-1.71-2.33-1.71h-1Z"/><path class="cls-2" d="M9.07,56.63v.25c0,1.5.59,2.84,2.14,2.84a3.3,3.3,0,0,0,2.15-1l.59.62a4.24,4.24,0,0,1-2.88,1.28c-2.09,0-3.3-1.44-3.3-3.79A3.62,3.62,0,0,1,11.22,53c2,0,2.91,1.47,2.91,3.4v.23Zm3.85-.78c0-1-.45-2-1.68-2a2.26,2.26,0,0,0-2.06,2Z"/><path class="cls-2" d="M22.34,60.06a2.31,2.31,0,0,1-1.41.52,1.19,1.19,0,0,1-1.12-1.19,3,3,0,0,1-2.28,1.19,2,2,0,0,1-2.18-2.07c0-2,2.76-2.51,4.41-2.57,0-.3,0-.61,0-.91A1,1,0,0,0,18.64,54c-.59,0-1.08.2-2.18,1L16,54.19c1.52-.93,2-1.19,3.1-1.19a1.68,1.68,0,0,1,1.89,1.81c0,1.36-.12,2.61-.12,3.88,0,.52.08,1,.55,1a1.13,1.13,0,0,0,.64-.25Zm-2.58-3.43c-2.11.26-3.2.64-3.2,1.86,0,.81.52,1.23,1.35,1.23a2.48,2.48,0,0,0,1.79-1.06Z"/><path class="cls-2" d="M23.54,53.2h1.24v1.4l0,0A2.46,2.46,0,0,1,26.89,53a2,2,0,0,1,.65.1l-.36,1.09a2.93,2.93,0,0,0-.47-.07c-.5,0-1.31.39-2,1.55l-.06,4.71H23.48Z"/><path class="cls-2" d="M28.41,50.4h1.3v1.3h-1.3Zm.06,2.8h1.21l-.06,7.18H28.41Z"/><path class="cls-2" d="M32,53.2h1.22l-.05,1.15h0A3.34,3.34,0,0,1,35.72,53c1.74,0,2.3.85,2.3,2.17,0,.55,0,1.1,0,1.65l0,3.56H36.76l0-3.23c0-.63,0-1.27,0-2S36.26,54,35.43,54a3,3,0,0,0-2.26,1.32l-.06,5H31.89Z"/><path class="cls-2" d="M47.42,54.11l-1.79,0a2,2,0,0,1,.55,1.39,2.48,2.48,0,0,1-2.64,2.39,3.12,3.12,0,0,1-1.32-.27c-.7.49-.83.66-.83.84s.24.46,2.39.76c2,.27,3.25.73,3.25,2,0,1.76-2.2,2.59-3.76,2.59-1.35,0-3.49-.36-3.49-2,0-1,1.23-1.59,2-2v0c-1.33-.12-1.82-.49-1.82-.93s.46-.8,1.76-1.51a2.18,2.18,0,0,1-1-2A2.51,2.51,0,0,1,43.5,53a2.79,2.79,0,0,1,1.41.33l2.51,0Zm-4.21,9c.94,0,2.51-.47,2.51-1.66,0-.82-.63-1.08-3.07-1.5-1.32.68-1.66,1.14-1.66,1.81C41,62.8,42.33,63.09,43.21,63.09Zm.26-9.31A1.54,1.54,0,0,0,42,55.48a1.49,1.49,0,1,0,3,0C45,54.47,44.54,53.78,43.47,53.78Z"/><path class="cls-2" d="M48.62,59.11a3.17,3.17,0,0,0,1.67.61c.67,0,1.47-.35,1.47-1.16,0-1.78-3.5-1-3.5-3.41A2.28,2.28,0,0,1,50.81,53a4.15,4.15,0,0,1,2.19.6l-.56.74A3.16,3.16,0,0,0,51,53.86c-.88,0-1.53.35-1.53,1.2,0,1.54,3.5.91,3.5,3.35a2.32,2.32,0,0,1-2.5,2.17,4.57,4.57,0,0,1-2.36-.7Z"/><path class="cls-2" d="M66,59.13a4.25,4.25,0,0,1-3.39,1.45c-2.51,0-3.7-1.64-3.7-2.94s.79-2.36,2.38-3.32a3,3,0,0,1-.94-2,2.06,2.06,0,0,1,2.17-1.93c1.06,0,2.07.54,2.07,1.75,0,1-.9,1.7-1.72,2.25l2.93,3a6.18,6.18,0,0,0,.3-1.94v-.62h1.09a6.7,6.7,0,0,1-.6,3.34l1.79,1.66-1,.72Zm-4.08-4.19a3.37,3.37,0,0,0-1.61,2.61,2.2,2.2,0,0,0,2.43,2.08,3.41,3.41,0,0,0,2.54-1.17Zm.39-1.19c.88-.67,1.27-1,1.27-1.52a.94.94,0,0,0-1.07-1,1,1,0,0,0-1.06,1A2.53,2.53,0,0,0,62.27,53.75Z"/><path class="cls-2" d="M74.25,50.4h1.32l0,4.43h5.65l.06-4.43h1.32l-.09,10H81.15l0-4.51H75.54l-.06,4.51H74.16Z"/><path class="cls-2" d="M85.05,53.2h1.21l0,3.23c0,.63,0,1.27,0,2s.54,1.13,1.38,1.13a3.05,3.05,0,0,0,2.26-1.32l.06-5h1.21l-.06,7.18H89.86l0-1.15h0a3.33,3.33,0,0,1-2.56,1.35c-1.74,0-2.31-.85-2.31-2.17,0-.55,0-1.1,0-1.65Z"/><path class="cls-2" d="M93.5,49.57h1.21l0,4.6h0A2.84,2.84,0,0,1,97.06,53c1.29,0,3,.92,3,3.75,0,1.93-1.36,3.83-3.3,3.83a2.75,2.75,0,0,1-2.16-.93h0l0,.73H93.41Zm1.13,8.91a2.28,2.28,0,0,0,1.9,1.15c1.34,0,2.26-1.41,2.26-2.84,0-1.95-1-2.84-2-2.84a2.63,2.63,0,0,0-2.12,1.33Z"/><path class="cls-2" d="M101.72,59.11a3.11,3.11,0,0,0,1.67.61c.66,0,1.47-.35,1.47-1.16,0-1.78-3.51-1-3.51-3.41A2.28,2.28,0,0,1,103.9,53a4.16,4.16,0,0,1,2.2.6l-.56.74a3.16,3.16,0,0,0-1.44-.48c-.88,0-1.53.35-1.53,1.2,0,1.54,3.5.91,3.5,3.35a2.32,2.32,0,0,1-2.5,2.17,4.61,4.61,0,0,1-2.37-.7Z"/><path class="cls-1" d="M109.34,15.37c-1.07,0-.89.19-.89-.89,0-.26.75-.21,1-.17.38.06.66.12.66.54s-.32.52-.73.52Zm-1.62-1.62v3.76h.73V16.1c0-.18.1-.15.32-.15.47,0,.64.36.85.65a8.5,8.5,0,0,1,.61.91h.89a7.17,7.17,0,0,0-1-1.46c-.11-.1-.12,0-.16-.21a2.06,2.06,0,0,0,.6-.28c.37-.33.5-1.45-.29-1.7A7.26,7.26,0,0,0,107.72,13.75Z"/><path class="cls-3" d="M105.73,15.84a3.37,3.37,0,0,1,2-3.14,3.26,3.26,0,0,1,3.66.64,3.19,3.19,0,0,1,.71.91,3.32,3.32,0,0,1-.56,3.77,3.48,3.48,0,0,1-.87.7,3.34,3.34,0,0,1-4-.64,3.18,3.18,0,0,1-1-2.24Zm-.1-.36a3.4,3.4,0,0,0,.67,2.36,3.48,3.48,0,0,0,5.85-.45,3.53,3.53,0,0,0-.68-4.15,3.48,3.48,0,0,0-5.48.93A2.93,2.93,0,0,0,105.63,15.48Z"/></g></g></svg>