<svg xmlns="http://www.w3.org/2000/svg" viewBox="0 0 159.95 28.8"><defs><style>.cls-1{fill:#4d4c4d;}.cls-2{fill:#e01422;}</style></defs><title>tunix</title><g id="Capa_2" data-name="Capa 2"><g id="MARCAS"><polygon class="cls-1" points="28.81 0.05 2.04 0.05 0 7.09 7.66 7.09 3.2 28.8 10.26 28.8 14.77 7.09 20.2 7.09 28.81 0.05"/><polygon class="cls-1" points="78.52 0.05 72.62 28.8 79.59 28.8 85.61 0.05 78.52 0.05"/><polygon class="cls-1" points="87.16 0.05 98.59 28.8 105.75 28.8 94.29 0.05 87.16 0.05"/><polygon class="cls-1" points="111.35 0.05 89.43 28.8 81.3 28.8 103.25 0.05 111.35 0.05"/><polygon class="cls-2" points="109.56 28.8 103.94 14.87 115.14 0.05 116.99 0.05 105.72 14.86 111.35 28.8 109.56 28.8"/><polygon class="cls-1" points="112.34 28.8 106.72 14.87 117.92 0.05 119.77 0.05 108.5 14.86 114.13 28.8 112.34 28.8"/><polygon class="cls-2" points="115.13 28.8 109.5 14.87 120.7 0.05 125.09 0.05 113.82 14.86 119.46 28.8 115.13 28.8"/><polygon class="cls-2" points="154.32 0.05 159.95 13.98 148.75 28.8 146.9 28.8 158.17 13.99 152.53 0.05 154.32 0.05"/><polygon class="cls-1" points="151.55 0.05 157.17 13.98 145.97 28.8 144.12 28.8 155.39 13.99 149.76 0.05 151.55 0.05"/><polygon class="cls-2" points="148.76 0.05 154.38 13.98 143.18 28.8 138.79 28.8 150.06 13.99 144.43 0.05 148.76 0.05"/><path class="cls-1" d="M41.42.05h7.19s-2,10-3.1,15.31a17.71,17.71,0,0,1-8.9,11.52,14.62,14.62,0,0,1-12.68.76,10.18,10.18,0,0,1-5.33-6.49s-1.05-4.28,1-10.84l8.65-7.1s-2.56,10.47-2.74,13.2a4.92,4.92,0,0,0,5.06,5.23s6.08.1,7.77-6.73C38.38,14.91,39.51,10.05,41.42.05Z"/><path class="cls-1" d="M50.16.05,44.41,28.8h7.06L56.05,6.11h7.64a4.19,4.19,0,0,1,4.1,5.09L63.94,28.8h7l3.56-17.1A9.67,9.67,0,0,0,65,.05Z"/><polygon class="cls-1" points="121.59 8.22 120.54 11.1 123.64 11.1 120.13 20.65 123.24 20.65 126.83 11.1 129.95 11.1 131.01 8.22 121.59 8.22"/><polygon class="cls-2" points="131.75 8.22 130.58 11.61 127.36 11.61 125.22 17.21 128.6 17.21 127.62 20.65 134.29 13.88 131.75 8.22"/><polygon class="cls-1" points="145 8.22 140.52 8.22 137.63 11.21 136.37 8.22 132.43 8.22 134.93 13.98 128.46 20.65 132.78 20.65 136.28 17.09 137.83 20.65 141.6 20.65 138.96 14.37 145 8.22"/><path class="cls-1" d="M158.66,2.52a1.26,1.26,0,1,1,0-2.52,1.26,1.26,0,0,1,0,2.52Zm0-2.3a1,1,0,1,0,1,1A1,1,0,0,0,158.66.22Z"/><path class="cls-1" d="M158.94,1.88l-.25-.36h-.33v.36h-.23V.64h.51a.78.78,0,0,1,.28,0,.45.45,0,0,1,.18.15.4.4,0,0,1,.07.24.4.4,0,0,1-.07.24.38.38,0,0,1-.2.15l.29.41Zm-.08-1a.37.37,0,0,0-.23-.07h-.27v.5h.27a.32.32,0,0,0,.23-.07.22.22,0,0,0,.08-.18A.22.22,0,0,0,158.86.9Z"/></g></g></svg>