<svg xmlns="http://www.w3.org/2000/svg" viewBox="0 0 132.47 57.39"><defs><style>.cls-1{fill:#4d6b7d;}.cls-1,.cls-2{fill-rule:evenodd;}.cls-2{fill:#95d238;}</style></defs><title>valeo</title><g id="Capa_2" data-name="Capa 2"><g id="MARCAS"><path class="cls-1" d="M129,42.16c-11.06-.82-24.82-1.5-39.87-1.5-23,0-49,1.57-72.74,6.48A38.72,38.72,0,0,0,.11,35.07L0,35.28c6.56,7.13,10.75,13.29,13.72,22.11C47,45,88.7,42.7,120.21,42.7c3,0,5.89,0,8.67.07l.07-.61Z"/><path class="cls-2" d="M33.71,0a154.72,154.72,0,0,1-9.5,25.83h-.07A190.23,190.23,0,0,1,22.53,0H11a167.3,167.3,0,0,0,5.44,36.68H27.55A233,233,0,0,0,44.24,0Zm98.76,18.77c0-7.1-4.59-10-12.29-10-9.31,0-15,4.26-15,18.73,0,7.1,4.6,10,12.3,10,9.3,0,15-4.16,15-18.74ZM55.35,9c-7,0-10.71,1.32-13.76,4.58-2.9,3.08-4.44,8.53-4.44,14.29,0,5,1.25,9.17,7.45,9.17a15,15,0,0,0,7.59-2.4h.11l-.25,2h9.42L64.84,9.21c-2.76-.11-6-.18-9.49-.18ZM94.5,30.3a27.22,27.22,0,0,0,6.81-1.07l-1.22,6.66a40.58,40.58,0,0,1-9.21,1C80.82,36.9,78,32.52,78,26.79c0-14.65,6.3-18,15-18,6.81,0,11,3.29,11,9.6a30.87,30.87,0,0,1-1,7h-15c0,3.15,1,4.94,6.41,4.94ZM74.25,36.68h-10L68.81,0h10L74.25,36.68ZM121.83,23.5c-.75,6.94-1.8,8.38-3.79,8.38-1.83,0-2.55-1.33-2.55-4.23a43.84,43.84,0,0,1,.36-4.83c.75-7,1.79-8.39,3.79-8.39,1.83,0,2.55,1.33,2.55,4.23a46.82,46.82,0,0,1-.36,4.84ZM52.41,29.37a4.75,4.75,0,0,1-2.69,1c-2,0-2.33-1.73-2.33-3.76a29.23,29.23,0,0,1,1.36-8.35c1.08-2.58,2.55-3.3,4.91-3.3a3,3,0,0,1,.5,0L52.41,29.37Zm42-9.74a11.53,11.53,0,0,0,.32-2.58,2.43,2.43,0,0,0-2.51-2.72c-2.12,0-3.22,1.25-3.72,5.3Z"/></g></g></svg>