<svg xmlns="http://www.w3.org/2000/svg" viewBox="0 0 68.21 68.21"><defs><style>.cls-1{fill:#e78019;}.cls-2{fill:#fff;}</style></defs><title>zen</title><g id="Capa_2" data-name="Capa 2"><g id="MARCAS"><circle cx="34.11" cy="34.11" r="34.11"/><path class="cls-1" d="M17.45,12.5s4.18-1.95,6-2.88a7.62,7.62,0,0,0,2.78-2c.41-.46.77-1,3.24-.83a52.28,52.28,0,0,1,7.73,1c2.62.56,3.34.78,3.65,1.86a3.44,3.44,0,0,0,1.34,2.31c.88.62,4.74,3.61,5.77,4.2s1.95,1.26,3.34.74l1.39-.51s1.8-.51,2.47.69S58.8,24.4,58.8,24.4l.77,16.7s-2.27-.23-3.19.88-4.89,7.18-4.89,7.18-.83,1.44-.36,2.32,1,3,.15,3.5-6.18,3.19-6.18,3.19a9.38,9.38,0,0,0-2.73,1.65c-.61.77-1.28,1.64-2.16,1.64a66.17,66.17,0,0,1-9.06-.77l-2.78-.56a2.31,2.31,0,0,1-1.49-1.5A3.65,3.65,0,0,0,25.08,56C23.69,55,19,51.79,19,51.79a2.48,2.48,0,0,0-2.27-.42,8.57,8.57,0,0,1-1.54.52s-1.39.94-2.57-1.1-3.76-7.5-3.76-7.5L7.68,41.64s-.93.88-1-1.8.15-8.37,1.44-10.36,5.13-5.86,6.61-8,1.68-2.55,1.68-2.55.82-.57.25-2.11-1-2.42-.41-3.25A3,3,0,0,1,17.45,12.5Z"/><polygon class="cls-2" points="6.98 24.19 6.98 29.75 14.15 29.75 5.18 44.02 24.36 44.02 24.36 38.31 16.49 38.31 25.31 24.19 6.98 24.19"/><polygon class="cls-2" points="26.7 24.19 26.7 44.02 40.12 44.02 40.12 38.98 33.72 38.98 33.72 36.32 39.39 36.32 39.39 31.78 33.64 31.78 33.64 29.31 40.12 29.31 40.12 24.19 26.7 24.19"/><polygon class="cls-2" points="43.61 23.98 43.61 43.81 49.56 43.81 49.56 35.33 62.76 44.23 62.76 23.98 56.7 23.98 56.7 32.57 43.61 23.98"/></g></g></svg>