<svg xmlns="http://www.w3.org/2000/svg" viewBox="0 0 68.21 68.21"><defs><style>.cls-1{fill:#1c2747;}</style></defs><title>zm</title><g id="Capa_2" data-name="Capa 2"><g id="MARCAS"><path class="cls-1" d="M34.11,68.21a34.11,34.11,0,1,1,34.1-34.1A34.14,34.14,0,0,1,34.11,68.21Zm0-62.67A28.57,28.57,0,1,0,62.67,34.11,28.59,28.59,0,0,0,34.11,5.54Z"/><polygon class="cls-1" points="26.97 25.21 12.81 25.21 8.81 30.98 15.89 30.98 7.97 42.6 22.12 42.6 26.05 36.99 18.89 36.99 26.97 25.21"/><polygon class="cls-1" points="49.18 10.96 39.59 25.21 43.98 25.21 43.98 34.1 49.98 25.21 57.98 25.21 57.98 42.6 52.21 42.6 52.05 32.52 45.13 42.6 37.82 42.6 37.82 32.52 30.66 42.6 36.05 42.6 17.74 56.3 26.97 42.6 23.43 42.6 35.9 25.21 30.28 25.21 49.18 10.96"/></g></g></svg>